%TF.GenerationSoftware,KiCad,Pcbnew,8.0.6*%
%TF.CreationDate,2024-12-20T16:03:41+01:00*%
%TF.ProjectId,elrs_tx_full,656c7273-5f74-4785-9f66-756c6c2e6b69,rev?*%
%TF.SameCoordinates,Original*%
%TF.FileFunction,Copper,L2,Bot*%
%TF.FilePolarity,Positive*%
%FSLAX46Y46*%
G04 Gerber Fmt 4.6, Leading zero omitted, Abs format (unit mm)*
G04 Created by KiCad (PCBNEW 8.0.6) date 2024-12-20 16:03:41*
%MOMM*%
%LPD*%
G01*
G04 APERTURE LIST*
%TA.AperFunction,ComponentPad*%
%ADD10R,1.700000X1.700000*%
%TD*%
%TA.AperFunction,ComponentPad*%
%ADD11O,1.700000X1.700000*%
%TD*%
%TA.AperFunction,HeatsinkPad*%
%ADD12C,0.600000*%
%TD*%
%TA.AperFunction,ViaPad*%
%ADD13C,0.800000*%
%TD*%
%TA.AperFunction,ViaPad*%
%ADD14C,1.200000*%
%TD*%
%TA.AperFunction,Conductor*%
%ADD15C,0.250000*%
%TD*%
%TA.AperFunction,Conductor*%
%ADD16C,0.750000*%
%TD*%
G04 APERTURE END LIST*
D10*
%TO.P,J2,1,Pin_1*%
%TO.N,GND*%
X89662000Y-81534000D03*
D11*
%TO.P,J2,2,Pin_2*%
%TO.N,+3.3V*%
X89662000Y-84074000D03*
%TO.P,J2,3,Pin_3*%
%TO.N,/ESP32_TX*%
X89662000Y-86614000D03*
%TO.P,J2,4,Pin_4*%
%TO.N,/ESP32_RX*%
X89662000Y-89154000D03*
%TO.P,J2,5,Pin_5*%
%TO.N,/ESP32_BOOT0*%
X89662000Y-91694000D03*
%TD*%
D10*
%TO.P,J3,1,Pin_1*%
%TO.N,GND*%
X116078000Y-82500000D03*
D11*
%TO.P,J3,2,Pin_2*%
%TO.N,+BATT*%
X116078000Y-85040000D03*
%TO.P,J3,3,Pin_3*%
%TO.N,/CRSF_RX_TX*%
X116078000Y-87580000D03*
%TD*%
D12*
%TO.P,U2,39,GND*%
%TO.N,GND*%
X99850000Y-95010000D03*
X99850000Y-96410000D03*
X100550000Y-94310000D03*
X100550000Y-95710000D03*
X100550000Y-97110000D03*
X101225000Y-95010000D03*
X101225000Y-96410000D03*
X101950000Y-94310000D03*
X101950000Y-95710000D03*
X101950000Y-97110000D03*
X102650000Y-95010000D03*
X102650000Y-96410000D03*
%TD*%
D10*
%TO.P,J4,1,Pin_1*%
%TO.N,+3.3V*%
X105000000Y-49500000D03*
D11*
%TO.P,J4,2,Pin_2*%
%TO.N,GND*%
X102460000Y-49500000D03*
%TO.P,J4,3,Pin_3*%
%TO.N,+BATT*%
X99920000Y-49500000D03*
%TO.P,J4,4,Pin_4*%
%TO.N,Net-(J4-Pin_4)*%
X97380000Y-49500000D03*
%TD*%
D13*
%TO.N,/ESP32_BOOT0*%
X113030000Y-104500000D03*
%TO.N,/ESP32_RX*%
X109500000Y-93000000D03*
%TO.N,/ESP32_TX*%
X108000000Y-92000000D03*
%TO.N,+3.3V*%
X91694000Y-101346000D03*
D14*
%TO.N,+BATT*%
X105410000Y-71882000D03*
X90678000Y-60452000D03*
D13*
%TO.N,/CRSF_RX_TX*%
X116078000Y-103000000D03*
X105500000Y-103000000D03*
%TO.N,/E28_MISO_RX*%
X109500000Y-96880000D03*
X113500000Y-69812000D03*
%TO.N,/E28_NSS_CTS*%
X109500000Y-99420000D03*
X97790000Y-99500000D03*
%TO.N,/E28_MISO_TX*%
X110490000Y-64516000D03*
X109000000Y-89000000D03*
%TO.N,/E28_NRESET*%
X97028000Y-81788000D03*
X106680000Y-78994000D03*
%TO.N,/E28_TX_EN*%
X95500000Y-81788000D03*
X104140000Y-78994000D03*
%TO.N,/E28_BUSY*%
X104648000Y-94340000D03*
X109000000Y-94340000D03*
%TO.N,/E28_SCK_RTS*%
X98552000Y-98298000D03*
X109500000Y-98150000D03*
%TO.N,/E28_DIO1*%
X109220000Y-78994000D03*
X106680000Y-88900000D03*
%TD*%
D15*
%TO.N,/ESP32_BOOT0*%
X90170000Y-103886000D02*
X90170000Y-92202000D01*
X113030000Y-106172000D02*
X112014000Y-107188000D01*
X90170000Y-92202000D02*
X89662000Y-91694000D01*
X112014000Y-107188000D02*
X93472000Y-107188000D01*
X113030000Y-104500000D02*
X113030000Y-106172000D01*
X93472000Y-107188000D02*
X90170000Y-103886000D01*
%TO.N,/ESP32_RX*%
X92782000Y-93000000D02*
X92202000Y-92420000D01*
X92202000Y-89916000D02*
X91440000Y-89154000D01*
X109500000Y-93000000D02*
X92782000Y-93000000D01*
X91440000Y-89154000D02*
X89662000Y-89154000D01*
X92202000Y-92420000D02*
X92202000Y-89916000D01*
%TO.N,/ESP32_TX*%
X93218000Y-91186000D02*
X93218000Y-87630000D01*
X92202000Y-86614000D02*
X89662000Y-86614000D01*
X94032000Y-92000000D02*
X93218000Y-91186000D01*
X108000000Y-92000000D02*
X94032000Y-92000000D01*
X93218000Y-87630000D02*
X92202000Y-86614000D01*
D16*
%TO.N,+BATT*%
X102108000Y-71882000D02*
X90678000Y-60452000D01*
X105410000Y-71882000D02*
X102108000Y-71882000D01*
D15*
%TO.N,/CRSF_RX_TX*%
X105500000Y-103000000D02*
X116078000Y-103000000D01*
%TO.N,/E28_MISO_RX*%
X112000000Y-95500000D02*
X110000000Y-95500000D01*
X109500000Y-96000000D02*
X109500000Y-96880000D01*
X113500000Y-94000000D02*
X112000000Y-95500000D01*
X113500000Y-69812000D02*
X113500000Y-94000000D01*
X110000000Y-95500000D02*
X109500000Y-96000000D01*
%TO.N,/E28_NSS_CTS*%
X97790000Y-99500000D02*
X97870000Y-99420000D01*
X97870000Y-99420000D02*
X109500000Y-99420000D01*
%TO.N,/E28_MISO_TX*%
X109000000Y-84500000D02*
X112371000Y-81129000D01*
X112498000Y-81002000D02*
X112498000Y-71858000D01*
X110490000Y-69850000D02*
X110490000Y-64516000D01*
X109000000Y-86000000D02*
X109000000Y-84500000D01*
X109000000Y-89000000D02*
X109000000Y-86000000D01*
X112371000Y-81129000D02*
X112500000Y-81000000D01*
X112498000Y-71858000D02*
X110490000Y-69850000D01*
X112371000Y-81129000D02*
X112498000Y-81002000D01*
%TO.N,/E28_NRESET*%
X97028000Y-81026000D02*
X97536000Y-80518000D01*
X105918000Y-80518000D02*
X106680000Y-79756000D01*
X97536000Y-80518000D02*
X105918000Y-80518000D01*
X97028000Y-81788000D02*
X97028000Y-81026000D01*
X106680000Y-79756000D02*
X106680000Y-78994000D01*
%TO.N,/E28_TX_EN*%
X95500000Y-80268000D02*
X95500000Y-81788000D01*
X95504000Y-80264000D02*
X95500000Y-80268000D01*
X104140000Y-78994000D02*
X96520000Y-78994000D01*
X96520000Y-78994000D02*
X95504000Y-80010000D01*
X95504000Y-80010000D02*
X95504000Y-80264000D01*
%TO.N,/E28_BUSY*%
X104648000Y-94340000D02*
X109000000Y-94340000D01*
%TO.N,/E28_SCK_RTS*%
X98700000Y-98150000D02*
X109500000Y-98150000D01*
X98552000Y-98298000D02*
X98700000Y-98150000D01*
%TO.N,/E28_DIO1*%
X106680000Y-88900000D02*
X106680000Y-84328000D01*
X109220000Y-81788000D02*
X109220000Y-78994000D01*
X106680000Y-84328000D02*
X109220000Y-81788000D01*
%TD*%
%TA.AperFunction,Conductor*%
%TO.N,+3.3V*%
G36*
X123902539Y-41922185D02*
G01*
X123948294Y-41974989D01*
X123959500Y-42026500D01*
X123959500Y-109611500D01*
X123939815Y-109678539D01*
X123887011Y-109724294D01*
X123835500Y-109735500D01*
X86222500Y-109735500D01*
X86155461Y-109715815D01*
X86109706Y-109663011D01*
X86098500Y-109611500D01*
X86098500Y-86613999D01*
X88306341Y-86613999D01*
X88306341Y-86614000D01*
X88326936Y-86849403D01*
X88326938Y-86849413D01*
X88388094Y-87077655D01*
X88388096Y-87077659D01*
X88388097Y-87077663D01*
X88419097Y-87144142D01*
X88487965Y-87291830D01*
X88487967Y-87291834D01*
X88573654Y-87414207D01*
X88623501Y-87485396D01*
X88623506Y-87485402D01*
X88790597Y-87652493D01*
X88790603Y-87652498D01*
X88976158Y-87782425D01*
X89019783Y-87837002D01*
X89026977Y-87906500D01*
X88995454Y-87968855D01*
X88976158Y-87985575D01*
X88790597Y-88115505D01*
X88623505Y-88282597D01*
X88487965Y-88476169D01*
X88487964Y-88476171D01*
X88388098Y-88690335D01*
X88388094Y-88690344D01*
X88326938Y-88918586D01*
X88326936Y-88918596D01*
X88306341Y-89153999D01*
X88306341Y-89154000D01*
X88326936Y-89389403D01*
X88326938Y-89389413D01*
X88388094Y-89617655D01*
X88388096Y-89617659D01*
X88388097Y-89617663D01*
X88465732Y-89784151D01*
X88487965Y-89831830D01*
X88487967Y-89831834D01*
X88536048Y-89900500D01*
X88623501Y-90025396D01*
X88623506Y-90025402D01*
X88790597Y-90192493D01*
X88790603Y-90192498D01*
X88976158Y-90322425D01*
X89019783Y-90377002D01*
X89026977Y-90446500D01*
X88995454Y-90508855D01*
X88976158Y-90525575D01*
X88790597Y-90655505D01*
X88623505Y-90822597D01*
X88487965Y-91016169D01*
X88487964Y-91016171D01*
X88388098Y-91230335D01*
X88388094Y-91230344D01*
X88326938Y-91458586D01*
X88326936Y-91458596D01*
X88306341Y-91693999D01*
X88306341Y-91694000D01*
X88326936Y-91929403D01*
X88326938Y-91929413D01*
X88388094Y-92157655D01*
X88388096Y-92157659D01*
X88388097Y-92157663D01*
X88415230Y-92215849D01*
X88487965Y-92371830D01*
X88487967Y-92371834D01*
X88555153Y-92467785D01*
X88623505Y-92565401D01*
X88790599Y-92732495D01*
X88824612Y-92756311D01*
X88984165Y-92868032D01*
X88984167Y-92868033D01*
X88984170Y-92868035D01*
X89198337Y-92967903D01*
X89426592Y-93029063D01*
X89431303Y-93029475D01*
X89496373Y-93054925D01*
X89537353Y-93111514D01*
X89544500Y-93153003D01*
X89544500Y-103947611D01*
X89568535Y-104068444D01*
X89568540Y-104068461D01*
X89615685Y-104182280D01*
X89615690Y-104182289D01*
X89649914Y-104233507D01*
X89649915Y-104233509D01*
X89684141Y-104284733D01*
X89775586Y-104376178D01*
X89775608Y-104376198D01*
X92983016Y-107583606D01*
X92983045Y-107583637D01*
X93073263Y-107673855D01*
X93073267Y-107673858D01*
X93175707Y-107742307D01*
X93175711Y-107742309D01*
X93175714Y-107742311D01*
X93289548Y-107789463D01*
X93349971Y-107801481D01*
X93410393Y-107813500D01*
X112075607Y-107813500D01*
X112136029Y-107801481D01*
X112196452Y-107789463D01*
X112196455Y-107789461D01*
X112196458Y-107789461D01*
X112229787Y-107775654D01*
X112229786Y-107775654D01*
X112229792Y-107775652D01*
X112310286Y-107742312D01*
X112361509Y-107708084D01*
X112412733Y-107673858D01*
X112499858Y-107586733D01*
X112499859Y-107586731D01*
X112506925Y-107579665D01*
X112506928Y-107579661D01*
X113428729Y-106657860D01*
X113428733Y-106657858D01*
X113515858Y-106570733D01*
X113550084Y-106519509D01*
X113584312Y-106468286D01*
X113631463Y-106354451D01*
X113655500Y-106233607D01*
X113655500Y-106110393D01*
X113655500Y-105198687D01*
X113675185Y-105131648D01*
X113687350Y-105115715D01*
X113705891Y-105095122D01*
X113762533Y-105032216D01*
X113857179Y-104868284D01*
X113915674Y-104688256D01*
X113935460Y-104500000D01*
X113915674Y-104311744D01*
X113857179Y-104131716D01*
X113762533Y-103967784D01*
X113640696Y-103832471D01*
X113610467Y-103769481D01*
X113619092Y-103700146D01*
X113663833Y-103646480D01*
X113730486Y-103625522D01*
X113732847Y-103625500D01*
X115374252Y-103625500D01*
X115441291Y-103645185D01*
X115466400Y-103666526D01*
X115472126Y-103672885D01*
X115472130Y-103672889D01*
X115625265Y-103784148D01*
X115625270Y-103784151D01*
X115798192Y-103861142D01*
X115798197Y-103861144D01*
X115983354Y-103900500D01*
X115983355Y-103900500D01*
X116172644Y-103900500D01*
X116172646Y-103900500D01*
X116357803Y-103861144D01*
X116530730Y-103784151D01*
X116683871Y-103672888D01*
X116810533Y-103532216D01*
X116905179Y-103368284D01*
X116963674Y-103188256D01*
X116983460Y-103000000D01*
X116963674Y-102811744D01*
X116905179Y-102631716D01*
X116810533Y-102467784D01*
X116683871Y-102327112D01*
X116683870Y-102327111D01*
X116530734Y-102215851D01*
X116530729Y-102215848D01*
X116357807Y-102138857D01*
X116357802Y-102138855D01*
X116212001Y-102107865D01*
X116172646Y-102099500D01*
X115983354Y-102099500D01*
X115950897Y-102106398D01*
X115798197Y-102138855D01*
X115798192Y-102138857D01*
X115625270Y-102215848D01*
X115625265Y-102215851D01*
X115472130Y-102327110D01*
X115472126Y-102327114D01*
X115466400Y-102333474D01*
X115406913Y-102370121D01*
X115374252Y-102374500D01*
X106203748Y-102374500D01*
X106136709Y-102354815D01*
X106111600Y-102333474D01*
X106105873Y-102327114D01*
X106105869Y-102327110D01*
X105952734Y-102215851D01*
X105952729Y-102215848D01*
X105779807Y-102138857D01*
X105779802Y-102138855D01*
X105634001Y-102107865D01*
X105594646Y-102099500D01*
X105405354Y-102099500D01*
X105372897Y-102106398D01*
X105220197Y-102138855D01*
X105220192Y-102138857D01*
X105047270Y-102215848D01*
X105047265Y-102215851D01*
X104894129Y-102327111D01*
X104767466Y-102467785D01*
X104672821Y-102631715D01*
X104672818Y-102631722D01*
X104614327Y-102811740D01*
X104614326Y-102811744D01*
X104594540Y-103000000D01*
X104614326Y-103188256D01*
X104614327Y-103188259D01*
X104672818Y-103368277D01*
X104672821Y-103368284D01*
X104767467Y-103532216D01*
X104869185Y-103645185D01*
X104894129Y-103672888D01*
X105047265Y-103784148D01*
X105047270Y-103784151D01*
X105220192Y-103861142D01*
X105220197Y-103861144D01*
X105405354Y-103900500D01*
X105405355Y-103900500D01*
X105594644Y-103900500D01*
X105594646Y-103900500D01*
X105779803Y-103861144D01*
X105952730Y-103784151D01*
X106105871Y-103672888D01*
X106108788Y-103669647D01*
X106111600Y-103666526D01*
X106171087Y-103629879D01*
X106203748Y-103625500D01*
X112327153Y-103625500D01*
X112394192Y-103645185D01*
X112439947Y-103697989D01*
X112449891Y-103767147D01*
X112420866Y-103830703D01*
X112419303Y-103832472D01*
X112297466Y-103967785D01*
X112202821Y-104131715D01*
X112202818Y-104131722D01*
X112169746Y-104233509D01*
X112144326Y-104311744D01*
X112124540Y-104500000D01*
X112144326Y-104688256D01*
X112144327Y-104688259D01*
X112202818Y-104868277D01*
X112202821Y-104868284D01*
X112297467Y-105032216D01*
X112340772Y-105080310D01*
X112372650Y-105115715D01*
X112402880Y-105178706D01*
X112404500Y-105198687D01*
X112404500Y-105861548D01*
X112384815Y-105928587D01*
X112368181Y-105949229D01*
X111791229Y-106526181D01*
X111729906Y-106559666D01*
X111703548Y-106562500D01*
X93782452Y-106562500D01*
X93715413Y-106542815D01*
X93694771Y-106526181D01*
X90831819Y-103663229D01*
X90798334Y-103601906D01*
X90795500Y-103575548D01*
X90795500Y-92468816D01*
X90815185Y-92401777D01*
X90817911Y-92397712D01*
X90836035Y-92371830D01*
X90935903Y-92157663D01*
X90997063Y-91929408D01*
X91017659Y-91694000D01*
X90997063Y-91458592D01*
X90935903Y-91230337D01*
X90836035Y-91016171D01*
X90756027Y-90901906D01*
X90700494Y-90822597D01*
X90533402Y-90655506D01*
X90533396Y-90655501D01*
X90347842Y-90525575D01*
X90304217Y-90470998D01*
X90297023Y-90401500D01*
X90328546Y-90339145D01*
X90347842Y-90322425D01*
X90484905Y-90226452D01*
X90533401Y-90192495D01*
X90700495Y-90025401D01*
X90835652Y-89832377D01*
X90890229Y-89788752D01*
X90937227Y-89779500D01*
X91129548Y-89779500D01*
X91196587Y-89799185D01*
X91217229Y-89815819D01*
X91540181Y-90138771D01*
X91573666Y-90200094D01*
X91576500Y-90226452D01*
X91576500Y-92481607D01*
X91582971Y-92514135D01*
X91582972Y-92514143D01*
X91590960Y-92554308D01*
X91600535Y-92602446D01*
X91600536Y-92602447D01*
X91600537Y-92602451D01*
X91625459Y-92662619D01*
X91647687Y-92716285D01*
X91674433Y-92756311D01*
X91674434Y-92756313D01*
X91716141Y-92818732D01*
X91716144Y-92818736D01*
X91807586Y-92910178D01*
X91807608Y-92910198D01*
X92293016Y-93395606D01*
X92293045Y-93395637D01*
X92383263Y-93485855D01*
X92383267Y-93485858D01*
X92452647Y-93532216D01*
X92485715Y-93554312D01*
X92549504Y-93580734D01*
X92599548Y-93601463D01*
X92659971Y-93613481D01*
X92720393Y-93625500D01*
X92720394Y-93625500D01*
X99810331Y-93625500D01*
X99877370Y-93645185D01*
X99923125Y-93697989D01*
X99933069Y-93767147D01*
X99915324Y-93815472D01*
X99824211Y-93960474D01*
X99764628Y-94130755D01*
X99764518Y-94131241D01*
X99764360Y-94131522D01*
X99762333Y-94137317D01*
X99761317Y-94136961D01*
X99730400Y-94192215D01*
X99676984Y-94221381D01*
X99677317Y-94222333D01*
X99671541Y-94224353D01*
X99671241Y-94224518D01*
X99670755Y-94224628D01*
X99500478Y-94284210D01*
X99347737Y-94380184D01*
X99220184Y-94507737D01*
X99124211Y-94660476D01*
X99064631Y-94830745D01*
X99064630Y-94830750D01*
X99044435Y-95009996D01*
X99044435Y-95010003D01*
X99064630Y-95189249D01*
X99064631Y-95189254D01*
X99124211Y-95359523D01*
X99220184Y-95512262D01*
X99330241Y-95622319D01*
X99363726Y-95683642D01*
X99358742Y-95753334D01*
X99330241Y-95797681D01*
X99220184Y-95907737D01*
X99124211Y-96060476D01*
X99064631Y-96230745D01*
X99064630Y-96230750D01*
X99044435Y-96409996D01*
X99044435Y-96410003D01*
X99064630Y-96589249D01*
X99064631Y-96589254D01*
X99124211Y-96759523D01*
X99199912Y-96880000D01*
X99220184Y-96912262D01*
X99347738Y-97039816D01*
X99500478Y-97135789D01*
X99670745Y-97195368D01*
X99670754Y-97195369D01*
X99671207Y-97195473D01*
X99671477Y-97195624D01*
X99677318Y-97197668D01*
X99676960Y-97198690D01*
X99732191Y-97229573D01*
X99761377Y-97283017D01*
X99762333Y-97282683D01*
X99764362Y-97288483D01*
X99764523Y-97288777D01*
X99764631Y-97289250D01*
X99764632Y-97289255D01*
X99781864Y-97338500D01*
X99789228Y-97359546D01*
X99792789Y-97429325D01*
X99758060Y-97489952D01*
X99696066Y-97522179D01*
X99672186Y-97524500D01*
X99055009Y-97524500D01*
X99004573Y-97513779D01*
X98831807Y-97436857D01*
X98831802Y-97436855D01*
X98686001Y-97405865D01*
X98646646Y-97397500D01*
X98457354Y-97397500D01*
X98424897Y-97404398D01*
X98272197Y-97436855D01*
X98272192Y-97436857D01*
X98099270Y-97513848D01*
X98099265Y-97513851D01*
X97946129Y-97625111D01*
X97819466Y-97765785D01*
X97724821Y-97929715D01*
X97724818Y-97929722D01*
X97666327Y-98109740D01*
X97666326Y-98109744D01*
X97662095Y-98150000D01*
X97646540Y-98298000D01*
X97666932Y-98492022D01*
X97654362Y-98560752D01*
X97606630Y-98611775D01*
X97569393Y-98626273D01*
X97510196Y-98638856D01*
X97510192Y-98638857D01*
X97337270Y-98715848D01*
X97337265Y-98715851D01*
X97184129Y-98827111D01*
X97057466Y-98967785D01*
X96962821Y-99131715D01*
X96962818Y-99131722D01*
X96904327Y-99311740D01*
X96904326Y-99311744D01*
X96884540Y-99500000D01*
X96904326Y-99688256D01*
X96904327Y-99688259D01*
X96962818Y-99868277D01*
X96962821Y-99868284D01*
X97057467Y-100032216D01*
X97184129Y-100172888D01*
X97337265Y-100284148D01*
X97337270Y-100284151D01*
X97510192Y-100361142D01*
X97510197Y-100361144D01*
X97695354Y-100400500D01*
X97695355Y-100400500D01*
X97884644Y-100400500D01*
X97884646Y-100400500D01*
X98069803Y-100361144D01*
X98242730Y-100284151D01*
X98395871Y-100172888D01*
X98473630Y-100086527D01*
X98533117Y-100049879D01*
X98565780Y-100045500D01*
X108796252Y-100045500D01*
X108863291Y-100065185D01*
X108888400Y-100086526D01*
X108894126Y-100092885D01*
X108894130Y-100092889D01*
X109047265Y-100204148D01*
X109047270Y-100204151D01*
X109220192Y-100281142D01*
X109220197Y-100281144D01*
X109405354Y-100320500D01*
X109405355Y-100320500D01*
X109594644Y-100320500D01*
X109594646Y-100320500D01*
X109779803Y-100281144D01*
X109952730Y-100204151D01*
X110105871Y-100092888D01*
X110232533Y-99952216D01*
X110327179Y-99788284D01*
X110385674Y-99608256D01*
X110405460Y-99420000D01*
X110385674Y-99231744D01*
X110327179Y-99051716D01*
X110232533Y-98887784D01*
X110214693Y-98867971D01*
X110184464Y-98804981D01*
X110193089Y-98735646D01*
X110214694Y-98702028D01*
X110232533Y-98682216D01*
X110327179Y-98518284D01*
X110385674Y-98338256D01*
X110405460Y-98150000D01*
X110385674Y-97961744D01*
X110327179Y-97781716D01*
X110232533Y-97617784D01*
X110214693Y-97597971D01*
X110184464Y-97534981D01*
X110193089Y-97465646D01*
X110214694Y-97432028D01*
X110217128Y-97429325D01*
X110232533Y-97412216D01*
X110327179Y-97248284D01*
X110385674Y-97068256D01*
X110405460Y-96880000D01*
X110385674Y-96691744D01*
X110327179Y-96511716D01*
X110232533Y-96347784D01*
X110218745Y-96332471D01*
X110188516Y-96269480D01*
X110197141Y-96200145D01*
X110241883Y-96146480D01*
X110308535Y-96125522D01*
X110310896Y-96125500D01*
X112061607Y-96125500D01*
X112122029Y-96113481D01*
X112182452Y-96101463D01*
X112237368Y-96078716D01*
X112296286Y-96054312D01*
X112296289Y-96054309D01*
X112296291Y-96054309D01*
X112349347Y-96018857D01*
X112349349Y-96018855D01*
X112398733Y-95985858D01*
X112485858Y-95898733D01*
X112485858Y-95898731D01*
X112496066Y-95888524D01*
X112496067Y-95888521D01*
X113985857Y-94398734D01*
X114054311Y-94296286D01*
X114101463Y-94182451D01*
X114106417Y-94157548D01*
X114125500Y-94061606D01*
X114125500Y-85039999D01*
X114722341Y-85039999D01*
X114722341Y-85040000D01*
X114742936Y-85275403D01*
X114742938Y-85275413D01*
X114804094Y-85503655D01*
X114804096Y-85503659D01*
X114804097Y-85503663D01*
X114837598Y-85575505D01*
X114903965Y-85717830D01*
X114903967Y-85717834D01*
X115039501Y-85911395D01*
X115039506Y-85911402D01*
X115206597Y-86078493D01*
X115206603Y-86078498D01*
X115392158Y-86208425D01*
X115435783Y-86263002D01*
X115442977Y-86332500D01*
X115411454Y-86394855D01*
X115392158Y-86411575D01*
X115206597Y-86541505D01*
X115039505Y-86708597D01*
X114903965Y-86902169D01*
X114903964Y-86902171D01*
X114804098Y-87116335D01*
X114804094Y-87116344D01*
X114742938Y-87344586D01*
X114742936Y-87344596D01*
X114722341Y-87579999D01*
X114722341Y-87580000D01*
X114742936Y-87815403D01*
X114742938Y-87815413D01*
X114804094Y-88043655D01*
X114804096Y-88043659D01*
X114804097Y-88043663D01*
X114837596Y-88115501D01*
X114903965Y-88257830D01*
X114903967Y-88257834D01*
X114992509Y-88384284D01*
X115039505Y-88451401D01*
X115206599Y-88618495D01*
X115225481Y-88631716D01*
X115400165Y-88754032D01*
X115400167Y-88754033D01*
X115400170Y-88754035D01*
X115614337Y-88853903D01*
X115842592Y-88915063D01*
X116030918Y-88931539D01*
X116077999Y-88935659D01*
X116078000Y-88935659D01*
X116078001Y-88935659D01*
X116117234Y-88932226D01*
X116313408Y-88915063D01*
X116541663Y-88853903D01*
X116755830Y-88754035D01*
X116949401Y-88618495D01*
X117116495Y-88451401D01*
X117252035Y-88257830D01*
X117351903Y-88043663D01*
X117413063Y-87815408D01*
X117433659Y-87580000D01*
X117413063Y-87344592D01*
X117351903Y-87116337D01*
X117252035Y-86902171D01*
X117215091Y-86849408D01*
X117116494Y-86708597D01*
X116949402Y-86541506D01*
X116949396Y-86541501D01*
X116763842Y-86411575D01*
X116720217Y-86356998D01*
X116713023Y-86287500D01*
X116744546Y-86225145D01*
X116763842Y-86208425D01*
X116846803Y-86150335D01*
X116949401Y-86078495D01*
X117116495Y-85911401D01*
X117252035Y-85717830D01*
X117351903Y-85503663D01*
X117413063Y-85275408D01*
X117433659Y-85040000D01*
X117413063Y-84804592D01*
X117351903Y-84576337D01*
X117252035Y-84362171D01*
X117225307Y-84324000D01*
X117116496Y-84168600D01*
X117087722Y-84139826D01*
X116994567Y-84046671D01*
X116961084Y-83985351D01*
X116966068Y-83915659D01*
X117007939Y-83859725D01*
X117038915Y-83842810D01*
X117170331Y-83793796D01*
X117285546Y-83707546D01*
X117371796Y-83592331D01*
X117422091Y-83457483D01*
X117428500Y-83397873D01*
X117428499Y-81602128D01*
X117422091Y-81542517D01*
X117376291Y-81419722D01*
X117371797Y-81407671D01*
X117371793Y-81407664D01*
X117285547Y-81292455D01*
X117285544Y-81292452D01*
X117170335Y-81206206D01*
X117170328Y-81206202D01*
X117035482Y-81155908D01*
X117035483Y-81155908D01*
X116975883Y-81149501D01*
X116975881Y-81149500D01*
X116975873Y-81149500D01*
X116975864Y-81149500D01*
X115180129Y-81149500D01*
X115180123Y-81149501D01*
X115120516Y-81155908D01*
X114985671Y-81206202D01*
X114985664Y-81206206D01*
X114870455Y-81292452D01*
X114870452Y-81292455D01*
X114784206Y-81407664D01*
X114784202Y-81407671D01*
X114733908Y-81542517D01*
X114727756Y-81599744D01*
X114727501Y-81602123D01*
X114727500Y-81602135D01*
X114727500Y-83397870D01*
X114727501Y-83397876D01*
X114733908Y-83457483D01*
X114784202Y-83592328D01*
X114784206Y-83592335D01*
X114870452Y-83707544D01*
X114870455Y-83707547D01*
X114985664Y-83793793D01*
X114985671Y-83793797D01*
X115117081Y-83842810D01*
X115173015Y-83884681D01*
X115197432Y-83950145D01*
X115182580Y-84018418D01*
X115161430Y-84046673D01*
X115039503Y-84168600D01*
X114903965Y-84362169D01*
X114903964Y-84362171D01*
X114804098Y-84576335D01*
X114804094Y-84576344D01*
X114742938Y-84804586D01*
X114742936Y-84804596D01*
X114722341Y-85039999D01*
X114125500Y-85039999D01*
X114125500Y-70510687D01*
X114145185Y-70443648D01*
X114157350Y-70427715D01*
X114175891Y-70407122D01*
X114232533Y-70344216D01*
X114327179Y-70180284D01*
X114385674Y-70000256D01*
X114405460Y-69812000D01*
X114385674Y-69623744D01*
X114327179Y-69443716D01*
X114232533Y-69279784D01*
X114105871Y-69139112D01*
X114105870Y-69139111D01*
X113952734Y-69027851D01*
X113952729Y-69027848D01*
X113779807Y-68950857D01*
X113779802Y-68950855D01*
X113634001Y-68919865D01*
X113594646Y-68911500D01*
X113405354Y-68911500D01*
X113372897Y-68918398D01*
X113220197Y-68950855D01*
X113220192Y-68950857D01*
X113047270Y-69027848D01*
X113047265Y-69027851D01*
X112894129Y-69139111D01*
X112767466Y-69279785D01*
X112672821Y-69443715D01*
X112672818Y-69443722D01*
X112624994Y-69590910D01*
X112614326Y-69623744D01*
X112594540Y-69812000D01*
X112614326Y-70000256D01*
X112614327Y-70000259D01*
X112672818Y-70180277D01*
X112672821Y-70180284D01*
X112767467Y-70344216D01*
X112810772Y-70392310D01*
X112842650Y-70427715D01*
X112872880Y-70490706D01*
X112874500Y-70510687D01*
X112874500Y-71050548D01*
X112854815Y-71117587D01*
X112802011Y-71163342D01*
X112732853Y-71173286D01*
X112669297Y-71144261D01*
X112662819Y-71138229D01*
X111151819Y-69627229D01*
X111118334Y-69565906D01*
X111115500Y-69539548D01*
X111115500Y-65214687D01*
X111135185Y-65147648D01*
X111147350Y-65131715D01*
X111165891Y-65111122D01*
X111222533Y-65048216D01*
X111317179Y-64884284D01*
X111375674Y-64704256D01*
X111395460Y-64516000D01*
X111375674Y-64327744D01*
X111317179Y-64147716D01*
X111222533Y-63983784D01*
X111095871Y-63843112D01*
X111095870Y-63843111D01*
X110942734Y-63731851D01*
X110942729Y-63731848D01*
X110769807Y-63654857D01*
X110769802Y-63654855D01*
X110624001Y-63623865D01*
X110584646Y-63615500D01*
X110395354Y-63615500D01*
X110362897Y-63622398D01*
X110210197Y-63654855D01*
X110210192Y-63654857D01*
X110037270Y-63731848D01*
X110037265Y-63731851D01*
X109884129Y-63843111D01*
X109757466Y-63983785D01*
X109662821Y-64147715D01*
X109662818Y-64147722D01*
X109604327Y-64327740D01*
X109604326Y-64327744D01*
X109584540Y-64516000D01*
X109604326Y-64704256D01*
X109604327Y-64704259D01*
X109662818Y-64884277D01*
X109662821Y-64884284D01*
X109757467Y-65048216D01*
X109800772Y-65096310D01*
X109832650Y-65131715D01*
X109862880Y-65194706D01*
X109864500Y-65214687D01*
X109864500Y-69911611D01*
X109888535Y-70032444D01*
X109888540Y-70032461D01*
X109935685Y-70146280D01*
X109935687Y-70146283D01*
X109935688Y-70146286D01*
X109958405Y-70180284D01*
X109969914Y-70197507D01*
X109969915Y-70197509D01*
X110004141Y-70248733D01*
X110095586Y-70340178D01*
X110095608Y-70340198D01*
X111836181Y-72080771D01*
X111869666Y-72142094D01*
X111872500Y-72168452D01*
X111872500Y-80691547D01*
X111852815Y-80758586D01*
X111836181Y-80779228D01*
X110227798Y-82387611D01*
X108601270Y-84014139D01*
X108601267Y-84014142D01*
X108568736Y-84046673D01*
X108514142Y-84101266D01*
X108484554Y-84145548D01*
X108484553Y-84145547D01*
X108445692Y-84203707D01*
X108445685Y-84203719D01*
X108421189Y-84262859D01*
X108421189Y-84262861D01*
X108398537Y-84317548D01*
X108398536Y-84317552D01*
X108398536Y-84317553D01*
X108398535Y-84317556D01*
X108374500Y-84438389D01*
X108374500Y-88301312D01*
X108354815Y-88368351D01*
X108342650Y-88384284D01*
X108267466Y-88467784D01*
X108172821Y-88631715D01*
X108172821Y-88631716D01*
X108132676Y-88755270D01*
X108114326Y-88811744D01*
X108094540Y-89000000D01*
X108114326Y-89188256D01*
X108114327Y-89188259D01*
X108172818Y-89368277D01*
X108172821Y-89368284D01*
X108267467Y-89532216D01*
X108344397Y-89617655D01*
X108394129Y-89672888D01*
X108547265Y-89784148D01*
X108547270Y-89784151D01*
X108720192Y-89861142D01*
X108720197Y-89861144D01*
X108905354Y-89900500D01*
X108905355Y-89900500D01*
X109094644Y-89900500D01*
X109094646Y-89900500D01*
X109279803Y-89861144D01*
X109452730Y-89784151D01*
X109605871Y-89672888D01*
X109732533Y-89532216D01*
X109827179Y-89368284D01*
X109885674Y-89188256D01*
X109905460Y-89000000D01*
X109885674Y-88811744D01*
X109827179Y-88631716D01*
X109732533Y-88467784D01*
X109717776Y-88451395D01*
X109657350Y-88384284D01*
X109627120Y-88321292D01*
X109625500Y-88301312D01*
X109625500Y-84810452D01*
X109645185Y-84743413D01*
X109661819Y-84722771D01*
X112662819Y-81721771D01*
X112724142Y-81688286D01*
X112793834Y-81693270D01*
X112849767Y-81735142D01*
X112874184Y-81800606D01*
X112874500Y-81809452D01*
X112874500Y-93689547D01*
X112854815Y-93756586D01*
X112838181Y-93777228D01*
X111777229Y-94838181D01*
X111715906Y-94871666D01*
X111689548Y-94874500D01*
X109943844Y-94874500D01*
X109876805Y-94854815D01*
X109831050Y-94802011D01*
X109821106Y-94732853D01*
X109825913Y-94712182D01*
X109846646Y-94648368D01*
X109885674Y-94528256D01*
X109905460Y-94340000D01*
X109885674Y-94151744D01*
X109827179Y-93971716D01*
X109825171Y-93965535D01*
X109827318Y-93964837D01*
X109819402Y-93905888D01*
X109849016Y-93842605D01*
X109891531Y-93811398D01*
X109952730Y-93784151D01*
X110105871Y-93672888D01*
X110232533Y-93532216D01*
X110327179Y-93368284D01*
X110385674Y-93188256D01*
X110405460Y-93000000D01*
X110385674Y-92811744D01*
X110327179Y-92631716D01*
X110232533Y-92467784D01*
X110105871Y-92327112D01*
X110060068Y-92293834D01*
X109952734Y-92215851D01*
X109952729Y-92215848D01*
X109779807Y-92138857D01*
X109779802Y-92138855D01*
X109634001Y-92107865D01*
X109594646Y-92099500D01*
X109405354Y-92099500D01*
X109372897Y-92106398D01*
X109220197Y-92138855D01*
X109220192Y-92138857D01*
X109070904Y-92205326D01*
X109001654Y-92214611D01*
X108938377Y-92184983D01*
X108901164Y-92125848D01*
X108897147Y-92079090D01*
X108905460Y-92000000D01*
X108885674Y-91811744D01*
X108827179Y-91631716D01*
X108732533Y-91467784D01*
X108605871Y-91327112D01*
X108605870Y-91327111D01*
X108452734Y-91215851D01*
X108452729Y-91215848D01*
X108279807Y-91138857D01*
X108279802Y-91138855D01*
X108134001Y-91107865D01*
X108094646Y-91099500D01*
X107905354Y-91099500D01*
X107872897Y-91106398D01*
X107720197Y-91138855D01*
X107720192Y-91138857D01*
X107547270Y-91215848D01*
X107547265Y-91215851D01*
X107394130Y-91327110D01*
X107394126Y-91327114D01*
X107388400Y-91333474D01*
X107328913Y-91370121D01*
X107296252Y-91374500D01*
X94342452Y-91374500D01*
X94275413Y-91354815D01*
X94254771Y-91338181D01*
X93879819Y-90963229D01*
X93846334Y-90901906D01*
X93843500Y-90875548D01*
X93843500Y-88900000D01*
X105774540Y-88900000D01*
X105794326Y-89088256D01*
X105794327Y-89088259D01*
X105852818Y-89268277D01*
X105852821Y-89268284D01*
X105947467Y-89432216D01*
X106037506Y-89532214D01*
X106074129Y-89572888D01*
X106227265Y-89684148D01*
X106227270Y-89684151D01*
X106400192Y-89761142D01*
X106400197Y-89761144D01*
X106585354Y-89800500D01*
X106585355Y-89800500D01*
X106774644Y-89800500D01*
X106774646Y-89800500D01*
X106959803Y-89761144D01*
X107132730Y-89684151D01*
X107285871Y-89572888D01*
X107412533Y-89432216D01*
X107507179Y-89268284D01*
X107565674Y-89088256D01*
X107585460Y-88900000D01*
X107565674Y-88711744D01*
X107507179Y-88531716D01*
X107412533Y-88367784D01*
X107395541Y-88348912D01*
X107337350Y-88284284D01*
X107307120Y-88221292D01*
X107305500Y-88201312D01*
X107305500Y-84638452D01*
X107325185Y-84571413D01*
X107341819Y-84550771D01*
X109705854Y-82186737D01*
X109705857Y-82186734D01*
X109726208Y-82156277D01*
X109774311Y-82084286D01*
X109821463Y-81970452D01*
X109845500Y-81849607D01*
X109845500Y-81726394D01*
X109845500Y-79692687D01*
X109865185Y-79625648D01*
X109877350Y-79609715D01*
X109895891Y-79589122D01*
X109952533Y-79526216D01*
X110047179Y-79362284D01*
X110105674Y-79182256D01*
X110125460Y-78994000D01*
X110105674Y-78805744D01*
X110047179Y-78625716D01*
X109952533Y-78461784D01*
X109825871Y-78321112D01*
X109825870Y-78321111D01*
X109672734Y-78209851D01*
X109672729Y-78209848D01*
X109499807Y-78132857D01*
X109499802Y-78132855D01*
X109354001Y-78101865D01*
X109314646Y-78093500D01*
X109125354Y-78093500D01*
X109092897Y-78100398D01*
X108940197Y-78132855D01*
X108940192Y-78132857D01*
X108767270Y-78209848D01*
X108767265Y-78209851D01*
X108614129Y-78321111D01*
X108487466Y-78461785D01*
X108392821Y-78625715D01*
X108392818Y-78625722D01*
X108334327Y-78805740D01*
X108334326Y-78805744D01*
X108314540Y-78994000D01*
X108334326Y-79182256D01*
X108334327Y-79182259D01*
X108392818Y-79362277D01*
X108392821Y-79362284D01*
X108487467Y-79526216D01*
X108518780Y-79560992D01*
X108562650Y-79609715D01*
X108592880Y-79672706D01*
X108594500Y-79692687D01*
X108594500Y-81477547D01*
X108574815Y-81544586D01*
X108558181Y-81565228D01*
X106194144Y-83929264D01*
X106194138Y-83929272D01*
X106125690Y-84031708D01*
X106125689Y-84031710D01*
X106096878Y-84101266D01*
X106096879Y-84101267D01*
X106078535Y-84145552D01*
X106054500Y-84266389D01*
X106054500Y-88201312D01*
X106034815Y-88268351D01*
X106022650Y-88284284D01*
X105947466Y-88367784D01*
X105852821Y-88531715D01*
X105852818Y-88531722D01*
X105801279Y-88690344D01*
X105794326Y-88711744D01*
X105774540Y-88900000D01*
X93843500Y-88900000D01*
X93843500Y-87568396D01*
X93843500Y-87568394D01*
X93819463Y-87447548D01*
X93805652Y-87414207D01*
X93772312Y-87333714D01*
X93738084Y-87282490D01*
X93703858Y-87231267D01*
X93703856Y-87231264D01*
X93613637Y-87141045D01*
X93613606Y-87141016D01*
X92692198Y-86219608D01*
X92692178Y-86219586D01*
X92600733Y-86128141D01*
X92549509Y-86093915D01*
X92498287Y-86059689D01*
X92498286Y-86059688D01*
X92498283Y-86059686D01*
X92498280Y-86059685D01*
X92417792Y-86026347D01*
X92384453Y-86012537D01*
X92374427Y-86010543D01*
X92324029Y-86000518D01*
X92263610Y-85988500D01*
X92263607Y-85988500D01*
X92263606Y-85988500D01*
X90937227Y-85988500D01*
X90870188Y-85968815D01*
X90835652Y-85935623D01*
X90700494Y-85742597D01*
X90533402Y-85575506D01*
X90533401Y-85575505D01*
X90347405Y-85445269D01*
X90303781Y-85390692D01*
X90296588Y-85321193D01*
X90328110Y-85258839D01*
X90347405Y-85242119D01*
X90533082Y-85112105D01*
X90700105Y-84945082D01*
X90835600Y-84751578D01*
X90935429Y-84537492D01*
X90935432Y-84537486D01*
X90992636Y-84324000D01*
X90095012Y-84324000D01*
X90127925Y-84266993D01*
X90162000Y-84139826D01*
X90162000Y-84008174D01*
X90127925Y-83881007D01*
X90095012Y-83824000D01*
X90992636Y-83824000D01*
X90992635Y-83823999D01*
X90935432Y-83610513D01*
X90935429Y-83610507D01*
X90835600Y-83396422D01*
X90835599Y-83396420D01*
X90700113Y-83202926D01*
X90700108Y-83202920D01*
X90578053Y-83080865D01*
X90544568Y-83019542D01*
X90549552Y-82949850D01*
X90591424Y-82893917D01*
X90622400Y-82877002D01*
X90754331Y-82827796D01*
X90869546Y-82741546D01*
X90955796Y-82626331D01*
X91006091Y-82491483D01*
X91012500Y-82431873D01*
X91012500Y-81788000D01*
X94594540Y-81788000D01*
X94614326Y-81976256D01*
X94614327Y-81976259D01*
X94672818Y-82156277D01*
X94672821Y-82156284D01*
X94767467Y-82320216D01*
X94868013Y-82431883D01*
X94894129Y-82460888D01*
X95047265Y-82572148D01*
X95047270Y-82572151D01*
X95220192Y-82649142D01*
X95220197Y-82649144D01*
X95405354Y-82688500D01*
X95405355Y-82688500D01*
X95594644Y-82688500D01*
X95594646Y-82688500D01*
X95779803Y-82649144D01*
X95952730Y-82572151D01*
X96105871Y-82460888D01*
X96171850Y-82387610D01*
X96231337Y-82350962D01*
X96301194Y-82352293D01*
X96356150Y-82387611D01*
X96422129Y-82460888D01*
X96575265Y-82572148D01*
X96575270Y-82572151D01*
X96748192Y-82649142D01*
X96748197Y-82649144D01*
X96933354Y-82688500D01*
X96933355Y-82688500D01*
X97122644Y-82688500D01*
X97122646Y-82688500D01*
X97307803Y-82649144D01*
X97480730Y-82572151D01*
X97633871Y-82460888D01*
X97760533Y-82320216D01*
X97855179Y-82156284D01*
X97913674Y-81976256D01*
X97933460Y-81788000D01*
X97913674Y-81599744D01*
X97855179Y-81419716D01*
X97803093Y-81329500D01*
X97786620Y-81261599D01*
X97809473Y-81195573D01*
X97864394Y-81152382D01*
X97910480Y-81143500D01*
X105979608Y-81143500D01*
X105979608Y-81143499D01*
X106056476Y-81128210D01*
X106056477Y-81128210D01*
X106071268Y-81125267D01*
X106100452Y-81119463D01*
X106100457Y-81119460D01*
X106100460Y-81119460D01*
X106133787Y-81105654D01*
X106133786Y-81105654D01*
X106133792Y-81105652D01*
X106214286Y-81072312D01*
X106265509Y-81038084D01*
X106316733Y-81003858D01*
X106403858Y-80916733D01*
X106403859Y-80916731D01*
X106410925Y-80909665D01*
X106410928Y-80909661D01*
X107078729Y-80241860D01*
X107078733Y-80241858D01*
X107165858Y-80154733D01*
X107234311Y-80052286D01*
X107234312Y-80052285D01*
X107281463Y-79938451D01*
X107305500Y-79817606D01*
X107305500Y-79694393D01*
X107305500Y-79692687D01*
X107325185Y-79625648D01*
X107337350Y-79609715D01*
X107355891Y-79589122D01*
X107412533Y-79526216D01*
X107507179Y-79362284D01*
X107565674Y-79182256D01*
X107585460Y-78994000D01*
X107565674Y-78805744D01*
X107507179Y-78625716D01*
X107412533Y-78461784D01*
X107285871Y-78321112D01*
X107285870Y-78321111D01*
X107132734Y-78209851D01*
X107132729Y-78209848D01*
X106959807Y-78132857D01*
X106959802Y-78132855D01*
X106814001Y-78101865D01*
X106774646Y-78093500D01*
X106585354Y-78093500D01*
X106552897Y-78100398D01*
X106400197Y-78132855D01*
X106400192Y-78132857D01*
X106227270Y-78209848D01*
X106227265Y-78209851D01*
X106074129Y-78321111D01*
X105947466Y-78461785D01*
X105852821Y-78625715D01*
X105852818Y-78625722D01*
X105794327Y-78805740D01*
X105794326Y-78805744D01*
X105774540Y-78994000D01*
X105794326Y-79182256D01*
X105794327Y-79182259D01*
X105852818Y-79362277D01*
X105852821Y-79362284D01*
X105928342Y-79493091D01*
X105944815Y-79560992D01*
X105921962Y-79627018D01*
X105908637Y-79642772D01*
X105695227Y-79856182D01*
X105633907Y-79889666D01*
X105607548Y-79892500D01*
X104816975Y-79892500D01*
X104749936Y-79872815D01*
X104704181Y-79820011D01*
X104694237Y-79750853D01*
X104723262Y-79687297D01*
X104744091Y-79668181D01*
X104745871Y-79666888D01*
X104872533Y-79526216D01*
X104967179Y-79362284D01*
X105025674Y-79182256D01*
X105045460Y-78994000D01*
X105025674Y-78805744D01*
X104967179Y-78625716D01*
X104872533Y-78461784D01*
X104745871Y-78321112D01*
X104745870Y-78321111D01*
X104592734Y-78209851D01*
X104592729Y-78209848D01*
X104419807Y-78132857D01*
X104419802Y-78132855D01*
X104274001Y-78101865D01*
X104234646Y-78093500D01*
X104045354Y-78093500D01*
X104012897Y-78100398D01*
X103860197Y-78132855D01*
X103860192Y-78132857D01*
X103687270Y-78209848D01*
X103687265Y-78209851D01*
X103534130Y-78321110D01*
X103534126Y-78321114D01*
X103528400Y-78327474D01*
X103468913Y-78364121D01*
X103436252Y-78368500D01*
X96458389Y-78368500D01*
X96397971Y-78380518D01*
X96360259Y-78388019D01*
X96337550Y-78392536D01*
X96337548Y-78392537D01*
X96304207Y-78406347D01*
X96223719Y-78439684D01*
X96223705Y-78439692D01*
X96121272Y-78508138D01*
X96121264Y-78508144D01*
X95447153Y-79182256D01*
X95105270Y-79524139D01*
X95105267Y-79524142D01*
X95068417Y-79560992D01*
X95018144Y-79611264D01*
X94997272Y-79642502D01*
X94997271Y-79642502D01*
X94949690Y-79713709D01*
X94949688Y-79713713D01*
X94949688Y-79713714D01*
X94923001Y-79778143D01*
X94902538Y-79827544D01*
X94902535Y-79827556D01*
X94894238Y-79869266D01*
X94894239Y-79869267D01*
X94880478Y-79938452D01*
X94878500Y-79948394D01*
X94878500Y-79948397D01*
X94878500Y-80174070D01*
X94876118Y-80198259D01*
X94874500Y-80206393D01*
X94874500Y-81089312D01*
X94854815Y-81156351D01*
X94842650Y-81172284D01*
X94767466Y-81255784D01*
X94672821Y-81419715D01*
X94672818Y-81419722D01*
X94632920Y-81542517D01*
X94614326Y-81599744D01*
X94594540Y-81788000D01*
X91012500Y-81788000D01*
X91012499Y-80636128D01*
X91006091Y-80576517D01*
X90992524Y-80540143D01*
X90955797Y-80441671D01*
X90955793Y-80441664D01*
X90869547Y-80326455D01*
X90869544Y-80326452D01*
X90754335Y-80240206D01*
X90754328Y-80240202D01*
X90619482Y-80189908D01*
X90619483Y-80189908D01*
X90559883Y-80183501D01*
X90559881Y-80183500D01*
X90559873Y-80183500D01*
X90559864Y-80183500D01*
X88764129Y-80183500D01*
X88764123Y-80183501D01*
X88704516Y-80189908D01*
X88569671Y-80240202D01*
X88569664Y-80240206D01*
X88454455Y-80326452D01*
X88454452Y-80326455D01*
X88368206Y-80441664D01*
X88368202Y-80441671D01*
X88317908Y-80576517D01*
X88311501Y-80636116D01*
X88311501Y-80636123D01*
X88311500Y-80636135D01*
X88311500Y-82431870D01*
X88311501Y-82431876D01*
X88317908Y-82491483D01*
X88368202Y-82626328D01*
X88368206Y-82626335D01*
X88454452Y-82741544D01*
X88454455Y-82741547D01*
X88569664Y-82827793D01*
X88569671Y-82827797D01*
X88569674Y-82827798D01*
X88701598Y-82877002D01*
X88757531Y-82918873D01*
X88781949Y-82984337D01*
X88767098Y-83052610D01*
X88745947Y-83080865D01*
X88623886Y-83202926D01*
X88488400Y-83396420D01*
X88488399Y-83396422D01*
X88388570Y-83610507D01*
X88388567Y-83610513D01*
X88331364Y-83823999D01*
X88331364Y-83824000D01*
X89228988Y-83824000D01*
X89196075Y-83881007D01*
X89162000Y-84008174D01*
X89162000Y-84139826D01*
X89196075Y-84266993D01*
X89228988Y-84324000D01*
X88331364Y-84324000D01*
X88388567Y-84537486D01*
X88388570Y-84537492D01*
X88488399Y-84751578D01*
X88623894Y-84945082D01*
X88790917Y-85112105D01*
X88976595Y-85242119D01*
X89020219Y-85296696D01*
X89027412Y-85366195D01*
X88995890Y-85428549D01*
X88976595Y-85445269D01*
X88790594Y-85575508D01*
X88623505Y-85742597D01*
X88487965Y-85936169D01*
X88487964Y-85936171D01*
X88388098Y-86150335D01*
X88388094Y-86150344D01*
X88326938Y-86378586D01*
X88326936Y-86378596D01*
X88306341Y-86613999D01*
X86098500Y-86613999D01*
X86098500Y-60451999D01*
X89572785Y-60451999D01*
X89572785Y-60452000D01*
X89591602Y-60655082D01*
X89647417Y-60851247D01*
X89647422Y-60851260D01*
X89738327Y-61033821D01*
X89861237Y-61196581D01*
X90011958Y-61333980D01*
X90011960Y-61333982D01*
X90111141Y-61395392D01*
X90185363Y-61441348D01*
X90375544Y-61515024D01*
X90494412Y-61537243D01*
X90556692Y-61568911D01*
X90559307Y-61571451D01*
X101427955Y-72440099D01*
X101549901Y-72562045D01*
X101549902Y-72562046D01*
X101693288Y-72657854D01*
X101693301Y-72657861D01*
X101852621Y-72723853D01*
X101852626Y-72723855D01*
X102021766Y-72757499D01*
X102021769Y-72757500D01*
X102021771Y-72757500D01*
X104698211Y-72757500D01*
X104763488Y-72776073D01*
X104917363Y-72871348D01*
X105107544Y-72945024D01*
X105308024Y-72982500D01*
X105308026Y-72982500D01*
X105511974Y-72982500D01*
X105511976Y-72982500D01*
X105712456Y-72945024D01*
X105902637Y-72871348D01*
X106076041Y-72763981D01*
X106226764Y-72626579D01*
X106349673Y-72463821D01*
X106440582Y-72281250D01*
X106496397Y-72085083D01*
X106515215Y-71882000D01*
X106496397Y-71678917D01*
X106440582Y-71482750D01*
X106349673Y-71300179D01*
X106246339Y-71163342D01*
X106226762Y-71137418D01*
X106076041Y-71000019D01*
X106076039Y-71000017D01*
X105902642Y-70892655D01*
X105902635Y-70892651D01*
X105807546Y-70855814D01*
X105712456Y-70818976D01*
X105511976Y-70781500D01*
X105308024Y-70781500D01*
X105107544Y-70818976D01*
X105107541Y-70818976D01*
X105107541Y-70818977D01*
X104917364Y-70892651D01*
X104917357Y-70892655D01*
X104763488Y-70987927D01*
X104698211Y-71006500D01*
X102522006Y-71006500D01*
X102454967Y-70986815D01*
X102434325Y-70970181D01*
X91801298Y-60337154D01*
X91767813Y-60275831D01*
X91765508Y-60260910D01*
X91764397Y-60248918D01*
X91764397Y-60248917D01*
X91708582Y-60052750D01*
X91617673Y-59870179D01*
X91494764Y-59707421D01*
X91494762Y-59707418D01*
X91344041Y-59570019D01*
X91344039Y-59570017D01*
X91170642Y-59462655D01*
X91170635Y-59462651D01*
X91075546Y-59425814D01*
X90980456Y-59388976D01*
X90779976Y-59351500D01*
X90576024Y-59351500D01*
X90375544Y-59388976D01*
X90375541Y-59388976D01*
X90375541Y-59388977D01*
X90185364Y-59462651D01*
X90185357Y-59462655D01*
X90011960Y-59570017D01*
X90011958Y-59570019D01*
X89861237Y-59707418D01*
X89738327Y-59870178D01*
X89647422Y-60052739D01*
X89647417Y-60052752D01*
X89591602Y-60248917D01*
X89572785Y-60451999D01*
X86098500Y-60451999D01*
X86098500Y-49499999D01*
X96024341Y-49499999D01*
X96024341Y-49500000D01*
X96044936Y-49735403D01*
X96044938Y-49735413D01*
X96106094Y-49963655D01*
X96106096Y-49963659D01*
X96106097Y-49963663D01*
X96186004Y-50135023D01*
X96205965Y-50177830D01*
X96205967Y-50177834D01*
X96314281Y-50332521D01*
X96341505Y-50371401D01*
X96508599Y-50538495D01*
X96585135Y-50592086D01*
X96702165Y-50674032D01*
X96702167Y-50674033D01*
X96702170Y-50674035D01*
X96916337Y-50773903D01*
X97144592Y-50835063D01*
X97315319Y-50850000D01*
X97379999Y-50855659D01*
X97380000Y-50855659D01*
X97380001Y-50855659D01*
X97444681Y-50850000D01*
X97615408Y-50835063D01*
X97843663Y-50773903D01*
X98057830Y-50674035D01*
X98251401Y-50538495D01*
X98418495Y-50371401D01*
X98548425Y-50185842D01*
X98603002Y-50142217D01*
X98672500Y-50135023D01*
X98734855Y-50166546D01*
X98751575Y-50185842D01*
X98881500Y-50371395D01*
X98881505Y-50371401D01*
X99048599Y-50538495D01*
X99125135Y-50592086D01*
X99242165Y-50674032D01*
X99242167Y-50674033D01*
X99242170Y-50674035D01*
X99456337Y-50773903D01*
X99684592Y-50835063D01*
X99855319Y-50850000D01*
X99919999Y-50855659D01*
X99920000Y-50855659D01*
X99920001Y-50855659D01*
X99984681Y-50850000D01*
X100155408Y-50835063D01*
X100383663Y-50773903D01*
X100597830Y-50674035D01*
X100791401Y-50538495D01*
X100958495Y-50371401D01*
X101088425Y-50185842D01*
X101143002Y-50142217D01*
X101212500Y-50135023D01*
X101274855Y-50166546D01*
X101291575Y-50185842D01*
X101421500Y-50371395D01*
X101421505Y-50371401D01*
X101588599Y-50538495D01*
X101665135Y-50592086D01*
X101782165Y-50674032D01*
X101782167Y-50674033D01*
X101782170Y-50674035D01*
X101996337Y-50773903D01*
X102224592Y-50835063D01*
X102395319Y-50850000D01*
X102459999Y-50855659D01*
X102460000Y-50855659D01*
X102460001Y-50855659D01*
X102524681Y-50850000D01*
X102695408Y-50835063D01*
X102923663Y-50773903D01*
X103137830Y-50674035D01*
X103331401Y-50538495D01*
X103453717Y-50416178D01*
X103515036Y-50382696D01*
X103584728Y-50387680D01*
X103640662Y-50429551D01*
X103657577Y-50460528D01*
X103706646Y-50592088D01*
X103706649Y-50592093D01*
X103792809Y-50707187D01*
X103792812Y-50707190D01*
X103907906Y-50793350D01*
X103907913Y-50793354D01*
X104042620Y-50843596D01*
X104042627Y-50843598D01*
X104102155Y-50849999D01*
X104102172Y-50850000D01*
X104750000Y-50850000D01*
X104750000Y-49933012D01*
X104807007Y-49965925D01*
X104934174Y-50000000D01*
X105065826Y-50000000D01*
X105192993Y-49965925D01*
X105250000Y-49933012D01*
X105250000Y-50850000D01*
X105897828Y-50850000D01*
X105897844Y-50849999D01*
X105957372Y-50843598D01*
X105957379Y-50843596D01*
X106092086Y-50793354D01*
X106092093Y-50793350D01*
X106207187Y-50707190D01*
X106207190Y-50707187D01*
X106293350Y-50592093D01*
X106293354Y-50592086D01*
X106343596Y-50457379D01*
X106343598Y-50457372D01*
X106349999Y-50397844D01*
X106350000Y-50397827D01*
X106350000Y-49750000D01*
X105433012Y-49750000D01*
X105465925Y-49692993D01*
X105500000Y-49565826D01*
X105500000Y-49434174D01*
X105465925Y-49307007D01*
X105433012Y-49250000D01*
X106350000Y-49250000D01*
X106350000Y-48602172D01*
X106349999Y-48602155D01*
X106343598Y-48542627D01*
X106343596Y-48542620D01*
X106293354Y-48407913D01*
X106293350Y-48407906D01*
X106207190Y-48292812D01*
X106207187Y-48292809D01*
X106092093Y-48206649D01*
X106092086Y-48206645D01*
X105957379Y-48156403D01*
X105957372Y-48156401D01*
X105897844Y-48150000D01*
X105250000Y-48150000D01*
X105250000Y-49066988D01*
X105192993Y-49034075D01*
X105065826Y-49000000D01*
X104934174Y-49000000D01*
X104807007Y-49034075D01*
X104750000Y-49066988D01*
X104750000Y-48150000D01*
X104102155Y-48150000D01*
X104042627Y-48156401D01*
X104042620Y-48156403D01*
X103907913Y-48206645D01*
X103907906Y-48206649D01*
X103792812Y-48292809D01*
X103792809Y-48292812D01*
X103706649Y-48407906D01*
X103706645Y-48407913D01*
X103657578Y-48539470D01*
X103615707Y-48595404D01*
X103550242Y-48619821D01*
X103481969Y-48604969D01*
X103453715Y-48583819D01*
X103409366Y-48539470D01*
X103331401Y-48461505D01*
X103331397Y-48461502D01*
X103331396Y-48461501D01*
X103137834Y-48325967D01*
X103137830Y-48325965D01*
X103066727Y-48292809D01*
X102923663Y-48226097D01*
X102923659Y-48226096D01*
X102923655Y-48226094D01*
X102695413Y-48164938D01*
X102695403Y-48164936D01*
X102460001Y-48144341D01*
X102459999Y-48144341D01*
X102224596Y-48164936D01*
X102224586Y-48164938D01*
X101996344Y-48226094D01*
X101996335Y-48226098D01*
X101782171Y-48325964D01*
X101782169Y-48325965D01*
X101588597Y-48461505D01*
X101421505Y-48628597D01*
X101291575Y-48814158D01*
X101236998Y-48857783D01*
X101167500Y-48864977D01*
X101105145Y-48833454D01*
X101088425Y-48814158D01*
X100958494Y-48628597D01*
X100791402Y-48461506D01*
X100791395Y-48461501D01*
X100597834Y-48325967D01*
X100597830Y-48325965D01*
X100526727Y-48292809D01*
X100383663Y-48226097D01*
X100383659Y-48226096D01*
X100383655Y-48226094D01*
X100155413Y-48164938D01*
X100155403Y-48164936D01*
X99920001Y-48144341D01*
X99919999Y-48144341D01*
X99684596Y-48164936D01*
X99684586Y-48164938D01*
X99456344Y-48226094D01*
X99456335Y-48226098D01*
X99242171Y-48325964D01*
X99242169Y-48325965D01*
X99048597Y-48461505D01*
X98881505Y-48628597D01*
X98751575Y-48814158D01*
X98696998Y-48857783D01*
X98627500Y-48864977D01*
X98565145Y-48833454D01*
X98548425Y-48814158D01*
X98418494Y-48628597D01*
X98251402Y-48461506D01*
X98251395Y-48461501D01*
X98057834Y-48325967D01*
X98057830Y-48325965D01*
X97986727Y-48292809D01*
X97843663Y-48226097D01*
X97843659Y-48226096D01*
X97843655Y-48226094D01*
X97615413Y-48164938D01*
X97615403Y-48164936D01*
X97380001Y-48144341D01*
X97379999Y-48144341D01*
X97144596Y-48164936D01*
X97144586Y-48164938D01*
X96916344Y-48226094D01*
X96916335Y-48226098D01*
X96702171Y-48325964D01*
X96702169Y-48325965D01*
X96508597Y-48461505D01*
X96341505Y-48628597D01*
X96205965Y-48822169D01*
X96205964Y-48822171D01*
X96106098Y-49036335D01*
X96106094Y-49036344D01*
X96044938Y-49264586D01*
X96044936Y-49264596D01*
X96024341Y-49499999D01*
X86098500Y-49499999D01*
X86098500Y-42026500D01*
X86118185Y-41959461D01*
X86170989Y-41913706D01*
X86222500Y-41902500D01*
X123835500Y-41902500D01*
X123902539Y-41922185D01*
G37*
%TD.AperFunction*%
%TD*%
M02*
