%TF.GenerationSoftware,KiCad,Pcbnew,8.0.6*%
%TF.CreationDate,2024-12-20T16:03:41+01:00*%
%TF.ProjectId,elrs_tx_full,656c7273-5f74-4785-9f66-756c6c2e6b69,rev?*%
%TF.SameCoordinates,Original*%
%TF.FileFunction,Copper,L1,Top*%
%TF.FilePolarity,Positive*%
%FSLAX46Y46*%
G04 Gerber Fmt 4.6, Leading zero omitted, Abs format (unit mm)*
G04 Created by KiCad (PCBNEW 8.0.6) date 2024-12-20 16:03:41*
%MOMM*%
%LPD*%
G01*
G04 APERTURE LIST*
G04 Aperture macros list*
%AMRoundRect*
0 Rectangle with rounded corners*
0 $1 Rounding radius*
0 $2 $3 $4 $5 $6 $7 $8 $9 X,Y pos of 4 corners*
0 Add a 4 corners polygon primitive as box body*
4,1,4,$2,$3,$4,$5,$6,$7,$8,$9,$2,$3,0*
0 Add four circle primitives for the rounded corners*
1,1,$1+$1,$2,$3*
1,1,$1+$1,$4,$5*
1,1,$1+$1,$6,$7*
1,1,$1+$1,$8,$9*
0 Add four rect primitives between the rounded corners*
20,1,$1+$1,$2,$3,$4,$5,0*
20,1,$1+$1,$4,$5,$6,$7,0*
20,1,$1+$1,$6,$7,$8,$9,0*
20,1,$1+$1,$8,$9,$2,$3,0*%
G04 Aperture macros list end*
%TA.AperFunction,SMDPad,CuDef*%
%ADD10RoundRect,0.250000X1.450000X-0.537500X1.450000X0.537500X-1.450000X0.537500X-1.450000X-0.537500X0*%
%TD*%
%TA.AperFunction,SMDPad,CuDef*%
%ADD11RoundRect,0.250000X-0.450000X0.350000X-0.450000X-0.350000X0.450000X-0.350000X0.450000X0.350000X0*%
%TD*%
%TA.AperFunction,ComponentPad*%
%ADD12R,1.700000X1.700000*%
%TD*%
%TA.AperFunction,ComponentPad*%
%ADD13O,1.700000X1.700000*%
%TD*%
%TA.AperFunction,SMDPad,CuDef*%
%ADD14R,0.800000X2.000000*%
%TD*%
%TA.AperFunction,SMDPad,CuDef*%
%ADD15RoundRect,0.090000X-0.660000X-0.360000X0.660000X-0.360000X0.660000X0.360000X-0.660000X0.360000X0*%
%TD*%
%TA.AperFunction,SMDPad,CuDef*%
%ADD16R,2.000000X0.900000*%
%TD*%
%TA.AperFunction,SMDPad,CuDef*%
%ADD17R,0.900000X2.000000*%
%TD*%
%TA.AperFunction,SMDPad,CuDef*%
%ADD18R,0.900000X0.900000*%
%TD*%
%TA.AperFunction,HeatsinkPad*%
%ADD19C,0.600000*%
%TD*%
%TA.AperFunction,SMDPad,CuDef*%
%ADD20R,3.800000X3.800000*%
%TD*%
%TA.AperFunction,ViaPad*%
%ADD21C,0.800000*%
%TD*%
%TA.AperFunction,ViaPad*%
%ADD22C,1.200000*%
%TD*%
%TA.AperFunction,Conductor*%
%ADD23C,0.250000*%
%TD*%
%TA.AperFunction,Conductor*%
%ADD24C,0.750000*%
%TD*%
G04 APERTURE END LIST*
D10*
%TO.P,C1,1*%
%TO.N,+3.3V*%
X113000000Y-57637500D03*
%TO.P,C1,2*%
%TO.N,GND*%
X113000000Y-53362500D03*
%TD*%
D11*
%TO.P,R2,1*%
%TO.N,Net-(U2-EN)*%
X90170000Y-97500000D03*
%TO.P,R2,2*%
%TO.N,+3.3V*%
X90170000Y-99500000D03*
%TD*%
D12*
%TO.P,J2,1,Pin_1*%
%TO.N,GND*%
X89662000Y-81534000D03*
D13*
%TO.P,J2,2,Pin_2*%
%TO.N,+3.3V*%
X89662000Y-84074000D03*
%TO.P,J2,3,Pin_3*%
%TO.N,/ESP32_TX*%
X89662000Y-86614000D03*
%TO.P,J2,4,Pin_4*%
%TO.N,/ESP32_RX*%
X89662000Y-89154000D03*
%TO.P,J2,5,Pin_5*%
%TO.N,/ESP32_BOOT0*%
X89662000Y-91694000D03*
%TD*%
D11*
%TO.P,R1,1*%
%TO.N,Net-(J4-Pin_4)*%
X90500000Y-55500000D03*
%TO.P,R1,2*%
%TO.N,+BATT*%
X90500000Y-57500000D03*
%TD*%
D14*
%TO.P,U1,1,VCC*%
%TO.N,+3.3V*%
X113030000Y-61500000D03*
%TO.P,U1,2,GND*%
%TO.N,GND*%
X111760000Y-61500000D03*
%TO.P,U1,3,MISO_TX*%
%TO.N,/E28_MISO_TX*%
X110490000Y-61500000D03*
%TO.P,U1,4,MOSI_RX*%
%TO.N,/E28_MISO_RX*%
X109220000Y-61500000D03*
%TO.P,U1,5,SCK_RTS*%
%TO.N,/E28_SCK_RTS*%
X107950000Y-61500000D03*
%TO.P,U1,6,NSS_CTS*%
%TO.N,/E28_NSS_CTS*%
X106680000Y-61500000D03*
%TO.P,U1,7,GND*%
%TO.N,GND*%
X105410000Y-61500000D03*
%TO.P,U1,8,RX_EN*%
%TO.N,/E28_RX_EN*%
X104140000Y-61500000D03*
%TO.P,U1,9,TX_EN*%
%TO.N,/E28_TX_EN*%
X104140000Y-76740000D03*
%TO.P,U1,10,GND*%
%TO.N,GND*%
X105410000Y-76740000D03*
%TO.P,U1,11,NRESET*%
%TO.N,/E28_NRESET*%
X106680000Y-76740000D03*
%TO.P,U1,12,BUSY*%
%TO.N,/E28_BUSY*%
X107950000Y-76740000D03*
%TO.P,U1,13,DIO1*%
%TO.N,/E28_DIO1*%
X109220000Y-76740000D03*
%TO.P,U1,14,DIO2*%
%TO.N,/E28_DIO2*%
X110490000Y-76740000D03*
%TO.P,U1,15,DIO3*%
%TO.N,unconnected-(U1-DIO3-Pad15)*%
X111760000Y-76740000D03*
%TO.P,U1,16,GND*%
%TO.N,GND*%
X113030000Y-76740000D03*
%TD*%
D15*
%TO.P,D1,1,VDD*%
%TO.N,unconnected-(D1-VDD-Pad1)*%
X117500000Y-45500000D03*
%TO.P,D1,2,DOUT*%
%TO.N,unconnected-(D1-DOUT-Pad2)*%
X117500000Y-48800000D03*
%TO.P,D1,3,VSS*%
%TO.N,unconnected-(D1-VSS-Pad3)*%
X122400000Y-48800000D03*
%TO.P,D1,4,DIN*%
%TO.N,unconnected-(D1-DIN-Pad4)*%
X122400000Y-45500000D03*
%TD*%
D12*
%TO.P,J3,1,Pin_1*%
%TO.N,GND*%
X116078000Y-82500000D03*
D13*
%TO.P,J3,2,Pin_2*%
%TO.N,+BATT*%
X116078000Y-85040000D03*
%TO.P,J3,3,Pin_3*%
%TO.N,/CRSF_RX_TX*%
X116078000Y-87580000D03*
%TD*%
D16*
%TO.P,U2,1,GND*%
%TO.N,GND*%
X94000000Y-87990000D03*
%TO.P,U2,2,VDD*%
%TO.N,+3.3V*%
X94000000Y-89260000D03*
%TO.P,U2,3,EN*%
%TO.N,Net-(U2-EN)*%
X94000000Y-90530000D03*
%TO.P,U2,4,SENSOR_VP*%
%TO.N,unconnected-(U2-SENSOR_VP-Pad4)*%
X94000000Y-91800000D03*
%TO.P,U2,5,SENSOR_VN*%
%TO.N,unconnected-(U2-SENSOR_VN-Pad5)*%
X94000000Y-93070000D03*
%TO.P,U2,6,IO34*%
%TO.N,unconnected-(U2-IO34-Pad6)*%
X94000000Y-94340000D03*
%TO.P,U2,7,IO35*%
%TO.N,unconnected-(U2-IO35-Pad7)*%
X94000000Y-95610000D03*
%TO.P,U2,8,IO32*%
%TO.N,unconnected-(U2-IO32-Pad8)*%
X94000000Y-96880000D03*
%TO.P,U2,9,IO33*%
%TO.N,unconnected-(U2-IO33-Pad9)*%
X94000000Y-98150000D03*
%TO.P,U2,10,IO25*%
%TO.N,unconnected-(U2-IO25-Pad10)*%
X94000000Y-99420000D03*
%TO.P,U2,11,IO26*%
%TO.N,/E28_TX_EN*%
X94000000Y-100690000D03*
%TO.P,U2,12,IO27*%
%TO.N,/E28_RX_EN*%
X94000000Y-101960000D03*
%TO.P,U2,13,IO14*%
%TO.N,/E28_NRESET*%
X94000000Y-103230000D03*
%TO.P,U2,14,IO12*%
%TO.N,unconnected-(U2-IO12-Pad14)*%
X94000000Y-104500000D03*
D17*
%TO.P,U2,15,GND*%
%TO.N,GND*%
X97040000Y-105750000D03*
%TO.P,U2,16,IO13*%
%TO.N,/CRSF_RX_TX*%
X98310000Y-105750000D03*
%TO.P,U2,17,SHD/SD2*%
%TO.N,unconnected-(U2-SHD{slash}SD2-Pad17)*%
X99580000Y-105750000D03*
%TO.P,U2,18,SWP/SD3*%
%TO.N,unconnected-(U2-SWP{slash}SD3-Pad18)*%
X100850000Y-105750000D03*
%TO.P,U2,19,SCS/CMD*%
%TO.N,unconnected-(U2-SCS{slash}CMD-Pad19)*%
X102120000Y-105750000D03*
%TO.P,U2,20,SCK/CLK*%
%TO.N,unconnected-(U2-SCK{slash}CLK-Pad20)*%
X103390000Y-105750000D03*
%TO.P,U2,21,SDO/SD0*%
%TO.N,unconnected-(U2-SDO{slash}SD0-Pad21)*%
X104660000Y-105750000D03*
%TO.P,U2,22,SDI/SD1*%
%TO.N,unconnected-(U2-SDI{slash}SD1-Pad22)*%
X105930000Y-105750000D03*
%TO.P,U2,23,IO15*%
%TO.N,/LED_RGB*%
X107200000Y-105750000D03*
%TO.P,U2,24,IO2*%
%TO.N,/E28_DIO2*%
X108470000Y-105750000D03*
D16*
%TO.P,U2,25,IO0*%
%TO.N,/ESP32_BOOT0*%
X111500000Y-104500000D03*
%TO.P,U2,26,IO4*%
%TO.N,/E28_DIO1*%
X111500000Y-103230000D03*
%TO.P,U2,27,IO16*%
%TO.N,unconnected-(U2-IO16-Pad27)*%
X111500000Y-101960000D03*
%TO.P,U2,28,IO17*%
%TO.N,unconnected-(U2-IO17-Pad28)*%
X111500000Y-100690000D03*
%TO.P,U2,29,IO5*%
%TO.N,/E28_NSS_CTS*%
X111500000Y-99420000D03*
%TO.P,U2,30,IO18*%
%TO.N,/E28_SCK_RTS*%
X111500000Y-98150000D03*
%TO.P,U2,31,IO19*%
%TO.N,/E28_MISO_RX*%
X111500000Y-96880000D03*
%TO.P,U2,32,NC*%
%TO.N,unconnected-(U2-NC-Pad32)*%
X111500000Y-95610000D03*
%TO.P,U2,33,IO21*%
%TO.N,/E28_BUSY*%
X111500000Y-94340000D03*
%TO.P,U2,34,RXD0/IO3*%
%TO.N,/ESP32_RX*%
X111500000Y-93070000D03*
%TO.P,U2,35,TXD0/IO1*%
%TO.N,/ESP32_TX*%
X111500000Y-91800000D03*
%TO.P,U2,36,IO22*%
%TO.N,unconnected-(U2-IO22-Pad36)*%
X111500000Y-90530000D03*
%TO.P,U2,37,IO23*%
%TO.N,/E28_MISO_TX*%
X111500000Y-89260000D03*
%TO.P,U2,38,GND*%
%TO.N,GND*%
X111500000Y-87990000D03*
D18*
%TO.P,U2,39,GND*%
X99850000Y-94310000D03*
D19*
X99850000Y-95010000D03*
D18*
X99850000Y-95710000D03*
D19*
X99850000Y-96410000D03*
D18*
X99850000Y-97110000D03*
D19*
X100550000Y-94310000D03*
X100550000Y-95710000D03*
X100550000Y-97110000D03*
X101225000Y-95010000D03*
X101225000Y-96410000D03*
D18*
X101250000Y-94310000D03*
X101250000Y-95710000D03*
D20*
X101250000Y-95710000D03*
D18*
X101250000Y-97110000D03*
D19*
X101950000Y-94310000D03*
X101950000Y-95710000D03*
X101950000Y-97110000D03*
D18*
X102650000Y-94310000D03*
D19*
X102650000Y-95010000D03*
D18*
X102650000Y-95710000D03*
D19*
X102650000Y-96410000D03*
D18*
X102650000Y-97110000D03*
%TD*%
D12*
%TO.P,J4,1,Pin_1*%
%TO.N,+3.3V*%
X105000000Y-49500000D03*
D13*
%TO.P,J4,2,Pin_2*%
%TO.N,GND*%
X102460000Y-49500000D03*
%TO.P,J4,3,Pin_3*%
%TO.N,+BATT*%
X99920000Y-49500000D03*
%TO.P,J4,4,Pin_4*%
%TO.N,Net-(J4-Pin_4)*%
X97380000Y-49500000D03*
%TD*%
D21*
%TO.N,/ESP32_BOOT0*%
X113030000Y-104500000D03*
%TO.N,/ESP32_RX*%
X109500000Y-93000000D03*
%TO.N,/ESP32_TX*%
X108000000Y-92000000D03*
%TO.N,+3.3V*%
X91694000Y-101346000D03*
D22*
%TO.N,+BATT*%
X105410000Y-71882000D03*
X90678000Y-60452000D03*
D21*
%TO.N,/CRSF_RX_TX*%
X116078000Y-103000000D03*
X105500000Y-103000000D03*
%TO.N,/E28_MISO_RX*%
X109500000Y-96880000D03*
X113500000Y-69812000D03*
%TO.N,/E28_NSS_CTS*%
X109500000Y-99420000D03*
X97790000Y-99500000D03*
%TO.N,/E28_MISO_TX*%
X110490000Y-64516000D03*
X109000000Y-89000000D03*
%TO.N,/E28_NRESET*%
X97028000Y-81788000D03*
X106680000Y-78994000D03*
%TO.N,/E28_TX_EN*%
X95500000Y-81788000D03*
X104140000Y-78994000D03*
%TO.N,/E28_BUSY*%
X104648000Y-94340000D03*
X109000000Y-94340000D03*
%TO.N,/E28_SCK_RTS*%
X98552000Y-98298000D03*
X109500000Y-98150000D03*
%TO.N,/E28_DIO1*%
X109220000Y-78994000D03*
X106680000Y-88900000D03*
%TD*%
D23*
%TO.N,+3.3V*%
X113000000Y-61470000D02*
X113030000Y-61500000D01*
X113000000Y-57637500D02*
X113000000Y-61470000D01*
X108500000Y-56000000D02*
X110137500Y-57637500D01*
X108500000Y-53000000D02*
X108500000Y-56000000D01*
X105000000Y-49500000D02*
X108500000Y-53000000D01*
X110137500Y-57637500D02*
X113000000Y-57637500D01*
%TO.N,/ESP32_BOOT0*%
X113030000Y-104500000D02*
X111500000Y-104500000D01*
%TO.N,/ESP32_RX*%
X109500000Y-93000000D02*
X109570000Y-93070000D01*
X109570000Y-93070000D02*
X111500000Y-93070000D01*
%TO.N,/ESP32_TX*%
X108000000Y-92000000D02*
X108200000Y-91800000D01*
X108200000Y-91800000D02*
X111500000Y-91800000D01*
%TO.N,+3.3V*%
X94000000Y-89260000D02*
X93070000Y-89260000D01*
X92202000Y-85344000D02*
X90932000Y-84074000D01*
X90932000Y-101346000D02*
X91694000Y-101346000D01*
X92202000Y-88392000D02*
X92202000Y-85344000D01*
X93070000Y-89260000D02*
X92202000Y-88392000D01*
X90170000Y-100584000D02*
X90932000Y-101346000D01*
X90932000Y-84074000D02*
X89662000Y-84074000D01*
X90170000Y-99500000D02*
X90170000Y-100584000D01*
%TO.N,GND*%
X111760000Y-61500000D02*
X111760000Y-59436000D01*
X105410000Y-61500000D02*
X105410000Y-59436000D01*
X113030000Y-76740000D02*
X113030000Y-78740000D01*
X111760000Y-61500000D02*
X111760000Y-63500000D01*
X113030000Y-76740000D02*
X113030000Y-74930000D01*
X105410000Y-76740000D02*
X105410000Y-74422000D01*
X105410000Y-78740000D02*
X105410000Y-76740000D01*
D24*
%TO.N,+BATT*%
X90678000Y-60452000D02*
X90678000Y-57678000D01*
X99920000Y-56580000D02*
X99920000Y-49500000D01*
X114250000Y-85040000D02*
X113538000Y-84328000D01*
X90678000Y-57678000D02*
X90500000Y-57500000D01*
X99000000Y-57500000D02*
X99920000Y-56580000D01*
X116078000Y-85040000D02*
X114250000Y-85040000D01*
X90500000Y-57500000D02*
X99000000Y-57500000D01*
X115316000Y-78740000D02*
X115316000Y-73406000D01*
X115316000Y-73406000D02*
X113792000Y-71882000D01*
X113538000Y-80518000D02*
X115316000Y-78740000D01*
X113792000Y-71882000D02*
X105410000Y-71882000D01*
X113538000Y-84328000D02*
X113538000Y-80518000D01*
D23*
%TO.N,/CRSF_RX_TX*%
X98310000Y-104190000D02*
X99500000Y-103000000D01*
X116078000Y-103000000D02*
X116078000Y-87580000D01*
X99500000Y-103000000D02*
X105500000Y-103000000D01*
X98310000Y-105750000D02*
X98310000Y-104190000D01*
%TO.N,/E28_MISO_RX*%
X109220000Y-65532000D02*
X109220000Y-61500000D01*
X109500000Y-96880000D02*
X111500000Y-96880000D01*
X113500000Y-69812000D02*
X109220000Y-65532000D01*
%TO.N,/E28_NSS_CTS*%
X103500000Y-65500000D02*
X106000000Y-65500000D01*
X106770000Y-64730000D02*
X106770000Y-61590000D01*
X97790000Y-71210000D02*
X103500000Y-65500000D01*
X106770000Y-61590000D02*
X106680000Y-61500000D01*
X106000000Y-65500000D02*
X106770000Y-64730000D01*
X109500000Y-99420000D02*
X111500000Y-99420000D01*
X97790000Y-99500000D02*
X97790000Y-71210000D01*
%TO.N,/E28_MISO_TX*%
X109260000Y-89260000D02*
X109000000Y-89000000D01*
X111500000Y-89260000D02*
X109260000Y-89260000D01*
X110490000Y-64516000D02*
X110490000Y-61500000D01*
%TO.N,/E28_RX_EN*%
X96266000Y-68234000D02*
X103000000Y-61500000D01*
X95040000Y-101960000D02*
X96266000Y-100734000D01*
X96266000Y-100734000D02*
X96266000Y-68234000D01*
X94000000Y-101960000D02*
X95040000Y-101960000D01*
X103000000Y-61500000D02*
X104140000Y-61500000D01*
%TO.N,/E28_NRESET*%
X94770000Y-103230000D02*
X94000000Y-103230000D01*
X106680000Y-78994000D02*
X106680000Y-76740000D01*
X97028000Y-100972000D02*
X94770000Y-103230000D01*
X97028000Y-81788000D02*
X97028000Y-100972000D01*
%TO.N,/E28_DIO2*%
X105664000Y-99664000D02*
X108470000Y-102470000D01*
X110490000Y-82804000D02*
X105664000Y-87630000D01*
X105664000Y-87630000D02*
X105664000Y-99664000D01*
X110490000Y-76740000D02*
X110490000Y-82804000D01*
X108470000Y-102470000D02*
X108470000Y-105750000D01*
%TO.N,/E28_TX_EN*%
X94810000Y-100690000D02*
X94000000Y-100690000D01*
X104140000Y-76740000D02*
X104140000Y-78994000D01*
X95500000Y-81788000D02*
X95500000Y-100000000D01*
X95500000Y-100000000D02*
X94810000Y-100690000D01*
%TO.N,/E28_BUSY*%
X109000000Y-94340000D02*
X111500000Y-94340000D01*
X104648000Y-83820000D02*
X107950000Y-80518000D01*
X107950000Y-80518000D02*
X107950000Y-76740000D01*
X104648000Y-94340000D02*
X104648000Y-83820000D01*
%TO.N,/E28_SCK_RTS*%
X108040000Y-61590000D02*
X107950000Y-61500000D01*
X109500000Y-98150000D02*
X111500000Y-98150000D01*
X108040000Y-66460000D02*
X108040000Y-61590000D01*
X98552000Y-98298000D02*
X98552000Y-73448000D01*
X104500000Y-67500000D02*
X107000000Y-67500000D01*
X98552000Y-73448000D02*
X104500000Y-67500000D01*
X107000000Y-67500000D02*
X108040000Y-66460000D01*
%TO.N,/E28_DIO1*%
X106680000Y-99360000D02*
X110550000Y-103230000D01*
X106680000Y-88900000D02*
X106680000Y-99360000D01*
X109220000Y-78994000D02*
X109220000Y-76740000D01*
X110550000Y-103230000D02*
X111500000Y-103230000D01*
%TO.N,Net-(J4-Pin_4)*%
X91000000Y-49500000D02*
X97380000Y-49500000D01*
X90500000Y-50000000D02*
X91000000Y-49500000D01*
X90500000Y-55500000D02*
X90500000Y-50000000D01*
%TO.N,Net-(U2-EN)*%
X91440000Y-93980000D02*
X92202000Y-93218000D01*
X92202000Y-90798000D02*
X92470000Y-90530000D01*
X92202000Y-93218000D02*
X92202000Y-90798000D01*
X90170000Y-97500000D02*
X90170000Y-94488000D01*
X92470000Y-90530000D02*
X94000000Y-90530000D01*
X90678000Y-93980000D02*
X91440000Y-93980000D01*
X90170000Y-94488000D02*
X90678000Y-93980000D01*
%TD*%
%TA.AperFunction,Conductor*%
%TO.N,GND*%
G36*
X123902539Y-41922185D02*
G01*
X123948294Y-41974989D01*
X123959500Y-42026500D01*
X123959500Y-109611500D01*
X123939815Y-109678539D01*
X123887011Y-109724294D01*
X123835500Y-109735500D01*
X86222500Y-109735500D01*
X86155461Y-109715815D01*
X86109706Y-109663011D01*
X86098500Y-109611500D01*
X86098500Y-106797844D01*
X96090000Y-106797844D01*
X96096401Y-106857372D01*
X96096403Y-106857379D01*
X96146645Y-106992086D01*
X96146649Y-106992093D01*
X96232809Y-107107187D01*
X96232812Y-107107190D01*
X96347906Y-107193350D01*
X96347913Y-107193354D01*
X96482620Y-107243596D01*
X96482627Y-107243598D01*
X96542155Y-107249999D01*
X96542172Y-107250000D01*
X96790000Y-107250000D01*
X96790000Y-106000000D01*
X96090000Y-106000000D01*
X96090000Y-106797844D01*
X86098500Y-106797844D01*
X86098500Y-84073999D01*
X88306341Y-84073999D01*
X88306341Y-84074000D01*
X88326936Y-84309403D01*
X88326938Y-84309413D01*
X88388094Y-84537655D01*
X88388096Y-84537659D01*
X88388097Y-84537663D01*
X88483707Y-84742698D01*
X88487965Y-84751830D01*
X88487967Y-84751834D01*
X88581981Y-84886099D01*
X88623408Y-84945263D01*
X88623501Y-84945395D01*
X88623506Y-84945402D01*
X88790597Y-85112493D01*
X88790603Y-85112498D01*
X88976158Y-85242425D01*
X89019783Y-85297002D01*
X89026977Y-85366500D01*
X88995454Y-85428855D01*
X88976158Y-85445575D01*
X88790597Y-85575505D01*
X88623505Y-85742597D01*
X88487965Y-85936169D01*
X88487964Y-85936171D01*
X88388098Y-86150335D01*
X88388094Y-86150344D01*
X88326938Y-86378586D01*
X88326936Y-86378596D01*
X88306341Y-86613999D01*
X88306341Y-86614000D01*
X88326936Y-86849403D01*
X88326938Y-86849413D01*
X88388094Y-87077655D01*
X88388096Y-87077659D01*
X88388097Y-87077663D01*
X88415258Y-87135909D01*
X88487965Y-87291830D01*
X88487967Y-87291834D01*
X88623501Y-87485395D01*
X88623506Y-87485402D01*
X88790597Y-87652493D01*
X88790603Y-87652498D01*
X88976158Y-87782425D01*
X89019783Y-87837002D01*
X89026977Y-87906500D01*
X88995454Y-87968855D01*
X88976158Y-87985575D01*
X88790597Y-88115505D01*
X88623505Y-88282597D01*
X88487965Y-88476169D01*
X88487964Y-88476171D01*
X88388098Y-88690335D01*
X88388094Y-88690344D01*
X88326938Y-88918586D01*
X88326936Y-88918596D01*
X88306341Y-89153999D01*
X88306341Y-89154000D01*
X88326936Y-89389403D01*
X88326938Y-89389413D01*
X88388094Y-89617655D01*
X88388096Y-89617659D01*
X88388097Y-89617663D01*
X88465732Y-89784151D01*
X88487965Y-89831830D01*
X88487967Y-89831834D01*
X88623501Y-90025395D01*
X88623506Y-90025402D01*
X88790597Y-90192493D01*
X88790603Y-90192498D01*
X88976158Y-90322425D01*
X89019783Y-90377002D01*
X89026977Y-90446500D01*
X88995454Y-90508855D01*
X88976158Y-90525575D01*
X88790597Y-90655505D01*
X88623505Y-90822597D01*
X88487965Y-91016169D01*
X88487964Y-91016171D01*
X88388098Y-91230335D01*
X88388094Y-91230344D01*
X88326938Y-91458586D01*
X88326936Y-91458596D01*
X88306341Y-91693999D01*
X88306341Y-91694000D01*
X88326936Y-91929403D01*
X88326938Y-91929413D01*
X88388094Y-92157655D01*
X88388096Y-92157659D01*
X88388097Y-92157663D01*
X88453474Y-92297864D01*
X88487965Y-92371830D01*
X88487967Y-92371834D01*
X88562540Y-92478334D01*
X88623505Y-92565401D01*
X88790599Y-92732495D01*
X88866137Y-92785387D01*
X88984165Y-92868032D01*
X88984167Y-92868033D01*
X88984170Y-92868035D01*
X89198337Y-92967903D01*
X89426592Y-93029063D01*
X89614918Y-93045539D01*
X89661999Y-93049659D01*
X89662000Y-93049659D01*
X89662001Y-93049659D01*
X89701234Y-93046226D01*
X89897408Y-93029063D01*
X90125663Y-92967903D01*
X90339830Y-92868035D01*
X90533401Y-92732495D01*
X90700495Y-92565401D01*
X90836035Y-92371830D01*
X90935903Y-92157663D01*
X90997063Y-91929408D01*
X91017659Y-91694000D01*
X90997063Y-91458592D01*
X90935903Y-91230337D01*
X90836035Y-91016171D01*
X90700495Y-90822599D01*
X90700494Y-90822597D01*
X90533402Y-90655506D01*
X90533396Y-90655501D01*
X90347842Y-90525575D01*
X90304217Y-90470998D01*
X90297023Y-90401500D01*
X90328546Y-90339145D01*
X90347842Y-90322425D01*
X90370026Y-90306891D01*
X90533401Y-90192495D01*
X90700495Y-90025401D01*
X90836035Y-89831830D01*
X90935903Y-89617663D01*
X90997063Y-89389408D01*
X91017659Y-89154000D01*
X90997063Y-88918592D01*
X90935903Y-88690337D01*
X90836035Y-88476171D01*
X90830163Y-88467784D01*
X90700494Y-88282597D01*
X90533402Y-88115506D01*
X90533396Y-88115501D01*
X90347842Y-87985575D01*
X90304217Y-87930998D01*
X90297023Y-87861500D01*
X90328546Y-87799145D01*
X90347842Y-87782425D01*
X90408431Y-87740000D01*
X90533401Y-87652495D01*
X90700495Y-87485401D01*
X90836035Y-87291830D01*
X90935903Y-87077663D01*
X90997063Y-86849408D01*
X91017659Y-86614000D01*
X90997063Y-86378592D01*
X90935903Y-86150337D01*
X90836035Y-85936171D01*
X90821561Y-85915499D01*
X90700494Y-85742597D01*
X90533402Y-85575506D01*
X90533396Y-85575501D01*
X90347842Y-85445575D01*
X90304217Y-85390998D01*
X90297023Y-85321500D01*
X90328546Y-85259145D01*
X90347842Y-85242425D01*
X90463346Y-85161548D01*
X90533401Y-85112495D01*
X90700495Y-84945401D01*
X90705638Y-84938054D01*
X90760209Y-84894426D01*
X90829706Y-84887226D01*
X90892064Y-84918743D01*
X90894899Y-84921489D01*
X91540181Y-85566771D01*
X91573666Y-85628094D01*
X91576500Y-85654452D01*
X91576500Y-88453610D01*
X91595151Y-88547375D01*
X91600537Y-88574452D01*
X91611644Y-88601267D01*
X91647688Y-88688286D01*
X91657198Y-88702518D01*
X91659318Y-88705690D01*
X91659319Y-88705692D01*
X91716140Y-88790731D01*
X91716141Y-88790732D01*
X91716142Y-88790733D01*
X91803267Y-88877858D01*
X91803268Y-88877858D01*
X91810335Y-88884925D01*
X91810334Y-88884925D01*
X91810338Y-88884928D01*
X92463181Y-89537772D01*
X92496666Y-89599095D01*
X92499500Y-89625452D01*
X92499500Y-89757869D01*
X92499501Y-89757886D01*
X92500905Y-89770943D01*
X92488496Y-89839702D01*
X92440884Y-89890837D01*
X92401807Y-89905809D01*
X92357192Y-89914683D01*
X92347971Y-89916518D01*
X92304743Y-89925116D01*
X92287546Y-89928537D01*
X92173716Y-89975687D01*
X92173707Y-89975692D01*
X92071268Y-90044140D01*
X92027705Y-90087703D01*
X91984142Y-90131267D01*
X91984139Y-90131270D01*
X91803270Y-90312139D01*
X91803267Y-90312142D01*
X91776264Y-90339145D01*
X91716141Y-90399267D01*
X91702222Y-90420097D01*
X91702223Y-90420098D01*
X91647686Y-90501717D01*
X91647685Y-90501718D01*
X91614347Y-90582207D01*
X91608823Y-90595543D01*
X91600537Y-90615545D01*
X91600535Y-90615553D01*
X91576500Y-90736389D01*
X91576500Y-92907548D01*
X91556815Y-92974587D01*
X91540181Y-92995229D01*
X91217229Y-93318181D01*
X91155906Y-93351666D01*
X91129548Y-93354500D01*
X90739606Y-93354500D01*
X90616393Y-93354500D01*
X90547095Y-93368284D01*
X90547094Y-93368283D01*
X90495553Y-93378535D01*
X90495545Y-93378538D01*
X90381716Y-93425687D01*
X90317295Y-93468733D01*
X90317294Y-93468734D01*
X90279263Y-93494144D01*
X90279262Y-93494145D01*
X89771269Y-94002140D01*
X89684144Y-94089264D01*
X89684138Y-94089272D01*
X89615692Y-94191705D01*
X89615684Y-94191719D01*
X89582347Y-94272207D01*
X89576823Y-94285543D01*
X89568537Y-94305545D01*
X89568535Y-94305553D01*
X89544500Y-94426389D01*
X89544500Y-96327983D01*
X89524815Y-96395022D01*
X89472011Y-96440777D01*
X89459510Y-96445686D01*
X89400666Y-96465186D01*
X89400663Y-96465187D01*
X89251342Y-96557289D01*
X89127289Y-96681342D01*
X89035187Y-96830663D01*
X89035186Y-96830666D01*
X88980001Y-96997203D01*
X88980001Y-96997204D01*
X88980000Y-96997204D01*
X88969500Y-97099983D01*
X88969500Y-97900001D01*
X88969501Y-97900019D01*
X88980000Y-98002796D01*
X88980001Y-98002799D01*
X89021226Y-98127207D01*
X89035186Y-98169334D01*
X89114547Y-98298000D01*
X89127289Y-98318657D01*
X89220951Y-98412319D01*
X89254436Y-98473642D01*
X89249452Y-98543334D01*
X89220951Y-98587681D01*
X89127289Y-98681342D01*
X89035187Y-98830663D01*
X89035185Y-98830668D01*
X89007349Y-98914670D01*
X88980001Y-98997203D01*
X88980001Y-98997204D01*
X88980000Y-98997204D01*
X88969500Y-99099983D01*
X88969500Y-99900001D01*
X88969501Y-99900019D01*
X88980000Y-100002796D01*
X88980001Y-100002798D01*
X89009854Y-100092888D01*
X89035186Y-100169334D01*
X89127288Y-100318656D01*
X89251344Y-100442712D01*
X89400666Y-100534814D01*
X89462526Y-100555312D01*
X89519971Y-100595083D01*
X89545140Y-100648827D01*
X89568535Y-100766445D01*
X89568540Y-100766461D01*
X89615685Y-100880281D01*
X89615687Y-100880284D01*
X89639853Y-100916450D01*
X89639854Y-100916452D01*
X89684141Y-100982732D01*
X89684144Y-100982736D01*
X89775586Y-101074178D01*
X89775608Y-101074198D01*
X90443016Y-101741606D01*
X90443045Y-101741637D01*
X90533263Y-101831855D01*
X90533271Y-101831861D01*
X90588160Y-101868537D01*
X90588161Y-101868537D01*
X90635715Y-101900312D01*
X90672837Y-101915688D01*
X90672838Y-101915689D01*
X90672839Y-101915689D01*
X90749548Y-101947463D01*
X90870389Y-101971499D01*
X90870393Y-101971500D01*
X90870394Y-101971500D01*
X90990252Y-101971500D01*
X91057291Y-101991185D01*
X91082400Y-102012526D01*
X91088126Y-102018885D01*
X91088130Y-102018889D01*
X91241265Y-102130148D01*
X91241270Y-102130151D01*
X91414192Y-102207142D01*
X91414197Y-102207144D01*
X91599354Y-102246500D01*
X91599355Y-102246500D01*
X91788644Y-102246500D01*
X91788646Y-102246500D01*
X91973803Y-102207144D01*
X92146730Y-102130151D01*
X92299871Y-102018888D01*
X92299873Y-102018884D01*
X92302614Y-102016894D01*
X92368421Y-101993414D01*
X92436475Y-102009239D01*
X92485170Y-102059345D01*
X92499500Y-102117212D01*
X92499500Y-102457869D01*
X92499501Y-102457876D01*
X92505908Y-102517481D01*
X92518659Y-102551669D01*
X92523642Y-102621361D01*
X92518659Y-102638331D01*
X92505908Y-102672518D01*
X92499501Y-102732116D01*
X92499501Y-102732123D01*
X92499500Y-102732135D01*
X92499500Y-103727870D01*
X92499501Y-103727876D01*
X92505908Y-103787481D01*
X92518659Y-103821669D01*
X92523642Y-103891361D01*
X92518659Y-103908331D01*
X92505908Y-103942518D01*
X92503192Y-103967784D01*
X92499501Y-104002123D01*
X92499500Y-104002135D01*
X92499500Y-104997870D01*
X92499501Y-104997876D01*
X92505908Y-105057483D01*
X92556202Y-105192328D01*
X92556206Y-105192335D01*
X92642452Y-105307544D01*
X92642455Y-105307547D01*
X92757664Y-105393793D01*
X92757671Y-105393797D01*
X92892517Y-105444091D01*
X92892516Y-105444091D01*
X92899444Y-105444835D01*
X92952127Y-105450500D01*
X95047872Y-105450499D01*
X95107483Y-105444091D01*
X95242331Y-105393796D01*
X95357546Y-105307546D01*
X95443796Y-105192331D01*
X95494091Y-105057483D01*
X95500500Y-104997873D01*
X95500500Y-104702155D01*
X96090000Y-104702155D01*
X96090000Y-105500000D01*
X96790000Y-105500000D01*
X96790000Y-104250000D01*
X97290000Y-104250000D01*
X97290000Y-107250000D01*
X97537828Y-107250000D01*
X97537844Y-107249999D01*
X97597372Y-107243598D01*
X97597375Y-107243597D01*
X97630949Y-107231075D01*
X97700640Y-107226089D01*
X97717619Y-107231075D01*
X97752511Y-107244089D01*
X97752512Y-107244089D01*
X97752517Y-107244091D01*
X97812127Y-107250500D01*
X98807872Y-107250499D01*
X98867483Y-107244091D01*
X98901667Y-107231340D01*
X98971358Y-107226357D01*
X98988327Y-107231338D01*
X99022517Y-107244091D01*
X99082127Y-107250500D01*
X100077872Y-107250499D01*
X100137483Y-107244091D01*
X100171667Y-107231340D01*
X100241358Y-107226357D01*
X100258327Y-107231338D01*
X100292517Y-107244091D01*
X100352127Y-107250500D01*
X101347872Y-107250499D01*
X101407483Y-107244091D01*
X101441667Y-107231340D01*
X101511358Y-107226357D01*
X101528327Y-107231338D01*
X101562517Y-107244091D01*
X101622127Y-107250500D01*
X102617872Y-107250499D01*
X102677483Y-107244091D01*
X102711667Y-107231340D01*
X102781358Y-107226357D01*
X102798327Y-107231338D01*
X102832517Y-107244091D01*
X102892127Y-107250500D01*
X103887872Y-107250499D01*
X103947483Y-107244091D01*
X103981667Y-107231340D01*
X104051358Y-107226357D01*
X104068327Y-107231338D01*
X104102517Y-107244091D01*
X104162127Y-107250500D01*
X105157872Y-107250499D01*
X105217483Y-107244091D01*
X105251667Y-107231340D01*
X105321358Y-107226357D01*
X105338327Y-107231338D01*
X105372517Y-107244091D01*
X105432127Y-107250500D01*
X106427872Y-107250499D01*
X106487483Y-107244091D01*
X106521667Y-107231340D01*
X106591358Y-107226357D01*
X106608327Y-107231338D01*
X106642517Y-107244091D01*
X106702127Y-107250500D01*
X107697872Y-107250499D01*
X107757483Y-107244091D01*
X107791667Y-107231340D01*
X107861358Y-107226357D01*
X107878327Y-107231338D01*
X107912517Y-107244091D01*
X107972127Y-107250500D01*
X108967872Y-107250499D01*
X109027483Y-107244091D01*
X109162331Y-107193796D01*
X109277546Y-107107546D01*
X109363796Y-106992331D01*
X109414091Y-106857483D01*
X109420500Y-106797873D01*
X109420499Y-104702128D01*
X109414091Y-104642517D01*
X109363884Y-104507906D01*
X109363797Y-104507671D01*
X109363793Y-104507664D01*
X109277547Y-104392455D01*
X109277544Y-104392452D01*
X109162329Y-104306202D01*
X109160068Y-104304967D01*
X109158246Y-104303145D01*
X109155231Y-104300888D01*
X109155555Y-104300454D01*
X109110665Y-104255559D01*
X109095500Y-104196138D01*
X109095500Y-102959452D01*
X109115185Y-102892413D01*
X109167989Y-102846658D01*
X109237147Y-102836714D01*
X109300703Y-102865739D01*
X109307177Y-102871767D01*
X109783179Y-103347770D01*
X109963181Y-103527772D01*
X109996666Y-103589095D01*
X109999500Y-103615452D01*
X109999500Y-103727869D01*
X109999501Y-103727876D01*
X110005908Y-103787481D01*
X110018659Y-103821669D01*
X110023642Y-103891361D01*
X110018659Y-103908331D01*
X110005908Y-103942518D01*
X110003192Y-103967784D01*
X109999501Y-104002123D01*
X109999500Y-104002135D01*
X109999500Y-104997870D01*
X109999501Y-104997876D01*
X110005908Y-105057483D01*
X110056202Y-105192328D01*
X110056206Y-105192335D01*
X110142452Y-105307544D01*
X110142455Y-105307547D01*
X110257664Y-105393793D01*
X110257671Y-105393797D01*
X110392517Y-105444091D01*
X110392516Y-105444091D01*
X110399444Y-105444835D01*
X110452127Y-105450500D01*
X112547872Y-105450499D01*
X112607483Y-105444091D01*
X112742331Y-105393796D01*
X112742338Y-105393790D01*
X112747278Y-105391094D01*
X112815551Y-105376241D01*
X112832488Y-105378635D01*
X112935354Y-105400500D01*
X113124644Y-105400500D01*
X113124646Y-105400500D01*
X113309803Y-105361144D01*
X113482730Y-105284151D01*
X113635871Y-105172888D01*
X113762533Y-105032216D01*
X113857179Y-104868284D01*
X113915674Y-104688256D01*
X113935460Y-104500000D01*
X113915674Y-104311744D01*
X113857179Y-104131716D01*
X113762533Y-103967784D01*
X113635871Y-103827112D01*
X113635870Y-103827111D01*
X113482734Y-103715851D01*
X113482729Y-103715848D01*
X113309807Y-103638857D01*
X113309802Y-103638855D01*
X113164001Y-103607865D01*
X113124646Y-103599500D01*
X113124645Y-103599500D01*
X113124500Y-103599500D01*
X113124418Y-103599476D01*
X113118178Y-103598820D01*
X113118297Y-103597678D01*
X113057461Y-103579815D01*
X113011706Y-103527011D01*
X113000500Y-103475500D01*
X113000499Y-102732129D01*
X113000498Y-102732123D01*
X113000497Y-102732116D01*
X112994091Y-102672517D01*
X112981340Y-102638332D01*
X112976357Y-102568642D01*
X112981340Y-102551669D01*
X112994091Y-102517483D01*
X113000500Y-102457873D01*
X113000499Y-101462128D01*
X112994091Y-101402517D01*
X112981340Y-101368332D01*
X112976357Y-101298642D01*
X112981340Y-101281669D01*
X112994091Y-101247483D01*
X113000500Y-101187873D01*
X113000499Y-100192128D01*
X112994091Y-100132517D01*
X112981340Y-100098332D01*
X112976357Y-100028642D01*
X112981340Y-100011669D01*
X112994091Y-99977483D01*
X113000500Y-99917873D01*
X113000499Y-98922128D01*
X112994091Y-98862517D01*
X112981340Y-98828332D01*
X112976357Y-98758642D01*
X112981340Y-98741669D01*
X112994091Y-98707483D01*
X113000500Y-98647873D01*
X113000499Y-97652128D01*
X112994091Y-97592517D01*
X112981340Y-97558332D01*
X112976357Y-97488642D01*
X112981340Y-97471669D01*
X112994091Y-97437483D01*
X113000500Y-97377873D01*
X113000499Y-96382128D01*
X112994091Y-96322517D01*
X112981340Y-96288332D01*
X112976357Y-96218642D01*
X112981340Y-96201669D01*
X112994091Y-96167483D01*
X113000500Y-96107873D01*
X113000499Y-95112128D01*
X112994091Y-95052517D01*
X112981340Y-95018332D01*
X112976357Y-94948642D01*
X112981340Y-94931669D01*
X112994091Y-94897483D01*
X113000500Y-94837873D01*
X113000499Y-93842128D01*
X112994091Y-93782517D01*
X112981340Y-93748332D01*
X112976357Y-93678642D01*
X112981338Y-93661672D01*
X112994091Y-93627483D01*
X113000500Y-93567873D01*
X113000499Y-92572128D01*
X112994091Y-92512517D01*
X112981340Y-92478332D01*
X112976357Y-92408642D01*
X112981338Y-92391672D01*
X112994091Y-92357483D01*
X113000500Y-92297873D01*
X113000499Y-91302128D01*
X112994091Y-91242517D01*
X112981340Y-91208332D01*
X112976357Y-91138642D01*
X112981338Y-91121672D01*
X112994091Y-91087483D01*
X113000500Y-91027873D01*
X113000499Y-90032128D01*
X112994091Y-89972517D01*
X112981340Y-89938332D01*
X112976357Y-89868642D01*
X112981338Y-89851672D01*
X112994091Y-89817483D01*
X113000500Y-89757873D01*
X113000499Y-88762128D01*
X112994091Y-88702517D01*
X112981073Y-88667616D01*
X112976090Y-88597926D01*
X112981075Y-88580949D01*
X112993597Y-88547375D01*
X112993598Y-88547372D01*
X112999999Y-88487844D01*
X113000000Y-88487827D01*
X113000000Y-88240000D01*
X110000000Y-88240000D01*
X110000000Y-88468276D01*
X109980315Y-88535315D01*
X109927511Y-88581070D01*
X109858353Y-88591014D01*
X109794797Y-88561989D01*
X109768613Y-88530276D01*
X109732534Y-88467785D01*
X109605870Y-88327111D01*
X109452734Y-88215851D01*
X109452729Y-88215848D01*
X109279807Y-88138857D01*
X109279802Y-88138855D01*
X109134001Y-88107865D01*
X109094646Y-88099500D01*
X108905354Y-88099500D01*
X108872897Y-88106398D01*
X108720197Y-88138855D01*
X108720192Y-88138857D01*
X108547270Y-88215848D01*
X108547265Y-88215851D01*
X108394129Y-88327111D01*
X108267466Y-88467785D01*
X108172821Y-88631715D01*
X108172818Y-88631722D01*
X108121153Y-88790733D01*
X108114326Y-88811744D01*
X108094540Y-89000000D01*
X108114326Y-89188256D01*
X108114327Y-89188259D01*
X108172818Y-89368277D01*
X108172821Y-89368284D01*
X108267467Y-89532216D01*
X108394129Y-89672888D01*
X108547265Y-89784148D01*
X108547270Y-89784151D01*
X108720192Y-89861142D01*
X108720197Y-89861144D01*
X108905354Y-89900500D01*
X108905355Y-89900500D01*
X109094643Y-89900500D01*
X109094646Y-89900500D01*
X109156917Y-89887263D01*
X109194852Y-89885152D01*
X109198394Y-89885501D01*
X109327721Y-89885501D01*
X109327741Y-89885500D01*
X109877219Y-89885500D01*
X109944258Y-89905185D01*
X109990013Y-89957989D01*
X110000507Y-90022756D01*
X109999500Y-90032127D01*
X109999500Y-90032129D01*
X109999500Y-91027870D01*
X109999501Y-91027885D01*
X110000508Y-91037243D01*
X109988104Y-91106003D01*
X109940494Y-91157141D01*
X109877219Y-91174500D01*
X108386217Y-91174500D01*
X108335781Y-91163779D01*
X108279806Y-91138857D01*
X108279802Y-91138855D01*
X108125240Y-91106003D01*
X108094646Y-91099500D01*
X107905354Y-91099500D01*
X107874760Y-91106003D01*
X107720197Y-91138855D01*
X107720192Y-91138857D01*
X107547270Y-91215848D01*
X107547266Y-91215851D01*
X107502384Y-91248459D01*
X107436577Y-91271938D01*
X107368523Y-91256111D01*
X107319829Y-91206005D01*
X107305500Y-91148140D01*
X107305500Y-89598687D01*
X107325185Y-89531648D01*
X107337350Y-89515715D01*
X107355891Y-89495122D01*
X107412533Y-89432216D01*
X107507179Y-89268284D01*
X107565674Y-89088256D01*
X107585460Y-88900000D01*
X107565674Y-88711744D01*
X107507179Y-88531716D01*
X107412533Y-88367784D01*
X107285871Y-88227112D01*
X107270369Y-88215849D01*
X107132734Y-88115851D01*
X107132729Y-88115848D01*
X106959807Y-88038857D01*
X106959802Y-88038855D01*
X106814001Y-88007865D01*
X106774646Y-87999500D01*
X106585354Y-87999500D01*
X106478892Y-88022128D01*
X106409226Y-88016812D01*
X106353493Y-87974674D01*
X106329388Y-87909094D01*
X106344565Y-87840893D01*
X106365428Y-87813161D01*
X106686434Y-87492155D01*
X110000000Y-87492155D01*
X110000000Y-87740000D01*
X111250000Y-87740000D01*
X111750000Y-87740000D01*
X113000000Y-87740000D01*
X113000000Y-87492172D01*
X112999999Y-87492155D01*
X112993598Y-87432627D01*
X112993596Y-87432620D01*
X112943354Y-87297913D01*
X112943350Y-87297906D01*
X112857190Y-87182812D01*
X112857187Y-87182809D01*
X112742093Y-87096649D01*
X112742086Y-87096645D01*
X112607379Y-87046403D01*
X112607372Y-87046401D01*
X112547844Y-87040000D01*
X111750000Y-87040000D01*
X111750000Y-87740000D01*
X111250000Y-87740000D01*
X111250000Y-87040000D01*
X110452155Y-87040000D01*
X110392627Y-87046401D01*
X110392620Y-87046403D01*
X110257913Y-87096645D01*
X110257906Y-87096649D01*
X110142812Y-87182809D01*
X110142809Y-87182812D01*
X110056649Y-87297906D01*
X110056645Y-87297913D01*
X110006403Y-87432620D01*
X110006401Y-87432627D01*
X110000000Y-87492155D01*
X106686434Y-87492155D01*
X110975858Y-83202733D01*
X111044312Y-83100285D01*
X111091463Y-82986451D01*
X111108640Y-82900099D01*
X111115501Y-82865608D01*
X111115501Y-82737283D01*
X111115500Y-82737257D01*
X111115500Y-78357405D01*
X111135185Y-78290366D01*
X111187989Y-78244611D01*
X111252754Y-78234116D01*
X111312127Y-78240500D01*
X112207872Y-78240499D01*
X112267483Y-78234091D01*
X112352382Y-78202425D01*
X112422070Y-78197440D01*
X112439047Y-78202425D01*
X112522623Y-78233598D01*
X112582155Y-78239999D01*
X112582172Y-78240000D01*
X113477828Y-78240000D01*
X113477844Y-78239999D01*
X113537372Y-78233598D01*
X113537379Y-78233596D01*
X113672086Y-78183354D01*
X113672093Y-78183350D01*
X113787187Y-78097190D01*
X113787190Y-78097187D01*
X113873351Y-77982091D01*
X113873352Y-77982090D01*
X113885627Y-77949179D01*
X112764128Y-76827680D01*
X112730643Y-76766357D01*
X112732528Y-76739999D01*
X113383553Y-76739999D01*
X113383553Y-76740000D01*
X113929999Y-77286447D01*
X113930000Y-77286446D01*
X113930000Y-76193553D01*
X113929999Y-76193552D01*
X113383553Y-76739999D01*
X112732528Y-76739999D01*
X112735627Y-76696665D01*
X112764128Y-76652318D01*
X113030000Y-76386447D01*
X113885627Y-75530819D01*
X113873353Y-75497910D01*
X113873351Y-75497907D01*
X113787190Y-75382812D01*
X113787187Y-75382809D01*
X113672093Y-75296649D01*
X113672086Y-75296645D01*
X113537379Y-75246403D01*
X113537372Y-75246401D01*
X113477844Y-75240000D01*
X112582155Y-75240000D01*
X112522627Y-75246401D01*
X112522616Y-75246404D01*
X112439046Y-75277573D01*
X112369354Y-75282557D01*
X112352382Y-75277573D01*
X112267485Y-75245909D01*
X112267483Y-75245908D01*
X112207883Y-75239501D01*
X112207881Y-75239500D01*
X112207873Y-75239500D01*
X112207864Y-75239500D01*
X111312129Y-75239500D01*
X111312123Y-75239501D01*
X111252516Y-75245908D01*
X111168332Y-75277307D01*
X111098641Y-75282291D01*
X111081667Y-75277307D01*
X110997482Y-75245908D01*
X110997483Y-75245908D01*
X110937883Y-75239501D01*
X110937881Y-75239500D01*
X110937873Y-75239500D01*
X110937864Y-75239500D01*
X110042129Y-75239500D01*
X110042123Y-75239501D01*
X109982516Y-75245908D01*
X109898332Y-75277307D01*
X109828641Y-75282291D01*
X109811667Y-75277307D01*
X109727482Y-75245908D01*
X109727483Y-75245908D01*
X109667883Y-75239501D01*
X109667881Y-75239500D01*
X109667873Y-75239500D01*
X109667864Y-75239500D01*
X108772129Y-75239500D01*
X108772123Y-75239501D01*
X108712516Y-75245908D01*
X108628332Y-75277307D01*
X108558641Y-75282291D01*
X108541667Y-75277307D01*
X108457482Y-75245908D01*
X108457483Y-75245908D01*
X108397883Y-75239501D01*
X108397881Y-75239500D01*
X108397873Y-75239500D01*
X108397864Y-75239500D01*
X107502129Y-75239500D01*
X107502123Y-75239501D01*
X107442516Y-75245908D01*
X107358332Y-75277307D01*
X107288641Y-75282291D01*
X107271667Y-75277307D01*
X107187482Y-75245908D01*
X107187483Y-75245908D01*
X107127883Y-75239501D01*
X107127881Y-75239500D01*
X107127873Y-75239500D01*
X107127864Y-75239500D01*
X106232129Y-75239500D01*
X106232123Y-75239501D01*
X106172514Y-75245909D01*
X106087617Y-75277573D01*
X106017925Y-75282557D01*
X106000953Y-75277573D01*
X105917382Y-75246403D01*
X105917372Y-75246401D01*
X105857844Y-75240000D01*
X104962155Y-75240000D01*
X104902627Y-75246401D01*
X104902616Y-75246404D01*
X104819046Y-75277573D01*
X104749354Y-75282557D01*
X104732382Y-75277573D01*
X104647485Y-75245909D01*
X104647483Y-75245908D01*
X104587883Y-75239501D01*
X104587881Y-75239500D01*
X104587873Y-75239500D01*
X104587864Y-75239500D01*
X103692129Y-75239500D01*
X103692123Y-75239501D01*
X103632516Y-75245908D01*
X103497671Y-75296202D01*
X103497664Y-75296206D01*
X103382455Y-75382452D01*
X103382452Y-75382455D01*
X103296206Y-75497664D01*
X103296202Y-75497671D01*
X103245908Y-75632517D01*
X103239501Y-75692116D01*
X103239500Y-75692135D01*
X103239500Y-77787870D01*
X103239501Y-77787876D01*
X103245908Y-77847483D01*
X103296202Y-77982328D01*
X103296206Y-77982335D01*
X103382452Y-78097544D01*
X103382453Y-78097545D01*
X103382454Y-78097546D01*
X103464811Y-78159198D01*
X103506682Y-78215131D01*
X103514500Y-78258464D01*
X103514500Y-78295312D01*
X103494815Y-78362351D01*
X103482650Y-78378284D01*
X103407466Y-78461784D01*
X103312821Y-78625715D01*
X103312818Y-78625722D01*
X103254327Y-78805740D01*
X103254326Y-78805744D01*
X103234540Y-78994000D01*
X103254326Y-79182256D01*
X103254327Y-79182259D01*
X103312818Y-79362277D01*
X103312821Y-79362284D01*
X103407467Y-79526216D01*
X103495500Y-79623986D01*
X103534129Y-79666888D01*
X103687265Y-79778148D01*
X103687270Y-79778151D01*
X103860192Y-79855142D01*
X103860197Y-79855144D01*
X104045354Y-79894500D01*
X104045355Y-79894500D01*
X104234644Y-79894500D01*
X104234646Y-79894500D01*
X104419803Y-79855144D01*
X104592730Y-79778151D01*
X104745871Y-79666888D01*
X104872533Y-79526216D01*
X104967179Y-79362284D01*
X105025674Y-79182256D01*
X105045460Y-78994000D01*
X105025674Y-78805744D01*
X104967179Y-78625716D01*
X104872533Y-78461784D01*
X104858749Y-78446475D01*
X104828519Y-78383486D01*
X104837142Y-78314150D01*
X104881883Y-78260484D01*
X104948535Y-78239526D01*
X104958838Y-78239979D01*
X104958847Y-78239822D01*
X104962172Y-78240000D01*
X105857828Y-78240000D01*
X105861153Y-78239822D01*
X105861226Y-78241185D01*
X105924598Y-78252616D01*
X105975739Y-78300223D01*
X105993022Y-78367921D01*
X105970962Y-78434216D01*
X105961252Y-78446474D01*
X105947466Y-78461785D01*
X105852821Y-78625715D01*
X105852818Y-78625722D01*
X105794327Y-78805740D01*
X105794326Y-78805744D01*
X105774540Y-78994000D01*
X105794326Y-79182256D01*
X105794327Y-79182259D01*
X105852818Y-79362277D01*
X105852821Y-79362284D01*
X105947467Y-79526216D01*
X106035500Y-79623986D01*
X106074129Y-79666888D01*
X106227265Y-79778148D01*
X106227270Y-79778151D01*
X106400192Y-79855142D01*
X106400197Y-79855144D01*
X106585354Y-79894500D01*
X106585355Y-79894500D01*
X106774644Y-79894500D01*
X106774646Y-79894500D01*
X106959803Y-79855144D01*
X107132730Y-79778151D01*
X107132733Y-79778148D01*
X107138363Y-79774899D01*
X107139904Y-79777569D01*
X107192948Y-79758415D01*
X107261062Y-79773980D01*
X107309948Y-79823900D01*
X107324500Y-79882185D01*
X107324500Y-80207547D01*
X107304815Y-80274586D01*
X107288181Y-80295228D01*
X105742402Y-81841007D01*
X104249270Y-83334139D01*
X104249267Y-83334142D01*
X104205705Y-83377703D01*
X104162144Y-83421264D01*
X104162142Y-83421267D01*
X104141273Y-83452500D01*
X104141272Y-83452502D01*
X104141271Y-83452501D01*
X104093689Y-83523712D01*
X104093685Y-83523719D01*
X104067002Y-83588141D01*
X104067002Y-83588142D01*
X104046537Y-83637546D01*
X104022500Y-83758396D01*
X104022500Y-93641312D01*
X104002815Y-93708351D01*
X103990650Y-93724284D01*
X103915466Y-93807784D01*
X103881387Y-93866812D01*
X103830820Y-93915027D01*
X103762213Y-93928251D01*
X103697348Y-93902283D01*
X103656820Y-93845369D01*
X103650000Y-93804812D01*
X103650000Y-93762172D01*
X103649999Y-93762155D01*
X103643598Y-93702627D01*
X103643596Y-93702620D01*
X103593354Y-93567913D01*
X103593350Y-93567906D01*
X103507190Y-93452812D01*
X103507187Y-93452809D01*
X103392093Y-93366649D01*
X103392086Y-93366645D01*
X103257379Y-93316403D01*
X103257372Y-93316401D01*
X103197844Y-93310000D01*
X101500000Y-93310000D01*
X101500000Y-94060000D01*
X101846447Y-94060000D01*
X101846447Y-94059999D01*
X101862319Y-94044128D01*
X101923642Y-94010643D01*
X101993334Y-94015627D01*
X102037681Y-94044128D01*
X102053553Y-94060000D01*
X102776000Y-94060000D01*
X102843039Y-94079685D01*
X102888794Y-94132489D01*
X102900000Y-94184000D01*
X102900000Y-94906447D01*
X102915872Y-94922319D01*
X102949357Y-94983642D01*
X102944373Y-95053334D01*
X102915872Y-95097681D01*
X102900000Y-95113552D01*
X102900000Y-95460000D01*
X103650000Y-95460000D01*
X103650000Y-94875187D01*
X103669685Y-94808148D01*
X103722489Y-94762393D01*
X103791647Y-94752449D01*
X103855203Y-94781474D01*
X103881385Y-94813184D01*
X103895641Y-94837876D01*
X103915467Y-94872216D01*
X104042129Y-95012888D01*
X104195265Y-95124148D01*
X104195270Y-95124151D01*
X104368192Y-95201142D01*
X104368197Y-95201144D01*
X104553354Y-95240500D01*
X104553355Y-95240500D01*
X104742644Y-95240500D01*
X104742646Y-95240500D01*
X104888720Y-95209451D01*
X104958386Y-95214767D01*
X105014120Y-95256904D01*
X105038225Y-95322484D01*
X105038500Y-95330741D01*
X105038500Y-99725611D01*
X105062535Y-99846444D01*
X105062540Y-99846461D01*
X105109685Y-99960281D01*
X105109688Y-99960286D01*
X105138093Y-100002795D01*
X105138094Y-100002798D01*
X105178138Y-100062728D01*
X105178144Y-100062736D01*
X105269586Y-100154178D01*
X105269608Y-100154198D01*
X107808181Y-102692771D01*
X107841666Y-102754094D01*
X107844500Y-102780452D01*
X107844500Y-104127218D01*
X107824815Y-104194257D01*
X107772011Y-104240012D01*
X107707250Y-104250508D01*
X107702523Y-104250000D01*
X107697873Y-104249500D01*
X107697870Y-104249500D01*
X106702129Y-104249500D01*
X106702123Y-104249501D01*
X106642518Y-104255908D01*
X106608331Y-104268659D01*
X106538639Y-104273642D01*
X106521669Y-104268659D01*
X106504140Y-104262121D01*
X106487483Y-104255909D01*
X106487482Y-104255908D01*
X106427883Y-104249501D01*
X106427881Y-104249500D01*
X106427873Y-104249500D01*
X106427864Y-104249500D01*
X105432129Y-104249500D01*
X105432123Y-104249501D01*
X105372518Y-104255908D01*
X105338331Y-104268659D01*
X105268639Y-104273642D01*
X105251669Y-104268659D01*
X105234140Y-104262121D01*
X105217483Y-104255909D01*
X105217482Y-104255908D01*
X105157883Y-104249501D01*
X105157881Y-104249500D01*
X105157873Y-104249500D01*
X105157864Y-104249500D01*
X104162129Y-104249500D01*
X104162123Y-104249501D01*
X104102518Y-104255908D01*
X104068331Y-104268659D01*
X103998639Y-104273642D01*
X103981669Y-104268659D01*
X103964140Y-104262121D01*
X103947483Y-104255909D01*
X103947482Y-104255908D01*
X103887883Y-104249501D01*
X103887881Y-104249500D01*
X103887873Y-104249500D01*
X103887864Y-104249500D01*
X102892129Y-104249500D01*
X102892123Y-104249501D01*
X102832518Y-104255908D01*
X102798331Y-104268659D01*
X102728639Y-104273642D01*
X102711669Y-104268659D01*
X102694140Y-104262121D01*
X102677483Y-104255909D01*
X102677482Y-104255908D01*
X102617883Y-104249501D01*
X102617881Y-104249500D01*
X102617873Y-104249500D01*
X102617864Y-104249500D01*
X101622129Y-104249500D01*
X101622123Y-104249501D01*
X101562518Y-104255908D01*
X101528331Y-104268659D01*
X101458639Y-104273642D01*
X101441669Y-104268659D01*
X101424140Y-104262121D01*
X101407483Y-104255909D01*
X101407482Y-104255908D01*
X101347883Y-104249501D01*
X101347881Y-104249500D01*
X101347873Y-104249500D01*
X101347864Y-104249500D01*
X100352129Y-104249500D01*
X100352123Y-104249501D01*
X100292518Y-104255908D01*
X100258331Y-104268659D01*
X100188639Y-104273642D01*
X100171669Y-104268659D01*
X100154140Y-104262121D01*
X100137483Y-104255909D01*
X100137482Y-104255908D01*
X100077883Y-104249501D01*
X100077881Y-104249500D01*
X100077873Y-104249500D01*
X100077865Y-104249500D01*
X99434451Y-104249500D01*
X99367412Y-104229815D01*
X99321657Y-104177011D01*
X99311713Y-104107853D01*
X99340738Y-104044297D01*
X99346770Y-104037819D01*
X99462259Y-103922331D01*
X99722771Y-103661819D01*
X99784094Y-103628334D01*
X99810452Y-103625500D01*
X104796252Y-103625500D01*
X104863291Y-103645185D01*
X104888400Y-103666526D01*
X104894126Y-103672885D01*
X104894130Y-103672889D01*
X105047265Y-103784148D01*
X105047270Y-103784151D01*
X105220192Y-103861142D01*
X105220197Y-103861144D01*
X105405354Y-103900500D01*
X105405355Y-103900500D01*
X105594644Y-103900500D01*
X105594646Y-103900500D01*
X105779803Y-103861144D01*
X105952730Y-103784151D01*
X106105871Y-103672888D01*
X106232533Y-103532216D01*
X106327179Y-103368284D01*
X106385674Y-103188256D01*
X106405460Y-103000000D01*
X106385674Y-102811744D01*
X106327179Y-102631716D01*
X106232533Y-102467784D01*
X106105871Y-102327112D01*
X106105870Y-102327111D01*
X105952734Y-102215851D01*
X105952729Y-102215848D01*
X105779807Y-102138857D01*
X105779802Y-102138855D01*
X105634001Y-102107865D01*
X105594646Y-102099500D01*
X105405354Y-102099500D01*
X105372897Y-102106398D01*
X105220197Y-102138855D01*
X105220192Y-102138857D01*
X105047270Y-102215848D01*
X105047265Y-102215851D01*
X104894130Y-102327110D01*
X104894126Y-102327114D01*
X104888400Y-102333474D01*
X104828913Y-102370121D01*
X104796252Y-102374500D01*
X99438389Y-102374500D01*
X99377971Y-102386518D01*
X99340259Y-102394019D01*
X99317550Y-102398536D01*
X99317548Y-102398537D01*
X99284207Y-102412347D01*
X99203719Y-102445684D01*
X99203705Y-102445692D01*
X99101272Y-102514138D01*
X99101264Y-102514144D01*
X97824140Y-103791268D01*
X97813181Y-103807671D01*
X97755689Y-103893712D01*
X97755685Y-103893719D01*
X97743835Y-103922330D01*
X97708538Y-104007543D01*
X97708537Y-104007546D01*
X97708537Y-104007548D01*
X97703659Y-104032071D01*
X97685414Y-104123797D01*
X97685413Y-104123805D01*
X97684500Y-104128389D01*
X97683903Y-104134457D01*
X97682561Y-104134324D01*
X97664815Y-104194761D01*
X97612011Y-104240516D01*
X97547249Y-104251012D01*
X97537838Y-104250000D01*
X97290000Y-104250000D01*
X96790000Y-104250000D01*
X96542155Y-104250000D01*
X96482627Y-104256401D01*
X96482620Y-104256403D01*
X96347913Y-104306645D01*
X96347906Y-104306649D01*
X96232812Y-104392809D01*
X96232809Y-104392812D01*
X96146649Y-104507906D01*
X96146645Y-104507913D01*
X96096403Y-104642620D01*
X96096401Y-104642627D01*
X96090000Y-104702155D01*
X95500500Y-104702155D01*
X95500499Y-104002128D01*
X95494091Y-103942517D01*
X95481340Y-103908332D01*
X95476357Y-103838642D01*
X95481340Y-103821669D01*
X95494091Y-103787483D01*
X95500500Y-103727873D01*
X95500499Y-103435450D01*
X95520183Y-103368412D01*
X95536813Y-103347775D01*
X97426729Y-101457860D01*
X97426733Y-101457858D01*
X97513858Y-101370733D01*
X97582311Y-101268286D01*
X97629463Y-101154452D01*
X97653500Y-101033606D01*
X97653500Y-100524500D01*
X97673185Y-100457461D01*
X97725989Y-100411706D01*
X97777500Y-100400500D01*
X97884644Y-100400500D01*
X97884646Y-100400500D01*
X98069803Y-100361144D01*
X98242730Y-100284151D01*
X98395871Y-100172888D01*
X98522533Y-100032216D01*
X98617179Y-99868284D01*
X98675674Y-99688256D01*
X98695460Y-99500000D01*
X98675674Y-99311744D01*
X98675672Y-99311739D01*
X98675067Y-99305978D01*
X98687636Y-99237248D01*
X98735368Y-99186224D01*
X98772601Y-99171727D01*
X98831803Y-99159144D01*
X98831807Y-99159142D01*
X98831808Y-99159142D01*
X98964645Y-99099998D01*
X99004730Y-99082151D01*
X99157871Y-98970888D01*
X99284533Y-98830216D01*
X99379179Y-98666284D01*
X99437674Y-98486256D01*
X99457460Y-98298000D01*
X99452096Y-98246960D01*
X99464666Y-98178230D01*
X99512399Y-98127207D01*
X99575417Y-98110000D01*
X101000000Y-98110000D01*
X101000000Y-97360000D01*
X101500000Y-97360000D01*
X101500000Y-98110000D01*
X103197828Y-98110000D01*
X103197844Y-98109999D01*
X103257372Y-98103598D01*
X103257379Y-98103596D01*
X103392086Y-98053354D01*
X103392093Y-98053350D01*
X103507187Y-97967190D01*
X103507190Y-97967187D01*
X103593350Y-97852093D01*
X103593354Y-97852086D01*
X103643596Y-97717379D01*
X103643598Y-97717372D01*
X103649999Y-97657844D01*
X103650000Y-97657827D01*
X103650000Y-95960000D01*
X102900000Y-95960000D01*
X102900000Y-96306447D01*
X102915872Y-96322319D01*
X102949357Y-96383642D01*
X102944373Y-96453334D01*
X102915872Y-96497681D01*
X102900000Y-96513552D01*
X102900000Y-97236000D01*
X102880315Y-97303039D01*
X102827511Y-97348794D01*
X102776000Y-97360000D01*
X102053552Y-97360000D01*
X102037681Y-97375872D01*
X101976358Y-97409357D01*
X101906666Y-97404373D01*
X101862319Y-97375872D01*
X101846447Y-97360000D01*
X101500000Y-97360000D01*
X101000000Y-97360000D01*
X100653552Y-97360000D01*
X100637681Y-97375872D01*
X100576358Y-97409357D01*
X100506666Y-97404373D01*
X100462319Y-97375872D01*
X100446447Y-97360000D01*
X99724000Y-97360000D01*
X99656961Y-97340315D01*
X99611206Y-97287511D01*
X99600000Y-97236000D01*
X99600000Y-97090109D01*
X100450000Y-97090109D01*
X100450000Y-97129891D01*
X100465224Y-97166645D01*
X100493355Y-97194776D01*
X100530109Y-97210000D01*
X100569891Y-97210000D01*
X100606645Y-97194776D01*
X100634776Y-97166645D01*
X100650000Y-97129891D01*
X100650000Y-97090109D01*
X101850000Y-97090109D01*
X101850000Y-97129891D01*
X101865224Y-97166645D01*
X101893355Y-97194776D01*
X101930109Y-97210000D01*
X101969891Y-97210000D01*
X102006645Y-97194776D01*
X102034776Y-97166645D01*
X102050000Y-97129891D01*
X102050000Y-97090109D01*
X102034776Y-97053355D01*
X102006645Y-97025224D01*
X101969891Y-97010000D01*
X101930109Y-97010000D01*
X101893355Y-97025224D01*
X101865224Y-97053355D01*
X101850000Y-97090109D01*
X100650000Y-97090109D01*
X100634776Y-97053355D01*
X100606645Y-97025224D01*
X100569891Y-97010000D01*
X100530109Y-97010000D01*
X100493355Y-97025224D01*
X100465224Y-97053355D01*
X100450000Y-97090109D01*
X99600000Y-97090109D01*
X99600000Y-96513553D01*
X99584128Y-96497681D01*
X99550643Y-96436358D01*
X99553950Y-96390109D01*
X99750000Y-96390109D01*
X99750000Y-96429891D01*
X99765224Y-96466645D01*
X99793355Y-96494776D01*
X99830109Y-96510000D01*
X99869891Y-96510000D01*
X99906645Y-96494776D01*
X99934776Y-96466645D01*
X99950000Y-96429891D01*
X99950000Y-96410000D01*
X100203553Y-96410000D01*
X100258740Y-96465186D01*
X100537500Y-96743946D01*
X100871446Y-96410000D01*
X100871446Y-96409999D01*
X100851556Y-96390109D01*
X101125000Y-96390109D01*
X101125000Y-96429891D01*
X101140224Y-96466645D01*
X101168355Y-96494776D01*
X101205109Y-96510000D01*
X101244891Y-96510000D01*
X101281645Y-96494776D01*
X101309776Y-96466645D01*
X101325000Y-96429891D01*
X101325000Y-96409999D01*
X101603553Y-96409999D01*
X101603553Y-96410001D01*
X101949998Y-96756446D01*
X101949999Y-96756446D01*
X102241260Y-96465186D01*
X102296446Y-96410000D01*
X102276555Y-96390109D01*
X102550000Y-96390109D01*
X102550000Y-96429891D01*
X102565224Y-96466645D01*
X102593355Y-96494776D01*
X102630109Y-96510000D01*
X102669891Y-96510000D01*
X102706645Y-96494776D01*
X102734776Y-96466645D01*
X102750000Y-96429891D01*
X102750000Y-96390109D01*
X102734776Y-96353355D01*
X102706645Y-96325224D01*
X102669891Y-96310000D01*
X102630109Y-96310000D01*
X102593355Y-96325224D01*
X102565224Y-96353355D01*
X102550000Y-96390109D01*
X102276555Y-96390109D01*
X101949999Y-96063553D01*
X101949998Y-96063553D01*
X101603553Y-96409999D01*
X101325000Y-96409999D01*
X101325000Y-96390109D01*
X101309776Y-96353355D01*
X101281645Y-96325224D01*
X101244891Y-96310000D01*
X101205109Y-96310000D01*
X101168355Y-96325224D01*
X101140224Y-96353355D01*
X101125000Y-96390109D01*
X100851556Y-96390109D01*
X100537500Y-96076053D01*
X100505682Y-96107872D01*
X100505680Y-96107873D01*
X100203553Y-96410000D01*
X99950000Y-96410000D01*
X99950000Y-96390109D01*
X99934776Y-96353355D01*
X99906645Y-96325224D01*
X99869891Y-96310000D01*
X99830109Y-96310000D01*
X99793355Y-96325224D01*
X99765224Y-96353355D01*
X99750000Y-96390109D01*
X99553950Y-96390109D01*
X99555627Y-96366666D01*
X99584128Y-96322319D01*
X99599999Y-96306447D01*
X99600000Y-96306446D01*
X99600000Y-95690109D01*
X100450000Y-95690109D01*
X100450000Y-95729891D01*
X100465224Y-95766645D01*
X100493355Y-95794776D01*
X100530109Y-95810000D01*
X100569891Y-95810000D01*
X100606645Y-95794776D01*
X100634776Y-95766645D01*
X100650000Y-95729891D01*
X100650000Y-95690109D01*
X101850000Y-95690109D01*
X101850000Y-95729891D01*
X101865224Y-95766645D01*
X101893355Y-95794776D01*
X101930109Y-95810000D01*
X101969891Y-95810000D01*
X102006645Y-95794776D01*
X102034776Y-95766645D01*
X102050000Y-95729891D01*
X102050000Y-95690109D01*
X102034776Y-95653355D01*
X102006645Y-95625224D01*
X101969891Y-95610000D01*
X101930109Y-95610000D01*
X101893355Y-95625224D01*
X101865224Y-95653355D01*
X101850000Y-95690109D01*
X100650000Y-95690109D01*
X100634776Y-95653355D01*
X100606645Y-95625224D01*
X100569891Y-95610000D01*
X100530109Y-95610000D01*
X100493355Y-95625224D01*
X100465224Y-95653355D01*
X100450000Y-95690109D01*
X99600000Y-95690109D01*
X99600000Y-95113553D01*
X99584128Y-95097681D01*
X99550643Y-95036358D01*
X99553950Y-94990109D01*
X99750000Y-94990109D01*
X99750000Y-95029891D01*
X99765224Y-95066645D01*
X99793355Y-95094776D01*
X99830109Y-95110000D01*
X99869891Y-95110000D01*
X99906645Y-95094776D01*
X99934776Y-95066645D01*
X99950000Y-95029891D01*
X99950000Y-95009999D01*
X100203553Y-95009999D01*
X100246071Y-95052516D01*
X100246072Y-95052518D01*
X100537500Y-95343946D01*
X100871446Y-95010000D01*
X100871446Y-95009999D01*
X100851556Y-94990109D01*
X101125000Y-94990109D01*
X101125000Y-95029891D01*
X101140224Y-95066645D01*
X101168355Y-95094776D01*
X101205109Y-95110000D01*
X101244891Y-95110000D01*
X101281645Y-95094776D01*
X101309776Y-95066645D01*
X101325000Y-95029891D01*
X101325000Y-95009999D01*
X101603553Y-95009999D01*
X101603553Y-95010001D01*
X101949998Y-95356446D01*
X101949999Y-95356446D01*
X102253929Y-95052517D01*
X102296446Y-95010000D01*
X102276555Y-94990109D01*
X102550000Y-94990109D01*
X102550000Y-95029891D01*
X102565224Y-95066645D01*
X102593355Y-95094776D01*
X102630109Y-95110000D01*
X102669891Y-95110000D01*
X102706645Y-95094776D01*
X102734776Y-95066645D01*
X102750000Y-95029891D01*
X102750000Y-94990109D01*
X102734776Y-94953355D01*
X102706645Y-94925224D01*
X102669891Y-94910000D01*
X102630109Y-94910000D01*
X102593355Y-94925224D01*
X102565224Y-94953355D01*
X102550000Y-94990109D01*
X102276555Y-94990109D01*
X101949999Y-94663553D01*
X101949998Y-94663553D01*
X101603553Y-95009999D01*
X101325000Y-95009999D01*
X101325000Y-94990109D01*
X101309776Y-94953355D01*
X101281645Y-94925224D01*
X101244891Y-94910000D01*
X101205109Y-94910000D01*
X101168355Y-94925224D01*
X101140224Y-94953355D01*
X101125000Y-94990109D01*
X100851556Y-94990109D01*
X100537500Y-94676053D01*
X100505270Y-94708284D01*
X100505268Y-94708285D01*
X100203553Y-95009999D01*
X99950000Y-95009999D01*
X99950000Y-94990109D01*
X99934776Y-94953355D01*
X99906645Y-94925224D01*
X99869891Y-94910000D01*
X99830109Y-94910000D01*
X99793355Y-94925224D01*
X99765224Y-94953355D01*
X99750000Y-94990109D01*
X99553950Y-94990109D01*
X99555627Y-94966666D01*
X99584128Y-94922319D01*
X99599999Y-94906447D01*
X99600000Y-94906446D01*
X99600000Y-94290109D01*
X100450000Y-94290109D01*
X100450000Y-94329891D01*
X100465224Y-94366645D01*
X100493355Y-94394776D01*
X100530109Y-94410000D01*
X100569891Y-94410000D01*
X100606645Y-94394776D01*
X100634776Y-94366645D01*
X100650000Y-94329891D01*
X100650000Y-94290109D01*
X101850000Y-94290109D01*
X101850000Y-94329891D01*
X101865224Y-94366645D01*
X101893355Y-94394776D01*
X101930109Y-94410000D01*
X101969891Y-94410000D01*
X102006645Y-94394776D01*
X102034776Y-94366645D01*
X102050000Y-94329891D01*
X102050000Y-94290109D01*
X102034776Y-94253355D01*
X102006645Y-94225224D01*
X101969891Y-94210000D01*
X101930109Y-94210000D01*
X101893355Y-94225224D01*
X101865224Y-94253355D01*
X101850000Y-94290109D01*
X100650000Y-94290109D01*
X100634776Y-94253355D01*
X100606645Y-94225224D01*
X100569891Y-94210000D01*
X100530109Y-94210000D01*
X100493355Y-94225224D01*
X100465224Y-94253355D01*
X100450000Y-94290109D01*
X99600000Y-94290109D01*
X99600000Y-94184000D01*
X99619685Y-94116961D01*
X99672489Y-94071206D01*
X99724000Y-94060000D01*
X100446447Y-94060000D01*
X100446447Y-94059999D01*
X100462319Y-94044128D01*
X100523642Y-94010643D01*
X100593334Y-94015627D01*
X100637681Y-94044128D01*
X100653553Y-94060000D01*
X101000000Y-94060000D01*
X101000000Y-93310000D01*
X99301500Y-93310000D01*
X99234461Y-93290315D01*
X99188706Y-93237511D01*
X99177500Y-93186000D01*
X99177500Y-73758452D01*
X99197185Y-73691413D01*
X99213819Y-73670771D01*
X101002591Y-71881999D01*
X104304785Y-71881999D01*
X104304785Y-71882000D01*
X104323602Y-72085082D01*
X104379417Y-72281247D01*
X104379422Y-72281260D01*
X104470327Y-72463821D01*
X104593237Y-72626581D01*
X104743958Y-72763980D01*
X104743960Y-72763982D01*
X104763488Y-72776073D01*
X104917363Y-72871348D01*
X105107544Y-72945024D01*
X105308024Y-72982500D01*
X105308026Y-72982500D01*
X105511974Y-72982500D01*
X105511976Y-72982500D01*
X105712456Y-72945024D01*
X105902637Y-72871348D01*
X106056512Y-72776073D01*
X106121789Y-72757500D01*
X113377994Y-72757500D01*
X113445033Y-72777185D01*
X113465675Y-72793819D01*
X114404181Y-73732325D01*
X114437666Y-73793648D01*
X114440500Y-73820006D01*
X114440500Y-78325994D01*
X114420815Y-78393033D01*
X114404181Y-78413675D01*
X112979901Y-79837955D01*
X112935671Y-79882185D01*
X112857953Y-79959902D01*
X112762145Y-80103288D01*
X112762138Y-80103301D01*
X112696146Y-80262621D01*
X112696143Y-80262633D01*
X112662500Y-80431766D01*
X112662500Y-84414233D01*
X112696143Y-84583366D01*
X112696146Y-84583378D01*
X112762138Y-84742698D01*
X112762145Y-84742711D01*
X112857954Y-84886098D01*
X112857957Y-84886102D01*
X113569955Y-85598099D01*
X113689686Y-85717830D01*
X113691902Y-85720046D01*
X113835288Y-85815854D01*
X113835301Y-85815861D01*
X113994621Y-85881853D01*
X113994626Y-85881855D01*
X114143134Y-85911395D01*
X114163766Y-85915499D01*
X114163769Y-85915500D01*
X114163771Y-85915500D01*
X114992242Y-85915500D01*
X115059281Y-85935185D01*
X115079923Y-85951819D01*
X115206597Y-86078493D01*
X115206603Y-86078498D01*
X115392158Y-86208425D01*
X115435783Y-86263002D01*
X115442977Y-86332500D01*
X115411454Y-86394855D01*
X115392158Y-86411575D01*
X115206597Y-86541505D01*
X115039505Y-86708597D01*
X114903965Y-86902169D01*
X114903964Y-86902171D01*
X114804098Y-87116335D01*
X114804094Y-87116344D01*
X114742938Y-87344586D01*
X114742936Y-87344596D01*
X114722341Y-87579999D01*
X114722341Y-87580000D01*
X114742936Y-87815403D01*
X114742938Y-87815413D01*
X114804094Y-88043655D01*
X114804096Y-88043659D01*
X114804097Y-88043663D01*
X114889641Y-88227112D01*
X114903965Y-88257830D01*
X114903967Y-88257834D01*
X115039501Y-88451395D01*
X115039506Y-88451402D01*
X115206597Y-88618493D01*
X115206603Y-88618498D01*
X115225489Y-88631722D01*
X115399624Y-88753653D01*
X115443248Y-88808228D01*
X115452500Y-88855226D01*
X115452500Y-102301312D01*
X115432815Y-102368351D01*
X115420650Y-102384284D01*
X115345466Y-102467784D01*
X115250821Y-102631715D01*
X115250818Y-102631722D01*
X115202493Y-102780452D01*
X115192326Y-102811744D01*
X115172540Y-103000000D01*
X115192326Y-103188256D01*
X115192327Y-103188259D01*
X115250818Y-103368277D01*
X115250821Y-103368284D01*
X115345467Y-103532216D01*
X115441487Y-103638857D01*
X115472129Y-103672888D01*
X115625265Y-103784148D01*
X115625270Y-103784151D01*
X115798192Y-103861142D01*
X115798197Y-103861144D01*
X115983354Y-103900500D01*
X115983355Y-103900500D01*
X116172644Y-103900500D01*
X116172646Y-103900500D01*
X116357803Y-103861144D01*
X116530730Y-103784151D01*
X116683871Y-103672888D01*
X116810533Y-103532216D01*
X116905179Y-103368284D01*
X116963674Y-103188256D01*
X116983460Y-103000000D01*
X116963674Y-102811744D01*
X116905179Y-102631716D01*
X116810533Y-102467784D01*
X116801608Y-102457872D01*
X116735350Y-102384284D01*
X116705120Y-102321292D01*
X116703500Y-102301312D01*
X116703500Y-88855226D01*
X116723185Y-88788187D01*
X116756374Y-88753654D01*
X116949401Y-88618495D01*
X117116495Y-88451401D01*
X117252035Y-88257830D01*
X117351903Y-88043663D01*
X117413063Y-87815408D01*
X117433659Y-87580000D01*
X117413063Y-87344592D01*
X117351903Y-87116337D01*
X117252035Y-86902171D01*
X117215091Y-86849408D01*
X117116494Y-86708597D01*
X116949402Y-86541506D01*
X116949396Y-86541501D01*
X116763842Y-86411575D01*
X116720217Y-86356998D01*
X116713023Y-86287500D01*
X116744546Y-86225145D01*
X116763842Y-86208425D01*
X116846803Y-86150335D01*
X116949401Y-86078495D01*
X117116495Y-85911401D01*
X117252035Y-85717830D01*
X117351903Y-85503663D01*
X117413063Y-85275408D01*
X117433659Y-85040000D01*
X117413063Y-84804592D01*
X117353789Y-84583374D01*
X117351905Y-84576344D01*
X117351904Y-84576343D01*
X117351903Y-84576337D01*
X117252035Y-84362171D01*
X117167730Y-84241771D01*
X117116496Y-84168600D01*
X117076076Y-84128180D01*
X116994179Y-84046283D01*
X116960696Y-83984963D01*
X116965680Y-83915271D01*
X117007551Y-83859337D01*
X117038529Y-83842422D01*
X117170086Y-83793354D01*
X117170093Y-83793350D01*
X117285187Y-83707190D01*
X117285190Y-83707187D01*
X117371350Y-83592093D01*
X117371354Y-83592086D01*
X117421596Y-83457379D01*
X117421598Y-83457372D01*
X117427999Y-83397844D01*
X117428000Y-83397827D01*
X117428000Y-82750000D01*
X116511012Y-82750000D01*
X116543925Y-82692993D01*
X116578000Y-82565826D01*
X116578000Y-82434174D01*
X116543925Y-82307007D01*
X116511012Y-82250000D01*
X117428000Y-82250000D01*
X117428000Y-81602172D01*
X117427999Y-81602155D01*
X117421598Y-81542627D01*
X117421596Y-81542620D01*
X117371354Y-81407913D01*
X117371350Y-81407906D01*
X117285190Y-81292812D01*
X117285187Y-81292809D01*
X117170093Y-81206649D01*
X117170086Y-81206645D01*
X117035379Y-81156403D01*
X117035372Y-81156401D01*
X116975844Y-81150000D01*
X116328000Y-81150000D01*
X116328000Y-82066988D01*
X116270993Y-82034075D01*
X116143826Y-82000000D01*
X116012174Y-82000000D01*
X115885007Y-82034075D01*
X115828000Y-82066988D01*
X115828000Y-81150000D01*
X115180155Y-81150000D01*
X115120627Y-81156401D01*
X115120620Y-81156403D01*
X114985913Y-81206645D01*
X114985906Y-81206649D01*
X114870812Y-81292809D01*
X114870809Y-81292812D01*
X114784649Y-81407906D01*
X114784645Y-81407913D01*
X114734403Y-81542620D01*
X114734401Y-81542627D01*
X114728000Y-81602155D01*
X114728000Y-82250000D01*
X115644988Y-82250000D01*
X115612075Y-82307007D01*
X115578000Y-82434174D01*
X115578000Y-82565826D01*
X115612075Y-82692993D01*
X115644988Y-82750000D01*
X114728000Y-82750000D01*
X114728000Y-83397844D01*
X114734401Y-83457372D01*
X114734403Y-83457379D01*
X114784645Y-83592086D01*
X114784649Y-83592093D01*
X114870809Y-83707187D01*
X114870812Y-83707190D01*
X114985906Y-83793350D01*
X114985913Y-83793354D01*
X115117470Y-83842421D01*
X115173403Y-83884292D01*
X115197821Y-83949756D01*
X115182970Y-84018029D01*
X115161819Y-84046283D01*
X115079924Y-84128180D01*
X115018602Y-84161666D01*
X114992242Y-84164500D01*
X114664006Y-84164500D01*
X114596967Y-84144815D01*
X114576325Y-84128181D01*
X114449819Y-84001675D01*
X114416334Y-83940352D01*
X114413500Y-83913994D01*
X114413500Y-80932006D01*
X114433185Y-80864967D01*
X114449819Y-80844325D01*
X115996043Y-79298101D01*
X115996045Y-79298099D01*
X116001265Y-79290286D01*
X116091858Y-79154705D01*
X116157855Y-78995374D01*
X116191500Y-78826229D01*
X116191500Y-73319771D01*
X116191500Y-73319768D01*
X116191499Y-73319766D01*
X116157856Y-73150633D01*
X116157855Y-73150626D01*
X116157853Y-73150621D01*
X116091861Y-72991301D01*
X116091854Y-72991288D01*
X115996046Y-72847902D01*
X115941963Y-72793819D01*
X115874099Y-72725955D01*
X115233226Y-72085082D01*
X114350102Y-71201957D01*
X114350098Y-71201954D01*
X114206711Y-71106145D01*
X114206698Y-71106138D01*
X114047378Y-71040146D01*
X114047366Y-71040143D01*
X113878232Y-71006500D01*
X113878229Y-71006500D01*
X106121789Y-71006500D01*
X106056512Y-70987927D01*
X105902642Y-70892655D01*
X105902635Y-70892651D01*
X105807546Y-70855814D01*
X105712456Y-70818976D01*
X105511976Y-70781500D01*
X105308024Y-70781500D01*
X105107544Y-70818976D01*
X105107541Y-70818976D01*
X105107541Y-70818977D01*
X104917364Y-70892651D01*
X104917357Y-70892655D01*
X104743960Y-71000017D01*
X104743958Y-71000019D01*
X104593237Y-71137418D01*
X104470327Y-71300178D01*
X104379422Y-71482739D01*
X104379417Y-71482752D01*
X104323602Y-71678917D01*
X104304785Y-71881999D01*
X101002591Y-71881999D01*
X104722771Y-68161819D01*
X104784094Y-68128334D01*
X104810452Y-68125500D01*
X107061607Y-68125500D01*
X107122029Y-68113481D01*
X107182452Y-68101463D01*
X107182455Y-68101461D01*
X107182458Y-68101461D01*
X107215787Y-68087654D01*
X107215786Y-68087654D01*
X107215792Y-68087652D01*
X107296286Y-68054312D01*
X107347509Y-68020084D01*
X107398733Y-67985858D01*
X107485858Y-67898733D01*
X107485858Y-67898731D01*
X107492925Y-67891665D01*
X107492928Y-67891661D01*
X108438729Y-66945860D01*
X108438733Y-66945858D01*
X108525858Y-66858733D01*
X108560084Y-66807509D01*
X108594312Y-66756286D01*
X108641463Y-66642451D01*
X108665500Y-66521607D01*
X108665500Y-66398393D01*
X108665500Y-66161452D01*
X108685185Y-66094413D01*
X108737989Y-66048658D01*
X108807147Y-66038714D01*
X108870703Y-66067739D01*
X108877181Y-66073771D01*
X112561038Y-69757628D01*
X112594523Y-69818951D01*
X112596678Y-69832347D01*
X112604139Y-69903338D01*
X112614326Y-70000256D01*
X112614327Y-70000259D01*
X112672818Y-70180277D01*
X112672821Y-70180284D01*
X112767467Y-70344216D01*
X112894129Y-70484888D01*
X113047265Y-70596148D01*
X113047270Y-70596151D01*
X113220192Y-70673142D01*
X113220197Y-70673144D01*
X113405354Y-70712500D01*
X113405355Y-70712500D01*
X113594644Y-70712500D01*
X113594646Y-70712500D01*
X113779803Y-70673144D01*
X113952730Y-70596151D01*
X114105871Y-70484888D01*
X114232533Y-70344216D01*
X114327179Y-70180284D01*
X114385674Y-70000256D01*
X114405460Y-69812000D01*
X114385674Y-69623744D01*
X114327179Y-69443716D01*
X114232533Y-69279784D01*
X114105871Y-69139112D01*
X114105870Y-69139111D01*
X113952734Y-69027851D01*
X113952729Y-69027848D01*
X113779807Y-68950857D01*
X113779802Y-68950855D01*
X113634001Y-68919865D01*
X113594646Y-68911500D01*
X113594645Y-68911500D01*
X113535452Y-68911500D01*
X113468413Y-68891815D01*
X113447771Y-68875181D01*
X110175432Y-65602842D01*
X110141947Y-65541519D01*
X110146931Y-65471827D01*
X110188803Y-65415894D01*
X110254267Y-65391477D01*
X110288891Y-65393870D01*
X110395354Y-65416500D01*
X110395355Y-65416500D01*
X110584644Y-65416500D01*
X110584646Y-65416500D01*
X110769803Y-65377144D01*
X110942730Y-65300151D01*
X111095871Y-65188888D01*
X111222533Y-65048216D01*
X111317179Y-64884284D01*
X111375674Y-64704256D01*
X111395460Y-64516000D01*
X111375674Y-64327744D01*
X111317179Y-64147716D01*
X111222533Y-63983784D01*
X111147350Y-63900284D01*
X111117120Y-63837292D01*
X111115500Y-63817312D01*
X111115500Y-63116901D01*
X111135185Y-63049862D01*
X111187989Y-63004107D01*
X111252757Y-62993612D01*
X111312158Y-62999999D01*
X111312172Y-63000000D01*
X112207828Y-63000000D01*
X112207844Y-62999999D01*
X112267374Y-62993598D01*
X112267377Y-62993597D01*
X112350950Y-62962426D01*
X112420641Y-62957441D01*
X112437608Y-62962422D01*
X112522517Y-62994091D01*
X112582127Y-63000500D01*
X113477872Y-63000499D01*
X113537483Y-62994091D01*
X113672331Y-62943796D01*
X113787546Y-62857546D01*
X113873796Y-62742331D01*
X113924091Y-62607483D01*
X113930500Y-62547873D01*
X113930499Y-60452128D01*
X113924091Y-60392517D01*
X113873796Y-60257669D01*
X113873795Y-60257668D01*
X113873793Y-60257664D01*
X113787547Y-60142455D01*
X113675188Y-60058342D01*
X113633318Y-60002408D01*
X113625500Y-59959076D01*
X113625500Y-59049499D01*
X113645185Y-58982460D01*
X113697989Y-58936705D01*
X113749500Y-58925499D01*
X114500002Y-58925499D01*
X114500008Y-58925499D01*
X114602797Y-58914999D01*
X114769334Y-58859814D01*
X114918656Y-58767712D01*
X115042712Y-58643656D01*
X115134814Y-58494334D01*
X115189999Y-58327797D01*
X115200500Y-58225009D01*
X115200499Y-57049992D01*
X115189999Y-56947203D01*
X115134814Y-56780666D01*
X115042712Y-56631344D01*
X114918656Y-56507288D01*
X114769334Y-56415186D01*
X114602797Y-56360001D01*
X114602795Y-56360000D01*
X114500010Y-56349500D01*
X111499998Y-56349500D01*
X111499981Y-56349501D01*
X111397203Y-56360000D01*
X111397200Y-56360001D01*
X111230668Y-56415185D01*
X111230663Y-56415187D01*
X111081342Y-56507289D01*
X110957289Y-56631342D01*
X110865187Y-56780663D01*
X110865186Y-56780666D01*
X110816693Y-56927005D01*
X110776923Y-56984449D01*
X110712407Y-57011272D01*
X110698989Y-57012000D01*
X110447953Y-57012000D01*
X110380914Y-56992315D01*
X110360272Y-56975681D01*
X109161819Y-55777228D01*
X109128334Y-55715905D01*
X109125500Y-55689547D01*
X109125500Y-53949986D01*
X110800001Y-53949986D01*
X110810494Y-54052697D01*
X110865641Y-54219119D01*
X110865643Y-54219124D01*
X110957684Y-54368345D01*
X111081654Y-54492315D01*
X111230875Y-54584356D01*
X111230880Y-54584358D01*
X111397302Y-54639505D01*
X111397309Y-54639506D01*
X111500019Y-54649999D01*
X112749999Y-54649999D01*
X113250000Y-54649999D01*
X114499972Y-54649999D01*
X114499986Y-54649998D01*
X114602697Y-54639505D01*
X114769119Y-54584358D01*
X114769124Y-54584356D01*
X114918345Y-54492315D01*
X115042315Y-54368345D01*
X115134356Y-54219124D01*
X115134358Y-54219119D01*
X115189505Y-54052697D01*
X115189506Y-54052690D01*
X115199999Y-53949986D01*
X115200000Y-53949973D01*
X115200000Y-53612500D01*
X113250000Y-53612500D01*
X113250000Y-54649999D01*
X112749999Y-54649999D01*
X112750000Y-54649998D01*
X112750000Y-53612500D01*
X110800001Y-53612500D01*
X110800001Y-53949986D01*
X109125500Y-53949986D01*
X109125500Y-52938393D01*
X109125499Y-52938389D01*
X109101464Y-52817555D01*
X109101463Y-52817548D01*
X109083844Y-52775013D01*
X110800000Y-52775013D01*
X110800000Y-53112500D01*
X112750000Y-53112500D01*
X113250000Y-53112500D01*
X115199999Y-53112500D01*
X115199999Y-52775028D01*
X115199998Y-52775013D01*
X115189505Y-52672302D01*
X115134358Y-52505880D01*
X115134356Y-52505875D01*
X115042315Y-52356654D01*
X114918345Y-52232684D01*
X114769124Y-52140643D01*
X114769119Y-52140641D01*
X114602697Y-52085494D01*
X114602690Y-52085493D01*
X114499986Y-52075000D01*
X113250000Y-52075000D01*
X113250000Y-53112500D01*
X112750000Y-53112500D01*
X112750000Y-52075000D01*
X111500028Y-52075000D01*
X111500012Y-52075001D01*
X111397302Y-52085494D01*
X111230880Y-52140641D01*
X111230875Y-52140643D01*
X111081654Y-52232684D01*
X110957684Y-52356654D01*
X110865643Y-52505875D01*
X110865641Y-52505880D01*
X110810494Y-52672302D01*
X110810493Y-52672309D01*
X110800000Y-52775013D01*
X109083844Y-52775013D01*
X109054311Y-52703714D01*
X109054310Y-52703713D01*
X109054307Y-52703707D01*
X108985859Y-52601268D01*
X108985858Y-52601267D01*
X108898733Y-52514142D01*
X108898732Y-52514141D01*
X108459591Y-52075000D01*
X106386818Y-50002227D01*
X106353333Y-49940904D01*
X106350499Y-49914546D01*
X106350499Y-48602129D01*
X106350498Y-48602123D01*
X106344091Y-48542516D01*
X106293797Y-48407671D01*
X106293793Y-48407664D01*
X106289027Y-48401298D01*
X116249500Y-48401298D01*
X116249500Y-49198703D01*
X116264696Y-49314142D01*
X116264699Y-49314151D01*
X116314414Y-49434174D01*
X116324200Y-49457798D01*
X116418851Y-49581149D01*
X116542202Y-49675800D01*
X116685849Y-49735301D01*
X116801299Y-49750500D01*
X118198700Y-49750499D01*
X118198703Y-49750499D01*
X118314142Y-49735303D01*
X118314146Y-49735301D01*
X118314151Y-49735301D01*
X118457798Y-49675800D01*
X118581149Y-49581149D01*
X118675800Y-49457798D01*
X118735301Y-49314151D01*
X118750500Y-49198701D01*
X118750499Y-48401300D01*
X118750499Y-48401298D01*
X121149500Y-48401298D01*
X121149500Y-49198703D01*
X121164696Y-49314142D01*
X121164699Y-49314151D01*
X121214414Y-49434174D01*
X121224200Y-49457798D01*
X121318851Y-49581149D01*
X121442202Y-49675800D01*
X121585849Y-49735301D01*
X121701299Y-49750500D01*
X123098700Y-49750499D01*
X123098703Y-49750499D01*
X123214142Y-49735303D01*
X123214146Y-49735301D01*
X123214151Y-49735301D01*
X123357798Y-49675800D01*
X123481149Y-49581149D01*
X123575800Y-49457798D01*
X123635301Y-49314151D01*
X123650500Y-49198701D01*
X123650499Y-48401300D01*
X123650499Y-48401298D01*
X123650499Y-48401296D01*
X123635303Y-48285857D01*
X123635301Y-48285850D01*
X123635301Y-48285849D01*
X123575800Y-48142202D01*
X123481149Y-48018851D01*
X123357798Y-47924200D01*
X123357794Y-47924198D01*
X123214151Y-47864699D01*
X123214149Y-47864698D01*
X123098701Y-47849500D01*
X121701296Y-47849500D01*
X121585857Y-47864696D01*
X121585848Y-47864699D01*
X121442205Y-47924198D01*
X121318851Y-48018851D01*
X121224198Y-48142205D01*
X121164699Y-48285848D01*
X121164698Y-48285850D01*
X121149500Y-48401298D01*
X118750499Y-48401298D01*
X118750499Y-48401296D01*
X118735303Y-48285857D01*
X118735301Y-48285850D01*
X118735301Y-48285849D01*
X118675800Y-48142202D01*
X118581149Y-48018851D01*
X118457798Y-47924200D01*
X118457794Y-47924198D01*
X118314151Y-47864699D01*
X118314149Y-47864698D01*
X118198701Y-47849500D01*
X116801296Y-47849500D01*
X116685857Y-47864696D01*
X116685848Y-47864699D01*
X116542205Y-47924198D01*
X116418851Y-48018851D01*
X116324198Y-48142205D01*
X116264699Y-48285848D01*
X116264698Y-48285850D01*
X116249500Y-48401298D01*
X106289027Y-48401298D01*
X106207547Y-48292455D01*
X106207544Y-48292452D01*
X106092335Y-48206206D01*
X106092328Y-48206202D01*
X105957482Y-48155908D01*
X105957483Y-48155908D01*
X105897883Y-48149501D01*
X105897881Y-48149500D01*
X105897873Y-48149500D01*
X105897864Y-48149500D01*
X104102129Y-48149500D01*
X104102123Y-48149501D01*
X104042516Y-48155908D01*
X103907671Y-48206202D01*
X103907664Y-48206206D01*
X103792455Y-48292452D01*
X103792452Y-48292455D01*
X103706206Y-48407664D01*
X103706202Y-48407671D01*
X103656997Y-48539598D01*
X103615126Y-48595532D01*
X103549661Y-48619949D01*
X103481388Y-48605097D01*
X103453134Y-48583946D01*
X103331082Y-48461894D01*
X103137578Y-48326399D01*
X102923492Y-48226570D01*
X102923486Y-48226567D01*
X102710000Y-48169364D01*
X102710000Y-49066988D01*
X102652993Y-49034075D01*
X102525826Y-49000000D01*
X102394174Y-49000000D01*
X102267007Y-49034075D01*
X102210000Y-49066988D01*
X102210000Y-48169364D01*
X102209999Y-48169364D01*
X101996513Y-48226567D01*
X101996507Y-48226570D01*
X101782422Y-48326399D01*
X101782420Y-48326400D01*
X101588926Y-48461886D01*
X101588920Y-48461891D01*
X101421891Y-48628920D01*
X101421890Y-48628922D01*
X101291880Y-48814595D01*
X101237303Y-48858219D01*
X101167804Y-48865412D01*
X101105450Y-48833890D01*
X101088730Y-48814594D01*
X100958494Y-48628597D01*
X100791402Y-48461506D01*
X100791395Y-48461501D01*
X100597834Y-48325967D01*
X100597830Y-48325965D01*
X100597828Y-48325964D01*
X100383663Y-48226097D01*
X100383659Y-48226096D01*
X100383655Y-48226094D01*
X100155413Y-48164938D01*
X100155403Y-48164936D01*
X99920001Y-48144341D01*
X99919999Y-48144341D01*
X99684596Y-48164936D01*
X99684586Y-48164938D01*
X99456344Y-48226094D01*
X99456335Y-48226098D01*
X99242171Y-48325964D01*
X99242169Y-48325965D01*
X99048597Y-48461505D01*
X98881505Y-48628597D01*
X98751575Y-48814158D01*
X98696998Y-48857783D01*
X98627500Y-48864977D01*
X98565145Y-48833454D01*
X98548425Y-48814158D01*
X98418494Y-48628597D01*
X98251402Y-48461506D01*
X98251395Y-48461501D01*
X98057834Y-48325967D01*
X98057830Y-48325965D01*
X98057828Y-48325964D01*
X97843663Y-48226097D01*
X97843659Y-48226096D01*
X97843655Y-48226094D01*
X97615413Y-48164938D01*
X97615403Y-48164936D01*
X97380001Y-48144341D01*
X97379999Y-48144341D01*
X97144596Y-48164936D01*
X97144586Y-48164938D01*
X96916344Y-48226094D01*
X96916335Y-48226098D01*
X96702171Y-48325964D01*
X96702169Y-48325965D01*
X96508597Y-48461505D01*
X96341505Y-48628597D01*
X96206348Y-48821623D01*
X96151771Y-48865248D01*
X96104773Y-48874500D01*
X90938389Y-48874500D01*
X90877971Y-48886518D01*
X90817548Y-48898537D01*
X90817543Y-48898538D01*
X90783546Y-48912620D01*
X90770397Y-48918067D01*
X90748169Y-48927274D01*
X90703713Y-48945688D01*
X90693557Y-48952475D01*
X90693449Y-48952547D01*
X90601268Y-49014140D01*
X90579072Y-49036337D01*
X90514142Y-49101267D01*
X90014144Y-49601264D01*
X90014138Y-49601272D01*
X89945691Y-49703706D01*
X89945688Y-49703714D01*
X89926309Y-49750500D01*
X89898538Y-49817544D01*
X89898535Y-49817556D01*
X89874500Y-49938389D01*
X89874500Y-54327983D01*
X89854815Y-54395022D01*
X89802011Y-54440777D01*
X89789510Y-54445686D01*
X89730666Y-54465186D01*
X89730663Y-54465187D01*
X89581342Y-54557289D01*
X89457289Y-54681342D01*
X89365187Y-54830663D01*
X89365186Y-54830666D01*
X89310001Y-54997203D01*
X89310001Y-54997204D01*
X89310000Y-54997204D01*
X89299500Y-55099983D01*
X89299500Y-55900001D01*
X89299501Y-55900019D01*
X89310000Y-56002796D01*
X89310001Y-56002799D01*
X89365185Y-56169331D01*
X89365187Y-56169336D01*
X89373283Y-56182461D01*
X89443486Y-56296280D01*
X89457289Y-56318657D01*
X89550951Y-56412319D01*
X89584436Y-56473642D01*
X89579452Y-56543334D01*
X89550951Y-56587681D01*
X89457289Y-56681342D01*
X89365187Y-56830663D01*
X89365185Y-56830668D01*
X89337349Y-56914670D01*
X89310001Y-56997203D01*
X89310001Y-56997204D01*
X89310000Y-56997204D01*
X89299500Y-57099983D01*
X89299500Y-57900001D01*
X89299501Y-57900019D01*
X89310000Y-58002796D01*
X89310001Y-58002799D01*
X89365185Y-58169331D01*
X89365187Y-58169336D01*
X89396087Y-58219433D01*
X89457288Y-58318656D01*
X89581344Y-58442712D01*
X89730666Y-58534814D01*
X89730673Y-58534816D01*
X89730899Y-58534922D01*
X89731032Y-58535039D01*
X89736813Y-58538605D01*
X89736203Y-58539592D01*
X89783341Y-58581092D01*
X89802500Y-58647307D01*
X89802500Y-59743639D01*
X89782815Y-59810678D01*
X89777454Y-59818365D01*
X89738328Y-59870175D01*
X89647422Y-60052739D01*
X89647417Y-60052752D01*
X89591602Y-60248917D01*
X89572785Y-60451999D01*
X89572785Y-60452000D01*
X89591602Y-60655082D01*
X89647417Y-60851247D01*
X89647422Y-60851260D01*
X89738327Y-61033821D01*
X89861237Y-61196581D01*
X90011958Y-61333980D01*
X90011960Y-61333982D01*
X90111141Y-61395392D01*
X90185363Y-61441348D01*
X90375544Y-61515024D01*
X90576024Y-61552500D01*
X90576026Y-61552500D01*
X90779974Y-61552500D01*
X90779976Y-61552500D01*
X90980456Y-61515024D01*
X91170637Y-61441348D01*
X91344041Y-61333981D01*
X91494764Y-61196579D01*
X91617673Y-61033821D01*
X91708582Y-60851250D01*
X91764397Y-60655083D01*
X91783215Y-60452000D01*
X91764397Y-60248917D01*
X91708582Y-60052750D01*
X91703374Y-60042291D01*
X91617671Y-59870175D01*
X91578546Y-59818365D01*
X91553854Y-59753004D01*
X91553500Y-59743639D01*
X91553500Y-58499500D01*
X91573185Y-58432461D01*
X91625989Y-58386706D01*
X91677500Y-58375500D01*
X99086231Y-58375500D01*
X99086232Y-58375499D01*
X99255374Y-58341855D01*
X99414705Y-58275858D01*
X99558099Y-58180045D01*
X100600045Y-57138099D01*
X100695858Y-56994705D01*
X100761855Y-56835374D01*
X100795500Y-56666229D01*
X100795500Y-56493771D01*
X100795500Y-50585758D01*
X100815185Y-50518719D01*
X100831819Y-50498077D01*
X100872413Y-50457483D01*
X100958495Y-50371401D01*
X101088730Y-50185405D01*
X101143307Y-50141781D01*
X101212805Y-50134587D01*
X101275160Y-50166110D01*
X101291879Y-50185405D01*
X101421890Y-50371078D01*
X101588917Y-50538105D01*
X101782421Y-50673600D01*
X101996507Y-50773429D01*
X101996516Y-50773433D01*
X102210000Y-50830634D01*
X102210000Y-49933012D01*
X102267007Y-49965925D01*
X102394174Y-50000000D01*
X102525826Y-50000000D01*
X102652993Y-49965925D01*
X102710000Y-49933012D01*
X102710000Y-50830633D01*
X102923483Y-50773433D01*
X102923492Y-50773429D01*
X103137578Y-50673600D01*
X103331078Y-50538108D01*
X103453133Y-50416053D01*
X103514456Y-50382568D01*
X103584148Y-50387552D01*
X103640082Y-50429423D01*
X103656997Y-50460401D01*
X103706202Y-50592328D01*
X103706206Y-50592335D01*
X103792452Y-50707544D01*
X103792455Y-50707547D01*
X103907664Y-50793793D01*
X103907671Y-50793797D01*
X104042517Y-50844091D01*
X104042516Y-50844091D01*
X104049444Y-50844835D01*
X104102127Y-50850500D01*
X105414546Y-50850499D01*
X105481585Y-50870184D01*
X105502227Y-50886818D01*
X107838181Y-53222771D01*
X107871666Y-53284094D01*
X107874500Y-53310452D01*
X107874500Y-56061611D01*
X107898535Y-56182444D01*
X107898540Y-56182461D01*
X107945685Y-56296280D01*
X107945690Y-56296289D01*
X107979914Y-56347507D01*
X107979915Y-56347509D01*
X108014140Y-56398731D01*
X108014141Y-56398732D01*
X108014142Y-56398733D01*
X108101267Y-56485858D01*
X108101268Y-56485858D01*
X108108335Y-56492925D01*
X108108334Y-56492925D01*
X108108338Y-56492928D01*
X109738763Y-58123355D01*
X109738767Y-58123358D01*
X109841210Y-58191809D01*
X109841211Y-58191809D01*
X109841215Y-58191812D01*
X109907896Y-58219431D01*
X109907898Y-58219433D01*
X109955043Y-58238961D01*
X109955048Y-58238963D01*
X109975097Y-58242951D01*
X110008696Y-58249634D01*
X110075892Y-58263001D01*
X110075894Y-58263001D01*
X110205221Y-58263001D01*
X110205241Y-58263000D01*
X110698988Y-58263000D01*
X110766027Y-58282685D01*
X110811782Y-58335489D01*
X110816694Y-58347996D01*
X110844683Y-58432461D01*
X110865186Y-58494334D01*
X110957288Y-58643656D01*
X111081344Y-58767712D01*
X111230666Y-58859814D01*
X111397203Y-58914999D01*
X111499991Y-58925500D01*
X112250500Y-58925499D01*
X112317539Y-58945183D01*
X112363294Y-58997987D01*
X112374500Y-59049499D01*
X112374500Y-59879873D01*
X112354815Y-59946912D01*
X112302011Y-59992667D01*
X112237244Y-60003162D01*
X112207844Y-60000000D01*
X111312155Y-60000000D01*
X111252627Y-60006401D01*
X111252616Y-60006404D01*
X111169046Y-60037573D01*
X111099354Y-60042557D01*
X111082382Y-60037573D01*
X110997485Y-60005909D01*
X110997483Y-60005908D01*
X110937883Y-59999501D01*
X110937881Y-59999500D01*
X110937873Y-59999500D01*
X110937864Y-59999500D01*
X110042129Y-59999500D01*
X110042123Y-59999501D01*
X109982516Y-60005908D01*
X109898332Y-60037307D01*
X109828641Y-60042291D01*
X109811667Y-60037307D01*
X109727482Y-60005908D01*
X109727483Y-60005908D01*
X109667883Y-59999501D01*
X109667881Y-59999500D01*
X109667873Y-59999500D01*
X109667864Y-59999500D01*
X108772129Y-59999500D01*
X108772123Y-59999501D01*
X108712516Y-60005908D01*
X108628332Y-60037307D01*
X108558641Y-60042291D01*
X108541667Y-60037307D01*
X108457482Y-60005908D01*
X108457483Y-60005908D01*
X108397883Y-59999501D01*
X108397881Y-59999500D01*
X108397873Y-59999500D01*
X108397864Y-59999500D01*
X107502129Y-59999500D01*
X107502123Y-59999501D01*
X107442516Y-60005908D01*
X107358332Y-60037307D01*
X107288641Y-60042291D01*
X107271667Y-60037307D01*
X107187482Y-60005908D01*
X107187483Y-60005908D01*
X107127883Y-59999501D01*
X107127881Y-59999500D01*
X107127873Y-59999500D01*
X107127864Y-59999500D01*
X106232129Y-59999500D01*
X106232123Y-59999501D01*
X106172514Y-60005909D01*
X106087617Y-60037573D01*
X106017925Y-60042557D01*
X106000953Y-60037573D01*
X105917382Y-60006403D01*
X105917372Y-60006401D01*
X105857844Y-60000000D01*
X104962155Y-60000000D01*
X104902627Y-60006401D01*
X104902616Y-60006404D01*
X104819046Y-60037573D01*
X104749354Y-60042557D01*
X104732382Y-60037573D01*
X104647485Y-60005909D01*
X104647483Y-60005908D01*
X104587883Y-59999501D01*
X104587881Y-59999500D01*
X104587873Y-59999500D01*
X104587864Y-59999500D01*
X103692129Y-59999500D01*
X103692123Y-59999501D01*
X103632516Y-60005908D01*
X103497671Y-60056202D01*
X103497664Y-60056206D01*
X103382455Y-60142452D01*
X103382452Y-60142455D01*
X103296206Y-60257664D01*
X103296202Y-60257671D01*
X103245908Y-60392517D01*
X103239501Y-60452116D01*
X103239501Y-60452123D01*
X103239500Y-60452135D01*
X103239500Y-60750500D01*
X103219815Y-60817539D01*
X103167011Y-60863294D01*
X103115500Y-60874500D01*
X102938389Y-60874500D01*
X102877971Y-60886518D01*
X102840259Y-60894019D01*
X102817550Y-60898536D01*
X102817548Y-60898537D01*
X102784207Y-60912347D01*
X102703718Y-60945685D01*
X102703709Y-60945690D01*
X102675560Y-60964500D01*
X102675559Y-60964501D01*
X102601268Y-61014140D01*
X102557705Y-61057703D01*
X102514142Y-61101267D01*
X95780144Y-67835264D01*
X95780138Y-67835272D01*
X95711690Y-67937708D01*
X95711688Y-67937713D01*
X95691747Y-67985856D01*
X95664537Y-68051545D01*
X95664536Y-68051549D01*
X95663984Y-68054326D01*
X95649829Y-68125496D01*
X95649828Y-68125501D01*
X95640500Y-68172392D01*
X95640500Y-80763500D01*
X95620815Y-80830539D01*
X95568011Y-80876294D01*
X95516500Y-80887500D01*
X95405354Y-80887500D01*
X95372897Y-80894398D01*
X95220197Y-80926855D01*
X95220192Y-80926857D01*
X95047270Y-81003848D01*
X95047265Y-81003851D01*
X94894129Y-81115111D01*
X94767466Y-81255785D01*
X94672821Y-81419715D01*
X94672818Y-81419722D01*
X94614327Y-81599740D01*
X94614326Y-81599744D01*
X94594540Y-81788000D01*
X94614326Y-81976256D01*
X94614327Y-81976259D01*
X94672818Y-82156277D01*
X94672821Y-82156284D01*
X94767467Y-82320216D01*
X94810772Y-82368310D01*
X94842650Y-82403715D01*
X94872880Y-82466706D01*
X94874500Y-82486687D01*
X94874500Y-86916000D01*
X94854815Y-86983039D01*
X94802011Y-87028794D01*
X94750500Y-87040000D01*
X94250000Y-87040000D01*
X94250000Y-88116000D01*
X94230315Y-88183039D01*
X94177511Y-88228794D01*
X94126000Y-88240000D01*
X93874000Y-88240000D01*
X93806961Y-88220315D01*
X93761206Y-88167511D01*
X93750000Y-88116000D01*
X93750000Y-87040000D01*
X92951500Y-87040000D01*
X92884461Y-87020315D01*
X92838706Y-86967511D01*
X92827500Y-86916000D01*
X92827500Y-85282394D01*
X92826812Y-85278937D01*
X92815481Y-85221971D01*
X92803463Y-85161548D01*
X92756311Y-85047714D01*
X92756310Y-85047713D01*
X92756307Y-85047707D01*
X92687858Y-84945267D01*
X92687855Y-84945263D01*
X92597637Y-84855045D01*
X92597606Y-84855016D01*
X91422198Y-83679608D01*
X91422178Y-83679586D01*
X91330736Y-83588144D01*
X91330733Y-83588142D01*
X91330732Y-83588141D01*
X91276855Y-83552142D01*
X91276856Y-83552142D01*
X91276854Y-83552140D01*
X91228290Y-83519690D01*
X91228287Y-83519688D01*
X91228286Y-83519688D01*
X91147304Y-83486145D01*
X91147303Y-83486144D01*
X91147301Y-83486143D01*
X91114455Y-83472538D01*
X91114453Y-83472537D01*
X91114452Y-83472537D01*
X91054029Y-83460518D01*
X90993610Y-83448500D01*
X90993607Y-83448500D01*
X90993606Y-83448500D01*
X90937227Y-83448500D01*
X90870188Y-83428815D01*
X90835652Y-83395623D01*
X90700496Y-83202600D01*
X90700495Y-83202599D01*
X90578179Y-83080283D01*
X90544696Y-83018963D01*
X90549680Y-82949271D01*
X90591551Y-82893337D01*
X90622529Y-82876422D01*
X90754086Y-82827354D01*
X90754093Y-82827350D01*
X90869187Y-82741190D01*
X90869190Y-82741187D01*
X90955350Y-82626093D01*
X90955354Y-82626086D01*
X91005596Y-82491379D01*
X91005598Y-82491372D01*
X91011999Y-82431844D01*
X91012000Y-82431827D01*
X91012000Y-81784000D01*
X90095012Y-81784000D01*
X90127925Y-81726993D01*
X90162000Y-81599826D01*
X90162000Y-81468174D01*
X90127925Y-81341007D01*
X90095012Y-81284000D01*
X91012000Y-81284000D01*
X91012000Y-80636172D01*
X91011999Y-80636155D01*
X91005598Y-80576627D01*
X91005596Y-80576620D01*
X90955354Y-80441913D01*
X90955350Y-80441906D01*
X90869190Y-80326812D01*
X90869187Y-80326809D01*
X90754093Y-80240649D01*
X90754086Y-80240645D01*
X90619379Y-80190403D01*
X90619372Y-80190401D01*
X90559844Y-80184000D01*
X89912000Y-80184000D01*
X89912000Y-81100988D01*
X89854993Y-81068075D01*
X89727826Y-81034000D01*
X89596174Y-81034000D01*
X89469007Y-81068075D01*
X89412000Y-81100988D01*
X89412000Y-80184000D01*
X88764155Y-80184000D01*
X88704627Y-80190401D01*
X88704620Y-80190403D01*
X88569913Y-80240645D01*
X88569906Y-80240649D01*
X88454812Y-80326809D01*
X88454809Y-80326812D01*
X88368649Y-80441906D01*
X88368645Y-80441913D01*
X88318403Y-80576620D01*
X88318401Y-80576627D01*
X88312000Y-80636155D01*
X88312000Y-81284000D01*
X89228988Y-81284000D01*
X89196075Y-81341007D01*
X89162000Y-81468174D01*
X89162000Y-81599826D01*
X89196075Y-81726993D01*
X89228988Y-81784000D01*
X88312000Y-81784000D01*
X88312000Y-82431844D01*
X88318401Y-82491372D01*
X88318403Y-82491379D01*
X88368645Y-82626086D01*
X88368649Y-82626093D01*
X88454809Y-82741187D01*
X88454812Y-82741190D01*
X88569906Y-82827350D01*
X88569913Y-82827354D01*
X88701470Y-82876421D01*
X88757403Y-82918292D01*
X88781821Y-82983756D01*
X88766970Y-83052029D01*
X88745819Y-83080284D01*
X88623503Y-83202600D01*
X88487965Y-83396169D01*
X88487964Y-83396171D01*
X88388098Y-83610335D01*
X88388094Y-83610344D01*
X88326938Y-83838586D01*
X88326936Y-83838596D01*
X88306341Y-84073999D01*
X86098500Y-84073999D01*
X86098500Y-45101298D01*
X116249500Y-45101298D01*
X116249500Y-45898703D01*
X116264696Y-46014142D01*
X116264699Y-46014151D01*
X116324200Y-46157798D01*
X116418851Y-46281149D01*
X116542202Y-46375800D01*
X116685849Y-46435301D01*
X116801299Y-46450500D01*
X118198700Y-46450499D01*
X118198703Y-46450499D01*
X118314142Y-46435303D01*
X118314146Y-46435301D01*
X118314151Y-46435301D01*
X118457798Y-46375800D01*
X118581149Y-46281149D01*
X118675800Y-46157798D01*
X118735301Y-46014151D01*
X118750500Y-45898701D01*
X118750499Y-45101300D01*
X118750499Y-45101298D01*
X121149500Y-45101298D01*
X121149500Y-45898703D01*
X121164696Y-46014142D01*
X121164699Y-46014151D01*
X121224200Y-46157798D01*
X121318851Y-46281149D01*
X121442202Y-46375800D01*
X121585849Y-46435301D01*
X121701299Y-46450500D01*
X123098700Y-46450499D01*
X123098703Y-46450499D01*
X123214142Y-46435303D01*
X123214146Y-46435301D01*
X123214151Y-46435301D01*
X123357798Y-46375800D01*
X123481149Y-46281149D01*
X123575800Y-46157798D01*
X123635301Y-46014151D01*
X123650500Y-45898701D01*
X123650499Y-45101300D01*
X123650499Y-45101298D01*
X123650499Y-45101296D01*
X123635303Y-44985857D01*
X123635301Y-44985850D01*
X123635301Y-44985849D01*
X123575800Y-44842202D01*
X123481149Y-44718851D01*
X123357798Y-44624200D01*
X123357794Y-44624198D01*
X123214151Y-44564699D01*
X123214149Y-44564698D01*
X123098701Y-44549500D01*
X121701296Y-44549500D01*
X121585857Y-44564696D01*
X121585848Y-44564699D01*
X121442205Y-44624198D01*
X121318851Y-44718851D01*
X121224198Y-44842205D01*
X121164699Y-44985848D01*
X121164698Y-44985850D01*
X121149500Y-45101298D01*
X118750499Y-45101298D01*
X118750499Y-45101296D01*
X118735303Y-44985857D01*
X118735301Y-44985850D01*
X118735301Y-44985849D01*
X118675800Y-44842202D01*
X118581149Y-44718851D01*
X118457798Y-44624200D01*
X118457794Y-44624198D01*
X118314151Y-44564699D01*
X118314149Y-44564698D01*
X118198701Y-44549500D01*
X116801296Y-44549500D01*
X116685857Y-44564696D01*
X116685848Y-44564699D01*
X116542205Y-44624198D01*
X116418851Y-44718851D01*
X116324198Y-44842205D01*
X116264699Y-44985848D01*
X116264698Y-44985850D01*
X116249500Y-45101298D01*
X86098500Y-45101298D01*
X86098500Y-42026500D01*
X86118185Y-41959461D01*
X86170989Y-41913706D01*
X86222500Y-41902500D01*
X123835500Y-41902500D01*
X123902539Y-41922185D01*
G37*
%TD.AperFunction*%
%TD*%
M02*
