M48
; DRILL file {KiCad 9.0.2} date 2025-06-17T20:14:45+0200
; FORMAT={-:-/ absolute / metric / decimal}
; #@! TF.CreationDate,2025-06-17T20:14:45+02:00
; #@! TF.GenerationSoftware,Kicad,Pcbnew,9.0.2
; #@! TF.FileFunction,Plated,1,2,PTH
FMAT,2
METRIC
; #@! TA.AperFunction,Plated,PTH,ViaDrill
T1C0.400
; #@! TA.AperFunction,Plated,PTH,ComponentDrill
T2C0.600
; #@! TA.AperFunction,Plated,PTH,ComponentDrill
T3C0.650
; #@! TA.AperFunction,Plated,PTH,ComponentDrill
T4C1.000
; #@! TA.AperFunction,Plated,PTH,ComponentDrill
T5C2.200
; #@! TA.AperFunction,Plated,PTH,ComponentDrill
T6C4.000
%
G90
G05
T1
X87.366Y-54.478
X89.512Y-78.379
X89.588Y-69.718
X93.5Y-78.199
X93.97Y-56.358
X93.97Y-58.948
X93.97Y-60.193
X93.97Y-61.438
X96.192Y-53.716
X96.7Y-70.988
X97.97Y-77.948
X99.088Y-48.28
X101.983Y-53.665
X103.43Y-77.922
X105.197Y-68.397
X105.248Y-65.248
X105.336Y-47.874
X108.384Y-47.874
X108.892Y-58.923
X108.892Y-60.193
X108.892Y-61.463
X108.892Y-62.733
X109.857Y-52.344
X111.686Y-46.223
X112.664Y-65.06
X112.702Y-76.068
X112.702Y-77.084
X114.734Y-44.076
X115.916Y-48.23
X115.916Y-49.5
X116.8Y-76.068
X116.8Y-77.084
X119.598Y-50.35
X119.687Y-58.923
X119.865Y-48.865
X120.957Y-60.193
X122.164Y-59.355
X122.227Y-61.463
X122.252Y-44.978
X123.624Y-73.579
X123.815Y-66.162
X126.101Y-65.197
X127.752Y-78.608
X128.514Y-60.193
X128.768Y-77.846
X129.886Y-49.246
X129.898Y-44.902
X130.851Y-76.17
X131.422Y-48.153
T3
X103.05Y-71.115
X104.32Y-71.115
X105.59Y-71.115
X111.686Y-42.794
X112.956Y-42.794
X131.625Y-43.048
X132.895Y-43.048
T4
X83.048Y-57.272
X83.048Y-59.812
X83.048Y-62.352
X83.048Y-64.892
X88.216Y-72.004
X110.416Y-68.956
X112.956Y-68.956
X115.496Y-68.956
X117.643Y-42.286
X118.036Y-68.956
X120.183Y-42.286
X120.576Y-68.956
X122.723Y-42.286
X125.263Y-42.286
X126.926Y-68.956
X129.466Y-68.956
X132.006Y-68.956
T5
X83.0Y-43.0
X83.0Y-79.0
X137.0Y-43.0
X137.0Y-79.0
T6
X123.665Y-53.986
T2
G00X96.38Y-76.936
M15
G01X96.38Y-76.236
M16
G05
G00X96.38Y-80.736
M15
G01X96.38Y-80.036
M16
G05
G00X104.98Y-76.936
M15
G01X104.98Y-76.236
M16
G05
G00X104.98Y-80.736
M15
G01X104.98Y-80.036
M16
G05
M30
