%TF.GenerationSoftware,KiCad,Pcbnew,9.0.2*%
%TF.CreationDate,2025-06-17T20:14:42+02:00*%
%TF.ProjectId,elrs_tx_full,656c7273-5f74-4785-9f66-756c6c2e6b69,rev?*%
%TF.SameCoordinates,Original*%
%TF.FileFunction,Legend,Bot*%
%TF.FilePolarity,Positive*%
%FSLAX46Y46*%
G04 Gerber Fmt 4.6, Leading zero omitted, Abs format (unit mm)*
G04 Created by KiCad (PCBNEW 9.0.2) date 2025-06-17 20:14:42*
%MOMM*%
%LPD*%
G01*
G04 APERTURE LIST*
%ADD10C,0.150000*%
%ADD11C,0.120000*%
G04 APERTURE END LIST*
D10*
X123788180Y-47130921D02*
X123788180Y-46511874D01*
X123788180Y-46511874D02*
X123407228Y-46845207D01*
X123407228Y-46845207D02*
X123407228Y-46702350D01*
X123407228Y-46702350D02*
X123359609Y-46607112D01*
X123359609Y-46607112D02*
X123311990Y-46559493D01*
X123311990Y-46559493D02*
X123216752Y-46511874D01*
X123216752Y-46511874D02*
X122978657Y-46511874D01*
X122978657Y-46511874D02*
X122883419Y-46559493D01*
X122883419Y-46559493D02*
X122835800Y-46607112D01*
X122835800Y-46607112D02*
X122788180Y-46702350D01*
X122788180Y-46702350D02*
X122788180Y-46988064D01*
X122788180Y-46988064D02*
X122835800Y-47083302D01*
X122835800Y-47083302D02*
X122883419Y-47130921D01*
X122883419Y-46083302D02*
X122835800Y-46035683D01*
X122835800Y-46035683D02*
X122788180Y-46083302D01*
X122788180Y-46083302D02*
X122835800Y-46130921D01*
X122835800Y-46130921D02*
X122883419Y-46083302D01*
X122883419Y-46083302D02*
X122788180Y-46083302D01*
X123788180Y-45702350D02*
X123788180Y-45083303D01*
X123788180Y-45083303D02*
X123407228Y-45416636D01*
X123407228Y-45416636D02*
X123407228Y-45273779D01*
X123407228Y-45273779D02*
X123359609Y-45178541D01*
X123359609Y-45178541D02*
X123311990Y-45130922D01*
X123311990Y-45130922D02*
X123216752Y-45083303D01*
X123216752Y-45083303D02*
X122978657Y-45083303D01*
X122978657Y-45083303D02*
X122883419Y-45130922D01*
X122883419Y-45130922D02*
X122835800Y-45178541D01*
X122835800Y-45178541D02*
X122788180Y-45273779D01*
X122788180Y-45273779D02*
X122788180Y-45559493D01*
X122788180Y-45559493D02*
X122835800Y-45654731D01*
X122835800Y-45654731D02*
X122883419Y-45702350D01*
X123788180Y-44797588D02*
X122788180Y-44464255D01*
X122788180Y-44464255D02*
X123788180Y-44130922D01*
X117247800Y-46654731D02*
X117200180Y-46511874D01*
X117200180Y-46511874D02*
X117200180Y-46273779D01*
X117200180Y-46273779D02*
X117247800Y-46178541D01*
X117247800Y-46178541D02*
X117295419Y-46130922D01*
X117295419Y-46130922D02*
X117390657Y-46083303D01*
X117390657Y-46083303D02*
X117485895Y-46083303D01*
X117485895Y-46083303D02*
X117581133Y-46130922D01*
X117581133Y-46130922D02*
X117628752Y-46178541D01*
X117628752Y-46178541D02*
X117676371Y-46273779D01*
X117676371Y-46273779D02*
X117723990Y-46464255D01*
X117723990Y-46464255D02*
X117771609Y-46559493D01*
X117771609Y-46559493D02*
X117819228Y-46607112D01*
X117819228Y-46607112D02*
X117914466Y-46654731D01*
X117914466Y-46654731D02*
X118009704Y-46654731D01*
X118009704Y-46654731D02*
X118104942Y-46607112D01*
X118104942Y-46607112D02*
X118152561Y-46559493D01*
X118152561Y-46559493D02*
X118200180Y-46464255D01*
X118200180Y-46464255D02*
X118200180Y-46226160D01*
X118200180Y-46226160D02*
X118152561Y-46083303D01*
X117200180Y-45654731D02*
X118200180Y-45654731D01*
X118200180Y-45654731D02*
X118200180Y-45416636D01*
X118200180Y-45416636D02*
X118152561Y-45273779D01*
X118152561Y-45273779D02*
X118057323Y-45178541D01*
X118057323Y-45178541D02*
X117962085Y-45130922D01*
X117962085Y-45130922D02*
X117771609Y-45083303D01*
X117771609Y-45083303D02*
X117628752Y-45083303D01*
X117628752Y-45083303D02*
X117438276Y-45130922D01*
X117438276Y-45130922D02*
X117343038Y-45178541D01*
X117343038Y-45178541D02*
X117247800Y-45273779D01*
X117247800Y-45273779D02*
X117200180Y-45416636D01*
X117200180Y-45416636D02*
X117200180Y-45654731D01*
X117485895Y-44702350D02*
X117485895Y-44226160D01*
X117200180Y-44797588D02*
X118200180Y-44464255D01*
X118200180Y-44464255D02*
X117200180Y-44130922D01*
X125772561Y-46321398D02*
X125820180Y-46416636D01*
X125820180Y-46416636D02*
X125820180Y-46559493D01*
X125820180Y-46559493D02*
X125772561Y-46702350D01*
X125772561Y-46702350D02*
X125677323Y-46797588D01*
X125677323Y-46797588D02*
X125582085Y-46845207D01*
X125582085Y-46845207D02*
X125391609Y-46892826D01*
X125391609Y-46892826D02*
X125248752Y-46892826D01*
X125248752Y-46892826D02*
X125058276Y-46845207D01*
X125058276Y-46845207D02*
X124963038Y-46797588D01*
X124963038Y-46797588D02*
X124867800Y-46702350D01*
X124867800Y-46702350D02*
X124820180Y-46559493D01*
X124820180Y-46559493D02*
X124820180Y-46464255D01*
X124820180Y-46464255D02*
X124867800Y-46321398D01*
X124867800Y-46321398D02*
X124915419Y-46273779D01*
X124915419Y-46273779D02*
X125248752Y-46273779D01*
X125248752Y-46273779D02*
X125248752Y-46464255D01*
X124820180Y-45845207D02*
X125820180Y-45845207D01*
X125820180Y-45845207D02*
X124820180Y-45273779D01*
X124820180Y-45273779D02*
X125820180Y-45273779D01*
X124820180Y-44797588D02*
X125820180Y-44797588D01*
X125820180Y-44797588D02*
X125820180Y-44559493D01*
X125820180Y-44559493D02*
X125772561Y-44416636D01*
X125772561Y-44416636D02*
X125677323Y-44321398D01*
X125677323Y-44321398D02*
X125582085Y-44273779D01*
X125582085Y-44273779D02*
X125391609Y-44226160D01*
X125391609Y-44226160D02*
X125248752Y-44226160D01*
X125248752Y-44226160D02*
X125058276Y-44273779D01*
X125058276Y-44273779D02*
X124963038Y-44321398D01*
X124963038Y-44321398D02*
X124867800Y-44416636D01*
X124867800Y-44416636D02*
X124820180Y-44559493D01*
X124820180Y-44559493D02*
X124820180Y-44797588D01*
X119787800Y-46797588D02*
X119740180Y-46654731D01*
X119740180Y-46654731D02*
X119740180Y-46416636D01*
X119740180Y-46416636D02*
X119787800Y-46321398D01*
X119787800Y-46321398D02*
X119835419Y-46273779D01*
X119835419Y-46273779D02*
X119930657Y-46226160D01*
X119930657Y-46226160D02*
X120025895Y-46226160D01*
X120025895Y-46226160D02*
X120121133Y-46273779D01*
X120121133Y-46273779D02*
X120168752Y-46321398D01*
X120168752Y-46321398D02*
X120216371Y-46416636D01*
X120216371Y-46416636D02*
X120263990Y-46607112D01*
X120263990Y-46607112D02*
X120311609Y-46702350D01*
X120311609Y-46702350D02*
X120359228Y-46749969D01*
X120359228Y-46749969D02*
X120454466Y-46797588D01*
X120454466Y-46797588D02*
X120549704Y-46797588D01*
X120549704Y-46797588D02*
X120644942Y-46749969D01*
X120644942Y-46749969D02*
X120692561Y-46702350D01*
X120692561Y-46702350D02*
X120740180Y-46607112D01*
X120740180Y-46607112D02*
X120740180Y-46369017D01*
X120740180Y-46369017D02*
X120692561Y-46226160D01*
X119835419Y-45226160D02*
X119787800Y-45273779D01*
X119787800Y-45273779D02*
X119740180Y-45416636D01*
X119740180Y-45416636D02*
X119740180Y-45511874D01*
X119740180Y-45511874D02*
X119787800Y-45654731D01*
X119787800Y-45654731D02*
X119883038Y-45749969D01*
X119883038Y-45749969D02*
X119978276Y-45797588D01*
X119978276Y-45797588D02*
X120168752Y-45845207D01*
X120168752Y-45845207D02*
X120311609Y-45845207D01*
X120311609Y-45845207D02*
X120502085Y-45797588D01*
X120502085Y-45797588D02*
X120597323Y-45749969D01*
X120597323Y-45749969D02*
X120692561Y-45654731D01*
X120692561Y-45654731D02*
X120740180Y-45511874D01*
X120740180Y-45511874D02*
X120740180Y-45416636D01*
X120740180Y-45416636D02*
X120692561Y-45273779D01*
X120692561Y-45273779D02*
X120644942Y-45226160D01*
X119740180Y-44797588D02*
X120740180Y-44797588D01*
X119740180Y-44226160D02*
X120311609Y-44654731D01*
X120740180Y-44226160D02*
X120168752Y-44797588D01*
X99081319Y-70160095D02*
X99890842Y-70160095D01*
X99890842Y-70160095D02*
X99986080Y-70207714D01*
X99986080Y-70207714D02*
X100033700Y-70255333D01*
X100033700Y-70255333D02*
X100081319Y-70350571D01*
X100081319Y-70350571D02*
X100081319Y-70541047D01*
X100081319Y-70541047D02*
X100033700Y-70636285D01*
X100033700Y-70636285D02*
X99986080Y-70683904D01*
X99986080Y-70683904D02*
X99890842Y-70731523D01*
X99890842Y-70731523D02*
X99081319Y-70731523D01*
X99081319Y-71112476D02*
X99081319Y-71731523D01*
X99081319Y-71731523D02*
X99462271Y-71398190D01*
X99462271Y-71398190D02*
X99462271Y-71541047D01*
X99462271Y-71541047D02*
X99509890Y-71636285D01*
X99509890Y-71636285D02*
X99557509Y-71683904D01*
X99557509Y-71683904D02*
X99652747Y-71731523D01*
X99652747Y-71731523D02*
X99890842Y-71731523D01*
X99890842Y-71731523D02*
X99986080Y-71683904D01*
X99986080Y-71683904D02*
X100033700Y-71636285D01*
X100033700Y-71636285D02*
X100081319Y-71541047D01*
X100081319Y-71541047D02*
X100081319Y-71255333D01*
X100081319Y-71255333D02*
X100033700Y-71160095D01*
X100033700Y-71160095D02*
X99986080Y-71112476D01*
X91820819Y-67551333D02*
X91344628Y-67218000D01*
X91820819Y-66979905D02*
X90820819Y-66979905D01*
X90820819Y-66979905D02*
X90820819Y-67360857D01*
X90820819Y-67360857D02*
X90868438Y-67456095D01*
X90868438Y-67456095D02*
X90916057Y-67503714D01*
X90916057Y-67503714D02*
X91011295Y-67551333D01*
X91011295Y-67551333D02*
X91154152Y-67551333D01*
X91154152Y-67551333D02*
X91249390Y-67503714D01*
X91249390Y-67503714D02*
X91297009Y-67456095D01*
X91297009Y-67456095D02*
X91344628Y-67360857D01*
X91344628Y-67360857D02*
X91344628Y-66979905D01*
X91154152Y-68408476D02*
X91820819Y-68408476D01*
X90773200Y-68170381D02*
X91487485Y-67932286D01*
X91487485Y-67932286D02*
X91487485Y-68551333D01*
X93852819Y-67551333D02*
X93376628Y-67218000D01*
X93852819Y-66979905D02*
X92852819Y-66979905D01*
X92852819Y-66979905D02*
X92852819Y-67360857D01*
X92852819Y-67360857D02*
X92900438Y-67456095D01*
X92900438Y-67456095D02*
X92948057Y-67503714D01*
X92948057Y-67503714D02*
X93043295Y-67551333D01*
X93043295Y-67551333D02*
X93186152Y-67551333D01*
X93186152Y-67551333D02*
X93281390Y-67503714D01*
X93281390Y-67503714D02*
X93329009Y-67456095D01*
X93329009Y-67456095D02*
X93376628Y-67360857D01*
X93376628Y-67360857D02*
X93376628Y-66979905D01*
X92852819Y-67884667D02*
X92852819Y-68503714D01*
X92852819Y-68503714D02*
X93233771Y-68170381D01*
X93233771Y-68170381D02*
X93233771Y-68313238D01*
X93233771Y-68313238D02*
X93281390Y-68408476D01*
X93281390Y-68408476D02*
X93329009Y-68456095D01*
X93329009Y-68456095D02*
X93424247Y-68503714D01*
X93424247Y-68503714D02*
X93662342Y-68503714D01*
X93662342Y-68503714D02*
X93757580Y-68456095D01*
X93757580Y-68456095D02*
X93805200Y-68408476D01*
X93805200Y-68408476D02*
X93852819Y-68313238D01*
X93852819Y-68313238D02*
X93852819Y-68027524D01*
X93852819Y-68027524D02*
X93805200Y-67932286D01*
X93805200Y-67932286D02*
X93757580Y-67884667D01*
X106925066Y-50875180D02*
X106972685Y-50922800D01*
X106972685Y-50922800D02*
X107115542Y-50970419D01*
X107115542Y-50970419D02*
X107210780Y-50970419D01*
X107210780Y-50970419D02*
X107353637Y-50922800D01*
X107353637Y-50922800D02*
X107448875Y-50827561D01*
X107448875Y-50827561D02*
X107496494Y-50732323D01*
X107496494Y-50732323D02*
X107544113Y-50541847D01*
X107544113Y-50541847D02*
X107544113Y-50398990D01*
X107544113Y-50398990D02*
X107496494Y-50208514D01*
X107496494Y-50208514D02*
X107448875Y-50113276D01*
X107448875Y-50113276D02*
X107353637Y-50018038D01*
X107353637Y-50018038D02*
X107210780Y-49970419D01*
X107210780Y-49970419D02*
X107115542Y-49970419D01*
X107115542Y-49970419D02*
X106972685Y-50018038D01*
X106972685Y-50018038D02*
X106925066Y-50065657D01*
X106448875Y-50970419D02*
X106258399Y-50970419D01*
X106258399Y-50970419D02*
X106163161Y-50922800D01*
X106163161Y-50922800D02*
X106115542Y-50875180D01*
X106115542Y-50875180D02*
X106020304Y-50732323D01*
X106020304Y-50732323D02*
X105972685Y-50541847D01*
X105972685Y-50541847D02*
X105972685Y-50160895D01*
X105972685Y-50160895D02*
X106020304Y-50065657D01*
X106020304Y-50065657D02*
X106067923Y-50018038D01*
X106067923Y-50018038D02*
X106163161Y-49970419D01*
X106163161Y-49970419D02*
X106353637Y-49970419D01*
X106353637Y-49970419D02*
X106448875Y-50018038D01*
X106448875Y-50018038D02*
X106496494Y-50065657D01*
X106496494Y-50065657D02*
X106544113Y-50160895D01*
X106544113Y-50160895D02*
X106544113Y-50398990D01*
X106544113Y-50398990D02*
X106496494Y-50494228D01*
X106496494Y-50494228D02*
X106448875Y-50541847D01*
X106448875Y-50541847D02*
X106353637Y-50589466D01*
X106353637Y-50589466D02*
X106163161Y-50589466D01*
X106163161Y-50589466D02*
X106067923Y-50541847D01*
X106067923Y-50541847D02*
X106020304Y-50494228D01*
X106020304Y-50494228D02*
X105972685Y-50398990D01*
X100405332Y-54656600D02*
X100262475Y-54704219D01*
X100262475Y-54704219D02*
X100024380Y-54704219D01*
X100024380Y-54704219D02*
X99929142Y-54656600D01*
X99929142Y-54656600D02*
X99881523Y-54608980D01*
X99881523Y-54608980D02*
X99833904Y-54513742D01*
X99833904Y-54513742D02*
X99833904Y-54418504D01*
X99833904Y-54418504D02*
X99881523Y-54323266D01*
X99881523Y-54323266D02*
X99929142Y-54275647D01*
X99929142Y-54275647D02*
X100024380Y-54228028D01*
X100024380Y-54228028D02*
X100214856Y-54180409D01*
X100214856Y-54180409D02*
X100310094Y-54132790D01*
X100310094Y-54132790D02*
X100357713Y-54085171D01*
X100357713Y-54085171D02*
X100405332Y-53989933D01*
X100405332Y-53989933D02*
X100405332Y-53894695D01*
X100405332Y-53894695D02*
X100357713Y-53799457D01*
X100357713Y-53799457D02*
X100310094Y-53751838D01*
X100310094Y-53751838D02*
X100214856Y-53704219D01*
X100214856Y-53704219D02*
X99976761Y-53704219D01*
X99976761Y-53704219D02*
X99833904Y-53751838D01*
X99500570Y-53704219D02*
X99262475Y-54704219D01*
X99262475Y-54704219D02*
X99071999Y-53989933D01*
X99071999Y-53989933D02*
X98881523Y-54704219D01*
X98881523Y-54704219D02*
X98643428Y-53704219D01*
X97738666Y-54704219D02*
X98310094Y-54704219D01*
X98024380Y-54704219D02*
X98024380Y-53704219D01*
X98024380Y-53704219D02*
X98119618Y-53847076D01*
X98119618Y-53847076D02*
X98214856Y-53942314D01*
X98214856Y-53942314D02*
X98310094Y-53989933D01*
X106391666Y-56812419D02*
X106724999Y-56336228D01*
X106963094Y-56812419D02*
X106963094Y-55812419D01*
X106963094Y-55812419D02*
X106582142Y-55812419D01*
X106582142Y-55812419D02*
X106486904Y-55860038D01*
X106486904Y-55860038D02*
X106439285Y-55907657D01*
X106439285Y-55907657D02*
X106391666Y-56002895D01*
X106391666Y-56002895D02*
X106391666Y-56145752D01*
X106391666Y-56145752D02*
X106439285Y-56240990D01*
X106439285Y-56240990D02*
X106486904Y-56288609D01*
X106486904Y-56288609D02*
X106582142Y-56336228D01*
X106582142Y-56336228D02*
X106963094Y-56336228D01*
X106010713Y-55907657D02*
X105963094Y-55860038D01*
X105963094Y-55860038D02*
X105867856Y-55812419D01*
X105867856Y-55812419D02*
X105629761Y-55812419D01*
X105629761Y-55812419D02*
X105534523Y-55860038D01*
X105534523Y-55860038D02*
X105486904Y-55907657D01*
X105486904Y-55907657D02*
X105439285Y-56002895D01*
X105439285Y-56002895D02*
X105439285Y-56098133D01*
X105439285Y-56098133D02*
X105486904Y-56240990D01*
X105486904Y-56240990D02*
X106058332Y-56812419D01*
X106058332Y-56812419D02*
X105439285Y-56812419D01*
X101418494Y-74632619D02*
X101418494Y-73632619D01*
X101418494Y-73632619D02*
X101037542Y-73632619D01*
X101037542Y-73632619D02*
X100942304Y-73680238D01*
X100942304Y-73680238D02*
X100894685Y-73727857D01*
X100894685Y-73727857D02*
X100847066Y-73823095D01*
X100847066Y-73823095D02*
X100847066Y-73965952D01*
X100847066Y-73965952D02*
X100894685Y-74061190D01*
X100894685Y-74061190D02*
X100942304Y-74108809D01*
X100942304Y-74108809D02*
X101037542Y-74156428D01*
X101037542Y-74156428D02*
X101418494Y-74156428D01*
X99894685Y-74632619D02*
X100466113Y-74632619D01*
X100180399Y-74632619D02*
X100180399Y-73632619D01*
X100180399Y-73632619D02*
X100275637Y-73775476D01*
X100275637Y-73775476D02*
X100370875Y-73870714D01*
X100370875Y-73870714D02*
X100466113Y-73918333D01*
X115588533Y-41740819D02*
X115588533Y-42455104D01*
X115588533Y-42455104D02*
X115636152Y-42597961D01*
X115636152Y-42597961D02*
X115731390Y-42693200D01*
X115731390Y-42693200D02*
X115874247Y-42740819D01*
X115874247Y-42740819D02*
X115969485Y-42740819D01*
X114636152Y-41740819D02*
X115112342Y-41740819D01*
X115112342Y-41740819D02*
X115159961Y-42217009D01*
X115159961Y-42217009D02*
X115112342Y-42169390D01*
X115112342Y-42169390D02*
X115017104Y-42121771D01*
X115017104Y-42121771D02*
X114779009Y-42121771D01*
X114779009Y-42121771D02*
X114683771Y-42169390D01*
X114683771Y-42169390D02*
X114636152Y-42217009D01*
X114636152Y-42217009D02*
X114588533Y-42312247D01*
X114588533Y-42312247D02*
X114588533Y-42550342D01*
X114588533Y-42550342D02*
X114636152Y-42645580D01*
X114636152Y-42645580D02*
X114683771Y-42693200D01*
X114683771Y-42693200D02*
X114779009Y-42740819D01*
X114779009Y-42740819D02*
X115017104Y-42740819D01*
X115017104Y-42740819D02*
X115112342Y-42693200D01*
X115112342Y-42693200D02*
X115159961Y-42645580D01*
X88549733Y-69078819D02*
X88549733Y-69793104D01*
X88549733Y-69793104D02*
X88597352Y-69935961D01*
X88597352Y-69935961D02*
X88692590Y-70031200D01*
X88692590Y-70031200D02*
X88835447Y-70078819D01*
X88835447Y-70078819D02*
X88930685Y-70078819D01*
X87549733Y-70078819D02*
X88121161Y-70078819D01*
X87835447Y-70078819D02*
X87835447Y-69078819D01*
X87835447Y-69078819D02*
X87930685Y-69221676D01*
X87930685Y-69221676D02*
X88025923Y-69316914D01*
X88025923Y-69316914D02*
X88121161Y-69364533D01*
X121735333Y-71225019D02*
X121735333Y-71939304D01*
X121735333Y-71939304D02*
X121782952Y-72082161D01*
X121782952Y-72082161D02*
X121878190Y-72177400D01*
X121878190Y-72177400D02*
X122021047Y-72225019D01*
X122021047Y-72225019D02*
X122116285Y-72225019D01*
X121306761Y-71320257D02*
X121259142Y-71272638D01*
X121259142Y-71272638D02*
X121163904Y-71225019D01*
X121163904Y-71225019D02*
X120925809Y-71225019D01*
X120925809Y-71225019D02*
X120830571Y-71272638D01*
X120830571Y-71272638D02*
X120782952Y-71320257D01*
X120782952Y-71320257D02*
X120735333Y-71415495D01*
X120735333Y-71415495D02*
X120735333Y-71510733D01*
X120735333Y-71510733D02*
X120782952Y-71653590D01*
X120782952Y-71653590D02*
X121354380Y-72225019D01*
X121354380Y-72225019D02*
X120735333Y-72225019D01*
X84166666Y-70298819D02*
X84499999Y-69822628D01*
X84738094Y-70298819D02*
X84738094Y-69298819D01*
X84738094Y-69298819D02*
X84357142Y-69298819D01*
X84357142Y-69298819D02*
X84261904Y-69346438D01*
X84261904Y-69346438D02*
X84214285Y-69394057D01*
X84214285Y-69394057D02*
X84166666Y-69489295D01*
X84166666Y-69489295D02*
X84166666Y-69632152D01*
X84166666Y-69632152D02*
X84214285Y-69727390D01*
X84214285Y-69727390D02*
X84261904Y-69775009D01*
X84261904Y-69775009D02*
X84357142Y-69822628D01*
X84357142Y-69822628D02*
X84738094Y-69822628D01*
X83214285Y-70298819D02*
X83785713Y-70298819D01*
X83499999Y-70298819D02*
X83499999Y-69298819D01*
X83499999Y-69298819D02*
X83595237Y-69441676D01*
X83595237Y-69441676D02*
X83690475Y-69536914D01*
X83690475Y-69536914D02*
X83785713Y-69584533D01*
X83317333Y-54186819D02*
X83317333Y-54901104D01*
X83317333Y-54901104D02*
X83364952Y-55043961D01*
X83364952Y-55043961D02*
X83460190Y-55139200D01*
X83460190Y-55139200D02*
X83603047Y-55186819D01*
X83603047Y-55186819D02*
X83698285Y-55186819D01*
X82412571Y-54520152D02*
X82412571Y-55186819D01*
X82650666Y-54139200D02*
X82888761Y-54853485D01*
X82888761Y-54853485D02*
X82269714Y-54853485D01*
X85402966Y-48850980D02*
X85450585Y-48898600D01*
X85450585Y-48898600D02*
X85593442Y-48946219D01*
X85593442Y-48946219D02*
X85688680Y-48946219D01*
X85688680Y-48946219D02*
X85831537Y-48898600D01*
X85831537Y-48898600D02*
X85926775Y-48803361D01*
X85926775Y-48803361D02*
X85974394Y-48708123D01*
X85974394Y-48708123D02*
X86022013Y-48517647D01*
X86022013Y-48517647D02*
X86022013Y-48374790D01*
X86022013Y-48374790D02*
X85974394Y-48184314D01*
X85974394Y-48184314D02*
X85926775Y-48089076D01*
X85926775Y-48089076D02*
X85831537Y-47993838D01*
X85831537Y-47993838D02*
X85688680Y-47946219D01*
X85688680Y-47946219D02*
X85593442Y-47946219D01*
X85593442Y-47946219D02*
X85450585Y-47993838D01*
X85450585Y-47993838D02*
X85402966Y-48041457D01*
X84450585Y-48946219D02*
X85022013Y-48946219D01*
X84736299Y-48946219D02*
X84736299Y-47946219D01*
X84736299Y-47946219D02*
X84831537Y-48089076D01*
X84831537Y-48089076D02*
X84926775Y-48184314D01*
X84926775Y-48184314D02*
X85022013Y-48231933D01*
X105810380Y-66643433D02*
X105858000Y-66595814D01*
X105858000Y-66595814D02*
X105905619Y-66452957D01*
X105905619Y-66452957D02*
X105905619Y-66357719D01*
X105905619Y-66357719D02*
X105858000Y-66214862D01*
X105858000Y-66214862D02*
X105762761Y-66119624D01*
X105762761Y-66119624D02*
X105667523Y-66072005D01*
X105667523Y-66072005D02*
X105477047Y-66024386D01*
X105477047Y-66024386D02*
X105334190Y-66024386D01*
X105334190Y-66024386D02*
X105143714Y-66072005D01*
X105143714Y-66072005D02*
X105048476Y-66119624D01*
X105048476Y-66119624D02*
X104953238Y-66214862D01*
X104953238Y-66214862D02*
X104905619Y-66357719D01*
X104905619Y-66357719D02*
X104905619Y-66452957D01*
X104905619Y-66452957D02*
X104953238Y-66595814D01*
X104953238Y-66595814D02*
X105000857Y-66643433D01*
X104905619Y-66976767D02*
X104905619Y-67595814D01*
X104905619Y-67595814D02*
X105286571Y-67262481D01*
X105286571Y-67262481D02*
X105286571Y-67405338D01*
X105286571Y-67405338D02*
X105334190Y-67500576D01*
X105334190Y-67500576D02*
X105381809Y-67548195D01*
X105381809Y-67548195D02*
X105477047Y-67595814D01*
X105477047Y-67595814D02*
X105715142Y-67595814D01*
X105715142Y-67595814D02*
X105810380Y-67548195D01*
X105810380Y-67548195D02*
X105858000Y-67500576D01*
X105858000Y-67500576D02*
X105905619Y-67405338D01*
X105905619Y-67405338D02*
X105905619Y-67119624D01*
X105905619Y-67119624D02*
X105858000Y-67024386D01*
X105858000Y-67024386D02*
X105810380Y-66976767D01*
X90487819Y-77644914D02*
X90487819Y-77073486D01*
X90487819Y-77359200D02*
X89487819Y-77359200D01*
X89487819Y-77359200D02*
X89630676Y-77263962D01*
X89630676Y-77263962D02*
X89725914Y-77168724D01*
X89725914Y-77168724D02*
X89773533Y-77073486D01*
X133673333Y-71246019D02*
X133673333Y-71960304D01*
X133673333Y-71960304D02*
X133720952Y-72103161D01*
X133720952Y-72103161D02*
X133816190Y-72198400D01*
X133816190Y-72198400D02*
X133959047Y-72246019D01*
X133959047Y-72246019D02*
X134054285Y-72246019D01*
X133292380Y-71246019D02*
X132673333Y-71246019D01*
X132673333Y-71246019D02*
X133006666Y-71626971D01*
X133006666Y-71626971D02*
X132863809Y-71626971D01*
X132863809Y-71626971D02*
X132768571Y-71674590D01*
X132768571Y-71674590D02*
X132720952Y-71722209D01*
X132720952Y-71722209D02*
X132673333Y-71817447D01*
X132673333Y-71817447D02*
X132673333Y-72055542D01*
X132673333Y-72055542D02*
X132720952Y-72150780D01*
X132720952Y-72150780D02*
X132768571Y-72198400D01*
X132768571Y-72198400D02*
X132863809Y-72246019D01*
X132863809Y-72246019D02*
X133149523Y-72246019D01*
X133149523Y-72246019D02*
X133244761Y-72198400D01*
X133244761Y-72198400D02*
X133292380Y-72150780D01*
X127086580Y-52330133D02*
X127134200Y-52282514D01*
X127134200Y-52282514D02*
X127181819Y-52139657D01*
X127181819Y-52139657D02*
X127181819Y-52044419D01*
X127181819Y-52044419D02*
X127134200Y-51901562D01*
X127134200Y-51901562D02*
X127038961Y-51806324D01*
X127038961Y-51806324D02*
X126943723Y-51758705D01*
X126943723Y-51758705D02*
X126753247Y-51711086D01*
X126753247Y-51711086D02*
X126610390Y-51711086D01*
X126610390Y-51711086D02*
X126419914Y-51758705D01*
X126419914Y-51758705D02*
X126324676Y-51806324D01*
X126324676Y-51806324D02*
X126229438Y-51901562D01*
X126229438Y-51901562D02*
X126181819Y-52044419D01*
X126181819Y-52044419D02*
X126181819Y-52139657D01*
X126181819Y-52139657D02*
X126229438Y-52282514D01*
X126229438Y-52282514D02*
X126277057Y-52330133D01*
X126277057Y-52711086D02*
X126229438Y-52758705D01*
X126229438Y-52758705D02*
X126181819Y-52853943D01*
X126181819Y-52853943D02*
X126181819Y-53092038D01*
X126181819Y-53092038D02*
X126229438Y-53187276D01*
X126229438Y-53187276D02*
X126277057Y-53234895D01*
X126277057Y-53234895D02*
X126372295Y-53282514D01*
X126372295Y-53282514D02*
X126467533Y-53282514D01*
X126467533Y-53282514D02*
X126610390Y-53234895D01*
X126610390Y-53234895D02*
X127181819Y-52663467D01*
X127181819Y-52663467D02*
X127181819Y-53282514D01*
D11*
%TO.C,U3*%
X98000000Y-69478000D02*
X97760000Y-69148000D01*
X98240000Y-69148000D01*
X98000000Y-69478000D01*
G36*
X98000000Y-69478000D02*
G01*
X97760000Y-69148000D01*
X98240000Y-69148000D01*
X98000000Y-69478000D01*
G37*
X96700000Y-72548000D02*
X95900000Y-72548000D01*
X96700000Y-72548000D02*
X97500000Y-72548000D01*
X96700000Y-69428000D02*
X95900000Y-69428000D01*
X96700000Y-69428000D02*
X97500000Y-69428000D01*
%TO.C,R4*%
X90631000Y-70977064D02*
X90631000Y-70522936D01*
X92101000Y-70977064D02*
X92101000Y-70522936D01*
%TO.C,R3*%
X92663000Y-70522936D02*
X92663000Y-70977064D01*
X94133000Y-70522936D02*
X94133000Y-70977064D01*
%TO.C,C9*%
X106060248Y-53254400D02*
X107482752Y-53254400D01*
X106060248Y-51434400D02*
X107482752Y-51434400D01*
%TO.C,SW1*%
X102422000Y-47142800D02*
X95722000Y-47142800D01*
X102422000Y-47592800D02*
X102422000Y-47142800D01*
X102422000Y-51592800D02*
X102422000Y-48892800D01*
X102422000Y-52892800D02*
X102422000Y-53342800D01*
X102422000Y-53342800D02*
X95722000Y-53342800D01*
X95722000Y-47142800D02*
X95722000Y-47592800D01*
X95722000Y-48892800D02*
X95722000Y-51592800D01*
X95722000Y-53342800D02*
X95722000Y-52942800D01*
%TO.C,R2*%
X105997936Y-55416200D02*
X106452064Y-55416200D01*
X105997936Y-53946200D02*
X106452064Y-53946200D01*
%TO.C,P1*%
X95930400Y-77556000D02*
X95930400Y-79461000D01*
X95930600Y-81239000D02*
X95930600Y-83118600D01*
X97378400Y-75936000D02*
X96972000Y-75936000D01*
X104388800Y-75936000D02*
X103982400Y-75936000D01*
X105430200Y-81239000D02*
X105430200Y-83118600D01*
X105430200Y-83118600D02*
X95930600Y-83118600D01*
X105430400Y-77556000D02*
X105430200Y-79461000D01*
D10*
%TO.C,J5*%
X135152800Y-40786000D02*
X135152800Y-68586000D01*
X135102800Y-68586000D02*
X107802800Y-68586000D01*
X135102800Y-40786000D02*
X107802800Y-40786000D01*
X132352800Y-47086000D02*
X132352800Y-57950000D01*
X132324800Y-57986000D02*
X110580800Y-57986000D01*
X132324800Y-47086000D02*
X110580800Y-47086000D01*
X126552800Y-43786000D02*
X116352800Y-43786000D01*
X126552800Y-40786000D02*
X126552800Y-43786000D01*
X126552800Y-40786000D02*
X116352800Y-40786000D01*
X116352800Y-40786000D02*
X116352800Y-43786000D01*
X110552800Y-47086000D02*
X110552800Y-57950000D01*
X107752800Y-40786000D02*
X107752800Y-68586000D01*
D11*
%TO.C,J1*%
X89596400Y-73384000D02*
X86836400Y-73384000D01*
X89596400Y-73274000D02*
X89596400Y-73384000D01*
X89596400Y-73274000D02*
X86836400Y-73274000D01*
X89596400Y-72004000D02*
X89596400Y-70624000D01*
X89596400Y-70624000D02*
X88216400Y-70624000D01*
X86836400Y-73274000D02*
X86836400Y-73384000D01*
%TO.C,J2*%
X107775600Y-72631000D02*
X108795600Y-72631000D01*
X107775600Y-76881000D02*
X107775600Y-72631000D01*
X108795600Y-72631000D02*
X108795600Y-74231000D01*
X108795600Y-74231000D02*
X110075600Y-74231000D01*
X119595600Y-74231000D02*
X119595600Y-71341000D01*
X120175600Y-80451000D02*
X109495600Y-80451000D01*
X120875600Y-72631000D02*
X120875600Y-74231000D01*
X120875600Y-74231000D02*
X119595600Y-74231000D01*
X121895600Y-72631000D02*
X120875600Y-72631000D01*
X121895600Y-76881000D02*
X121895600Y-72631000D01*
%TO.C,R1*%
X83772936Y-67459000D02*
X84227064Y-67459000D01*
X83772936Y-68929000D02*
X84227064Y-68929000D01*
%TO.C,J4*%
X81668000Y-58542000D02*
X81668000Y-66622000D01*
X84428000Y-58542000D02*
X81668000Y-58542000D01*
X84428000Y-58542000D02*
X84428000Y-66622000D01*
X84428000Y-66622000D02*
X81668000Y-66622000D01*
X84428000Y-66622000D02*
X101718000Y-66622000D01*
X84448000Y-55622000D02*
X83048000Y-55622000D01*
X84448000Y-55622000D02*
X101718000Y-55622000D01*
X84448000Y-57272000D02*
X84448000Y-55622000D01*
X101718000Y-55622000D02*
X101718000Y-66622000D01*
%TO.C,C1*%
X84075048Y-49880200D02*
X86397552Y-49880200D01*
X84075048Y-53300200D02*
X86397552Y-53300200D01*
%TO.C,C3*%
X102458000Y-66098848D02*
X102458000Y-67521352D01*
X104278000Y-66098848D02*
X104278000Y-67521352D01*
%TO.C,D1*%
X92745400Y-80450400D02*
X92295400Y-80900400D01*
X92745400Y-73900400D02*
X92745400Y-80450400D01*
X92295400Y-80900400D02*
X87245400Y-80900400D01*
X90895400Y-80100400D02*
X89095400Y-80100400D01*
X90895400Y-74700400D02*
X89095400Y-74700400D01*
X87245400Y-73900400D02*
X92745400Y-73900400D01*
X87245400Y-73900400D02*
X87245400Y-80900400D01*
%TO.C,J3*%
X123777600Y-72652000D02*
X124797600Y-72652000D01*
X123777600Y-76902000D02*
X123777600Y-72652000D01*
X124797600Y-72652000D02*
X124797600Y-74252000D01*
X124797600Y-74252000D02*
X126077600Y-74252000D01*
X131597600Y-74252000D02*
X131597600Y-71362000D01*
X132177600Y-80472000D02*
X125497600Y-80472000D01*
X132877600Y-72652000D02*
X132877600Y-74252000D01*
X132877600Y-74252000D02*
X131597600Y-74252000D01*
X133897600Y-72652000D02*
X132877600Y-72652000D01*
X133897600Y-76902000D02*
X133897600Y-72652000D01*
%TO.C,C2*%
X129487000Y-51785548D02*
X129487000Y-53208052D01*
X127667000Y-51785548D02*
X127667000Y-53208052D01*
%TD*%
M02*
