%TF.GenerationSoftware,KiCad,Pcbnew,9.0.2*%
%TF.CreationDate,2025-06-17T20:14:42+02:00*%
%TF.ProjectId,elrs_tx_full,656c7273-5f74-4785-9f66-756c6c2e6b69,rev?*%
%TF.SameCoordinates,Original*%
%TF.FileFunction,Paste,Top*%
%TF.FilePolarity,Positive*%
%FSLAX46Y46*%
G04 Gerber Fmt 4.6, Leading zero omitted, Abs format (unit mm)*
G04 Created by KiCad (PCBNEW 9.0.2) date 2025-06-17 20:14:42*
%MOMM*%
%LPD*%
G01*
G04 APERTURE LIST*
%ADD10R,2.000000X0.800000*%
%ADD11R,0.900000X2.000000*%
%ADD12R,2.000000X0.900000*%
G04 APERTURE END LIST*
D10*
%TO.C,U1*%
X106974800Y-65247600D03*
X106974800Y-63977600D03*
X106974800Y-62707600D03*
X106974800Y-61437600D03*
X106974800Y-60167600D03*
X106974800Y-58897600D03*
X106974800Y-57627600D03*
X106974800Y-56357600D03*
X91734800Y-56357600D03*
X91734800Y-57627600D03*
X91734800Y-58897600D03*
X91734800Y-60167600D03*
X91734800Y-61437600D03*
X91734800Y-62707600D03*
X91734800Y-63977600D03*
X91734800Y-65247600D03*
%TD*%
D11*
%TO.C,U2*%
X131165000Y-46486000D03*
X129895000Y-46486000D03*
X128625000Y-46486000D03*
X127355000Y-46486000D03*
X126085000Y-46486000D03*
X124815000Y-46486000D03*
X123545000Y-46486000D03*
X122275000Y-46486000D03*
X121005000Y-46486000D03*
X119735000Y-46486000D03*
X118465000Y-46486000D03*
X117195000Y-46486000D03*
X115925000Y-46486000D03*
X114655000Y-46486000D03*
D12*
X113655000Y-49271000D03*
X113655000Y-50541000D03*
X113655000Y-51811000D03*
X113655000Y-53081000D03*
X113655000Y-54351000D03*
X113655000Y-55621000D03*
X113655000Y-56891000D03*
X113655000Y-58161000D03*
X113655000Y-59431000D03*
X113655000Y-60701000D03*
D11*
X114655000Y-63486000D03*
X115925000Y-63486000D03*
X117195000Y-63486000D03*
X118465000Y-63486000D03*
X119735000Y-63486000D03*
X121005000Y-63486000D03*
X122275000Y-63486000D03*
X123545000Y-63486000D03*
X124815000Y-63486000D03*
X126085000Y-63486000D03*
X127355000Y-63486000D03*
X128625000Y-63486000D03*
X129895000Y-63486000D03*
X131165000Y-63486000D03*
%TD*%
M02*
