%TF.GenerationSoftware,KiCad,Pcbnew,9.0.2*%
%TF.CreationDate,2025-06-17T20:14:42+02:00*%
%TF.ProjectId,elrs_tx_full,656c7273-5f74-4785-9f66-756c6c2e6b69,rev?*%
%TF.SameCoordinates,Original*%
%TF.FileFunction,Legend,Top*%
%TF.FilePolarity,Positive*%
%FSLAX46Y46*%
G04 Gerber Fmt 4.6, Leading zero omitted, Abs format (unit mm)*
G04 Created by KiCad (PCBNEW 9.0.2) date 2025-06-17 20:14:42*
%MOMM*%
%LPD*%
G01*
G04 APERTURE LIST*
%ADD10C,0.150000*%
%ADD11C,0.100000*%
%ADD12C,0.120000*%
G04 APERTURE END LIST*
D10*
X131508438Y-72864398D02*
X131460819Y-72959636D01*
X131460819Y-72959636D02*
X131460819Y-73102493D01*
X131460819Y-73102493D02*
X131508438Y-73245350D01*
X131508438Y-73245350D02*
X131603676Y-73340588D01*
X131603676Y-73340588D02*
X131698914Y-73388207D01*
X131698914Y-73388207D02*
X131889390Y-73435826D01*
X131889390Y-73435826D02*
X132032247Y-73435826D01*
X132032247Y-73435826D02*
X132222723Y-73388207D01*
X132222723Y-73388207D02*
X132317961Y-73340588D01*
X132317961Y-73340588D02*
X132413200Y-73245350D01*
X132413200Y-73245350D02*
X132460819Y-73102493D01*
X132460819Y-73102493D02*
X132460819Y-73007255D01*
X132460819Y-73007255D02*
X132413200Y-72864398D01*
X132413200Y-72864398D02*
X132365580Y-72816779D01*
X132365580Y-72816779D02*
X132032247Y-72816779D01*
X132032247Y-72816779D02*
X132032247Y-73007255D01*
X132460819Y-72388207D02*
X131460819Y-72388207D01*
X131460819Y-72388207D02*
X132460819Y-71816779D01*
X132460819Y-71816779D02*
X131460819Y-71816779D01*
X132460819Y-71340588D02*
X131460819Y-71340588D01*
X131460819Y-71340588D02*
X131460819Y-71102493D01*
X131460819Y-71102493D02*
X131508438Y-70959636D01*
X131508438Y-70959636D02*
X131603676Y-70864398D01*
X131603676Y-70864398D02*
X131698914Y-70816779D01*
X131698914Y-70816779D02*
X131889390Y-70769160D01*
X131889390Y-70769160D02*
X132032247Y-70769160D01*
X132032247Y-70769160D02*
X132222723Y-70816779D01*
X132222723Y-70816779D02*
X132317961Y-70864398D01*
X132317961Y-70864398D02*
X132413200Y-70959636D01*
X132413200Y-70959636D02*
X132460819Y-71102493D01*
X132460819Y-71102493D02*
X132460819Y-71340588D01*
X85368588Y-59314438D02*
X85273350Y-59266819D01*
X85273350Y-59266819D02*
X85130493Y-59266819D01*
X85130493Y-59266819D02*
X84987636Y-59314438D01*
X84987636Y-59314438D02*
X84892398Y-59409676D01*
X84892398Y-59409676D02*
X84844779Y-59504914D01*
X84844779Y-59504914D02*
X84797160Y-59695390D01*
X84797160Y-59695390D02*
X84797160Y-59838247D01*
X84797160Y-59838247D02*
X84844779Y-60028723D01*
X84844779Y-60028723D02*
X84892398Y-60123961D01*
X84892398Y-60123961D02*
X84987636Y-60219200D01*
X84987636Y-60219200D02*
X85130493Y-60266819D01*
X85130493Y-60266819D02*
X85225731Y-60266819D01*
X85225731Y-60266819D02*
X85368588Y-60219200D01*
X85368588Y-60219200D02*
X85416207Y-60171580D01*
X85416207Y-60171580D02*
X85416207Y-59838247D01*
X85416207Y-59838247D02*
X85225731Y-59838247D01*
X85844779Y-60266819D02*
X85844779Y-59266819D01*
X85844779Y-59266819D02*
X86416207Y-60266819D01*
X86416207Y-60266819D02*
X86416207Y-59266819D01*
X86892398Y-60266819D02*
X86892398Y-59266819D01*
X86892398Y-59266819D02*
X87130493Y-59266819D01*
X87130493Y-59266819D02*
X87273350Y-59314438D01*
X87273350Y-59314438D02*
X87368588Y-59409676D01*
X87368588Y-59409676D02*
X87416207Y-59504914D01*
X87416207Y-59504914D02*
X87463826Y-59695390D01*
X87463826Y-59695390D02*
X87463826Y-59838247D01*
X87463826Y-59838247D02*
X87416207Y-60028723D01*
X87416207Y-60028723D02*
X87368588Y-60123961D01*
X87368588Y-60123961D02*
X87273350Y-60219200D01*
X87273350Y-60219200D02*
X87130493Y-60266819D01*
X87130493Y-60266819D02*
X86892398Y-60266819D01*
X114950819Y-72197731D02*
X114950819Y-71626303D01*
X115950819Y-71912017D02*
X114950819Y-71912017D01*
X114950819Y-71388207D02*
X115950819Y-70721541D01*
X114950819Y-70721541D02*
X115950819Y-71388207D01*
X85178112Y-64696009D02*
X85320969Y-64743628D01*
X85320969Y-64743628D02*
X85368588Y-64791247D01*
X85368588Y-64791247D02*
X85416207Y-64886485D01*
X85416207Y-64886485D02*
X85416207Y-65029342D01*
X85416207Y-65029342D02*
X85368588Y-65124580D01*
X85368588Y-65124580D02*
X85320969Y-65172200D01*
X85320969Y-65172200D02*
X85225731Y-65219819D01*
X85225731Y-65219819D02*
X84844779Y-65219819D01*
X84844779Y-65219819D02*
X84844779Y-64219819D01*
X84844779Y-64219819D02*
X85178112Y-64219819D01*
X85178112Y-64219819D02*
X85273350Y-64267438D01*
X85273350Y-64267438D02*
X85320969Y-64315057D01*
X85320969Y-64315057D02*
X85368588Y-64410295D01*
X85368588Y-64410295D02*
X85368588Y-64505533D01*
X85368588Y-64505533D02*
X85320969Y-64600771D01*
X85320969Y-64600771D02*
X85273350Y-64648390D01*
X85273350Y-64648390D02*
X85178112Y-64696009D01*
X85178112Y-64696009D02*
X84844779Y-64696009D01*
X86035255Y-64219819D02*
X86225731Y-64219819D01*
X86225731Y-64219819D02*
X86320969Y-64267438D01*
X86320969Y-64267438D02*
X86416207Y-64362676D01*
X86416207Y-64362676D02*
X86463826Y-64553152D01*
X86463826Y-64553152D02*
X86463826Y-64886485D01*
X86463826Y-64886485D02*
X86416207Y-65076961D01*
X86416207Y-65076961D02*
X86320969Y-65172200D01*
X86320969Y-65172200D02*
X86225731Y-65219819D01*
X86225731Y-65219819D02*
X86035255Y-65219819D01*
X86035255Y-65219819D02*
X85940017Y-65172200D01*
X85940017Y-65172200D02*
X85844779Y-65076961D01*
X85844779Y-65076961D02*
X85797160Y-64886485D01*
X85797160Y-64886485D02*
X85797160Y-64553152D01*
X85797160Y-64553152D02*
X85844779Y-64362676D01*
X85844779Y-64362676D02*
X85940017Y-64267438D01*
X85940017Y-64267438D02*
X86035255Y-64219819D01*
X87082874Y-64219819D02*
X87273350Y-64219819D01*
X87273350Y-64219819D02*
X87368588Y-64267438D01*
X87368588Y-64267438D02*
X87463826Y-64362676D01*
X87463826Y-64362676D02*
X87511445Y-64553152D01*
X87511445Y-64553152D02*
X87511445Y-64886485D01*
X87511445Y-64886485D02*
X87463826Y-65076961D01*
X87463826Y-65076961D02*
X87368588Y-65172200D01*
X87368588Y-65172200D02*
X87273350Y-65219819D01*
X87273350Y-65219819D02*
X87082874Y-65219819D01*
X87082874Y-65219819D02*
X86987636Y-65172200D01*
X86987636Y-65172200D02*
X86892398Y-65076961D01*
X86892398Y-65076961D02*
X86844779Y-64886485D01*
X86844779Y-64886485D02*
X86844779Y-64553152D01*
X86844779Y-64553152D02*
X86892398Y-64362676D01*
X86892398Y-64362676D02*
X86987636Y-64267438D01*
X86987636Y-64267438D02*
X87082874Y-64219819D01*
X87797160Y-64219819D02*
X88368588Y-64219819D01*
X88082874Y-65219819D02*
X88082874Y-64219819D01*
X88892398Y-64219819D02*
X88987636Y-64219819D01*
X88987636Y-64219819D02*
X89082874Y-64267438D01*
X89082874Y-64267438D02*
X89130493Y-64315057D01*
X89130493Y-64315057D02*
X89178112Y-64410295D01*
X89178112Y-64410295D02*
X89225731Y-64600771D01*
X89225731Y-64600771D02*
X89225731Y-64838866D01*
X89225731Y-64838866D02*
X89178112Y-65029342D01*
X89178112Y-65029342D02*
X89130493Y-65124580D01*
X89130493Y-65124580D02*
X89082874Y-65172200D01*
X89082874Y-65172200D02*
X88987636Y-65219819D01*
X88987636Y-65219819D02*
X88892398Y-65219819D01*
X88892398Y-65219819D02*
X88797160Y-65172200D01*
X88797160Y-65172200D02*
X88749541Y-65124580D01*
X88749541Y-65124580D02*
X88701922Y-65029342D01*
X88701922Y-65029342D02*
X88654303Y-64838866D01*
X88654303Y-64838866D02*
X88654303Y-64600771D01*
X88654303Y-64600771D02*
X88701922Y-64410295D01*
X88701922Y-64410295D02*
X88749541Y-64315057D01*
X88749541Y-64315057D02*
X88797160Y-64267438D01*
X88797160Y-64267438D02*
X88892398Y-64219819D01*
X85178112Y-62283009D02*
X85320969Y-62330628D01*
X85320969Y-62330628D02*
X85368588Y-62378247D01*
X85368588Y-62378247D02*
X85416207Y-62473485D01*
X85416207Y-62473485D02*
X85416207Y-62616342D01*
X85416207Y-62616342D02*
X85368588Y-62711580D01*
X85368588Y-62711580D02*
X85320969Y-62759200D01*
X85320969Y-62759200D02*
X85225731Y-62806819D01*
X85225731Y-62806819D02*
X84844779Y-62806819D01*
X84844779Y-62806819D02*
X84844779Y-61806819D01*
X84844779Y-61806819D02*
X85178112Y-61806819D01*
X85178112Y-61806819D02*
X85273350Y-61854438D01*
X85273350Y-61854438D02*
X85320969Y-61902057D01*
X85320969Y-61902057D02*
X85368588Y-61997295D01*
X85368588Y-61997295D02*
X85368588Y-62092533D01*
X85368588Y-62092533D02*
X85320969Y-62187771D01*
X85320969Y-62187771D02*
X85273350Y-62235390D01*
X85273350Y-62235390D02*
X85178112Y-62283009D01*
X85178112Y-62283009D02*
X84844779Y-62283009D01*
X85797160Y-62521104D02*
X86273350Y-62521104D01*
X85701922Y-62806819D02*
X86035255Y-61806819D01*
X86035255Y-61806819D02*
X86368588Y-62806819D01*
X86559065Y-61806819D02*
X87130493Y-61806819D01*
X86844779Y-62806819D02*
X86844779Y-61806819D01*
X87320970Y-61806819D02*
X87892398Y-61806819D01*
X87606684Y-62806819D02*
X87606684Y-61806819D01*
X129397009Y-73388208D02*
X129444628Y-73245351D01*
X129444628Y-73245351D02*
X129492247Y-73197732D01*
X129492247Y-73197732D02*
X129587485Y-73150113D01*
X129587485Y-73150113D02*
X129730342Y-73150113D01*
X129730342Y-73150113D02*
X129825580Y-73197732D01*
X129825580Y-73197732D02*
X129873200Y-73245351D01*
X129873200Y-73245351D02*
X129920819Y-73340589D01*
X129920819Y-73340589D02*
X129920819Y-73721541D01*
X129920819Y-73721541D02*
X128920819Y-73721541D01*
X128920819Y-73721541D02*
X128920819Y-73388208D01*
X128920819Y-73388208D02*
X128968438Y-73292970D01*
X128968438Y-73292970D02*
X129016057Y-73245351D01*
X129016057Y-73245351D02*
X129111295Y-73197732D01*
X129111295Y-73197732D02*
X129206533Y-73197732D01*
X129206533Y-73197732D02*
X129301771Y-73245351D01*
X129301771Y-73245351D02*
X129349390Y-73292970D01*
X129349390Y-73292970D02*
X129397009Y-73388208D01*
X129397009Y-73388208D02*
X129397009Y-73721541D01*
X129635104Y-72769160D02*
X129635104Y-72292970D01*
X129920819Y-72864398D02*
X128920819Y-72531065D01*
X128920819Y-72531065D02*
X129920819Y-72197732D01*
X128920819Y-72007255D02*
X128920819Y-71435827D01*
X129920819Y-71721541D02*
X128920819Y-71721541D01*
X128920819Y-71245350D02*
X128920819Y-70673922D01*
X129920819Y-70959636D02*
X128920819Y-70959636D01*
X113410819Y-71721541D02*
X112934628Y-72054874D01*
X113410819Y-72292969D02*
X112410819Y-72292969D01*
X112410819Y-72292969D02*
X112410819Y-71912017D01*
X112410819Y-71912017D02*
X112458438Y-71816779D01*
X112458438Y-71816779D02*
X112506057Y-71769160D01*
X112506057Y-71769160D02*
X112601295Y-71721541D01*
X112601295Y-71721541D02*
X112744152Y-71721541D01*
X112744152Y-71721541D02*
X112839390Y-71769160D01*
X112839390Y-71769160D02*
X112887009Y-71816779D01*
X112887009Y-71816779D02*
X112934628Y-71912017D01*
X112934628Y-71912017D02*
X112934628Y-72292969D01*
X112410819Y-71388207D02*
X113410819Y-70721541D01*
X112410819Y-70721541D02*
X113410819Y-71388207D01*
X110347009Y-74816779D02*
X110394628Y-74673922D01*
X110394628Y-74673922D02*
X110442247Y-74626303D01*
X110442247Y-74626303D02*
X110537485Y-74578684D01*
X110537485Y-74578684D02*
X110680342Y-74578684D01*
X110680342Y-74578684D02*
X110775580Y-74626303D01*
X110775580Y-74626303D02*
X110823200Y-74673922D01*
X110823200Y-74673922D02*
X110870819Y-74769160D01*
X110870819Y-74769160D02*
X110870819Y-75150112D01*
X110870819Y-75150112D02*
X109870819Y-75150112D01*
X109870819Y-75150112D02*
X109870819Y-74816779D01*
X109870819Y-74816779D02*
X109918438Y-74721541D01*
X109918438Y-74721541D02*
X109966057Y-74673922D01*
X109966057Y-74673922D02*
X110061295Y-74626303D01*
X110061295Y-74626303D02*
X110156533Y-74626303D01*
X110156533Y-74626303D02*
X110251771Y-74673922D01*
X110251771Y-74673922D02*
X110299390Y-74721541D01*
X110299390Y-74721541D02*
X110347009Y-74816779D01*
X110347009Y-74816779D02*
X110347009Y-75150112D01*
X109870819Y-73959636D02*
X109870819Y-73769160D01*
X109870819Y-73769160D02*
X109918438Y-73673922D01*
X109918438Y-73673922D02*
X110013676Y-73578684D01*
X110013676Y-73578684D02*
X110204152Y-73531065D01*
X110204152Y-73531065D02*
X110537485Y-73531065D01*
X110537485Y-73531065D02*
X110727961Y-73578684D01*
X110727961Y-73578684D02*
X110823200Y-73673922D01*
X110823200Y-73673922D02*
X110870819Y-73769160D01*
X110870819Y-73769160D02*
X110870819Y-73959636D01*
X110870819Y-73959636D02*
X110823200Y-74054874D01*
X110823200Y-74054874D02*
X110727961Y-74150112D01*
X110727961Y-74150112D02*
X110537485Y-74197731D01*
X110537485Y-74197731D02*
X110204152Y-74197731D01*
X110204152Y-74197731D02*
X110013676Y-74150112D01*
X110013676Y-74150112D02*
X109918438Y-74054874D01*
X109918438Y-74054874D02*
X109870819Y-73959636D01*
X109870819Y-72912017D02*
X109870819Y-72721541D01*
X109870819Y-72721541D02*
X109918438Y-72626303D01*
X109918438Y-72626303D02*
X110013676Y-72531065D01*
X110013676Y-72531065D02*
X110204152Y-72483446D01*
X110204152Y-72483446D02*
X110537485Y-72483446D01*
X110537485Y-72483446D02*
X110727961Y-72531065D01*
X110727961Y-72531065D02*
X110823200Y-72626303D01*
X110823200Y-72626303D02*
X110870819Y-72721541D01*
X110870819Y-72721541D02*
X110870819Y-72912017D01*
X110870819Y-72912017D02*
X110823200Y-73007255D01*
X110823200Y-73007255D02*
X110727961Y-73102493D01*
X110727961Y-73102493D02*
X110537485Y-73150112D01*
X110537485Y-73150112D02*
X110204152Y-73150112D01*
X110204152Y-73150112D02*
X110013676Y-73102493D01*
X110013676Y-73102493D02*
X109918438Y-73007255D01*
X109918438Y-73007255D02*
X109870819Y-72912017D01*
X109870819Y-72197731D02*
X109870819Y-71626303D01*
X110870819Y-71912017D02*
X109870819Y-71912017D01*
X109870819Y-71102493D02*
X109870819Y-71007255D01*
X109870819Y-71007255D02*
X109918438Y-70912017D01*
X109918438Y-70912017D02*
X109966057Y-70864398D01*
X109966057Y-70864398D02*
X110061295Y-70816779D01*
X110061295Y-70816779D02*
X110251771Y-70769160D01*
X110251771Y-70769160D02*
X110489866Y-70769160D01*
X110489866Y-70769160D02*
X110680342Y-70816779D01*
X110680342Y-70816779D02*
X110775580Y-70864398D01*
X110775580Y-70864398D02*
X110823200Y-70912017D01*
X110823200Y-70912017D02*
X110870819Y-71007255D01*
X110870819Y-71007255D02*
X110870819Y-71102493D01*
X110870819Y-71102493D02*
X110823200Y-71197731D01*
X110823200Y-71197731D02*
X110775580Y-71245350D01*
X110775580Y-71245350D02*
X110680342Y-71292969D01*
X110680342Y-71292969D02*
X110489866Y-71340588D01*
X110489866Y-71340588D02*
X110251771Y-71340588D01*
X110251771Y-71340588D02*
X110061295Y-71292969D01*
X110061295Y-71292969D02*
X109966057Y-71245350D01*
X109966057Y-71245350D02*
X109918438Y-71197731D01*
X109918438Y-71197731D02*
X109870819Y-71102493D01*
X120078438Y-72864398D02*
X120030819Y-72959636D01*
X120030819Y-72959636D02*
X120030819Y-73102493D01*
X120030819Y-73102493D02*
X120078438Y-73245350D01*
X120078438Y-73245350D02*
X120173676Y-73340588D01*
X120173676Y-73340588D02*
X120268914Y-73388207D01*
X120268914Y-73388207D02*
X120459390Y-73435826D01*
X120459390Y-73435826D02*
X120602247Y-73435826D01*
X120602247Y-73435826D02*
X120792723Y-73388207D01*
X120792723Y-73388207D02*
X120887961Y-73340588D01*
X120887961Y-73340588D02*
X120983200Y-73245350D01*
X120983200Y-73245350D02*
X121030819Y-73102493D01*
X121030819Y-73102493D02*
X121030819Y-73007255D01*
X121030819Y-73007255D02*
X120983200Y-72864398D01*
X120983200Y-72864398D02*
X120935580Y-72816779D01*
X120935580Y-72816779D02*
X120602247Y-72816779D01*
X120602247Y-72816779D02*
X120602247Y-73007255D01*
X121030819Y-72388207D02*
X120030819Y-72388207D01*
X120030819Y-72388207D02*
X121030819Y-71816779D01*
X121030819Y-71816779D02*
X120030819Y-71816779D01*
X121030819Y-71340588D02*
X120030819Y-71340588D01*
X120030819Y-71340588D02*
X120030819Y-71102493D01*
X120030819Y-71102493D02*
X120078438Y-70959636D01*
X120078438Y-70959636D02*
X120173676Y-70864398D01*
X120173676Y-70864398D02*
X120268914Y-70816779D01*
X120268914Y-70816779D02*
X120459390Y-70769160D01*
X120459390Y-70769160D02*
X120602247Y-70769160D01*
X120602247Y-70769160D02*
X120792723Y-70816779D01*
X120792723Y-70816779D02*
X120887961Y-70864398D01*
X120887961Y-70864398D02*
X120983200Y-70959636D01*
X120983200Y-70959636D02*
X121030819Y-71102493D01*
X121030819Y-71102493D02*
X121030819Y-71340588D01*
X84749541Y-56726819D02*
X85368588Y-56726819D01*
X85368588Y-56726819D02*
X85035255Y-57107771D01*
X85035255Y-57107771D02*
X85178112Y-57107771D01*
X85178112Y-57107771D02*
X85273350Y-57155390D01*
X85273350Y-57155390D02*
X85320969Y-57203009D01*
X85320969Y-57203009D02*
X85368588Y-57298247D01*
X85368588Y-57298247D02*
X85368588Y-57536342D01*
X85368588Y-57536342D02*
X85320969Y-57631580D01*
X85320969Y-57631580D02*
X85273350Y-57679200D01*
X85273350Y-57679200D02*
X85178112Y-57726819D01*
X85178112Y-57726819D02*
X84892398Y-57726819D01*
X84892398Y-57726819D02*
X84797160Y-57679200D01*
X84797160Y-57679200D02*
X84749541Y-57631580D01*
X85797160Y-57631580D02*
X85844779Y-57679200D01*
X85844779Y-57679200D02*
X85797160Y-57726819D01*
X85797160Y-57726819D02*
X85749541Y-57679200D01*
X85749541Y-57679200D02*
X85797160Y-57631580D01*
X85797160Y-57631580D02*
X85797160Y-57726819D01*
X86178112Y-56726819D02*
X86797159Y-56726819D01*
X86797159Y-56726819D02*
X86463826Y-57107771D01*
X86463826Y-57107771D02*
X86606683Y-57107771D01*
X86606683Y-57107771D02*
X86701921Y-57155390D01*
X86701921Y-57155390D02*
X86749540Y-57203009D01*
X86749540Y-57203009D02*
X86797159Y-57298247D01*
X86797159Y-57298247D02*
X86797159Y-57536342D01*
X86797159Y-57536342D02*
X86749540Y-57631580D01*
X86749540Y-57631580D02*
X86701921Y-57679200D01*
X86701921Y-57679200D02*
X86606683Y-57726819D01*
X86606683Y-57726819D02*
X86320969Y-57726819D01*
X86320969Y-57726819D02*
X86225731Y-57679200D01*
X86225731Y-57679200D02*
X86178112Y-57631580D01*
X87082874Y-56726819D02*
X87416207Y-57726819D01*
X87416207Y-57726819D02*
X87749540Y-56726819D01*
X117490819Y-73673921D02*
X117490819Y-73054874D01*
X117490819Y-73054874D02*
X117871771Y-73388207D01*
X117871771Y-73388207D02*
X117871771Y-73245350D01*
X117871771Y-73245350D02*
X117919390Y-73150112D01*
X117919390Y-73150112D02*
X117967009Y-73102493D01*
X117967009Y-73102493D02*
X118062247Y-73054874D01*
X118062247Y-73054874D02*
X118300342Y-73054874D01*
X118300342Y-73054874D02*
X118395580Y-73102493D01*
X118395580Y-73102493D02*
X118443200Y-73150112D01*
X118443200Y-73150112D02*
X118490819Y-73245350D01*
X118490819Y-73245350D02*
X118490819Y-73531064D01*
X118490819Y-73531064D02*
X118443200Y-73626302D01*
X118443200Y-73626302D02*
X118395580Y-73673921D01*
X118395580Y-72626302D02*
X118443200Y-72578683D01*
X118443200Y-72578683D02*
X118490819Y-72626302D01*
X118490819Y-72626302D02*
X118443200Y-72673921D01*
X118443200Y-72673921D02*
X118395580Y-72626302D01*
X118395580Y-72626302D02*
X118490819Y-72626302D01*
X117490819Y-72245350D02*
X117490819Y-71626303D01*
X117490819Y-71626303D02*
X117871771Y-71959636D01*
X117871771Y-71959636D02*
X117871771Y-71816779D01*
X117871771Y-71816779D02*
X117919390Y-71721541D01*
X117919390Y-71721541D02*
X117967009Y-71673922D01*
X117967009Y-71673922D02*
X118062247Y-71626303D01*
X118062247Y-71626303D02*
X118300342Y-71626303D01*
X118300342Y-71626303D02*
X118395580Y-71673922D01*
X118395580Y-71673922D02*
X118443200Y-71721541D01*
X118443200Y-71721541D02*
X118490819Y-71816779D01*
X118490819Y-71816779D02*
X118490819Y-72102493D01*
X118490819Y-72102493D02*
X118443200Y-72197731D01*
X118443200Y-72197731D02*
X118395580Y-72245350D01*
X117490819Y-71340588D02*
X118490819Y-71007255D01*
X118490819Y-71007255D02*
X117490819Y-70673922D01*
X127285580Y-73578684D02*
X127333200Y-73626303D01*
X127333200Y-73626303D02*
X127380819Y-73769160D01*
X127380819Y-73769160D02*
X127380819Y-73864398D01*
X127380819Y-73864398D02*
X127333200Y-74007255D01*
X127333200Y-74007255D02*
X127237961Y-74102493D01*
X127237961Y-74102493D02*
X127142723Y-74150112D01*
X127142723Y-74150112D02*
X126952247Y-74197731D01*
X126952247Y-74197731D02*
X126809390Y-74197731D01*
X126809390Y-74197731D02*
X126618914Y-74150112D01*
X126618914Y-74150112D02*
X126523676Y-74102493D01*
X126523676Y-74102493D02*
X126428438Y-74007255D01*
X126428438Y-74007255D02*
X126380819Y-73864398D01*
X126380819Y-73864398D02*
X126380819Y-73769160D01*
X126380819Y-73769160D02*
X126428438Y-73626303D01*
X126428438Y-73626303D02*
X126476057Y-73578684D01*
X127380819Y-72578684D02*
X126904628Y-72912017D01*
X127380819Y-73150112D02*
X126380819Y-73150112D01*
X126380819Y-73150112D02*
X126380819Y-72769160D01*
X126380819Y-72769160D02*
X126428438Y-72673922D01*
X126428438Y-72673922D02*
X126476057Y-72626303D01*
X126476057Y-72626303D02*
X126571295Y-72578684D01*
X126571295Y-72578684D02*
X126714152Y-72578684D01*
X126714152Y-72578684D02*
X126809390Y-72626303D01*
X126809390Y-72626303D02*
X126857009Y-72673922D01*
X126857009Y-72673922D02*
X126904628Y-72769160D01*
X126904628Y-72769160D02*
X126904628Y-73150112D01*
X127333200Y-72197731D02*
X127380819Y-72054874D01*
X127380819Y-72054874D02*
X127380819Y-71816779D01*
X127380819Y-71816779D02*
X127333200Y-71721541D01*
X127333200Y-71721541D02*
X127285580Y-71673922D01*
X127285580Y-71673922D02*
X127190342Y-71626303D01*
X127190342Y-71626303D02*
X127095104Y-71626303D01*
X127095104Y-71626303D02*
X126999866Y-71673922D01*
X126999866Y-71673922D02*
X126952247Y-71721541D01*
X126952247Y-71721541D02*
X126904628Y-71816779D01*
X126904628Y-71816779D02*
X126857009Y-72007255D01*
X126857009Y-72007255D02*
X126809390Y-72102493D01*
X126809390Y-72102493D02*
X126761771Y-72150112D01*
X126761771Y-72150112D02*
X126666533Y-72197731D01*
X126666533Y-72197731D02*
X126571295Y-72197731D01*
X126571295Y-72197731D02*
X126476057Y-72150112D01*
X126476057Y-72150112D02*
X126428438Y-72102493D01*
X126428438Y-72102493D02*
X126380819Y-72007255D01*
X126380819Y-72007255D02*
X126380819Y-71769160D01*
X126380819Y-71769160D02*
X126428438Y-71626303D01*
X126857009Y-70864398D02*
X126857009Y-71197731D01*
X127380819Y-71197731D02*
X126380819Y-71197731D01*
X126380819Y-71197731D02*
X126380819Y-70721541D01*
X122410819Y-69289333D02*
X123125104Y-69289333D01*
X123125104Y-69289333D02*
X123267961Y-69336952D01*
X123267961Y-69336952D02*
X123363200Y-69432190D01*
X123363200Y-69432190D02*
X123410819Y-69575047D01*
X123410819Y-69575047D02*
X123410819Y-69670285D01*
X122839390Y-68670285D02*
X122791771Y-68765523D01*
X122791771Y-68765523D02*
X122744152Y-68813142D01*
X122744152Y-68813142D02*
X122648914Y-68860761D01*
X122648914Y-68860761D02*
X122601295Y-68860761D01*
X122601295Y-68860761D02*
X122506057Y-68813142D01*
X122506057Y-68813142D02*
X122458438Y-68765523D01*
X122458438Y-68765523D02*
X122410819Y-68670285D01*
X122410819Y-68670285D02*
X122410819Y-68479809D01*
X122410819Y-68479809D02*
X122458438Y-68384571D01*
X122458438Y-68384571D02*
X122506057Y-68336952D01*
X122506057Y-68336952D02*
X122601295Y-68289333D01*
X122601295Y-68289333D02*
X122648914Y-68289333D01*
X122648914Y-68289333D02*
X122744152Y-68336952D01*
X122744152Y-68336952D02*
X122791771Y-68384571D01*
X122791771Y-68384571D02*
X122839390Y-68479809D01*
X122839390Y-68479809D02*
X122839390Y-68670285D01*
X122839390Y-68670285D02*
X122887009Y-68765523D01*
X122887009Y-68765523D02*
X122934628Y-68813142D01*
X122934628Y-68813142D02*
X123029866Y-68860761D01*
X123029866Y-68860761D02*
X123220342Y-68860761D01*
X123220342Y-68860761D02*
X123315580Y-68813142D01*
X123315580Y-68813142D02*
X123363200Y-68765523D01*
X123363200Y-68765523D02*
X123410819Y-68670285D01*
X123410819Y-68670285D02*
X123410819Y-68479809D01*
X123410819Y-68479809D02*
X123363200Y-68384571D01*
X123363200Y-68384571D02*
X123315580Y-68336952D01*
X123315580Y-68336952D02*
X123220342Y-68289333D01*
X123220342Y-68289333D02*
X123029866Y-68289333D01*
X123029866Y-68289333D02*
X122934628Y-68336952D01*
X122934628Y-68336952D02*
X122887009Y-68384571D01*
X122887009Y-68384571D02*
X122839390Y-68479809D01*
X108490819Y-71194094D02*
X107490819Y-71194094D01*
X107490819Y-71194094D02*
X107490819Y-70955999D01*
X107490819Y-70955999D02*
X107538438Y-70813142D01*
X107538438Y-70813142D02*
X107633676Y-70717904D01*
X107633676Y-70717904D02*
X107728914Y-70670285D01*
X107728914Y-70670285D02*
X107919390Y-70622666D01*
X107919390Y-70622666D02*
X108062247Y-70622666D01*
X108062247Y-70622666D02*
X108252723Y-70670285D01*
X108252723Y-70670285D02*
X108347961Y-70717904D01*
X108347961Y-70717904D02*
X108443200Y-70813142D01*
X108443200Y-70813142D02*
X108490819Y-70955999D01*
X108490819Y-70955999D02*
X108490819Y-71194094D01*
X107967009Y-70194094D02*
X107967009Y-69860761D01*
X108490819Y-69717904D02*
X108490819Y-70194094D01*
X108490819Y-70194094D02*
X107490819Y-70194094D01*
X107490819Y-70194094D02*
X107490819Y-69717904D01*
X107967009Y-68955999D02*
X108014628Y-68813142D01*
X108014628Y-68813142D02*
X108062247Y-68765523D01*
X108062247Y-68765523D02*
X108157485Y-68717904D01*
X108157485Y-68717904D02*
X108300342Y-68717904D01*
X108300342Y-68717904D02*
X108395580Y-68765523D01*
X108395580Y-68765523D02*
X108443200Y-68813142D01*
X108443200Y-68813142D02*
X108490819Y-68908380D01*
X108490819Y-68908380D02*
X108490819Y-69289332D01*
X108490819Y-69289332D02*
X107490819Y-69289332D01*
X107490819Y-69289332D02*
X107490819Y-68955999D01*
X107490819Y-68955999D02*
X107538438Y-68860761D01*
X107538438Y-68860761D02*
X107586057Y-68813142D01*
X107586057Y-68813142D02*
X107681295Y-68765523D01*
X107681295Y-68765523D02*
X107776533Y-68765523D01*
X107776533Y-68765523D02*
X107871771Y-68813142D01*
X107871771Y-68813142D02*
X107919390Y-68860761D01*
X107919390Y-68860761D02*
X107967009Y-68955999D01*
X107967009Y-68955999D02*
X107967009Y-69289332D01*
X107490819Y-68289332D02*
X108300342Y-68289332D01*
X108300342Y-68289332D02*
X108395580Y-68241713D01*
X108395580Y-68241713D02*
X108443200Y-68194094D01*
X108443200Y-68194094D02*
X108490819Y-68098856D01*
X108490819Y-68098856D02*
X108490819Y-67908380D01*
X108490819Y-67908380D02*
X108443200Y-67813142D01*
X108443200Y-67813142D02*
X108395580Y-67765523D01*
X108395580Y-67765523D02*
X108300342Y-67717904D01*
X108300342Y-67717904D02*
X107490819Y-67717904D01*
X107538438Y-66717904D02*
X107490819Y-66813142D01*
X107490819Y-66813142D02*
X107490819Y-66955999D01*
X107490819Y-66955999D02*
X107538438Y-67098856D01*
X107538438Y-67098856D02*
X107633676Y-67194094D01*
X107633676Y-67194094D02*
X107728914Y-67241713D01*
X107728914Y-67241713D02*
X107919390Y-67289332D01*
X107919390Y-67289332D02*
X108062247Y-67289332D01*
X108062247Y-67289332D02*
X108252723Y-67241713D01*
X108252723Y-67241713D02*
X108347961Y-67194094D01*
X108347961Y-67194094D02*
X108443200Y-67098856D01*
X108443200Y-67098856D02*
X108490819Y-66955999D01*
X108490819Y-66955999D02*
X108490819Y-66860761D01*
X108490819Y-66860761D02*
X108443200Y-66717904D01*
X108443200Y-66717904D02*
X108395580Y-66670285D01*
X108395580Y-66670285D02*
X108062247Y-66670285D01*
X108062247Y-66670285D02*
X108062247Y-66860761D01*
X100759819Y-71924523D02*
X101474104Y-71924523D01*
X101474104Y-71924523D02*
X101616961Y-71972142D01*
X101616961Y-71972142D02*
X101712200Y-72067380D01*
X101712200Y-72067380D02*
X101759819Y-72210237D01*
X101759819Y-72210237D02*
X101759819Y-72305475D01*
X101759819Y-70924523D02*
X101759819Y-71495951D01*
X101759819Y-71210237D02*
X100759819Y-71210237D01*
X100759819Y-71210237D02*
X100902676Y-71305475D01*
X100902676Y-71305475D02*
X100997914Y-71400713D01*
X100997914Y-71400713D02*
X101045533Y-71495951D01*
X100759819Y-70305475D02*
X100759819Y-70210237D01*
X100759819Y-70210237D02*
X100807438Y-70114999D01*
X100807438Y-70114999D02*
X100855057Y-70067380D01*
X100855057Y-70067380D02*
X100950295Y-70019761D01*
X100950295Y-70019761D02*
X101140771Y-69972142D01*
X101140771Y-69972142D02*
X101378866Y-69972142D01*
X101378866Y-69972142D02*
X101569342Y-70019761D01*
X101569342Y-70019761D02*
X101664580Y-70067380D01*
X101664580Y-70067380D02*
X101712200Y-70114999D01*
X101712200Y-70114999D02*
X101759819Y-70210237D01*
X101759819Y-70210237D02*
X101759819Y-70305475D01*
X101759819Y-70305475D02*
X101712200Y-70400713D01*
X101712200Y-70400713D02*
X101664580Y-70448332D01*
X101664580Y-70448332D02*
X101569342Y-70495951D01*
X101569342Y-70495951D02*
X101378866Y-70543570D01*
X101378866Y-70543570D02*
X101140771Y-70543570D01*
X101140771Y-70543570D02*
X100950295Y-70495951D01*
X100950295Y-70495951D02*
X100855057Y-70448332D01*
X100855057Y-70448332D02*
X100807438Y-70400713D01*
X100807438Y-70400713D02*
X100759819Y-70305475D01*
X100329819Y-72114999D02*
X99329819Y-72114999D01*
X99329819Y-71448333D02*
X99329819Y-71257857D01*
X99329819Y-71257857D02*
X99377438Y-71162619D01*
X99377438Y-71162619D02*
X99472676Y-71067381D01*
X99472676Y-71067381D02*
X99663152Y-71019762D01*
X99663152Y-71019762D02*
X99996485Y-71019762D01*
X99996485Y-71019762D02*
X100186961Y-71067381D01*
X100186961Y-71067381D02*
X100282200Y-71162619D01*
X100282200Y-71162619D02*
X100329819Y-71257857D01*
X100329819Y-71257857D02*
X100329819Y-71448333D01*
X100329819Y-71448333D02*
X100282200Y-71543571D01*
X100282200Y-71543571D02*
X100186961Y-71638809D01*
X100186961Y-71638809D02*
X99996485Y-71686428D01*
X99996485Y-71686428D02*
X99663152Y-71686428D01*
X99663152Y-71686428D02*
X99472676Y-71638809D01*
X99472676Y-71638809D02*
X99377438Y-71543571D01*
X99377438Y-71543571D02*
X99329819Y-71448333D01*
X99329819Y-70686428D02*
X99329819Y-70067381D01*
X99329819Y-70067381D02*
X99710771Y-70400714D01*
X99710771Y-70400714D02*
X99710771Y-70257857D01*
X99710771Y-70257857D02*
X99758390Y-70162619D01*
X99758390Y-70162619D02*
X99806009Y-70115000D01*
X99806009Y-70115000D02*
X99901247Y-70067381D01*
X99901247Y-70067381D02*
X100139342Y-70067381D01*
X100139342Y-70067381D02*
X100234580Y-70115000D01*
X100234580Y-70115000D02*
X100282200Y-70162619D01*
X100282200Y-70162619D02*
X100329819Y-70257857D01*
X100329819Y-70257857D02*
X100329819Y-70543571D01*
X100329819Y-70543571D02*
X100282200Y-70638809D01*
X100282200Y-70638809D02*
X100234580Y-70686428D01*
D11*
X91734895Y-68362619D02*
X91734895Y-69172142D01*
X91734895Y-69172142D02*
X91782514Y-69267380D01*
X91782514Y-69267380D02*
X91830133Y-69315000D01*
X91830133Y-69315000D02*
X91925371Y-69362619D01*
X91925371Y-69362619D02*
X92115847Y-69362619D01*
X92115847Y-69362619D02*
X92211085Y-69315000D01*
X92211085Y-69315000D02*
X92258704Y-69267380D01*
X92258704Y-69267380D02*
X92306323Y-69172142D01*
X92306323Y-69172142D02*
X92306323Y-68362619D01*
X93306323Y-69362619D02*
X92734895Y-69362619D01*
X93020609Y-69362619D02*
X93020609Y-68362619D01*
X93020609Y-68362619D02*
X92925371Y-68505476D01*
X92925371Y-68505476D02*
X92830133Y-68600714D01*
X92830133Y-68600714D02*
X92734895Y-68648333D01*
D10*
X133840819Y-69289333D02*
X134555104Y-69289333D01*
X134555104Y-69289333D02*
X134697961Y-69336952D01*
X134697961Y-69336952D02*
X134793200Y-69432190D01*
X134793200Y-69432190D02*
X134840819Y-69575047D01*
X134840819Y-69575047D02*
X134840819Y-69670285D01*
X133840819Y-68384571D02*
X133840819Y-68575047D01*
X133840819Y-68575047D02*
X133888438Y-68670285D01*
X133888438Y-68670285D02*
X133936057Y-68717904D01*
X133936057Y-68717904D02*
X134078914Y-68813142D01*
X134078914Y-68813142D02*
X134269390Y-68860761D01*
X134269390Y-68860761D02*
X134650342Y-68860761D01*
X134650342Y-68860761D02*
X134745580Y-68813142D01*
X134745580Y-68813142D02*
X134793200Y-68765523D01*
X134793200Y-68765523D02*
X134840819Y-68670285D01*
X134840819Y-68670285D02*
X134840819Y-68479809D01*
X134840819Y-68479809D02*
X134793200Y-68384571D01*
X134793200Y-68384571D02*
X134745580Y-68336952D01*
X134745580Y-68336952D02*
X134650342Y-68289333D01*
X134650342Y-68289333D02*
X134412247Y-68289333D01*
X134412247Y-68289333D02*
X134317009Y-68336952D01*
X134317009Y-68336952D02*
X134269390Y-68384571D01*
X134269390Y-68384571D02*
X134221771Y-68479809D01*
X134221771Y-68479809D02*
X134221771Y-68670285D01*
X134221771Y-68670285D02*
X134269390Y-68765523D01*
X134269390Y-68765523D02*
X134317009Y-68813142D01*
X134317009Y-68813142D02*
X134412247Y-68860761D01*
X125000819Y-69694095D02*
X124524628Y-70027428D01*
X125000819Y-70265523D02*
X124000819Y-70265523D01*
X124000819Y-70265523D02*
X124000819Y-69884571D01*
X124000819Y-69884571D02*
X124048438Y-69789333D01*
X124048438Y-69789333D02*
X124096057Y-69741714D01*
X124096057Y-69741714D02*
X124191295Y-69694095D01*
X124191295Y-69694095D02*
X124334152Y-69694095D01*
X124334152Y-69694095D02*
X124429390Y-69741714D01*
X124429390Y-69741714D02*
X124477009Y-69789333D01*
X124477009Y-69789333D02*
X124524628Y-69884571D01*
X124524628Y-69884571D02*
X124524628Y-70265523D01*
X124000819Y-69265523D02*
X124810342Y-69265523D01*
X124810342Y-69265523D02*
X124905580Y-69217904D01*
X124905580Y-69217904D02*
X124953200Y-69170285D01*
X124953200Y-69170285D02*
X125000819Y-69075047D01*
X125000819Y-69075047D02*
X125000819Y-68884571D01*
X125000819Y-68884571D02*
X124953200Y-68789333D01*
X124953200Y-68789333D02*
X124905580Y-68741714D01*
X124905580Y-68741714D02*
X124810342Y-68694095D01*
X124810342Y-68694095D02*
X124000819Y-68694095D01*
X125000819Y-68217904D02*
X124000819Y-68217904D01*
X124000819Y-68217904D02*
X125000819Y-67646476D01*
X125000819Y-67646476D02*
X124000819Y-67646476D01*
X109362819Y-43127333D02*
X110077104Y-43127333D01*
X110077104Y-43127333D02*
X110219961Y-43174952D01*
X110219961Y-43174952D02*
X110315200Y-43270190D01*
X110315200Y-43270190D02*
X110362819Y-43413047D01*
X110362819Y-43413047D02*
X110362819Y-43508285D01*
X110362819Y-42603523D02*
X110362819Y-42413047D01*
X110362819Y-42413047D02*
X110315200Y-42317809D01*
X110315200Y-42317809D02*
X110267580Y-42270190D01*
X110267580Y-42270190D02*
X110124723Y-42174952D01*
X110124723Y-42174952D02*
X109934247Y-42127333D01*
X109934247Y-42127333D02*
X109553295Y-42127333D01*
X109553295Y-42127333D02*
X109458057Y-42174952D01*
X109458057Y-42174952D02*
X109410438Y-42222571D01*
X109410438Y-42222571D02*
X109362819Y-42317809D01*
X109362819Y-42317809D02*
X109362819Y-42508285D01*
X109362819Y-42508285D02*
X109410438Y-42603523D01*
X109410438Y-42603523D02*
X109458057Y-42651142D01*
X109458057Y-42651142D02*
X109553295Y-42698761D01*
X109553295Y-42698761D02*
X109791390Y-42698761D01*
X109791390Y-42698761D02*
X109886628Y-42651142D01*
X109886628Y-42651142D02*
X109934247Y-42603523D01*
X109934247Y-42603523D02*
X109981866Y-42508285D01*
X109981866Y-42508285D02*
X109981866Y-42317809D01*
X109981866Y-42317809D02*
X109934247Y-42222571D01*
X109934247Y-42222571D02*
X109886628Y-42174952D01*
X109886628Y-42174952D02*
X109791390Y-42127333D01*
X108965819Y-43793999D02*
X107965819Y-43793999D01*
X107965819Y-43127333D02*
X107965819Y-42936857D01*
X107965819Y-42936857D02*
X108013438Y-42841619D01*
X108013438Y-42841619D02*
X108108676Y-42746381D01*
X108108676Y-42746381D02*
X108299152Y-42698762D01*
X108299152Y-42698762D02*
X108632485Y-42698762D01*
X108632485Y-42698762D02*
X108822961Y-42746381D01*
X108822961Y-42746381D02*
X108918200Y-42841619D01*
X108918200Y-42841619D02*
X108965819Y-42936857D01*
X108965819Y-42936857D02*
X108965819Y-43127333D01*
X108965819Y-43127333D02*
X108918200Y-43222571D01*
X108918200Y-43222571D02*
X108822961Y-43317809D01*
X108822961Y-43317809D02*
X108632485Y-43365428D01*
X108632485Y-43365428D02*
X108299152Y-43365428D01*
X108299152Y-43365428D02*
X108108676Y-43317809D01*
X108108676Y-43317809D02*
X108013438Y-43222571D01*
X108013438Y-43222571D02*
X107965819Y-43127333D01*
X108061057Y-42317809D02*
X108013438Y-42270190D01*
X108013438Y-42270190D02*
X107965819Y-42174952D01*
X107965819Y-42174952D02*
X107965819Y-41936857D01*
X107965819Y-41936857D02*
X108013438Y-41841619D01*
X108013438Y-41841619D02*
X108061057Y-41794000D01*
X108061057Y-41794000D02*
X108156295Y-41746381D01*
X108156295Y-41746381D02*
X108251533Y-41746381D01*
X108251533Y-41746381D02*
X108394390Y-41794000D01*
X108394390Y-41794000D02*
X108965819Y-42365428D01*
X108965819Y-42365428D02*
X108965819Y-41746381D01*
X137570019Y-66314304D02*
X138379542Y-66314304D01*
X138379542Y-66314304D02*
X138474780Y-66266685D01*
X138474780Y-66266685D02*
X138522400Y-66219066D01*
X138522400Y-66219066D02*
X138570019Y-66123828D01*
X138570019Y-66123828D02*
X138570019Y-65933352D01*
X138570019Y-65933352D02*
X138522400Y-65838114D01*
X138522400Y-65838114D02*
X138474780Y-65790495D01*
X138474780Y-65790495D02*
X138379542Y-65742876D01*
X138379542Y-65742876D02*
X137570019Y-65742876D01*
X137665257Y-65314304D02*
X137617638Y-65266685D01*
X137617638Y-65266685D02*
X137570019Y-65171447D01*
X137570019Y-65171447D02*
X137570019Y-64933352D01*
X137570019Y-64933352D02*
X137617638Y-64838114D01*
X137617638Y-64838114D02*
X137665257Y-64790495D01*
X137665257Y-64790495D02*
X137760495Y-64742876D01*
X137760495Y-64742876D02*
X137855733Y-64742876D01*
X137855733Y-64742876D02*
X137998590Y-64790495D01*
X137998590Y-64790495D02*
X138570019Y-65361923D01*
X138570019Y-65361923D02*
X138570019Y-64742876D01*
X129301819Y-43381333D02*
X130016104Y-43381333D01*
X130016104Y-43381333D02*
X130158961Y-43428952D01*
X130158961Y-43428952D02*
X130254200Y-43524190D01*
X130254200Y-43524190D02*
X130301819Y-43667047D01*
X130301819Y-43667047D02*
X130301819Y-43762285D01*
X129301819Y-43000380D02*
X129301819Y-42333714D01*
X129301819Y-42333714D02*
X130301819Y-42762285D01*
X128930219Y-44047999D02*
X127930219Y-44047999D01*
X127930219Y-43381333D02*
X127930219Y-43190857D01*
X127930219Y-43190857D02*
X127977838Y-43095619D01*
X127977838Y-43095619D02*
X128073076Y-43000381D01*
X128073076Y-43000381D02*
X128263552Y-42952762D01*
X128263552Y-42952762D02*
X128596885Y-42952762D01*
X128596885Y-42952762D02*
X128787361Y-43000381D01*
X128787361Y-43000381D02*
X128882600Y-43095619D01*
X128882600Y-43095619D02*
X128930219Y-43190857D01*
X128930219Y-43190857D02*
X128930219Y-43381333D01*
X128930219Y-43381333D02*
X128882600Y-43476571D01*
X128882600Y-43476571D02*
X128787361Y-43571809D01*
X128787361Y-43571809D02*
X128596885Y-43619428D01*
X128596885Y-43619428D02*
X128263552Y-43619428D01*
X128263552Y-43619428D02*
X128073076Y-43571809D01*
X128073076Y-43571809D02*
X127977838Y-43476571D01*
X127977838Y-43476571D02*
X127930219Y-43381333D01*
X128930219Y-42000381D02*
X128930219Y-42571809D01*
X128930219Y-42286095D02*
X127930219Y-42286095D01*
X127930219Y-42286095D02*
X128073076Y-42381333D01*
X128073076Y-42381333D02*
X128168314Y-42476571D01*
X128168314Y-42476571D02*
X128215933Y-42571809D01*
D12*
%TO.C,J8*%
X109036000Y-67576000D02*
X109036000Y-70336000D01*
X119306000Y-67576000D02*
X109036000Y-67576000D01*
X119306000Y-67576000D02*
X119306000Y-70336000D01*
X119306000Y-70336000D02*
X109036000Y-70336000D01*
X120576000Y-67576000D02*
X121956000Y-67576000D01*
X121956000Y-67576000D02*
X121956000Y-68956000D01*
%TO.C,J10*%
X102240000Y-72275000D02*
X102240000Y-71115000D01*
X103050000Y-72275000D02*
X102240000Y-72275000D01*
X103860000Y-69955000D02*
X106335000Y-69955000D01*
X103860000Y-70448292D02*
X103860000Y-69955000D01*
X103860000Y-72275000D02*
X103860000Y-71781708D01*
X103860000Y-72275000D02*
X106335000Y-72275000D01*
X106335000Y-70797077D02*
X106335000Y-69955000D01*
X106335000Y-72275000D02*
X106335000Y-71432923D01*
D11*
%TO.C,U1*%
X91734800Y-41117600D02*
X91734800Y-55595600D01*
X91734800Y-41117600D02*
X106974800Y-41117600D01*
X91734800Y-67787600D02*
X91734800Y-66009600D01*
X91734800Y-67787600D02*
X106974800Y-67787600D01*
X106974800Y-55595600D02*
X106974800Y-41117600D01*
X106974800Y-67787600D02*
X106974800Y-66009600D01*
D12*
%TO.C,J6*%
X125546000Y-67576000D02*
X125546000Y-70336000D01*
X130736000Y-67576000D02*
X125546000Y-67576000D01*
X130736000Y-67576000D02*
X130736000Y-70336000D01*
X130736000Y-70336000D02*
X125546000Y-70336000D01*
X132006000Y-67576000D02*
X133386000Y-67576000D01*
X133386000Y-67576000D02*
X133386000Y-68956000D01*
%TO.C,J9*%
X110941000Y-41634000D02*
X110941000Y-42476077D01*
X110941000Y-43111923D02*
X110941000Y-43954000D01*
X112146000Y-41634000D02*
X110941000Y-41634000D01*
X112146000Y-41634000D02*
X112146000Y-42127292D01*
X112146000Y-43460708D02*
X112146000Y-43954000D01*
X112146000Y-43954000D02*
X110941000Y-43954000D01*
X112956000Y-41634000D02*
X113766000Y-41634000D01*
X113766000Y-41634000D02*
X113766000Y-42794000D01*
%TO.C,U2*%
X113030000Y-45866000D02*
X113030000Y-46866000D01*
X113030000Y-64106000D02*
X113030000Y-63106000D01*
X113810000Y-45866000D02*
X113030000Y-45866000D01*
X113810000Y-64106000D02*
X113030000Y-64106000D01*
X132355000Y-45866000D02*
X132355000Y-45486000D01*
X138775000Y-45866000D02*
X132355000Y-45866000D01*
X138775000Y-45866000D02*
X138775000Y-64106000D01*
X138775000Y-64106000D02*
X132355000Y-64106000D01*
%TO.C,J7*%
X130880000Y-41888000D02*
X130880000Y-42730077D01*
X130880000Y-43365923D02*
X130880000Y-44208000D01*
X132085000Y-41888000D02*
X130880000Y-41888000D01*
X132085000Y-41888000D02*
X132085000Y-42381292D01*
X132085000Y-43714708D02*
X132085000Y-44208000D01*
X132085000Y-44208000D02*
X130880000Y-44208000D01*
X132895000Y-41888000D02*
X133705000Y-41888000D01*
X133705000Y-41888000D02*
X133705000Y-43048000D01*
%TD*%
M02*
