%TF.GenerationSoftware,KiCad,Pcbnew,9.0.2*%
%TF.CreationDate,2025-06-17T20:14:42+02:00*%
%TF.ProjectId,elrs_tx_full,656c7273-5f74-4785-9f66-756c6c2e6b69,rev?*%
%TF.SameCoordinates,Original*%
%TF.FileFunction,Paste,Bot*%
%TF.FilePolarity,Positive*%
%FSLAX46Y46*%
G04 Gerber Fmt 4.6, Leading zero omitted, Abs format (unit mm)*
G04 Created by KiCad (PCBNEW 9.0.2) date 2025-06-17 20:14:42*
%MOMM*%
%LPD*%
G01*
G04 APERTURE LIST*
G04 Aperture macros list*
%AMRoundRect*
0 Rectangle with rounded corners*
0 $1 Rounding radius*
0 $2 $3 $4 $5 $6 $7 $8 $9 X,Y pos of 4 corners*
0 Add a 4 corners polygon primitive as box body*
4,1,4,$2,$3,$4,$5,$6,$7,$8,$9,$2,$3,0*
0 Add four circle primitives for the rounded corners*
1,1,$1+$1,$2,$3*
1,1,$1+$1,$4,$5*
1,1,$1+$1,$6,$7*
1,1,$1+$1,$8,$9*
0 Add four rect primitives between the rounded corners*
20,1,$1+$1,$2,$3,$4,$5,0*
20,1,$1+$1,$4,$5,$6,$7,0*
20,1,$1+$1,$6,$7,$8,$9,0*
20,1,$1+$1,$8,$9,$2,$3,0*%
G04 Aperture macros list end*
%ADD10RoundRect,0.150000X0.512500X0.150000X-0.512500X0.150000X-0.512500X-0.150000X0.512500X-0.150000X0*%
%ADD11RoundRect,0.250000X0.450000X-0.350000X0.450000X0.350000X-0.450000X0.350000X-0.450000X-0.350000X0*%
%ADD12RoundRect,0.250000X-0.450000X0.350000X-0.450000X-0.350000X0.450000X-0.350000X0.450000X0.350000X0*%
%ADD13RoundRect,0.250000X-0.412500X-0.650000X0.412500X-0.650000X0.412500X0.650000X-0.412500X0.650000X0*%
%ADD14R,2.750000X1.000000*%
%ADD15RoundRect,0.250000X-0.350000X-0.450000X0.350000X-0.450000X0.350000X0.450000X-0.350000X0.450000X0*%
%ADD16R,0.700000X2.000000*%
%ADD17R,0.800000X2.000000*%
%ADD18R,0.900000X2.000000*%
%ADD19RoundRect,0.250000X0.250000X1.500000X-0.250000X1.500000X-0.250000X-1.500000X0.250000X-1.500000X0*%
%ADD20RoundRect,0.250001X0.499999X1.449999X-0.499999X1.449999X-0.499999X-1.449999X0.499999X-1.449999X0*%
%ADD21RoundRect,0.250000X-0.537500X-1.450000X0.537500X-1.450000X0.537500X1.450000X-0.537500X1.450000X0*%
%ADD22RoundRect,0.250000X-0.650000X0.412500X-0.650000X-0.412500X0.650000X-0.412500X0.650000X0.412500X0*%
%ADD23RoundRect,0.090000X-0.360000X0.660000X-0.360000X-0.660000X0.360000X-0.660000X0.360000X0.660000X0*%
G04 APERTURE END LIST*
D10*
%TO.C,U3*%
X95562500Y-70038000D03*
X95562500Y-71938000D03*
X97837500Y-71938000D03*
X97837500Y-70988000D03*
X97837500Y-70038000D03*
%TD*%
D11*
%TO.C,R4*%
X91366000Y-69750000D03*
X91366000Y-71750000D03*
%TD*%
D12*
%TO.C,R3*%
X93398000Y-69750000D03*
X93398000Y-71750000D03*
%TD*%
D13*
%TO.C,C9*%
X105209000Y-52344400D03*
X108334000Y-52344400D03*
%TD*%
D14*
%TO.C,SW1*%
X101952000Y-48242800D03*
X96192000Y-48242800D03*
X101952000Y-52242800D03*
X96192000Y-52242800D03*
%TD*%
D15*
%TO.C,R2*%
X105225000Y-54681200D03*
X107225000Y-54681200D03*
%TD*%
D16*
%TO.C,P1*%
X101180400Y-75936000D03*
D17*
X99160400Y-75936000D03*
D18*
X97930400Y-75936000D03*
D16*
X100180400Y-75936000D03*
D17*
X102200400Y-75936000D03*
D18*
X103430400Y-75936000D03*
%TD*%
D19*
%TO.C,J2*%
X118835600Y-73091000D03*
X116835600Y-73091000D03*
X114835600Y-73091000D03*
X112835600Y-73091000D03*
X110835600Y-73091000D03*
D20*
X121185600Y-78841000D03*
X108485600Y-78841000D03*
%TD*%
D15*
%TO.C,R1*%
X83000000Y-68194000D03*
X85000000Y-68194000D03*
%TD*%
D21*
%TO.C,C1*%
X83098800Y-51590200D03*
X87373800Y-51590200D03*
%TD*%
D22*
%TO.C,C3*%
X103368000Y-65247600D03*
X103368000Y-68372600D03*
%TD*%
D23*
%TO.C,D1*%
X88345400Y-74950400D03*
X91645400Y-74950400D03*
X91645400Y-79850400D03*
X88345400Y-79850400D03*
%TD*%
D19*
%TO.C,J3*%
X130837600Y-73112000D03*
X128837600Y-73112000D03*
X126837600Y-73112000D03*
D20*
X133187600Y-78862000D03*
X124487600Y-78862000D03*
%TD*%
D22*
%TO.C,C2*%
X128577000Y-54059300D03*
X128577000Y-50934300D03*
%TD*%
M02*
