%TF.GenerationSoftware,KiCad,Pcbnew,9.0.2*%
%TF.CreationDate,2025-06-17T20:14:42+02:00*%
%TF.ProjectId,elrs_tx_full,656c7273-5f74-4785-9f66-756c6c2e6b69,rev?*%
%TF.SameCoordinates,Original*%
%TF.FileFunction,Soldermask,Bot*%
%TF.FilePolarity,Negative*%
%FSLAX46Y46*%
G04 Gerber Fmt 4.6, Leading zero omitted, Abs format (unit mm)*
G04 Created by KiCad (PCBNEW 9.0.2) date 2025-06-17 20:14:42*
%MOMM*%
%LPD*%
G01*
G04 APERTURE LIST*
G04 Aperture macros list*
%AMRoundRect*
0 Rectangle with rounded corners*
0 $1 Rounding radius*
0 $2 $3 $4 $5 $6 $7 $8 $9 X,Y pos of 4 corners*
0 Add a 4 corners polygon primitive as box body*
4,1,4,$2,$3,$4,$5,$6,$7,$8,$9,$2,$3,0*
0 Add four circle primitives for the rounded corners*
1,1,$1+$1,$2,$3*
1,1,$1+$1,$4,$5*
1,1,$1+$1,$6,$7*
1,1,$1+$1,$8,$9*
0 Add four rect primitives between the rounded corners*
20,1,$1+$1,$2,$3,$4,$5,0*
20,1,$1+$1,$4,$5,$6,$7,0*
20,1,$1+$1,$6,$7,$8,$9,0*
20,1,$1+$1,$8,$9,$2,$3,0*%
G04 Aperture macros list end*
%ADD10RoundRect,0.150000X0.512500X0.150000X-0.512500X0.150000X-0.512500X-0.150000X0.512500X-0.150000X0*%
%ADD11RoundRect,0.250000X0.450000X-0.350000X0.450000X0.350000X-0.450000X0.350000X-0.450000X-0.350000X0*%
%ADD12RoundRect,0.250000X-0.450000X0.350000X-0.450000X-0.350000X0.450000X-0.350000X0.450000X0.350000X0*%
%ADD13RoundRect,0.250000X-0.412500X-0.650000X0.412500X-0.650000X0.412500X0.650000X-0.412500X0.650000X0*%
%ADD14R,2.750000X1.000000*%
%ADD15RoundRect,0.250000X-0.350000X-0.450000X0.350000X-0.450000X0.350000X0.450000X-0.350000X0.450000X0*%
%ADD16R,1.700000X1.700000*%
%ADD17C,1.700000*%
%ADD18R,1.000000X1.000000*%
%ADD19C,1.000000*%
%ADD20C,4.400000*%
%ADD21R,5.000000X5.000000*%
%ADD22R,0.700000X2.000000*%
%ADD23R,0.800000X2.000000*%
%ADD24R,0.900000X2.000000*%
%ADD25O,1.100000X1.800000*%
%ADD26R,1.700000X2.000000*%
%ADD27O,1.700000X2.000000*%
%ADD28RoundRect,0.250000X0.250000X1.500000X-0.250000X1.500000X-0.250000X-1.500000X0.250000X-1.500000X0*%
%ADD29RoundRect,0.250001X0.499999X1.449999X-0.499999X1.449999X-0.499999X-1.449999X0.499999X-1.449999X0*%
%ADD30RoundRect,0.250000X-0.537500X-1.450000X0.537500X-1.450000X0.537500X1.450000X-0.537500X1.450000X0*%
%ADD31RoundRect,0.250000X-0.650000X0.412500X-0.650000X-0.412500X0.650000X-0.412500X0.650000X0.412500X0*%
%ADD32RoundRect,0.090000X-0.360000X0.660000X-0.360000X-0.660000X0.360000X-0.660000X0.360000X0.660000X0*%
G04 APERTURE END LIST*
D10*
%TO.C,U3*%
X95562500Y-70038000D03*
X95562500Y-71938000D03*
X97837500Y-71938000D03*
X97837500Y-70988000D03*
X97837500Y-70038000D03*
%TD*%
D11*
%TO.C,R4*%
X91366000Y-69750000D03*
X91366000Y-71750000D03*
%TD*%
D12*
%TO.C,R3*%
X93398000Y-69750000D03*
X93398000Y-71750000D03*
%TD*%
D13*
%TO.C,C9*%
X105209000Y-52344400D03*
X108334000Y-52344400D03*
%TD*%
D14*
%TO.C,SW1*%
X101952000Y-48242800D03*
X96192000Y-48242800D03*
X101952000Y-52242800D03*
X96192000Y-52242800D03*
%TD*%
D15*
%TO.C,R2*%
X105225000Y-54681200D03*
X107225000Y-54681200D03*
%TD*%
D16*
%TO.C,J8*%
X120576000Y-68956000D03*
D17*
X118036000Y-68956000D03*
X115496000Y-68956000D03*
X112956000Y-68956000D03*
X110416000Y-68956000D03*
%TD*%
D18*
%TO.C,J10*%
X103050000Y-71115000D03*
D19*
X104320000Y-71115000D03*
X105590000Y-71115000D03*
%TD*%
D20*
%TO.C,H2*%
X83000000Y-79000000D03*
%TD*%
%TO.C,H1*%
X83000000Y-43000000D03*
%TD*%
%TO.C,H4*%
X137000000Y-79000000D03*
%TD*%
D16*
%TO.C,J6*%
X132006000Y-68956000D03*
D17*
X129466000Y-68956000D03*
X126926000Y-68956000D03*
%TD*%
D18*
%TO.C,J9*%
X112956000Y-42794000D03*
D19*
X111686000Y-42794000D03*
%TD*%
D21*
%TO.C,U2*%
X123665000Y-53986000D03*
%TD*%
D20*
%TO.C,H3*%
X137000000Y-43000000D03*
%TD*%
D18*
%TO.C,J7*%
X132895000Y-43048000D03*
D19*
X131625000Y-43048000D03*
%TD*%
D22*
%TO.C,P1*%
X101180400Y-75936000D03*
D23*
X99160400Y-75936000D03*
D24*
X97930400Y-75936000D03*
D22*
X100180400Y-75936000D03*
D23*
X102200400Y-75936000D03*
D24*
X103430400Y-75936000D03*
D25*
X104980400Y-80386000D03*
X104980400Y-76586000D03*
X96380400Y-80386000D03*
X96380400Y-76586000D03*
%TD*%
D26*
%TO.C,J5*%
X117642800Y-42286000D03*
D27*
X120182800Y-42286000D03*
X122722800Y-42286000D03*
X125262800Y-42286000D03*
%TD*%
D16*
%TO.C,J1*%
X88216400Y-72004000D03*
%TD*%
D28*
%TO.C,J2*%
X118835600Y-73091000D03*
X116835600Y-73091000D03*
X114835600Y-73091000D03*
X112835600Y-73091000D03*
X110835600Y-73091000D03*
D29*
X121185600Y-78841000D03*
X108485600Y-78841000D03*
%TD*%
D15*
%TO.C,R1*%
X83000000Y-68194000D03*
X85000000Y-68194000D03*
%TD*%
D16*
%TO.C,J4*%
X83048000Y-57272000D03*
D17*
X83048000Y-59812000D03*
X83048000Y-62352000D03*
X83048000Y-64892000D03*
%TD*%
D30*
%TO.C,C1*%
X83098800Y-51590200D03*
X87373800Y-51590200D03*
%TD*%
D31*
%TO.C,C3*%
X103368000Y-65247600D03*
X103368000Y-68372600D03*
%TD*%
D32*
%TO.C,D1*%
X88345400Y-74950400D03*
X91645400Y-74950400D03*
X91645400Y-79850400D03*
X88345400Y-79850400D03*
%TD*%
D28*
%TO.C,J3*%
X130837600Y-73112000D03*
X128837600Y-73112000D03*
X126837600Y-73112000D03*
D29*
X133187600Y-78862000D03*
X124487600Y-78862000D03*
%TD*%
D31*
%TO.C,C2*%
X128577000Y-54059300D03*
X128577000Y-50934300D03*
%TD*%
M02*
