%TF.GenerationSoftware,KiCad,Pcbnew,9.0.2*%
%TF.CreationDate,2025-06-17T20:14:42+02:00*%
%TF.ProjectId,elrs_tx_full,656c7273-5f74-4785-9f66-756c6c2e6b69,rev?*%
%TF.SameCoordinates,Original*%
%TF.FileFunction,Copper,L2,Bot*%
%TF.FilePolarity,Positive*%
%FSLAX46Y46*%
G04 Gerber Fmt 4.6, Leading zero omitted, Abs format (unit mm)*
G04 Created by KiCad (PCBNEW 9.0.2) date 2025-06-17 20:14:42*
%MOMM*%
%LPD*%
G01*
G04 APERTURE LIST*
G04 Aperture macros list*
%AMRoundRect*
0 Rectangle with rounded corners*
0 $1 Rounding radius*
0 $2 $3 $4 $5 $6 $7 $8 $9 X,Y pos of 4 corners*
0 Add a 4 corners polygon primitive as box body*
4,1,4,$2,$3,$4,$5,$6,$7,$8,$9,$2,$3,0*
0 Add four circle primitives for the rounded corners*
1,1,$1+$1,$2,$3*
1,1,$1+$1,$4,$5*
1,1,$1+$1,$6,$7*
1,1,$1+$1,$8,$9*
0 Add four rect primitives between the rounded corners*
20,1,$1+$1,$2,$3,$4,$5,0*
20,1,$1+$1,$4,$5,$6,$7,0*
20,1,$1+$1,$6,$7,$8,$9,0*
20,1,$1+$1,$8,$9,$2,$3,0*%
G04 Aperture macros list end*
%TA.AperFunction,SMDPad,CuDef*%
%ADD10RoundRect,0.150000X0.512500X0.150000X-0.512500X0.150000X-0.512500X-0.150000X0.512500X-0.150000X0*%
%TD*%
%TA.AperFunction,SMDPad,CuDef*%
%ADD11RoundRect,0.250000X0.450000X-0.350000X0.450000X0.350000X-0.450000X0.350000X-0.450000X-0.350000X0*%
%TD*%
%TA.AperFunction,SMDPad,CuDef*%
%ADD12RoundRect,0.250000X-0.450000X0.350000X-0.450000X-0.350000X0.450000X-0.350000X0.450000X0.350000X0*%
%TD*%
%TA.AperFunction,SMDPad,CuDef*%
%ADD13RoundRect,0.250000X-0.412500X-0.650000X0.412500X-0.650000X0.412500X0.650000X-0.412500X0.650000X0*%
%TD*%
%TA.AperFunction,SMDPad,CuDef*%
%ADD14R,2.750000X1.000000*%
%TD*%
%TA.AperFunction,SMDPad,CuDef*%
%ADD15RoundRect,0.250000X-0.350000X-0.450000X0.350000X-0.450000X0.350000X0.450000X-0.350000X0.450000X0*%
%TD*%
%TA.AperFunction,ComponentPad*%
%ADD16R,1.700000X1.700000*%
%TD*%
%TA.AperFunction,ComponentPad*%
%ADD17C,1.700000*%
%TD*%
%TA.AperFunction,ComponentPad*%
%ADD18R,1.000000X1.000000*%
%TD*%
%TA.AperFunction,ComponentPad*%
%ADD19C,1.000000*%
%TD*%
%TA.AperFunction,ComponentPad*%
%ADD20C,4.400000*%
%TD*%
%TA.AperFunction,ComponentPad*%
%ADD21R,5.000000X5.000000*%
%TD*%
%TA.AperFunction,SMDPad,CuDef*%
%ADD22R,0.700000X2.000000*%
%TD*%
%TA.AperFunction,SMDPad,CuDef*%
%ADD23R,0.800000X2.000000*%
%TD*%
%TA.AperFunction,SMDPad,CuDef*%
%ADD24R,0.900000X2.000000*%
%TD*%
%TA.AperFunction,HeatsinkPad*%
%ADD25O,1.100000X1.800000*%
%TD*%
%TA.AperFunction,ComponentPad*%
%ADD26R,1.700000X2.000000*%
%TD*%
%TA.AperFunction,ComponentPad*%
%ADD27O,1.700000X2.000000*%
%TD*%
%TA.AperFunction,SMDPad,CuDef*%
%ADD28RoundRect,0.250000X0.250000X1.500000X-0.250000X1.500000X-0.250000X-1.500000X0.250000X-1.500000X0*%
%TD*%
%TA.AperFunction,SMDPad,CuDef*%
%ADD29RoundRect,0.250001X0.499999X1.449999X-0.499999X1.449999X-0.499999X-1.449999X0.499999X-1.449999X0*%
%TD*%
%TA.AperFunction,SMDPad,CuDef*%
%ADD30RoundRect,0.250000X-0.537500X-1.450000X0.537500X-1.450000X0.537500X1.450000X-0.537500X1.450000X0*%
%TD*%
%TA.AperFunction,SMDPad,CuDef*%
%ADD31RoundRect,0.250000X-0.650000X0.412500X-0.650000X-0.412500X0.650000X-0.412500X0.650000X0.412500X0*%
%TD*%
%TA.AperFunction,SMDPad,CuDef*%
%ADD32RoundRect,0.090000X-0.360000X0.660000X-0.360000X-0.660000X0.360000X-0.660000X0.360000X0.660000X0*%
%TD*%
%TA.AperFunction,ViaPad*%
%ADD33C,0.800000*%
%TD*%
%TA.AperFunction,Conductor*%
%ADD34C,0.500000*%
%TD*%
%TA.AperFunction,Conductor*%
%ADD35C,0.750000*%
%TD*%
%TA.AperFunction,Conductor*%
%ADD36C,0.300000*%
%TD*%
%TA.AperFunction,Conductor*%
%ADD37C,0.250000*%
%TD*%
%TA.AperFunction,Conductor*%
%ADD38C,1.600000*%
%TD*%
G04 APERTURE END LIST*
D10*
%TO.P,U3,5,OUT*%
%TO.N,+5V*%
X95562500Y-70038000D03*
%TO.P,U3,4,ADJ*%
%TO.N,Net-(U3-ADJ)*%
X95562500Y-71938000D03*
%TO.P,U3,3,EN*%
%TO.N,+BATT*%
X97837500Y-71938000D03*
%TO.P,U3,2,GND*%
%TO.N,GND*%
X97837500Y-70988000D03*
%TO.P,U3,1,IN*%
%TO.N,+BATT*%
X97837500Y-70038000D03*
%TD*%
D11*
%TO.P,R4,2*%
%TO.N,GND*%
X91366000Y-69750000D03*
%TO.P,R4,1*%
%TO.N,Net-(U3-ADJ)*%
X91366000Y-71750000D03*
%TD*%
D12*
%TO.P,R3,1*%
%TO.N,+5V*%
X93398000Y-69750000D03*
%TO.P,R3,2*%
%TO.N,Net-(U3-ADJ)*%
X93398000Y-71750000D03*
%TD*%
D13*
%TO.P,C9,1*%
%TO.N,/EN*%
X105209000Y-52344400D03*
%TO.P,C9,2*%
%TO.N,GND*%
X108334000Y-52344400D03*
%TD*%
D14*
%TO.P,SW1,1,1*%
%TO.N,GND*%
X101952000Y-48242800D03*
X96192000Y-48242800D03*
%TO.P,SW1,2,2*%
%TO.N,/EN*%
X101952000Y-52242800D03*
X96192000Y-52242800D03*
%TD*%
D15*
%TO.P,R2,1*%
%TO.N,/EN*%
X105225000Y-54681200D03*
%TO.P,R2,2*%
%TO.N,+3.3V*%
X107225000Y-54681200D03*
%TD*%
D16*
%TO.P,J8,1,Pin_1*%
%TO.N,GND*%
X120576000Y-68956000D03*
D17*
%TO.P,J8,2,Pin_2*%
%TO.N,+3.3V*%
X118036000Y-68956000D03*
%TO.P,J8,3,Pin_3*%
%TO.N,/ESP32_TX*%
X115496000Y-68956000D03*
%TO.P,J8,4,Pin_4*%
%TO.N,/ESP32_RX*%
X112956000Y-68956000D03*
%TO.P,J8,5,Pin_5*%
%TO.N,/ESP32_BOOT0*%
X110416000Y-68956000D03*
%TD*%
D18*
%TO.P,J10,1,Pin_1*%
%TO.N,/IO16*%
X103050000Y-71115000D03*
D19*
%TO.P,J10,2,Pin_2*%
%TO.N,/IO17*%
X104320000Y-71115000D03*
%TO.P,J10,3,Pin_3*%
%TO.N,/IO22*%
X105590000Y-71115000D03*
%TD*%
D20*
%TO.P,H2,1*%
%TO.N,N/C*%
X83000000Y-79000000D03*
%TD*%
%TO.P,H1,1*%
%TO.N,N/C*%
X83000000Y-43000000D03*
%TD*%
%TO.P,H4,1*%
%TO.N,N/C*%
X137000000Y-79000000D03*
%TD*%
D16*
%TO.P,J6,1,Pin_1*%
%TO.N,GND*%
X132006000Y-68956000D03*
D17*
%TO.P,J6,2,Pin_2*%
%TO.N,+BATT*%
X129466000Y-68956000D03*
%TO.P,J6,3,Pin_3*%
%TO.N,/CRSF_RX_TX*%
X126926000Y-68956000D03*
%TD*%
D18*
%TO.P,J9,1,Pin_1*%
%TO.N,/IO25*%
X112956000Y-42794000D03*
D19*
%TO.P,J9,2,Pin_2*%
%TO.N,/IO12*%
X111686000Y-42794000D03*
%TD*%
D21*
%TO.P,U2,39,GND*%
%TO.N,GND*%
X123665000Y-53986000D03*
%TD*%
D20*
%TO.P,H3,1*%
%TO.N,N/C*%
X137000000Y-43000000D03*
%TD*%
D18*
%TO.P,J7,1,Pin_1*%
%TO.N,/IO34*%
X132895000Y-43048000D03*
D19*
%TO.P,J7,2,Pin_2*%
%TO.N,/IO35*%
X131625000Y-43048000D03*
%TD*%
D22*
%TO.P,P1,A5,CC*%
%TO.N,unconnected-(P1-CC-PadA5)*%
X101180400Y-75936000D03*
D23*
%TO.P,P1,A9,VBUS*%
%TO.N,+BATT*%
X99160400Y-75936000D03*
D24*
%TO.P,P1,A12,GND*%
%TO.N,GND*%
X97930400Y-75936000D03*
D22*
%TO.P,P1,B5,VCONN*%
%TO.N,unconnected-(P1-VCONN-PadB5)*%
X100180400Y-75936000D03*
D23*
%TO.P,P1,B9,VBUS*%
%TO.N,+BATT*%
X102200400Y-75936000D03*
D24*
%TO.P,P1,B12,GND*%
%TO.N,GND*%
X103430400Y-75936000D03*
D25*
%TO.P,P1,S1,SHIELD*%
%TO.N,unconnected-(P1-SHIELD-PadS1)*%
X104980400Y-80386000D03*
%TO.N,unconnected-(P1-SHIELD-PadS1)_2*%
X104980400Y-76586000D03*
%TO.N,unconnected-(P1-SHIELD-PadS1)_1*%
X96380400Y-80386000D03*
%TO.N,unconnected-(P1-SHIELD-PadS1)_3*%
X96380400Y-76586000D03*
%TD*%
D26*
%TO.P,J5,4,Pin_4*%
%TO.N,/OLED_SDA*%
X117642800Y-42286000D03*
D27*
%TO.P,J5,3,Pin_3*%
%TO.N,/OLED_SCK*%
X120182800Y-42286000D03*
%TO.P,J5,2,Pin_2*%
%TO.N,+3.3V*%
X122722800Y-42286000D03*
%TO.P,J5,1,Pin_1*%
%TO.N,GND*%
X125262800Y-42286000D03*
%TD*%
D16*
%TO.P,J1,1,Pin_1*%
%TO.N,Net-(D1-DOUT)*%
X88216400Y-72004000D03*
%TD*%
D28*
%TO.P,J2,1,Pin_1*%
%TO.N,GND*%
X118835600Y-73091000D03*
%TO.P,J2,2,Pin_2*%
%TO.N,+3.3V*%
X116835600Y-73091000D03*
%TO.P,J2,3,Pin_3*%
%TO.N,/ESP32_TX*%
X114835600Y-73091000D03*
%TO.P,J2,4,Pin_4*%
%TO.N,/ESP32_RX*%
X112835600Y-73091000D03*
%TO.P,J2,5,Pin_5*%
%TO.N,/ESP32_BOOT0*%
X110835600Y-73091000D03*
D29*
%TO.P,J2,MP*%
%TO.N,N/C*%
X121185600Y-78841000D03*
X108485600Y-78841000D03*
%TD*%
D15*
%TO.P,R1,1*%
%TO.N,Net-(J4-Pin_4)*%
X83000000Y-68194000D03*
%TO.P,R1,2*%
%TO.N,+BATT*%
X85000000Y-68194000D03*
%TD*%
D16*
%TO.P,J4,1,Pin_1*%
%TO.N,+3.3V*%
X83048000Y-57272000D03*
D17*
%TO.P,J4,2,Pin_2*%
%TO.N,GND*%
X83048000Y-59812000D03*
%TO.P,J4,3,Pin_3*%
%TO.N,+BATT*%
X83048000Y-62352000D03*
%TO.P,J4,4,Pin_4*%
%TO.N,Net-(J4-Pin_4)*%
X83048000Y-64892000D03*
%TD*%
D30*
%TO.P,C1,1*%
%TO.N,+3.3V*%
X83098800Y-51590200D03*
%TO.P,C1,2*%
%TO.N,GND*%
X87373800Y-51590200D03*
%TD*%
D31*
%TO.P,C3,1*%
%TO.N,+3.3V*%
X103368000Y-65247600D03*
%TO.P,C3,2*%
%TO.N,GND*%
X103368000Y-68372600D03*
%TD*%
D32*
%TO.P,D1,1,VDD*%
%TO.N,+5V*%
X88345400Y-74950400D03*
%TO.P,D1,2,DOUT*%
%TO.N,Net-(D1-DOUT)*%
X91645400Y-74950400D03*
%TO.P,D1,3,VSS*%
%TO.N,GND*%
X91645400Y-79850400D03*
%TO.P,D1,4,DIN*%
%TO.N,/LED_RGB*%
X88345400Y-79850400D03*
%TD*%
D28*
%TO.P,J3,1,Pin_1*%
%TO.N,GND*%
X130837600Y-73112000D03*
%TO.P,J3,2,Pin_2*%
%TO.N,+BATT*%
X128837600Y-73112000D03*
%TO.P,J3,3,Pin_3*%
%TO.N,/CRSF_RX_TX*%
X126837600Y-73112000D03*
D29*
%TO.P,J3,MP*%
%TO.N,N/C*%
X133187600Y-78862000D03*
X124487600Y-78862000D03*
%TD*%
D31*
%TO.P,C2,2*%
%TO.N,GND*%
X128577000Y-54059300D03*
%TO.P,C2,1*%
%TO.N,+3.3V*%
X128577000Y-50934300D03*
%TD*%
D33*
%TO.N,+3.3V*%
X129897800Y-44902200D03*
X131421800Y-48153400D03*
%TO.N,GND*%
X123624000Y-73578800D03*
X109857200Y-52344400D03*
X89588000Y-69718000D03*
X96700000Y-70988000D03*
X93499600Y-78199400D03*
%TO.N,/LED_RGB*%
X89511800Y-78379400D03*
%TO.N,GND*%
X99087600Y-48280400D03*
%TO.N,/EN*%
X96192000Y-53716000D03*
X101983200Y-53665200D03*
X119598100Y-50350500D03*
%TO.N,/OLED_SDA*%
X122252400Y-44978400D03*
%TO.N,/ESP32_RX*%
X126101000Y-65196800D03*
%TO.N,/ESP32_TX*%
X123815000Y-66162000D03*
%TO.N,+3.3V*%
X116800000Y-77084000D03*
X127752000Y-78608000D03*
X112702000Y-77084000D03*
X105247600Y-65247600D03*
X129885600Y-49245600D03*
X128768000Y-77846000D03*
X116800000Y-76068000D03*
X112702000Y-76068000D03*
%TO.N,GND*%
X130850800Y-76169600D03*
X108384000Y-47874000D03*
X105336000Y-47874000D03*
X87366000Y-54478000D03*
X97970000Y-77947600D03*
X103430400Y-77921600D03*
X105196800Y-68397200D03*
%TO.N,/CRSF_RX_TX*%
X119864800Y-48864600D03*
%TO.N,/E28_MISO_RX*%
X108892000Y-61463000D03*
X122227000Y-61463000D03*
%TO.N,/E28_NSS_CTS*%
X108892000Y-58923000D03*
X119687000Y-58923000D03*
%TO.N,/E28_MISO_TX*%
X128514000Y-60193000D03*
X108892000Y-62733000D03*
%TO.N,/E28_NRESET*%
X115915600Y-48229600D03*
X93970000Y-58948400D03*
%TO.N,/E28_TX_EN*%
X93970000Y-56357600D03*
X115915600Y-49499600D03*
%TO.N,/IO25*%
X114734000Y-44076000D03*
%TO.N,/IO12*%
X111686000Y-46223000D03*
%TO.N,/E28_BUSY*%
X122164000Y-59354800D03*
X93970000Y-60193000D03*
%TO.N,/E28_SCK_RTS*%
X120957000Y-60193000D03*
X108892000Y-60193000D03*
%TO.N,/E28_DIO1*%
X112664400Y-65060169D03*
X93970000Y-61437600D03*
%TD*%
D34*
%TO.N,GND*%
X130837600Y-71178500D02*
X130837600Y-76156400D01*
X132006000Y-70010100D02*
X130837600Y-71178500D01*
X132006000Y-68956000D02*
X132006000Y-70010100D01*
X130837600Y-76156400D02*
X130850800Y-76169600D01*
D35*
%TO.N,+BATT*%
X105463000Y-73655000D02*
X102948400Y-73655000D01*
X106606000Y-74798000D02*
X105463000Y-73655000D01*
X106606000Y-75433000D02*
X106606000Y-74798000D01*
X107495000Y-76322000D02*
X106606000Y-75433000D01*
X109501600Y-76322000D02*
X107495000Y-76322000D01*
X111533600Y-78354000D02*
X109501600Y-76322000D01*
X127764200Y-76372800D02*
X120017200Y-76372800D01*
X118036000Y-78354000D02*
X111533600Y-78354000D01*
X120017200Y-76372800D02*
X118036000Y-78354000D01*
X128831000Y-71115000D02*
X128837600Y-71121600D01*
X129466000Y-70200600D02*
X128831000Y-70835600D01*
X128831000Y-70835600D02*
X128831000Y-71115000D01*
X129466000Y-68956000D02*
X129466000Y-70200600D01*
X128837600Y-71121600D02*
X128837600Y-75299400D01*
X128837600Y-75299400D02*
X127764200Y-76372800D01*
D34*
%TO.N,GND*%
X123624000Y-73578800D02*
X123136200Y-73091000D01*
X123136200Y-73091000D02*
X119323400Y-73091000D01*
X119489000Y-73091000D02*
X118835600Y-73091000D01*
X120576000Y-72004000D02*
X119489000Y-73091000D01*
X120576000Y-68956000D02*
X120576000Y-72004000D01*
%TO.N,+3.3V*%
X116835600Y-70969200D02*
X116835600Y-73578800D01*
X117413200Y-70391600D02*
X116835600Y-70969200D01*
X118036000Y-70391600D02*
X117413200Y-70391600D01*
%TO.N,/ESP32_TX*%
X114835600Y-70988000D02*
X114835600Y-73578800D01*
X115496000Y-68956000D02*
X115496000Y-70327600D01*
X115496000Y-70327600D02*
X114835600Y-70988000D01*
%TO.N,/ESP32_RX*%
X112835600Y-70918400D02*
X112835600Y-73578800D01*
X112829000Y-70556200D02*
X112829000Y-70911800D01*
X112956000Y-70429200D02*
X112829000Y-70556200D01*
X112956000Y-68956000D02*
X112956000Y-70429200D01*
X112829000Y-70911800D02*
X112835600Y-70918400D01*
%TO.N,/ESP32_BOOT0*%
X110835600Y-70798000D02*
X110835600Y-73578800D01*
X110416000Y-70378400D02*
X110835600Y-70798000D01*
X110416000Y-68956000D02*
X110416000Y-70378400D01*
D36*
%TO.N,/CRSF_RX_TX*%
X131308000Y-65654000D02*
X129733200Y-67228800D01*
X131308000Y-49487400D02*
X131308000Y-65654000D01*
X129733200Y-67228800D02*
X127599600Y-67228800D01*
X129694600Y-47874000D02*
X131308000Y-49487400D01*
X120855400Y-47874000D02*
X129694600Y-47874000D01*
X127599600Y-67228800D02*
X126926000Y-67902400D01*
X119864800Y-48864600D02*
X120855400Y-47874000D01*
X126926000Y-67902400D02*
X126926000Y-68956000D01*
D34*
%TO.N,+5V*%
X86032000Y-74366200D02*
X86616200Y-74950400D01*
X88699000Y-68448000D02*
X86032000Y-71115000D01*
X92890000Y-68448000D02*
X88699000Y-68448000D01*
X86032000Y-71115000D02*
X86032000Y-74366200D01*
X93398000Y-68956000D02*
X92890000Y-68448000D01*
X86616200Y-74950400D02*
X88345400Y-74950400D01*
X93398000Y-69750000D02*
X93398000Y-68956000D01*
D36*
%TO.N,/LED_RGB*%
X88345400Y-78885400D02*
X88345400Y-79850400D01*
X88851400Y-78379400D02*
X88345400Y-78885400D01*
X89511800Y-78379400D02*
X88851400Y-78379400D01*
%TO.N,Net-(D1-DOUT)*%
X89816600Y-74417000D02*
X90350000Y-74950400D01*
X89816600Y-72283400D02*
X89816600Y-74417000D01*
X89537200Y-72004000D02*
X89816600Y-72283400D01*
X88216400Y-72004000D02*
X89537200Y-72004000D01*
X90350000Y-74950400D02*
X91645400Y-74950400D01*
%TO.N,/EN*%
X105225000Y-52360400D02*
X105209000Y-52344400D01*
X105225000Y-54681200D02*
X105225000Y-52360400D01*
%TO.N,GND*%
X109857200Y-52344400D02*
X108587200Y-52344400D01*
%TO.N,/E28_BUSY*%
X99875000Y-60193000D02*
X93970000Y-60193000D01*
X103278600Y-56789400D02*
X99875000Y-60193000D01*
X111572200Y-56789400D02*
X103278600Y-56789400D01*
X112613600Y-57830800D02*
X111572200Y-56789400D01*
X120640000Y-57830800D02*
X112613600Y-57830800D01*
X122164000Y-59354800D02*
X120640000Y-57830800D01*
D34*
%TO.N,GND*%
X123738300Y-54059300D02*
X123665000Y-53986000D01*
X128577000Y-54059300D02*
X123738300Y-54059300D01*
D36*
%TO.N,/EN*%
X106460000Y-51093400D02*
X105209000Y-52344400D01*
X111095400Y-51093400D02*
X106460000Y-51093400D01*
X111127200Y-51125200D02*
X111095400Y-51093400D01*
X118823400Y-51125200D02*
X111127200Y-51125200D01*
X119598100Y-50350500D02*
X118823400Y-51125200D01*
D35*
%TO.N,+BATT*%
X86045200Y-63977600D02*
X85384800Y-63317200D01*
X98351000Y-63977600D02*
X86045200Y-63977600D01*
X99716500Y-70226000D02*
X99716500Y-65343100D01*
X99716500Y-65343100D02*
X98351000Y-63977600D01*
D36*
%TO.N,GND*%
X91645400Y-78783600D02*
X91645400Y-79850400D01*
X92229600Y-78199400D02*
X91645400Y-78783600D01*
X93499600Y-78199400D02*
X92229600Y-78199400D01*
%TO.N,/EN*%
X105209000Y-52344400D02*
X102053600Y-52344400D01*
X102053600Y-52344400D02*
X101952000Y-52242800D01*
%TO.N,GND*%
X89620000Y-69750000D02*
X89588000Y-69718000D01*
X91366000Y-69750000D02*
X89620000Y-69750000D01*
X97837500Y-70988000D02*
X96700000Y-70988000D01*
D34*
%TO.N,+BATT*%
X85000000Y-63702000D02*
X85384800Y-63317200D01*
X85000000Y-68194000D02*
X85000000Y-63702000D01*
%TO.N,Net-(J4-Pin_4)*%
X83048000Y-68146000D02*
X83000000Y-68194000D01*
X83048000Y-64892000D02*
X83048000Y-68146000D01*
%TO.N,Net-(U3-ADJ)*%
X93586000Y-71938000D02*
X93398000Y-71750000D01*
X95562500Y-71938000D02*
X93586000Y-71938000D01*
%TO.N,+5V*%
X93686000Y-70038000D02*
X93398000Y-69750000D01*
X95562500Y-70038000D02*
X93686000Y-70038000D01*
%TO.N,+BATT*%
X99528500Y-71938000D02*
X99716500Y-71750000D01*
D35*
X99716500Y-71750000D02*
X99716500Y-73471100D01*
D34*
X97837500Y-71938000D02*
X99528500Y-71938000D01*
X97837500Y-70038000D02*
X99528500Y-70038000D01*
D35*
X99716500Y-70226000D02*
X99716500Y-71750000D01*
D34*
X99528500Y-70038000D02*
X99716500Y-70226000D01*
D36*
%TO.N,Net-(U3-ADJ)*%
X91620000Y-71750000D02*
X93652000Y-71750000D01*
D35*
%TO.N,+BATT*%
X99716500Y-73471100D02*
X99900400Y-73655000D01*
D36*
%TO.N,GND*%
X99125200Y-48242800D02*
X99087600Y-48280400D01*
X101952000Y-48242800D02*
X99125200Y-48242800D01*
X99050000Y-48242800D02*
X99087600Y-48280400D01*
X96192000Y-48242800D02*
X99050000Y-48242800D01*
%TO.N,/EN*%
X96192000Y-53716000D02*
X96192000Y-52242800D01*
X101952000Y-53634000D02*
X101983200Y-53665200D01*
X101952000Y-52242800D02*
X101952000Y-53634000D01*
%TO.N,/E28_TX_EN*%
X93970000Y-50858000D02*
X93970000Y-56357600D01*
X95328400Y-49499600D02*
X93970000Y-50858000D01*
X115915600Y-49499600D02*
X95328400Y-49499600D01*
D35*
%TO.N,+BATT*%
X84419600Y-62352000D02*
X83048000Y-62352000D01*
X85384800Y-63317200D02*
X84419600Y-62352000D01*
D36*
%TO.N,/E28_NRESET*%
X116576000Y-48229600D02*
X115915600Y-48229600D01*
X99748000Y-50414000D02*
X116677600Y-50414000D01*
X98986000Y-58034000D02*
X98986000Y-51176000D01*
X98986000Y-51176000D02*
X99748000Y-50414000D01*
X98071600Y-58948400D02*
X98986000Y-58034000D01*
X116677600Y-50414000D02*
X117236400Y-49855200D01*
X117236400Y-49855200D02*
X117236400Y-48890000D01*
X93970000Y-58948400D02*
X98071600Y-58948400D01*
X117236400Y-48890000D02*
X116576000Y-48229600D01*
X93970000Y-58948400D02*
X94122400Y-58948400D01*
D34*
%TO.N,GND*%
X105336000Y-47874000D02*
X108384000Y-47874000D01*
%TO.N,+3.3V*%
X122735000Y-42298200D02*
X122722800Y-42286000D01*
X122735000Y-43175000D02*
X122735000Y-42298200D01*
D35*
X125656000Y-46096000D02*
X122735000Y-43175000D01*
D37*
%TO.N,/OLED_SDA*%
X118340800Y-44978400D02*
X122252400Y-44978400D01*
X117655000Y-44292600D02*
X118340800Y-44978400D01*
X117642800Y-42286000D02*
X117655000Y-42298200D01*
X117655000Y-42298200D02*
X117655000Y-44292600D01*
D36*
%TO.N,/ESP32_RX*%
X112956000Y-67394400D02*
X112956000Y-68956000D01*
X126101000Y-65196800D02*
X115153600Y-65196800D01*
X115153600Y-65196800D02*
X112956000Y-67394400D01*
%TO.N,/ESP32_TX*%
X115496000Y-66480000D02*
X115496000Y-68956000D01*
X115814000Y-66162000D02*
X115496000Y-66480000D01*
X123815000Y-66162000D02*
X115814000Y-66162000D01*
D38*
%TO.N,+3.3V*%
X118036000Y-69095200D02*
X118036000Y-67635200D01*
D34*
X118036000Y-67496000D02*
X118049200Y-67482800D01*
D38*
X118036000Y-68790400D02*
X118036000Y-70226000D01*
D34*
X105247600Y-65247600D02*
X103368000Y-65247600D01*
%TO.N,GND*%
X104257800Y-68372600D02*
X103368000Y-68372600D01*
D35*
X103456400Y-77947600D02*
X103430400Y-77921600D01*
X124810900Y-52840100D02*
X123665000Y-53986000D01*
D34*
X104282400Y-68397200D02*
X104257800Y-68372600D01*
X87373800Y-54478000D02*
X87366000Y-54485800D01*
D35*
X103430400Y-76286000D02*
X103430400Y-77921600D01*
D34*
X105196800Y-68397200D02*
X104282400Y-68397200D01*
X87373800Y-51590200D02*
X87373800Y-54478000D01*
D35*
X97930400Y-77908000D02*
X97970000Y-77947600D01*
X97930400Y-76286000D02*
X97930400Y-77908000D01*
%TO.N,+BATT*%
X102200400Y-76286000D02*
X102200400Y-74403000D01*
X99900400Y-73655000D02*
X102948400Y-73655000D01*
X99160400Y-74395000D02*
X99900400Y-73655000D01*
X102200400Y-74403000D02*
X102948400Y-73655000D01*
X99160400Y-76286000D02*
X99160400Y-74395000D01*
D34*
%TO.N,/CRSF_RX_TX*%
X126837600Y-69044400D02*
X126837600Y-73578800D01*
X126926000Y-68956000D02*
X126837600Y-69044400D01*
D36*
%TO.N,/E28_MISO_RX*%
X108892000Y-61463000D02*
X118417000Y-61463000D01*
X118417000Y-61463000D02*
X122227000Y-61463000D01*
%TO.N,/E28_NSS_CTS*%
X118925000Y-58923000D02*
X119687000Y-58923000D01*
X118925000Y-58923000D02*
X108892000Y-58923000D01*
%TO.N,/E28_MISO_TX*%
X128514000Y-60193000D02*
X125402000Y-60193000D01*
X122862000Y-62733000D02*
X108892000Y-62733000D01*
X125402000Y-60193000D02*
X122862000Y-62733000D01*
D37*
%TO.N,/IO25*%
X114734000Y-44076000D02*
X113299600Y-44076000D01*
X113299600Y-44076000D02*
X112956000Y-43732400D01*
X112956000Y-43732400D02*
X112956000Y-42794000D01*
%TO.N,/IO12*%
X111686000Y-46223000D02*
X111686000Y-42794000D01*
D36*
%TO.N,/E28_SCK_RTS*%
X108892000Y-60193000D02*
X118798000Y-60193000D01*
X118798000Y-60193000D02*
X120957000Y-60193000D01*
D37*
%TO.N,/E28_DIO1*%
X104485600Y-61437600D02*
X93970000Y-61437600D01*
X112664400Y-65060169D02*
X108108169Y-65060169D01*
X108108169Y-65060169D02*
X104485600Y-61437600D01*
%TD*%
%TA.AperFunction,Conductor*%
%TO.N,+3.3V*%
G36*
X91226024Y-40501256D02*
G01*
X91243749Y-40503222D01*
X91315018Y-40511130D01*
X91341689Y-40517121D01*
X91419839Y-40544019D01*
X91444548Y-40555711D01*
X91514900Y-40599081D01*
X91536444Y-40615903D01*
X91553685Y-40632735D01*
X91595573Y-40673631D01*
X91612912Y-40694771D01*
X91657956Y-40764060D01*
X91670239Y-40788487D01*
X91681475Y-40818753D01*
X91701472Y-40872622D01*
X91705520Y-40885699D01*
X91721435Y-40949356D01*
X91721436Y-40949358D01*
X92807252Y-45292622D01*
X92807273Y-45292736D01*
X92812496Y-45313619D01*
X92812484Y-45313910D01*
X92851961Y-45471369D01*
X92936632Y-45675975D01*
X92953689Y-45704451D01*
X93050401Y-45865912D01*
X93050416Y-45865936D01*
X93050416Y-45865937D01*
X93190843Y-46037135D01*
X93354878Y-46185873D01*
X93538976Y-46308930D01*
X93739120Y-46403625D01*
X93739123Y-46403626D01*
X93739130Y-46403629D01*
X93882804Y-46447227D01*
X93951013Y-46467927D01*
X93951016Y-46467927D01*
X93951018Y-46467928D01*
X94170049Y-46500432D01*
X94214732Y-46500459D01*
X94214884Y-46500500D01*
X94280764Y-46500500D01*
X94346656Y-46500502D01*
X94346659Y-46500500D01*
X94355279Y-46500501D01*
X94355308Y-46500500D01*
X104644697Y-46500500D01*
X104653338Y-46500500D01*
X104653344Y-46500502D01*
X104667880Y-46500501D01*
X104668059Y-46500553D01*
X104719236Y-46500521D01*
X104719236Y-46500522D01*
X104755056Y-46500500D01*
X104785116Y-46500500D01*
X104793207Y-46500500D01*
X104793549Y-46500475D01*
X104829953Y-46500454D01*
X105048988Y-46467947D01*
X105260880Y-46403642D01*
X105461038Y-46308933D01*
X105551560Y-46248418D01*
X105645129Y-46185869D01*
X105645130Y-46185868D01*
X105809157Y-46037122D01*
X105809159Y-46037120D01*
X105949582Y-45865904D01*
X106063352Y-45675932D01*
X106148006Y-45471318D01*
X106158866Y-45427984D01*
X106158941Y-45427850D01*
X106183728Y-45328703D01*
X106190904Y-45299998D01*
X106190903Y-45299997D01*
X106792767Y-42892543D01*
X110685499Y-42892543D01*
X110723947Y-43085829D01*
X110723950Y-43085839D01*
X110799364Y-43267907D01*
X110799371Y-43267920D01*
X110908859Y-43431780D01*
X110908860Y-43431781D01*
X110908861Y-43431782D01*
X111024182Y-43547103D01*
X111057666Y-43608424D01*
X111060500Y-43634783D01*
X111060500Y-45523638D01*
X111040815Y-45590677D01*
X111024181Y-45611319D01*
X110986538Y-45648961D01*
X110986535Y-45648965D01*
X110887990Y-45796446D01*
X110887983Y-45796459D01*
X110820106Y-45960332D01*
X110820103Y-45960341D01*
X110785500Y-46134304D01*
X110785500Y-46311695D01*
X110820103Y-46485658D01*
X110820106Y-46485667D01*
X110887983Y-46649540D01*
X110887990Y-46649553D01*
X110986535Y-46797034D01*
X110986538Y-46797038D01*
X111111961Y-46922461D01*
X111111965Y-46922464D01*
X111259446Y-47021009D01*
X111259459Y-47021016D01*
X111382363Y-47071923D01*
X111423334Y-47088894D01*
X111423336Y-47088894D01*
X111423341Y-47088896D01*
X111597304Y-47123499D01*
X111597307Y-47123500D01*
X111597309Y-47123500D01*
X111774693Y-47123500D01*
X111774694Y-47123499D01*
X111873654Y-47103815D01*
X111948658Y-47088896D01*
X111948661Y-47088894D01*
X111948666Y-47088894D01*
X112112547Y-47021013D01*
X112260035Y-46922464D01*
X112385464Y-46797035D01*
X112484013Y-46649547D01*
X112484639Y-46648037D01*
X112493958Y-46625535D01*
X112551894Y-46485666D01*
X112555423Y-46467928D01*
X112586499Y-46311695D01*
X112586500Y-46311693D01*
X112586500Y-46134306D01*
X112586499Y-46134304D01*
X112551896Y-45960341D01*
X112551893Y-45960332D01*
X112484016Y-45796459D01*
X112484009Y-45796446D01*
X112385464Y-45648965D01*
X112385461Y-45648961D01*
X112347819Y-45611319D01*
X112314334Y-45549996D01*
X112311500Y-45523638D01*
X112311500Y-44271854D01*
X112317737Y-44250610D01*
X112319317Y-44228523D01*
X112327390Y-44217737D01*
X112331185Y-44204815D01*
X112347916Y-44190317D01*
X112361187Y-44172589D01*
X112373809Y-44167880D01*
X112383989Y-44159060D01*
X112405904Y-44155908D01*
X112426651Y-44148170D01*
X112439814Y-44151033D01*
X112453147Y-44149116D01*
X112473287Y-44158313D01*
X112494924Y-44163020D01*
X112512651Y-44176290D01*
X112516703Y-44178141D01*
X112523179Y-44184170D01*
X112557267Y-44218258D01*
X112557270Y-44218260D01*
X112561607Y-44222597D01*
X112810616Y-44471606D01*
X112810645Y-44471637D01*
X112900864Y-44561856D01*
X112900867Y-44561858D01*
X112958699Y-44600500D01*
X113003315Y-44630312D01*
X113069997Y-44657932D01*
X113074940Y-44659979D01*
X113074945Y-44659982D01*
X113109114Y-44674135D01*
X113117148Y-44677463D01*
X113177571Y-44689481D01*
X113237993Y-44701500D01*
X113237994Y-44701500D01*
X114034639Y-44701500D01*
X114101678Y-44721185D01*
X114122321Y-44737820D01*
X114159961Y-44775461D01*
X114159965Y-44775464D01*
X114307446Y-44874009D01*
X114307459Y-44874016D01*
X114430363Y-44924923D01*
X114471334Y-44941894D01*
X114471336Y-44941894D01*
X114471341Y-44941896D01*
X114645304Y-44976499D01*
X114645307Y-44976500D01*
X114645309Y-44976500D01*
X114822693Y-44976500D01*
X114822694Y-44976499D01*
X114880682Y-44964964D01*
X114996658Y-44941896D01*
X114996661Y-44941894D01*
X114996666Y-44941894D01*
X115160547Y-44874013D01*
X115308035Y-44775464D01*
X115433464Y-44650035D01*
X115532013Y-44502547D01*
X115599894Y-44338666D01*
X115600979Y-44333215D01*
X115631378Y-44180387D01*
X115634500Y-44164691D01*
X115634500Y-43987309D01*
X115634500Y-43987306D01*
X115634499Y-43987304D01*
X115599896Y-43813341D01*
X115599893Y-43813332D01*
X115591888Y-43794007D01*
X115579141Y-43763231D01*
X115532016Y-43649459D01*
X115532009Y-43649446D01*
X115433464Y-43501965D01*
X115433461Y-43501961D01*
X115308038Y-43376538D01*
X115308034Y-43376535D01*
X115160553Y-43277990D01*
X115160540Y-43277983D01*
X114996667Y-43210106D01*
X114996658Y-43210103D01*
X114822694Y-43175500D01*
X114822691Y-43175500D01*
X114645309Y-43175500D01*
X114645306Y-43175500D01*
X114471341Y-43210103D01*
X114471332Y-43210106D01*
X114307459Y-43277983D01*
X114307446Y-43277990D01*
X114159957Y-43376540D01*
X114159154Y-43377200D01*
X114158651Y-43377413D01*
X114154900Y-43379920D01*
X114154424Y-43379208D01*
X114094841Y-43404507D01*
X114025975Y-43392708D01*
X113974420Y-43345551D01*
X113956499Y-43281342D01*
X113956499Y-42246128D01*
X113950091Y-42186517D01*
X113940712Y-42161371D01*
X113899797Y-42051671D01*
X113899793Y-42051664D01*
X113813547Y-41936455D01*
X113813544Y-41936452D01*
X113698335Y-41850206D01*
X113698328Y-41850202D01*
X113563482Y-41799908D01*
X113563483Y-41799908D01*
X113503883Y-41793501D01*
X113503881Y-41793500D01*
X113503873Y-41793500D01*
X113503864Y-41793500D01*
X112408129Y-41793500D01*
X112408123Y-41793501D01*
X112348516Y-41799908D01*
X112213671Y-41850202D01*
X112213670Y-41850203D01*
X112201884Y-41859026D01*
X112136419Y-41883441D01*
X112080124Y-41874318D01*
X111977836Y-41831949D01*
X111977828Y-41831947D01*
X111784543Y-41793500D01*
X111784541Y-41793500D01*
X111587459Y-41793500D01*
X111587457Y-41793500D01*
X111394170Y-41831947D01*
X111394160Y-41831950D01*
X111212092Y-41907364D01*
X111212079Y-41907371D01*
X111048218Y-42016860D01*
X111048214Y-42016863D01*
X110908863Y-42156214D01*
X110908860Y-42156218D01*
X110799371Y-42320079D01*
X110799364Y-42320092D01*
X110723950Y-42502160D01*
X110723947Y-42502170D01*
X110685500Y-42695456D01*
X110685500Y-42695459D01*
X110685500Y-42892541D01*
X110685500Y-42892543D01*
X110685499Y-42892543D01*
X106792767Y-42892543D01*
X107206370Y-41238135D01*
X116292300Y-41238135D01*
X116292300Y-43333870D01*
X116292301Y-43333876D01*
X116298708Y-43393483D01*
X116349002Y-43528328D01*
X116349006Y-43528335D01*
X116435252Y-43643544D01*
X116435255Y-43643547D01*
X116550464Y-43729793D01*
X116550471Y-43729797D01*
X116595418Y-43746561D01*
X116685317Y-43780091D01*
X116744927Y-43786500D01*
X116905500Y-43786499D01*
X116972539Y-43806183D01*
X117018294Y-43858987D01*
X117029500Y-43910499D01*
X117029500Y-44354211D01*
X117053535Y-44475044D01*
X117053540Y-44475061D01*
X117100685Y-44588881D01*
X117100687Y-44588884D01*
X117100688Y-44588886D01*
X117121555Y-44620114D01*
X117169142Y-44691333D01*
X117256267Y-44778458D01*
X117256269Y-44778459D01*
X117266804Y-44788994D01*
X117942063Y-45464255D01*
X117942067Y-45464258D01*
X118044510Y-45532709D01*
X118044511Y-45532709D01*
X118044515Y-45532712D01*
X118102049Y-45556543D01*
X118158348Y-45579863D01*
X118178397Y-45583851D01*
X118248963Y-45597887D01*
X118279192Y-45603901D01*
X118279194Y-45603901D01*
X118408521Y-45603901D01*
X118408541Y-45603900D01*
X121553039Y-45603900D01*
X121620078Y-45623585D01*
X121640721Y-45640220D01*
X121678361Y-45677861D01*
X121678365Y-45677864D01*
X121825846Y-45776409D01*
X121825859Y-45776416D01*
X121948763Y-45827323D01*
X121989734Y-45844294D01*
X121989736Y-45844294D01*
X121989741Y-45844296D01*
X122163704Y-45878899D01*
X122163707Y-45878900D01*
X122163709Y-45878900D01*
X122341093Y-45878900D01*
X122341094Y-45878899D01*
X122406426Y-45865904D01*
X122515058Y-45844296D01*
X122515061Y-45844294D01*
X122515066Y-45844294D01*
X122678947Y-45776413D01*
X122826435Y-45677864D01*
X122951864Y-45552435D01*
X123050413Y-45404947D01*
X123118294Y-45241066D01*
X123121612Y-45224388D01*
X123152899Y-45067095D01*
X123152900Y-45067093D01*
X123152900Y-44889706D01*
X123152899Y-44889704D01*
X123118296Y-44715741D01*
X123118293Y-44715732D01*
X123050416Y-44551859D01*
X123050409Y-44551846D01*
X122951864Y-44404365D01*
X122951861Y-44404361D01*
X122826438Y-44278938D01*
X122826434Y-44278935D01*
X122678953Y-44180390D01*
X122678940Y-44180383D01*
X122515067Y-44112506D01*
X122515058Y-44112503D01*
X122341094Y-44077900D01*
X122341091Y-44077900D01*
X122163709Y-44077900D01*
X122163706Y-44077900D01*
X121989741Y-44112503D01*
X121989732Y-44112506D01*
X121825859Y-44180383D01*
X121825846Y-44180390D01*
X121678365Y-44278935D01*
X121678361Y-44278938D01*
X121640721Y-44316580D01*
X121579399Y-44350066D01*
X121553039Y-44352900D01*
X118651253Y-44352900D01*
X118584214Y-44333215D01*
X118563572Y-44316581D01*
X118316819Y-44069828D01*
X118302115Y-44042900D01*
X118285523Y-44017082D01*
X118284631Y-44010881D01*
X118283334Y-44008505D01*
X118280500Y-43982147D01*
X118280500Y-43910499D01*
X118300185Y-43843460D01*
X118352989Y-43797705D01*
X118404500Y-43786499D01*
X118540671Y-43786499D01*
X118540672Y-43786499D01*
X118600283Y-43780091D01*
X118735131Y-43729796D01*
X118850346Y-43643546D01*
X118936596Y-43528331D01*
X118985610Y-43396916D01*
X119027481Y-43340984D01*
X119092945Y-43316566D01*
X119161218Y-43331417D01*
X119189473Y-43352569D01*
X119303013Y-43466109D01*
X119474979Y-43591048D01*
X119474981Y-43591049D01*
X119474984Y-43591051D01*
X119664388Y-43687557D01*
X119866557Y-43753246D01*
X120076513Y-43786500D01*
X120076514Y-43786500D01*
X120289086Y-43786500D01*
X120289087Y-43786500D01*
X120499043Y-43753246D01*
X120701212Y-43687557D01*
X120890616Y-43591051D01*
X120918023Y-43571139D01*
X121062586Y-43466109D01*
X121062588Y-43466106D01*
X121062592Y-43466104D01*
X121212904Y-43315792D01*
X121212906Y-43315788D01*
X121212909Y-43315786D01*
X121314831Y-43175500D01*
X121337851Y-43143816D01*
X121342593Y-43134508D01*
X121390563Y-43083711D01*
X121458383Y-43066911D01*
X121524519Y-43089445D01*
X121563563Y-43134500D01*
X121568177Y-43143555D01*
X121693072Y-43315459D01*
X121693076Y-43315464D01*
X121843335Y-43465723D01*
X121843340Y-43465727D01*
X122015242Y-43590620D01*
X122204582Y-43687095D01*
X122406671Y-43752757D01*
X122472800Y-43763231D01*
X122472800Y-42719012D01*
X122529807Y-42751925D01*
X122656974Y-42786000D01*
X122788626Y-42786000D01*
X122915793Y-42751925D01*
X122972800Y-42719012D01*
X122972800Y-43763230D01*
X123038926Y-43752757D01*
X123038929Y-43752757D01*
X123241017Y-43687095D01*
X123430357Y-43590620D01*
X123602259Y-43465727D01*
X123602264Y-43465723D01*
X123752523Y-43315464D01*
X123752527Y-43315459D01*
X123877420Y-43143558D01*
X123882032Y-43134507D01*
X123930005Y-43083709D01*
X123997825Y-43066912D01*
X124063961Y-43089447D01*
X124103004Y-43134504D01*
X124107749Y-43143817D01*
X124232690Y-43315786D01*
X124383013Y-43466109D01*
X124554979Y-43591048D01*
X124554981Y-43591049D01*
X124554984Y-43591051D01*
X124744388Y-43687557D01*
X124946557Y-43753246D01*
X125156513Y-43786500D01*
X125156514Y-43786500D01*
X125369086Y-43786500D01*
X125369087Y-43786500D01*
X125579043Y-43753246D01*
X125781212Y-43687557D01*
X125970616Y-43591051D01*
X125998023Y-43571139D01*
X126142586Y-43466109D01*
X126142588Y-43466106D01*
X126142592Y-43466104D01*
X126292904Y-43315792D01*
X126292906Y-43315788D01*
X126292909Y-43315786D01*
X126415870Y-43146543D01*
X130624499Y-43146543D01*
X130662947Y-43339829D01*
X130662950Y-43339839D01*
X130738364Y-43521907D01*
X130738371Y-43521920D01*
X130847860Y-43685781D01*
X130847863Y-43685785D01*
X130987214Y-43825136D01*
X130987218Y-43825139D01*
X131151079Y-43934628D01*
X131151092Y-43934635D01*
X131333160Y-44010049D01*
X131333165Y-44010051D01*
X131333169Y-44010051D01*
X131333170Y-44010052D01*
X131526456Y-44048500D01*
X131526459Y-44048500D01*
X131723543Y-44048500D01*
X131881488Y-44017082D01*
X131916835Y-44010051D01*
X132019126Y-43967680D01*
X132088590Y-43960212D01*
X132140886Y-43982975D01*
X132146668Y-43987304D01*
X132152668Y-43991795D01*
X132152671Y-43991797D01*
X132287517Y-44042091D01*
X132287516Y-44042091D01*
X132294444Y-44042835D01*
X132347127Y-44048500D01*
X133442872Y-44048499D01*
X133502483Y-44042091D01*
X133637331Y-43991796D01*
X133752546Y-43905546D01*
X133838796Y-43790331D01*
X133889091Y-43655483D01*
X133895500Y-43595873D01*
X133895499Y-42500128D01*
X133889091Y-42440517D01*
X133877790Y-42410218D01*
X133838797Y-42305671D01*
X133838793Y-42305664D01*
X133752547Y-42190455D01*
X133752544Y-42190452D01*
X133637335Y-42104206D01*
X133637328Y-42104202D01*
X133502482Y-42053908D01*
X133502483Y-42053908D01*
X133442883Y-42047501D01*
X133442881Y-42047500D01*
X133442873Y-42047500D01*
X133442864Y-42047500D01*
X132347129Y-42047500D01*
X132347123Y-42047501D01*
X132287516Y-42053908D01*
X132152671Y-42104202D01*
X132152670Y-42104203D01*
X132140884Y-42113026D01*
X132075419Y-42137441D01*
X132019124Y-42128318D01*
X131916836Y-42085949D01*
X131916828Y-42085947D01*
X131723543Y-42047500D01*
X131723541Y-42047500D01*
X131526459Y-42047500D01*
X131526457Y-42047500D01*
X131333170Y-42085947D01*
X131333160Y-42085950D01*
X131151092Y-42161364D01*
X131151079Y-42161371D01*
X130987218Y-42270860D01*
X130987214Y-42270863D01*
X130847863Y-42410214D01*
X130847860Y-42410218D01*
X130738371Y-42574079D01*
X130738364Y-42574092D01*
X130662950Y-42756160D01*
X130662947Y-42756170D01*
X130624500Y-42949456D01*
X130624500Y-42949459D01*
X130624500Y-43146541D01*
X130624500Y-43146543D01*
X130624499Y-43146543D01*
X126415870Y-43146543D01*
X126417848Y-43143820D01*
X126417847Y-43143820D01*
X126417851Y-43143816D01*
X126514357Y-42954412D01*
X126580046Y-42752243D01*
X126613300Y-42542287D01*
X126613300Y-42029713D01*
X126580046Y-41819757D01*
X126514357Y-41617588D01*
X126417851Y-41428184D01*
X126417849Y-41428181D01*
X126417848Y-41428179D01*
X126292909Y-41256213D01*
X126142586Y-41105890D01*
X125970620Y-40980951D01*
X125781214Y-40884444D01*
X125781213Y-40884443D01*
X125781212Y-40884443D01*
X125579043Y-40818754D01*
X125579041Y-40818753D01*
X125579040Y-40818753D01*
X125417757Y-40793208D01*
X125369087Y-40785500D01*
X125156513Y-40785500D01*
X125107842Y-40793208D01*
X124946560Y-40818753D01*
X124744385Y-40884444D01*
X124554979Y-40980951D01*
X124383013Y-41105890D01*
X124232690Y-41256213D01*
X124107749Y-41428182D01*
X124103002Y-41437499D01*
X124055027Y-41488293D01*
X123987205Y-41505087D01*
X123921071Y-41482548D01*
X123882034Y-41437495D01*
X123877422Y-41428444D01*
X123752527Y-41256540D01*
X123752523Y-41256535D01*
X123602264Y-41106276D01*
X123602259Y-41106272D01*
X123430357Y-40981379D01*
X123241015Y-40884903D01*
X123038924Y-40819241D01*
X122972800Y-40808768D01*
X122972800Y-41852988D01*
X122915793Y-41820075D01*
X122788626Y-41786000D01*
X122656974Y-41786000D01*
X122529807Y-41820075D01*
X122472800Y-41852988D01*
X122472800Y-40808768D01*
X122472799Y-40808768D01*
X122406675Y-40819241D01*
X122204584Y-40884903D01*
X122015242Y-40981379D01*
X121843340Y-41106272D01*
X121843335Y-41106276D01*
X121693076Y-41256535D01*
X121693072Y-41256540D01*
X121568178Y-41428443D01*
X121563562Y-41437502D01*
X121515584Y-41488295D01*
X121447763Y-41505087D01*
X121381629Y-41482546D01*
X121342594Y-41437493D01*
X121337851Y-41428184D01*
X121337849Y-41428181D01*
X121337848Y-41428179D01*
X121212909Y-41256213D01*
X121062586Y-41105890D01*
X120890620Y-40980951D01*
X120701214Y-40884444D01*
X120701213Y-40884443D01*
X120701212Y-40884443D01*
X120499043Y-40818754D01*
X120499041Y-40818753D01*
X120499040Y-40818753D01*
X120337757Y-40793208D01*
X120289087Y-40785500D01*
X120076513Y-40785500D01*
X120027842Y-40793208D01*
X119866560Y-40818753D01*
X119664385Y-40884444D01*
X119474979Y-40980951D01*
X119303015Y-41105889D01*
X119189473Y-41219431D01*
X119128150Y-41252915D01*
X119058458Y-41247931D01*
X119002525Y-41206059D01*
X118985610Y-41175082D01*
X118936597Y-41043671D01*
X118936593Y-41043664D01*
X118850347Y-40928455D01*
X118850344Y-40928452D01*
X118735135Y-40842206D01*
X118735128Y-40842202D01*
X118600282Y-40791908D01*
X118600283Y-40791908D01*
X118540683Y-40785501D01*
X118540681Y-40785500D01*
X118540673Y-40785500D01*
X118540664Y-40785500D01*
X116744929Y-40785500D01*
X116744923Y-40785501D01*
X116685316Y-40791908D01*
X116550471Y-40842202D01*
X116550464Y-40842206D01*
X116435255Y-40928452D01*
X116435252Y-40928455D01*
X116349006Y-41043664D01*
X116349002Y-41043671D01*
X116298708Y-41178517D01*
X116292301Y-41238116D01*
X116292300Y-41238135D01*
X107206370Y-41238135D01*
X107294531Y-40885491D01*
X107298570Y-40872444D01*
X107329743Y-40788469D01*
X107342018Y-40764058D01*
X107387073Y-40694751D01*
X107404399Y-40673627D01*
X107463545Y-40615882D01*
X107485081Y-40599066D01*
X107555449Y-40555686D01*
X107580153Y-40543998D01*
X107658299Y-40517103D01*
X107684975Y-40511109D01*
X107773777Y-40501256D01*
X107787452Y-40500500D01*
X135471696Y-40500500D01*
X135538735Y-40520185D01*
X135584490Y-40572989D01*
X135594434Y-40642147D01*
X135565409Y-40705703D01*
X135537668Y-40729494D01*
X135434837Y-40794107D01*
X135197696Y-40983220D01*
X134983220Y-41197696D01*
X134794107Y-41434837D01*
X134632733Y-41691661D01*
X134501133Y-41964931D01*
X134400957Y-42251216D01*
X134400953Y-42251228D01*
X134333460Y-42546937D01*
X134333457Y-42546951D01*
X134299500Y-42848336D01*
X134299500Y-43151663D01*
X134333457Y-43453048D01*
X134333459Y-43453060D01*
X134333460Y-43453063D01*
X134336437Y-43466104D01*
X134400953Y-43748771D01*
X134400957Y-43748783D01*
X134501133Y-44035068D01*
X134632733Y-44308338D01*
X134651790Y-44338667D01*
X134794108Y-44565164D01*
X134914182Y-44715732D01*
X134972606Y-44788994D01*
X134983221Y-44802304D01*
X135197696Y-45016779D01*
X135434836Y-45205892D01*
X135691659Y-45367265D01*
X135964935Y-45498868D01*
X136118030Y-45552438D01*
X136251216Y-45599042D01*
X136251228Y-45599046D01*
X136546937Y-45666540D01*
X136546946Y-45666541D01*
X136546951Y-45666542D01*
X136747874Y-45689180D01*
X136848337Y-45700499D01*
X136848340Y-45700500D01*
X136848343Y-45700500D01*
X137151660Y-45700500D01*
X137151661Y-45700499D01*
X137305694Y-45683144D01*
X137453048Y-45666542D01*
X137453051Y-45666541D01*
X137453063Y-45666540D01*
X137748772Y-45599046D01*
X138035065Y-45498868D01*
X138308341Y-45367265D01*
X138565164Y-45205892D01*
X138802304Y-45016779D01*
X139016779Y-44802304D01*
X139205892Y-44565164D01*
X139270506Y-44462330D01*
X139322840Y-44416040D01*
X139391894Y-44405391D01*
X139455742Y-44433766D01*
X139494115Y-44492156D01*
X139499500Y-44528303D01*
X139499500Y-45212351D01*
X139498744Y-45226026D01*
X139488868Y-45315034D01*
X139482875Y-45341709D01*
X139455980Y-45419861D01*
X139444286Y-45444578D01*
X139400916Y-45514937D01*
X139384089Y-45536490D01*
X139326351Y-45595634D01*
X139305213Y-45612972D01*
X139235921Y-45658025D01*
X139211492Y-45670312D01*
X139127988Y-45701318D01*
X139114899Y-45705371D01*
X134707373Y-46807252D01*
X134707263Y-46807273D01*
X134686379Y-46812496D01*
X134686088Y-46812484D01*
X134528630Y-46851961D01*
X134324024Y-46936632D01*
X134134063Y-47050416D01*
X134134062Y-47050416D01*
X133962864Y-47190843D01*
X133814126Y-47354878D01*
X133691069Y-47538976D01*
X133596374Y-47739120D01*
X133596372Y-47739127D01*
X133532072Y-47951013D01*
X133499568Y-48170046D01*
X133499568Y-48170049D01*
X133499540Y-48214732D01*
X133499500Y-48214884D01*
X133499500Y-48280689D01*
X133499500Y-48280767D01*
X133499498Y-48355279D01*
X133499500Y-48355308D01*
X133499500Y-61645737D01*
X133499499Y-61653338D01*
X133499498Y-61653344D01*
X133499498Y-61664226D01*
X133499498Y-61667885D01*
X133499446Y-61668061D01*
X133499500Y-61755055D01*
X133499500Y-61792777D01*
X133499522Y-61793135D01*
X133499546Y-61829953D01*
X133532053Y-62048991D01*
X133596358Y-62260879D01*
X133691063Y-62461031D01*
X133691069Y-62461042D01*
X133814130Y-62645129D01*
X133814131Y-62645130D01*
X133962877Y-62809157D01*
X133962880Y-62809159D01*
X134134096Y-62949582D01*
X134324068Y-63063352D01*
X134528682Y-63148006D01*
X134564017Y-63156861D01*
X134564659Y-63157068D01*
X134572149Y-63158940D01*
X134572150Y-63158941D01*
X139057223Y-64280209D01*
X139057225Y-64280210D01*
X139114496Y-64294527D01*
X139127554Y-64298569D01*
X139211526Y-64329741D01*
X139235944Y-64342020D01*
X139305244Y-64387070D01*
X139326376Y-64404403D01*
X139384112Y-64463540D01*
X139400937Y-64485087D01*
X139436926Y-64543466D01*
X139444308Y-64555441D01*
X139456003Y-64580159D01*
X139482896Y-64658299D01*
X139488889Y-64684976D01*
X139498743Y-64773774D01*
X139499500Y-64787450D01*
X139499500Y-77471696D01*
X139479815Y-77538735D01*
X139427011Y-77584490D01*
X139357853Y-77594434D01*
X139294297Y-77565409D01*
X139270506Y-77537668D01*
X139246797Y-77499936D01*
X139205892Y-77434836D01*
X139016779Y-77197696D01*
X138802304Y-76983221D01*
X138565164Y-76794108D01*
X138308341Y-76632735D01*
X138308338Y-76632733D01*
X138035068Y-76501133D01*
X137748783Y-76400957D01*
X137748771Y-76400953D01*
X137520556Y-76348864D01*
X137453063Y-76333460D01*
X137453060Y-76333459D01*
X137453048Y-76333457D01*
X137151663Y-76299500D01*
X137151657Y-76299500D01*
X136848343Y-76299500D01*
X136848336Y-76299500D01*
X136546951Y-76333457D01*
X136546937Y-76333460D01*
X136251228Y-76400953D01*
X136251216Y-76400957D01*
X135964931Y-76501133D01*
X135691661Y-76632733D01*
X135434837Y-76794107D01*
X135197696Y-76983220D01*
X134983220Y-77197696D01*
X134794107Y-77434837D01*
X134667094Y-77636977D01*
X134614759Y-77683268D01*
X134545706Y-77693916D01*
X134481857Y-77665541D01*
X134443485Y-77607151D01*
X134438100Y-77571005D01*
X134438100Y-77361997D01*
X134438099Y-77361984D01*
X134435954Y-77340992D01*
X134427599Y-77259203D01*
X134372414Y-77092666D01*
X134358494Y-77070099D01*
X134280313Y-76943348D01*
X134280310Y-76943344D01*
X134156255Y-76819289D01*
X134156251Y-76819286D01*
X134006937Y-76727187D01*
X134006935Y-76727186D01*
X133923665Y-76699593D01*
X133840397Y-76672001D01*
X133840395Y-76672000D01*
X133737615Y-76661500D01*
X133737608Y-76661500D01*
X132637592Y-76661500D01*
X132637584Y-76661500D01*
X132534804Y-76672000D01*
X132534803Y-76672001D01*
X132368264Y-76727186D01*
X132368262Y-76727187D01*
X132218948Y-76819286D01*
X132218944Y-76819289D01*
X132094889Y-76943344D01*
X132094886Y-76943348D01*
X132002787Y-77092662D01*
X132002786Y-77092664D01*
X131947601Y-77259203D01*
X131947600Y-77259204D01*
X131937100Y-77361984D01*
X131937100Y-80362015D01*
X131947600Y-80464795D01*
X131947601Y-80464796D01*
X132002786Y-80631335D01*
X132002787Y-80631337D01*
X132094886Y-80780651D01*
X132094889Y-80780655D01*
X132218944Y-80904710D01*
X132218948Y-80904713D01*
X132368262Y-80996812D01*
X132368264Y-80996813D01*
X132368266Y-80996814D01*
X132534803Y-81051999D01*
X132637592Y-81062500D01*
X132637597Y-81062500D01*
X133737603Y-81062500D01*
X133737608Y-81062500D01*
X133840397Y-81051999D01*
X134006934Y-80996814D01*
X134156255Y-80904711D01*
X134280311Y-80780655D01*
X134372414Y-80631334D01*
X134427599Y-80464797D01*
X134433410Y-80407906D01*
X134459805Y-80343217D01*
X134516985Y-80303065D01*
X134586796Y-80300201D01*
X134647073Y-80335534D01*
X134661762Y-80354538D01*
X134717847Y-80443796D01*
X134794108Y-80565164D01*
X134873365Y-80664549D01*
X134949209Y-80759655D01*
X134983221Y-80802304D01*
X135197696Y-81016779D01*
X135434836Y-81205892D01*
X135478933Y-81233600D01*
X135537668Y-81270506D01*
X135583959Y-81322841D01*
X135594607Y-81391894D01*
X135566232Y-81455743D01*
X135507842Y-81494115D01*
X135471696Y-81499500D01*
X105965659Y-81499500D01*
X105898620Y-81479815D01*
X105852865Y-81427011D01*
X105842921Y-81357853D01*
X105862557Y-81306610D01*
X105911340Y-81233600D01*
X105911340Y-81233599D01*
X105911341Y-81233598D01*
X105990530Y-81042420D01*
X106030900Y-80839465D01*
X106030900Y-79932535D01*
X105990530Y-79729580D01*
X105911341Y-79538402D01*
X105796377Y-79366345D01*
X105796375Y-79366342D01*
X105650057Y-79220024D01*
X105515117Y-79129861D01*
X105477998Y-79105059D01*
X105465543Y-79099900D01*
X105286820Y-79025870D01*
X105286812Y-79025868D01*
X105083869Y-78985500D01*
X105083865Y-78985500D01*
X104876935Y-78985500D01*
X104876930Y-78985500D01*
X104673987Y-79025868D01*
X104673979Y-79025870D01*
X104482803Y-79105058D01*
X104310742Y-79220024D01*
X104164424Y-79366342D01*
X104049458Y-79538403D01*
X103970270Y-79729579D01*
X103970268Y-79729587D01*
X103929900Y-79932530D01*
X103929900Y-80839469D01*
X103970268Y-81042412D01*
X103970270Y-81042420D01*
X104049459Y-81233599D01*
X104049459Y-81233600D01*
X104098243Y-81306610D01*
X104119121Y-81373287D01*
X104100636Y-81440667D01*
X104048657Y-81487357D01*
X103995141Y-81499500D01*
X97365659Y-81499500D01*
X97298620Y-81479815D01*
X97252865Y-81427011D01*
X97242921Y-81357853D01*
X97262557Y-81306610D01*
X97311340Y-81233600D01*
X97311340Y-81233599D01*
X97311341Y-81233598D01*
X97390530Y-81042420D01*
X97430900Y-80839465D01*
X97430900Y-79932535D01*
X97390530Y-79729580D01*
X97311341Y-79538402D01*
X97196377Y-79366345D01*
X97196375Y-79366342D01*
X97050057Y-79220024D01*
X96915117Y-79129861D01*
X96877998Y-79105059D01*
X96865543Y-79099900D01*
X96686820Y-79025870D01*
X96686812Y-79025868D01*
X96483869Y-78985500D01*
X96483865Y-78985500D01*
X96276935Y-78985500D01*
X96276930Y-78985500D01*
X96073987Y-79025868D01*
X96073979Y-79025870D01*
X95882803Y-79105058D01*
X95710742Y-79220024D01*
X95564424Y-79366342D01*
X95449458Y-79538403D01*
X95370270Y-79729579D01*
X95370268Y-79729587D01*
X95329900Y-79932530D01*
X95329900Y-80839469D01*
X95370268Y-81042412D01*
X95370270Y-81042420D01*
X95449459Y-81233599D01*
X95449459Y-81233600D01*
X95498243Y-81306610D01*
X95519121Y-81373287D01*
X95500636Y-81440667D01*
X95448657Y-81487357D01*
X95395141Y-81499500D01*
X84528304Y-81499500D01*
X84461265Y-81479815D01*
X84415510Y-81427011D01*
X84405566Y-81357853D01*
X84434591Y-81294297D01*
X84462332Y-81270506D01*
X84476833Y-81261394D01*
X84565164Y-81205892D01*
X84802304Y-81016779D01*
X85016779Y-80802304D01*
X85205892Y-80565164D01*
X85367265Y-80308341D01*
X85498868Y-80035065D01*
X85599046Y-79748772D01*
X85666540Y-79453063D01*
X85700495Y-79151698D01*
X87394900Y-79151698D01*
X87394900Y-80549103D01*
X87410096Y-80664542D01*
X87410099Y-80664551D01*
X87467158Y-80802304D01*
X87469600Y-80808198D01*
X87564251Y-80931549D01*
X87687602Y-81026200D01*
X87831249Y-81085701D01*
X87946699Y-81100900D01*
X88744100Y-81100899D01*
X88744103Y-81100899D01*
X88859542Y-81085703D01*
X88859546Y-81085701D01*
X88859551Y-81085701D01*
X89003198Y-81026200D01*
X89126549Y-80931549D01*
X89221200Y-80808198D01*
X89280701Y-80664551D01*
X89295900Y-80549101D01*
X89295899Y-79403899D01*
X89315584Y-79336861D01*
X89368387Y-79291106D01*
X89419899Y-79279900D01*
X89600493Y-79279900D01*
X89600494Y-79279899D01*
X89658482Y-79268364D01*
X89774458Y-79245296D01*
X89774461Y-79245294D01*
X89774466Y-79245294D01*
X89938347Y-79177413D01*
X89976832Y-79151698D01*
X90694900Y-79151698D01*
X90694900Y-80549103D01*
X90710096Y-80664542D01*
X90710099Y-80664551D01*
X90767158Y-80802304D01*
X90769600Y-80808198D01*
X90864251Y-80931549D01*
X90987602Y-81026200D01*
X91131249Y-81085701D01*
X91246699Y-81100900D01*
X92044100Y-81100899D01*
X92044103Y-81100899D01*
X92159542Y-81085703D01*
X92159546Y-81085701D01*
X92159551Y-81085701D01*
X92303198Y-81026200D01*
X92426549Y-80931549D01*
X92521200Y-80808198D01*
X92580701Y-80664551D01*
X92595900Y-80549101D01*
X92595899Y-79151700D01*
X92595899Y-79151698D01*
X92595899Y-79151696D01*
X92580703Y-79036257D01*
X92580701Y-79036253D01*
X92580701Y-79036249D01*
X92574530Y-79021351D01*
X92571023Y-78988728D01*
X92566354Y-78956253D01*
X92567308Y-78954163D01*
X92567063Y-78951881D01*
X92581742Y-78922555D01*
X92595379Y-78892697D01*
X92597311Y-78891454D01*
X92598339Y-78889403D01*
X92626548Y-78872665D01*
X92654157Y-78854923D01*
X92657186Y-78854487D01*
X92658428Y-78853751D01*
X92689092Y-78849900D01*
X92825238Y-78849900D01*
X92892277Y-78869585D01*
X92912919Y-78886219D01*
X92925561Y-78898861D01*
X92925565Y-78898864D01*
X93073046Y-78997409D01*
X93073059Y-78997416D01*
X93195963Y-79048323D01*
X93236934Y-79065294D01*
X93236936Y-79065294D01*
X93236941Y-79065296D01*
X93410904Y-79099899D01*
X93410907Y-79099900D01*
X93410909Y-79099900D01*
X93588293Y-79099900D01*
X93588294Y-79099899D01*
X93646282Y-79088364D01*
X93762258Y-79065296D01*
X93762261Y-79065294D01*
X93762266Y-79065294D01*
X93926147Y-78997413D01*
X94073635Y-78898864D01*
X94199064Y-78773435D01*
X94297613Y-78625947D01*
X94365494Y-78462066D01*
X94377099Y-78403727D01*
X94400099Y-78288095D01*
X94400100Y-78288093D01*
X94400100Y-78110706D01*
X94400099Y-78110704D01*
X94365496Y-77936741D01*
X94365493Y-77936732D01*
X94297616Y-77772859D01*
X94297609Y-77772846D01*
X94199064Y-77625365D01*
X94199061Y-77625361D01*
X94073638Y-77499938D01*
X94073634Y-77499935D01*
X93926153Y-77401390D01*
X93926140Y-77401383D01*
X93762267Y-77333506D01*
X93762258Y-77333503D01*
X93588294Y-77298900D01*
X93588291Y-77298900D01*
X93410909Y-77298900D01*
X93410906Y-77298900D01*
X93236941Y-77333503D01*
X93236932Y-77333506D01*
X93073059Y-77401383D01*
X93073046Y-77401390D01*
X92925565Y-77499935D01*
X92925561Y-77499938D01*
X92912919Y-77512581D01*
X92851596Y-77546066D01*
X92825238Y-77548900D01*
X92165529Y-77548900D01*
X92039861Y-77573897D01*
X92039851Y-77573900D01*
X92001493Y-77589788D01*
X92001494Y-77589789D01*
X91921477Y-77622932D01*
X91921463Y-77622940D01*
X91814932Y-77694121D01*
X91814925Y-77694127D01*
X91140122Y-78368931D01*
X91140118Y-78368936D01*
X91116873Y-78403727D01*
X91116873Y-78403728D01*
X91068934Y-78475474D01*
X91019898Y-78593857D01*
X91015866Y-78614128D01*
X90983479Y-78676038D01*
X90969736Y-78688308D01*
X90864253Y-78769249D01*
X90864252Y-78769250D01*
X90864251Y-78769251D01*
X90774498Y-78886219D01*
X90769598Y-78892605D01*
X90710099Y-79036248D01*
X90710098Y-79036250D01*
X90694900Y-79151698D01*
X89976832Y-79151698D01*
X90085835Y-79078864D01*
X90085838Y-79078861D01*
X90104741Y-79059959D01*
X90211261Y-78953438D01*
X90211264Y-78953435D01*
X90309813Y-78805947D01*
X90377694Y-78642066D01*
X90378332Y-78638862D01*
X90404819Y-78505698D01*
X90412300Y-78468091D01*
X90412300Y-78290709D01*
X90412300Y-78290706D01*
X90412299Y-78290704D01*
X90377696Y-78116741D01*
X90377693Y-78116732D01*
X90309816Y-77952859D01*
X90309809Y-77952846D01*
X90211264Y-77805365D01*
X90211261Y-77805361D01*
X90085838Y-77679938D01*
X90085834Y-77679935D01*
X89938353Y-77581390D01*
X89938340Y-77581383D01*
X89774467Y-77513506D01*
X89774458Y-77513503D01*
X89600494Y-77478900D01*
X89600491Y-77478900D01*
X89423109Y-77478900D01*
X89423106Y-77478900D01*
X89249141Y-77513503D01*
X89249132Y-77513506D01*
X89085259Y-77581383D01*
X89085246Y-77581390D01*
X88937765Y-77679935D01*
X88937761Y-77679938D01*
X88925119Y-77692581D01*
X88863796Y-77726066D01*
X88837438Y-77728900D01*
X88787329Y-77728900D01*
X88661661Y-77753897D01*
X88661655Y-77753899D01*
X88543274Y-77802934D01*
X88436726Y-77874126D01*
X87840126Y-78470726D01*
X87806111Y-78521634D01*
X87792253Y-78542375D01*
X87768935Y-78577273D01*
X87754198Y-78612848D01*
X87750965Y-78618753D01*
X87730802Y-78638862D01*
X87712929Y-78661042D01*
X87703285Y-78666308D01*
X87701495Y-78668094D01*
X87699046Y-78668623D01*
X87689671Y-78673742D01*
X87687602Y-78674600D01*
X87564251Y-78769251D01*
X87484899Y-78872665D01*
X87469598Y-78892605D01*
X87410099Y-79036248D01*
X87410098Y-79036250D01*
X87394900Y-79151698D01*
X85700495Y-79151698D01*
X85700500Y-79151657D01*
X85700500Y-78848343D01*
X85680924Y-78674599D01*
X85666542Y-78546951D01*
X85666541Y-78546946D01*
X85666540Y-78546937D01*
X85599046Y-78251228D01*
X85582158Y-78202966D01*
X85551987Y-78116741D01*
X85498868Y-77964935D01*
X85367265Y-77691659D01*
X85205892Y-77434836D01*
X85016779Y-77197696D01*
X84802304Y-76983221D01*
X84565164Y-76794108D01*
X84308341Y-76632735D01*
X84308338Y-76632733D01*
X84035068Y-76501133D01*
X83748783Y-76400957D01*
X83748771Y-76400953D01*
X83520556Y-76348864D01*
X83453063Y-76333460D01*
X83453060Y-76333459D01*
X83453048Y-76333457D01*
X83151663Y-76299500D01*
X83151657Y-76299500D01*
X82848343Y-76299500D01*
X82848336Y-76299500D01*
X82546951Y-76333457D01*
X82546937Y-76333460D01*
X82251228Y-76400953D01*
X82251216Y-76400957D01*
X81964931Y-76501133D01*
X81691661Y-76632733D01*
X81434837Y-76794107D01*
X81197696Y-76983220D01*
X80983220Y-77197696D01*
X80794107Y-77434837D01*
X80729494Y-77537668D01*
X80677159Y-77583959D01*
X80608106Y-77594607D01*
X80544257Y-77566232D01*
X80505885Y-77507842D01*
X80500500Y-77471696D01*
X80500500Y-59705713D01*
X81697500Y-59705713D01*
X81697500Y-59918287D01*
X81699171Y-59928835D01*
X81726962Y-60104306D01*
X81730754Y-60128243D01*
X81780613Y-60281693D01*
X81796444Y-60330414D01*
X81892951Y-60519820D01*
X82017890Y-60691786D01*
X82168213Y-60842109D01*
X82340182Y-60967050D01*
X82348946Y-60971516D01*
X82399742Y-61019491D01*
X82416536Y-61087312D01*
X82393998Y-61153447D01*
X82348946Y-61192484D01*
X82340182Y-61196949D01*
X82168213Y-61321890D01*
X82017890Y-61472213D01*
X81892951Y-61644179D01*
X81796444Y-61833585D01*
X81730753Y-62035760D01*
X81710574Y-62163167D01*
X81697500Y-62245713D01*
X81697500Y-62458287D01*
X81699408Y-62470332D01*
X81730753Y-62668239D01*
X81796444Y-62870414D01*
X81892951Y-63059820D01*
X82017890Y-63231786D01*
X82168213Y-63382109D01*
X82340182Y-63507050D01*
X82348946Y-63511516D01*
X82399742Y-63559491D01*
X82416536Y-63627312D01*
X82393998Y-63693447D01*
X82348946Y-63732484D01*
X82340182Y-63736949D01*
X82168213Y-63861890D01*
X82017890Y-64012213D01*
X81892951Y-64184179D01*
X81796444Y-64373585D01*
X81730753Y-64575760D01*
X81697500Y-64785713D01*
X81697500Y-64998286D01*
X81721348Y-65148860D01*
X81730754Y-65208243D01*
X81788041Y-65384554D01*
X81796444Y-65410414D01*
X81892951Y-65599820D01*
X82017890Y-65771786D01*
X82017896Y-65771792D01*
X82168208Y-65922104D01*
X82246384Y-65978902D01*
X82289051Y-66034231D01*
X82297500Y-66079220D01*
X82297500Y-67010435D01*
X82277815Y-67077474D01*
X82238597Y-67115973D01*
X82181347Y-67151285D01*
X82181343Y-67151288D01*
X82057289Y-67275342D01*
X81965187Y-67424663D01*
X81965186Y-67424666D01*
X81910001Y-67591203D01*
X81910001Y-67591204D01*
X81910000Y-67591204D01*
X81899500Y-67693983D01*
X81899500Y-68694001D01*
X81899501Y-68694019D01*
X81910000Y-68796796D01*
X81910001Y-68796799D01*
X81956757Y-68937896D01*
X81965186Y-68963334D01*
X82057288Y-69112656D01*
X82181344Y-69236712D01*
X82330666Y-69328814D01*
X82497203Y-69383999D01*
X82599991Y-69394500D01*
X83400008Y-69394499D01*
X83400016Y-69394498D01*
X83400019Y-69394498D01*
X83456302Y-69388748D01*
X83502797Y-69383999D01*
X83669334Y-69328814D01*
X83818656Y-69236712D01*
X83912319Y-69143049D01*
X83973642Y-69109564D01*
X84043334Y-69114548D01*
X84087681Y-69143049D01*
X84181344Y-69236712D01*
X84330666Y-69328814D01*
X84497203Y-69383999D01*
X84599991Y-69394500D01*
X85400008Y-69394499D01*
X85400016Y-69394498D01*
X85400019Y-69394498D01*
X85456302Y-69388748D01*
X85502797Y-69383999D01*
X85669334Y-69328814D01*
X85818656Y-69236712D01*
X85942712Y-69112656D01*
X86034814Y-68963334D01*
X86089999Y-68796797D01*
X86100500Y-68694009D01*
X86100499Y-67693992D01*
X86092580Y-67616474D01*
X86089999Y-67591203D01*
X86089998Y-67591200D01*
X86070150Y-67531303D01*
X86034814Y-67424666D01*
X85942712Y-67275344D01*
X85818656Y-67151288D01*
X85818655Y-67151287D01*
X85809402Y-67145580D01*
X85762678Y-67093632D01*
X85750500Y-67040042D01*
X85750500Y-64962727D01*
X85770185Y-64895688D01*
X85822989Y-64849933D01*
X85892147Y-64839989D01*
X85898692Y-64841110D01*
X85958968Y-64853100D01*
X85958971Y-64853100D01*
X97936994Y-64853100D01*
X98004033Y-64872785D01*
X98024675Y-64889419D01*
X98804681Y-65669425D01*
X98838166Y-65730748D01*
X98841000Y-65757106D01*
X98841000Y-69163500D01*
X98838449Y-69172185D01*
X98839738Y-69181147D01*
X98828759Y-69205187D01*
X98821315Y-69230539D01*
X98814474Y-69236466D01*
X98810713Y-69244703D01*
X98788478Y-69258992D01*
X98768511Y-69276294D01*
X98757996Y-69278581D01*
X98751935Y-69282477D01*
X98717000Y-69287500D01*
X98632328Y-69287500D01*
X98597733Y-69282576D01*
X98452573Y-69240402D01*
X98452567Y-69240401D01*
X98415701Y-69237500D01*
X98415694Y-69237500D01*
X97259306Y-69237500D01*
X97259298Y-69237500D01*
X97222432Y-69240401D01*
X97222426Y-69240402D01*
X97064606Y-69286254D01*
X97064603Y-69286255D01*
X96923137Y-69369917D01*
X96923129Y-69369923D01*
X96806923Y-69486129D01*
X96806914Y-69486140D01*
X96806729Y-69486455D01*
X96806519Y-69486650D01*
X96802139Y-69492298D01*
X96801227Y-69491591D01*
X96755657Y-69534136D01*
X96686915Y-69546637D01*
X96622327Y-69519988D01*
X96598143Y-69492078D01*
X96597861Y-69492298D01*
X96593823Y-69487092D01*
X96593271Y-69486455D01*
X96593085Y-69486140D01*
X96593076Y-69486129D01*
X96476870Y-69369923D01*
X96476862Y-69369917D01*
X96335396Y-69286255D01*
X96335393Y-69286254D01*
X96177573Y-69240402D01*
X96177567Y-69240401D01*
X96140701Y-69237500D01*
X96140694Y-69237500D01*
X94984306Y-69237500D01*
X94984298Y-69237500D01*
X94947432Y-69240401D01*
X94947426Y-69240402D01*
X94802267Y-69282576D01*
X94767672Y-69287500D01*
X94690893Y-69287500D01*
X94623854Y-69267815D01*
X94578099Y-69215011D01*
X94573187Y-69202504D01*
X94563140Y-69172185D01*
X94532814Y-69080666D01*
X94440712Y-68931344D01*
X94316656Y-68807288D01*
X94167334Y-68715186D01*
X94155404Y-68711232D01*
X94097961Y-68671462D01*
X94079850Y-68640983D01*
X94063084Y-68600505D01*
X94063083Y-68600503D01*
X94063082Y-68600501D01*
X93980954Y-68477588D01*
X93980953Y-68477587D01*
X93980951Y-68477584D01*
X93876416Y-68373049D01*
X93751546Y-68248179D01*
X93368421Y-67865052D01*
X93368414Y-67865046D01*
X93282092Y-67807368D01*
X93281993Y-67807303D01*
X93245495Y-67782916D01*
X93245494Y-67782915D01*
X93245492Y-67782914D01*
X93108917Y-67726343D01*
X93108907Y-67726340D01*
X92963920Y-67697500D01*
X92963918Y-67697500D01*
X88625082Y-67697500D01*
X88625081Y-67697500D01*
X88612446Y-67700013D01*
X88599810Y-67702527D01*
X88599809Y-67702527D01*
X88480095Y-67726339D01*
X88480092Y-67726340D01*
X88480088Y-67726341D01*
X88400080Y-67759481D01*
X88400078Y-67759481D01*
X88343506Y-67782915D01*
X88296612Y-67814249D01*
X88220582Y-67865049D01*
X85449048Y-70636583D01*
X85441342Y-70648117D01*
X85411428Y-70692888D01*
X85366919Y-70759499D01*
X85366912Y-70759511D01*
X85310343Y-70896082D01*
X85310340Y-70896092D01*
X85281500Y-71041079D01*
X85281500Y-71041082D01*
X85281500Y-74440118D01*
X85281500Y-74440120D01*
X85281499Y-74440120D01*
X85310340Y-74585107D01*
X85310343Y-74585117D01*
X85366914Y-74721692D01*
X85381683Y-74743795D01*
X85381684Y-74743798D01*
X85449046Y-74844614D01*
X85449052Y-74844621D01*
X85966932Y-75362499D01*
X86137785Y-75533352D01*
X86156921Y-75546138D01*
X86169847Y-75554775D01*
X86260698Y-75615480D01*
X86260711Y-75615487D01*
X86299337Y-75631485D01*
X86317280Y-75638918D01*
X86397288Y-75672059D01*
X86501335Y-75692755D01*
X86535836Y-75699617D01*
X86542281Y-75700900D01*
X86542282Y-75700900D01*
X86542283Y-75700900D01*
X86690118Y-75700900D01*
X87300880Y-75700900D01*
X87367919Y-75720585D01*
X87413674Y-75773389D01*
X87415441Y-75777447D01*
X87469075Y-75906932D01*
X87469600Y-75908198D01*
X87564251Y-76031549D01*
X87687602Y-76126200D01*
X87831249Y-76185701D01*
X87946699Y-76200900D01*
X88744100Y-76200899D01*
X88744103Y-76200899D01*
X88859542Y-76185703D01*
X88859546Y-76185701D01*
X88859551Y-76185701D01*
X89003198Y-76126200D01*
X89126549Y-76031549D01*
X89221200Y-75908198D01*
X89280701Y-75764551D01*
X89295900Y-75649101D01*
X89295899Y-75115606D01*
X89315583Y-75048569D01*
X89368387Y-75002814D01*
X89437546Y-74992870D01*
X89501102Y-75021895D01*
X89507580Y-75027927D01*
X89935325Y-75455672D01*
X89935332Y-75455678D01*
X90041863Y-75526859D01*
X90041867Y-75526861D01*
X90041874Y-75526866D01*
X90094889Y-75548825D01*
X90160256Y-75575901D01*
X90160260Y-75575901D01*
X90160261Y-75575902D01*
X90285928Y-75600900D01*
X90285931Y-75600900D01*
X90285932Y-75600900D01*
X90414069Y-75600900D01*
X90579809Y-75600900D01*
X90646848Y-75620585D01*
X90692603Y-75673389D01*
X90702748Y-75708716D01*
X90710097Y-75764542D01*
X90710099Y-75764551D01*
X90769075Y-75906932D01*
X90769600Y-75908198D01*
X90864251Y-76031549D01*
X90987602Y-76126200D01*
X91131249Y-76185701D01*
X91246699Y-76200900D01*
X92044100Y-76200899D01*
X92044103Y-76200899D01*
X92159542Y-76185703D01*
X92159546Y-76185701D01*
X92159551Y-76185701D01*
X92303198Y-76126200D01*
X92426549Y-76031549D01*
X92521200Y-75908198D01*
X92580701Y-75764551D01*
X92595900Y-75649101D01*
X92595899Y-74251700D01*
X92595899Y-74251699D01*
X92595899Y-74251696D01*
X92580703Y-74136257D01*
X92580701Y-74136252D01*
X92580701Y-74136249D01*
X92521200Y-73992602D01*
X92426549Y-73869251D01*
X92303198Y-73774600D01*
X92303194Y-73774598D01*
X92159551Y-73715099D01*
X92159549Y-73715098D01*
X92044101Y-73699900D01*
X91246696Y-73699900D01*
X91131257Y-73715096D01*
X91131248Y-73715099D01*
X90987605Y-73774598D01*
X90987602Y-73774599D01*
X90987602Y-73774600D01*
X90864251Y-73869251D01*
X90824701Y-73920794D01*
X90769598Y-73992605D01*
X90708364Y-74140437D01*
X90708353Y-74140597D01*
X90708230Y-74140760D01*
X90706989Y-74143758D01*
X90706223Y-74143441D01*
X90690803Y-74164040D01*
X90675554Y-74189042D01*
X90670107Y-74191685D01*
X90666481Y-74196530D01*
X90639046Y-74206762D01*
X90612698Y-74219552D01*
X90606688Y-74218831D01*
X90601017Y-74220947D01*
X90572402Y-74214722D01*
X90543325Y-74211237D01*
X90537143Y-74207052D01*
X90532744Y-74206095D01*
X90504490Y-74184944D01*
X90503419Y-74183873D01*
X90469934Y-74122550D01*
X90467100Y-74096192D01*
X90467100Y-72913599D01*
X90486785Y-72846560D01*
X90539589Y-72800805D01*
X90608747Y-72790861D01*
X90630088Y-72795889D01*
X90763203Y-72839999D01*
X90865991Y-72850500D01*
X91866008Y-72850499D01*
X91866016Y-72850498D01*
X91866019Y-72850498D01*
X91922302Y-72844748D01*
X91968797Y-72839999D01*
X92135334Y-72784814D01*
X92284656Y-72692712D01*
X92294319Y-72683049D01*
X92355642Y-72649564D01*
X92425334Y-72654548D01*
X92469681Y-72683049D01*
X92479344Y-72692712D01*
X92628666Y-72784814D01*
X92795203Y-72839999D01*
X92897991Y-72850500D01*
X93898008Y-72850499D01*
X93898016Y-72850498D01*
X93898019Y-72850498D01*
X93954302Y-72844748D01*
X94000797Y-72839999D01*
X94167334Y-72784814D01*
X94283916Y-72712906D01*
X94293555Y-72706961D01*
X94358651Y-72688500D01*
X94767672Y-72688500D01*
X94802267Y-72693424D01*
X94947426Y-72735597D01*
X94947429Y-72735597D01*
X94947431Y-72735598D01*
X94984306Y-72738500D01*
X94984314Y-72738500D01*
X96140686Y-72738500D01*
X96140694Y-72738500D01*
X96177569Y-72735598D01*
X96177571Y-72735597D01*
X96177573Y-72735597D01*
X96219191Y-72723505D01*
X96335398Y-72689744D01*
X96476865Y-72606081D01*
X96593081Y-72489865D01*
X96593267Y-72489549D01*
X96593477Y-72489353D01*
X96597861Y-72483702D01*
X96598772Y-72484409D01*
X96644336Y-72441866D01*
X96713077Y-72429362D01*
X96777667Y-72456006D01*
X96801855Y-72483921D01*
X96802139Y-72483702D01*
X96806179Y-72488911D01*
X96806732Y-72489548D01*
X96806919Y-72489865D01*
X96806921Y-72489867D01*
X96806923Y-72489870D01*
X96923129Y-72606076D01*
X96923133Y-72606079D01*
X96923135Y-72606081D01*
X97064602Y-72689744D01*
X97074811Y-72692710D01*
X97222426Y-72735597D01*
X97222429Y-72735597D01*
X97222431Y-72735598D01*
X97259306Y-72738500D01*
X97259314Y-72738500D01*
X98415686Y-72738500D01*
X98415694Y-72738500D01*
X98452569Y-72735598D01*
X98452571Y-72735597D01*
X98452573Y-72735597D01*
X98597733Y-72693424D01*
X98632328Y-72688500D01*
X98717000Y-72688500D01*
X98784039Y-72708185D01*
X98829794Y-72760989D01*
X98841000Y-72812500D01*
X98841000Y-73424894D01*
X98821315Y-73491933D01*
X98804681Y-73512575D01*
X98602301Y-73714955D01*
X98547966Y-73769290D01*
X98480353Y-73836902D01*
X98384545Y-73980288D01*
X98384538Y-73980301D01*
X98318546Y-74139621D01*
X98318543Y-74139633D01*
X98284900Y-74308766D01*
X98284900Y-74311500D01*
X98284495Y-74312878D01*
X98284303Y-74314831D01*
X98283932Y-74314794D01*
X98265215Y-74378539D01*
X98212411Y-74424294D01*
X98160900Y-74435500D01*
X97432529Y-74435500D01*
X97432523Y-74435501D01*
X97372916Y-74441908D01*
X97238071Y-74492202D01*
X97238064Y-74492206D01*
X97122855Y-74578452D01*
X97122852Y-74578455D01*
X97036606Y-74693664D01*
X97036602Y-74693671D01*
X96986308Y-74828517D01*
X96979901Y-74888116D01*
X96979901Y-74888123D01*
X96979900Y-74888135D01*
X96979900Y-75161688D01*
X96960215Y-75228727D01*
X96907411Y-75274482D01*
X96838253Y-75284426D01*
X96808448Y-75276249D01*
X96686824Y-75225871D01*
X96686812Y-75225868D01*
X96483869Y-75185500D01*
X96483865Y-75185500D01*
X96276935Y-75185500D01*
X96276930Y-75185500D01*
X96073987Y-75225868D01*
X96073979Y-75225870D01*
X95882803Y-75305058D01*
X95710742Y-75420024D01*
X95564424Y-75566342D01*
X95449458Y-75738403D01*
X95370270Y-75929579D01*
X95370268Y-75929587D01*
X95329900Y-76132530D01*
X95329900Y-77039469D01*
X95370268Y-77242412D01*
X95370270Y-77242420D01*
X95447662Y-77429261D01*
X95449459Y-77433598D01*
X95479729Y-77478900D01*
X95564424Y-77605657D01*
X95710742Y-77751975D01*
X95710745Y-77751977D01*
X95882802Y-77866941D01*
X96073980Y-77946130D01*
X96262155Y-77983560D01*
X96276930Y-77986499D01*
X96276934Y-77986500D01*
X96276935Y-77986500D01*
X96483866Y-77986500D01*
X96483867Y-77986499D01*
X96686820Y-77946130D01*
X96877998Y-77866941D01*
X96877997Y-77866941D01*
X96883447Y-77864684D01*
X96952916Y-77857215D01*
X97015396Y-77888490D01*
X97051048Y-77948579D01*
X97054900Y-77979245D01*
X97054900Y-77994233D01*
X97088543Y-78163371D01*
X97088545Y-78163375D01*
X97095863Y-78181042D01*
X97102917Y-78204292D01*
X97104105Y-78210262D01*
X97104107Y-78210270D01*
X97171983Y-78374140D01*
X97171990Y-78374153D01*
X97270535Y-78521634D01*
X97270538Y-78521638D01*
X97395961Y-78647061D01*
X97395965Y-78647064D01*
X97543446Y-78745609D01*
X97543459Y-78745616D01*
X97666363Y-78796523D01*
X97707334Y-78813494D01*
X97707336Y-78813494D01*
X97707341Y-78813496D01*
X97881304Y-78848099D01*
X97881307Y-78848100D01*
X97881309Y-78848100D01*
X98058693Y-78848100D01*
X98058694Y-78848099D01*
X98116682Y-78836564D01*
X98232658Y-78813496D01*
X98232661Y-78813494D01*
X98232666Y-78813494D01*
X98396547Y-78745613D01*
X98544035Y-78647064D01*
X98669464Y-78521635D01*
X98768013Y-78374147D01*
X98770172Y-78368936D01*
X98802576Y-78290704D01*
X98835894Y-78210266D01*
X98837083Y-78204292D01*
X98870499Y-78036295D01*
X98870500Y-78036293D01*
X98870500Y-77858906D01*
X98870499Y-77858904D01*
X98835896Y-77684941D01*
X98835893Y-77684932D01*
X98833824Y-77679938D01*
X98815339Y-77635309D01*
X98813712Y-77627132D01*
X98810923Y-77622792D01*
X98805900Y-77587857D01*
X98805900Y-77560499D01*
X98825585Y-77493460D01*
X98878389Y-77447705D01*
X98929900Y-77436499D01*
X99608271Y-77436499D01*
X99608272Y-77436499D01*
X99656159Y-77431351D01*
X99675597Y-77429262D01*
X99675711Y-77430330D01*
X99715088Y-77430329D01*
X99715203Y-77429261D01*
X99722914Y-77430089D01*
X99722917Y-77430091D01*
X99782527Y-77436500D01*
X100578272Y-77436499D01*
X100637883Y-77430091D01*
X100637885Y-77430090D01*
X100637887Y-77430090D01*
X100645431Y-77428308D01*
X100645777Y-77429775D01*
X100706742Y-77425408D01*
X100721778Y-77429822D01*
X100722913Y-77430089D01*
X100722917Y-77430091D01*
X100782527Y-77436500D01*
X101578272Y-77436499D01*
X101626159Y-77431351D01*
X101645597Y-77429262D01*
X101645711Y-77430330D01*
X101685088Y-77430329D01*
X101685203Y-77429261D01*
X101692914Y-77430089D01*
X101692917Y-77430091D01*
X101752527Y-77436500D01*
X102430900Y-77436499D01*
X102439586Y-77439049D01*
X102448547Y-77437761D01*
X102472583Y-77448738D01*
X102497939Y-77456183D01*
X102503867Y-77463025D01*
X102512103Y-77466786D01*
X102526389Y-77489017D01*
X102543694Y-77508987D01*
X102545981Y-77519502D01*
X102549877Y-77525564D01*
X102554900Y-77560499D01*
X102554900Y-77695014D01*
X102552517Y-77719206D01*
X102529900Y-77832906D01*
X102529900Y-78010295D01*
X102564503Y-78184258D01*
X102564506Y-78184267D01*
X102632383Y-78348140D01*
X102632390Y-78348153D01*
X102730935Y-78495634D01*
X102730938Y-78495638D01*
X102856361Y-78621061D01*
X102856365Y-78621064D01*
X103003846Y-78719609D01*
X103003859Y-78719616D01*
X103066623Y-78745613D01*
X103167734Y-78787494D01*
X103167736Y-78787494D01*
X103167741Y-78787496D01*
X103341704Y-78822099D01*
X103341707Y-78822100D01*
X103341709Y-78822100D01*
X103353923Y-78822100D01*
X103366074Y-78822697D01*
X103370167Y-78823100D01*
X103370171Y-78823100D01*
X103542631Y-78823100D01*
X103542632Y-78823099D01*
X103711774Y-78789455D01*
X103871105Y-78723458D01*
X104014499Y-78627645D01*
X104136445Y-78505699D01*
X104232258Y-78362305D01*
X104298255Y-78202974D01*
X104331900Y-78033829D01*
X104331900Y-77990014D01*
X104351585Y-77922975D01*
X104404389Y-77877220D01*
X104473547Y-77867276D01*
X104503349Y-77875451D01*
X104673980Y-77946130D01*
X104862155Y-77983560D01*
X104876930Y-77986499D01*
X104876934Y-77986500D01*
X104876935Y-77986500D01*
X105083866Y-77986500D01*
X105083867Y-77986499D01*
X105286820Y-77946130D01*
X105477998Y-77866941D01*
X105650055Y-77751977D01*
X105796377Y-77605655D01*
X105911341Y-77433598D01*
X105990530Y-77242420D01*
X106030900Y-77039465D01*
X106030900Y-76395406D01*
X106050585Y-76328367D01*
X106103389Y-76282612D01*
X106172547Y-76272668D01*
X106236103Y-76301693D01*
X106242581Y-76307725D01*
X106814955Y-76880099D01*
X106878200Y-76943344D01*
X106936902Y-77002046D01*
X107080288Y-77097854D01*
X107080300Y-77097861D01*
X107150213Y-77126819D01*
X107167357Y-77133920D01*
X107221761Y-77177760D01*
X107243826Y-77244054D01*
X107243263Y-77261083D01*
X107235100Y-77340982D01*
X107235100Y-80341015D01*
X107245600Y-80443795D01*
X107245601Y-80443797D01*
X107252560Y-80464797D01*
X107300786Y-80610335D01*
X107300787Y-80610337D01*
X107392886Y-80759651D01*
X107392889Y-80759655D01*
X107516944Y-80883710D01*
X107516948Y-80883713D01*
X107666262Y-80975812D01*
X107666264Y-80975813D01*
X107666266Y-80975814D01*
X107832803Y-81030999D01*
X107935592Y-81041500D01*
X107935597Y-81041500D01*
X109035603Y-81041500D01*
X109035608Y-81041500D01*
X109138397Y-81030999D01*
X109304934Y-80975814D01*
X109454255Y-80883711D01*
X109578311Y-80759655D01*
X109670414Y-80610334D01*
X109725599Y-80443797D01*
X109736100Y-80341008D01*
X109736100Y-78094006D01*
X109755785Y-78026967D01*
X109808589Y-77981212D01*
X109877747Y-77971268D01*
X109941303Y-78000293D01*
X109947781Y-78006325D01*
X110853555Y-78912099D01*
X110926956Y-78985500D01*
X110975502Y-79034046D01*
X111118888Y-79129854D01*
X111118901Y-79129861D01*
X111233693Y-79177409D01*
X111278226Y-79195855D01*
X111399727Y-79220023D01*
X111447366Y-79229499D01*
X111447369Y-79229500D01*
X111447371Y-79229500D01*
X118122231Y-79229500D01*
X118122232Y-79229499D01*
X118291374Y-79195855D01*
X118450705Y-79129858D01*
X118594099Y-79034045D01*
X119723419Y-77904725D01*
X119784742Y-77871240D01*
X119854434Y-77876224D01*
X119910367Y-77918096D01*
X119934784Y-77983560D01*
X119935100Y-77992406D01*
X119935100Y-80341015D01*
X119945600Y-80443795D01*
X119945601Y-80443797D01*
X119952560Y-80464797D01*
X120000786Y-80610335D01*
X120000787Y-80610337D01*
X120092886Y-80759651D01*
X120092889Y-80759655D01*
X120216944Y-80883710D01*
X120216948Y-80883713D01*
X120366262Y-80975812D01*
X120366264Y-80975813D01*
X120366266Y-80975814D01*
X120532803Y-81030999D01*
X120635592Y-81041500D01*
X120635597Y-81041500D01*
X121735603Y-81041500D01*
X121735608Y-81041500D01*
X121838397Y-81030999D01*
X122004934Y-80975814D01*
X122154255Y-80883711D01*
X122278311Y-80759655D01*
X122370414Y-80610334D01*
X122425599Y-80443797D01*
X122436100Y-80341008D01*
X122436100Y-77372300D01*
X122455785Y-77305261D01*
X122508589Y-77259506D01*
X122560100Y-77248300D01*
X123113100Y-77248300D01*
X123180139Y-77267985D01*
X123225894Y-77320789D01*
X123237100Y-77372300D01*
X123237100Y-80362015D01*
X123247600Y-80464795D01*
X123247601Y-80464796D01*
X123302786Y-80631335D01*
X123302787Y-80631337D01*
X123394886Y-80780651D01*
X123394889Y-80780655D01*
X123518944Y-80904710D01*
X123518948Y-80904713D01*
X123668262Y-80996812D01*
X123668264Y-80996813D01*
X123668266Y-80996814D01*
X123834803Y-81051999D01*
X123937592Y-81062500D01*
X123937597Y-81062500D01*
X125037603Y-81062500D01*
X125037608Y-81062500D01*
X125140397Y-81051999D01*
X125306934Y-80996814D01*
X125456255Y-80904711D01*
X125580311Y-80780655D01*
X125672414Y-80631334D01*
X125727599Y-80464797D01*
X125738100Y-80362008D01*
X125738100Y-77372300D01*
X125757785Y-77305261D01*
X125810589Y-77259506D01*
X125862100Y-77248300D01*
X127850431Y-77248300D01*
X127850432Y-77248299D01*
X128019574Y-77214655D01*
X128178905Y-77148658D01*
X128322299Y-77052845D01*
X129517645Y-75857499D01*
X129613458Y-75714105D01*
X129626150Y-75683465D01*
X129639104Y-75652190D01*
X129679455Y-75554774D01*
X129713100Y-75385629D01*
X129713100Y-75213171D01*
X129713100Y-75062663D01*
X129717786Y-75046122D01*
X129717479Y-75030002D01*
X129731526Y-74997624D01*
X129732025Y-74996814D01*
X129783947Y-74950061D01*
X129852903Y-74938801D01*
X129917001Y-74966609D01*
X129943137Y-74996756D01*
X129994885Y-75080652D01*
X129994888Y-75080656D01*
X130050781Y-75136549D01*
X130084266Y-75197872D01*
X130087100Y-75224230D01*
X130087100Y-75654084D01*
X130067415Y-75721123D01*
X130066202Y-75722975D01*
X130052788Y-75743049D01*
X130052787Y-75743052D01*
X129984906Y-75906932D01*
X129984903Y-75906941D01*
X129950300Y-76080904D01*
X129950300Y-76258295D01*
X129984903Y-76432258D01*
X129984906Y-76432267D01*
X130052783Y-76596140D01*
X130052790Y-76596153D01*
X130151335Y-76743634D01*
X130151338Y-76743638D01*
X130276761Y-76869061D01*
X130276765Y-76869064D01*
X130424246Y-76967609D01*
X130424259Y-76967616D01*
X130547163Y-77018523D01*
X130588134Y-77035494D01*
X130588136Y-77035494D01*
X130588141Y-77035496D01*
X130762104Y-77070099D01*
X130762107Y-77070100D01*
X130762109Y-77070100D01*
X130939493Y-77070100D01*
X130939494Y-77070099D01*
X130997482Y-77058564D01*
X131113458Y-77035496D01*
X131113461Y-77035494D01*
X131113466Y-77035494D01*
X131277347Y-76967613D01*
X131424835Y-76869064D01*
X131550264Y-76743635D01*
X131648813Y-76596147D01*
X131716694Y-76432266D01*
X131722923Y-76400954D01*
X131751299Y-76258295D01*
X131751300Y-76258293D01*
X131751300Y-76080906D01*
X131751299Y-76080904D01*
X131716696Y-75906941D01*
X131716693Y-75906932D01*
X131648816Y-75743059D01*
X131648809Y-75743046D01*
X131608998Y-75683465D01*
X131588120Y-75616788D01*
X131588100Y-75614574D01*
X131588100Y-75224230D01*
X131607785Y-75157191D01*
X131624419Y-75136549D01*
X131645360Y-75115608D01*
X131680312Y-75080656D01*
X131772414Y-74931334D01*
X131827599Y-74764797D01*
X131838100Y-74662009D01*
X131838099Y-71561992D01*
X131829726Y-71480030D01*
X131827599Y-71459203D01*
X131827598Y-71459200D01*
X131799555Y-71374571D01*
X131797153Y-71304743D01*
X131829578Y-71247888D01*
X132588951Y-70488516D01*
X132610695Y-70455973D01*
X132659154Y-70383450D01*
X132673750Y-70361606D01*
X132727363Y-70316802D01*
X132776851Y-70306499D01*
X132903871Y-70306499D01*
X132903872Y-70306499D01*
X132963483Y-70300091D01*
X133098331Y-70249796D01*
X133213546Y-70163546D01*
X133299796Y-70048331D01*
X133350091Y-69913483D01*
X133356500Y-69853873D01*
X133356499Y-68058128D01*
X133350091Y-67998517D01*
X133349684Y-67997427D01*
X133299797Y-67863671D01*
X133299793Y-67863664D01*
X133213547Y-67748455D01*
X133213544Y-67748452D01*
X133098335Y-67662206D01*
X133098328Y-67662202D01*
X132963482Y-67611908D01*
X132963483Y-67611908D01*
X132903883Y-67605501D01*
X132903881Y-67605500D01*
X132903873Y-67605500D01*
X132903864Y-67605500D01*
X131108129Y-67605500D01*
X131108123Y-67605501D01*
X131048516Y-67611908D01*
X130913671Y-67662202D01*
X130913664Y-67662206D01*
X130798455Y-67748452D01*
X130798452Y-67748455D01*
X130712206Y-67863664D01*
X130712203Y-67863669D01*
X130663189Y-67995083D01*
X130621317Y-68051016D01*
X130555853Y-68075433D01*
X130487580Y-68060581D01*
X130459326Y-68039430D01*
X130345792Y-67925896D01*
X130299537Y-67892290D01*
X130237511Y-67847226D01*
X130194847Y-67791898D01*
X130188868Y-67722285D01*
X130221473Y-67660489D01*
X130222643Y-67659302D01*
X131813277Y-66068669D01*
X131884466Y-65962126D01*
X131922468Y-65870380D01*
X131933501Y-65843744D01*
X131941682Y-65802615D01*
X131958500Y-65718071D01*
X131958500Y-49423328D01*
X131933502Y-49297661D01*
X131933501Y-49297660D01*
X131933501Y-49297656D01*
X131884465Y-49179273D01*
X131884464Y-49179272D01*
X131884461Y-49179266D01*
X131813277Y-49072732D01*
X131813276Y-49072731D01*
X131722669Y-48982124D01*
X131322408Y-48581863D01*
X130109274Y-47368727D01*
X130109273Y-47368726D01*
X130101760Y-47363706D01*
X130002727Y-47297535D01*
X129884344Y-47248499D01*
X129884338Y-47248497D01*
X129758671Y-47223500D01*
X129758669Y-47223500D01*
X120791331Y-47223500D01*
X120791329Y-47223500D01*
X120665661Y-47248497D01*
X120665655Y-47248499D01*
X120547274Y-47297534D01*
X120440726Y-47368726D01*
X120440725Y-47368727D01*
X119881673Y-47927781D01*
X119820350Y-47961266D01*
X119793992Y-47964100D01*
X119776106Y-47964100D01*
X119602141Y-47998703D01*
X119602132Y-47998706D01*
X119438259Y-48066583D01*
X119438246Y-48066590D01*
X119290765Y-48165135D01*
X119290761Y-48165138D01*
X119165338Y-48290561D01*
X119165335Y-48290565D01*
X119066790Y-48438046D01*
X119066783Y-48438059D01*
X118998906Y-48601932D01*
X118998903Y-48601941D01*
X118964300Y-48775904D01*
X118964300Y-48953295D01*
X118998903Y-49127258D01*
X118998906Y-49127267D01*
X119066783Y-49291140D01*
X119066790Y-49291153D01*
X119150956Y-49417115D01*
X119171834Y-49483792D01*
X119153350Y-49551173D01*
X119116745Y-49589108D01*
X119024065Y-49651035D01*
X119024061Y-49651038D01*
X118898638Y-49776461D01*
X118898635Y-49776465D01*
X118800090Y-49923946D01*
X118800083Y-49923959D01*
X118732206Y-50087832D01*
X118732203Y-50087841D01*
X118697600Y-50261804D01*
X118697600Y-50279692D01*
X118688955Y-50309132D01*
X118682432Y-50339119D01*
X118678677Y-50344134D01*
X118677915Y-50346731D01*
X118661281Y-50367373D01*
X118590273Y-50438381D01*
X118528950Y-50471866D01*
X118502592Y-50474700D01*
X117835753Y-50474700D01*
X117768714Y-50455015D01*
X117722959Y-50402211D01*
X117713015Y-50333053D01*
X117738545Y-50275102D01*
X117738293Y-50274934D01*
X117739251Y-50273500D01*
X117739893Y-50272043D01*
X117741669Y-50269876D01*
X117741677Y-50269869D01*
X117812866Y-50163326D01*
X117850017Y-50073635D01*
X117861901Y-50044944D01*
X117885967Y-49923959D01*
X117886900Y-49919271D01*
X117886900Y-48825928D01*
X117861902Y-48700261D01*
X117861901Y-48700260D01*
X117861901Y-48700256D01*
X117830522Y-48624500D01*
X117812866Y-48581874D01*
X117787683Y-48544185D01*
X117741678Y-48475332D01*
X117741672Y-48475325D01*
X116990673Y-47724326D01*
X116946677Y-47694929D01*
X116884127Y-47653135D01*
X116841108Y-47635316D01*
X116765744Y-47604099D01*
X116765738Y-47604097D01*
X116640071Y-47579100D01*
X116640069Y-47579100D01*
X116589962Y-47579100D01*
X116522923Y-47559415D01*
X116502281Y-47542781D01*
X116489638Y-47530138D01*
X116489634Y-47530135D01*
X116342153Y-47431590D01*
X116342140Y-47431583D01*
X116178267Y-47363706D01*
X116178258Y-47363703D01*
X116004294Y-47329100D01*
X116004291Y-47329100D01*
X115826909Y-47329100D01*
X115826906Y-47329100D01*
X115652941Y-47363703D01*
X115652932Y-47363706D01*
X115489059Y-47431583D01*
X115489046Y-47431590D01*
X115341565Y-47530135D01*
X115341561Y-47530138D01*
X115216138Y-47655561D01*
X115216135Y-47655565D01*
X115117590Y-47803046D01*
X115117583Y-47803059D01*
X115049706Y-47966932D01*
X115049703Y-47966941D01*
X115015100Y-48140904D01*
X115015100Y-48318295D01*
X115049703Y-48492258D01*
X115049706Y-48492267D01*
X115117583Y-48656140D01*
X115117589Y-48656151D01*
X115117626Y-48656206D01*
X115117636Y-48656238D01*
X115120460Y-48661522D01*
X115119458Y-48662057D01*
X115138506Y-48722883D01*
X115120024Y-48790263D01*
X115068046Y-48836955D01*
X115014526Y-48849100D01*
X108954291Y-48849100D01*
X108887252Y-48829415D01*
X108841497Y-48776611D01*
X108831553Y-48707453D01*
X108860578Y-48643897D01*
X108885400Y-48621998D01*
X108917020Y-48600869D01*
X108958035Y-48573464D01*
X109083464Y-48448035D01*
X109182013Y-48300547D01*
X109249894Y-48136666D01*
X109263726Y-48067131D01*
X109282379Y-47973353D01*
X109284500Y-47962691D01*
X109284500Y-47785309D01*
X109284500Y-47785306D01*
X109284499Y-47785304D01*
X109249896Y-47611341D01*
X109249893Y-47611332D01*
X109182016Y-47447459D01*
X109182009Y-47447446D01*
X109083464Y-47299965D01*
X109083461Y-47299961D01*
X108958038Y-47174538D01*
X108958034Y-47174535D01*
X108810553Y-47075990D01*
X108810540Y-47075983D01*
X108646667Y-47008106D01*
X108646658Y-47008103D01*
X108472694Y-46973500D01*
X108472691Y-46973500D01*
X108295309Y-46973500D01*
X108295306Y-46973500D01*
X108121341Y-47008103D01*
X108121332Y-47008106D01*
X107957452Y-47075987D01*
X107957447Y-47075989D01*
X107917622Y-47102601D01*
X107850945Y-47123480D01*
X107848730Y-47123500D01*
X105871270Y-47123500D01*
X105804231Y-47103815D01*
X105802378Y-47102601D01*
X105762552Y-47075989D01*
X105762547Y-47075987D01*
X105598667Y-47008106D01*
X105598658Y-47008103D01*
X105424694Y-46973500D01*
X105424691Y-46973500D01*
X105247309Y-46973500D01*
X105247306Y-46973500D01*
X105073341Y-47008103D01*
X105073332Y-47008106D01*
X104909459Y-47075983D01*
X104909446Y-47075990D01*
X104761965Y-47174535D01*
X104761961Y-47174538D01*
X104636538Y-47299961D01*
X104636535Y-47299965D01*
X104537990Y-47447446D01*
X104537983Y-47447459D01*
X104470106Y-47611332D01*
X104470103Y-47611341D01*
X104435500Y-47785304D01*
X104435500Y-47962695D01*
X104470103Y-48136658D01*
X104470106Y-48136667D01*
X104537983Y-48300540D01*
X104537990Y-48300553D01*
X104636535Y-48448034D01*
X104636538Y-48448038D01*
X104761961Y-48573461D01*
X104761965Y-48573464D01*
X104834600Y-48621998D01*
X104879405Y-48675611D01*
X104888112Y-48744936D01*
X104857957Y-48807963D01*
X104798514Y-48844682D01*
X104765709Y-48849100D01*
X103951500Y-48849100D01*
X103884461Y-48829415D01*
X103838706Y-48776611D01*
X103827500Y-48725100D01*
X103827499Y-47694929D01*
X103827498Y-47694923D01*
X103827497Y-47694916D01*
X103821091Y-47635317D01*
X103812145Y-47611332D01*
X103770797Y-47500471D01*
X103770793Y-47500464D01*
X103684547Y-47385255D01*
X103684544Y-47385252D01*
X103569335Y-47299006D01*
X103569328Y-47299002D01*
X103434482Y-47248708D01*
X103434483Y-47248708D01*
X103374883Y-47242301D01*
X103374881Y-47242300D01*
X103374873Y-47242300D01*
X103374864Y-47242300D01*
X100529129Y-47242300D01*
X100529123Y-47242301D01*
X100469516Y-47248708D01*
X100334671Y-47299002D01*
X100334664Y-47299006D01*
X100219455Y-47385252D01*
X100219452Y-47385255D01*
X100133206Y-47500464D01*
X100133204Y-47500468D01*
X100133204Y-47500469D01*
X100129039Y-47511634D01*
X100087171Y-47567566D01*
X100021707Y-47591984D01*
X100012859Y-47592300D01*
X99716258Y-47592300D01*
X99649219Y-47572615D01*
X99647367Y-47571402D01*
X99514153Y-47482390D01*
X99514140Y-47482383D01*
X99350267Y-47414506D01*
X99350258Y-47414503D01*
X99176294Y-47379900D01*
X99176291Y-47379900D01*
X98998909Y-47379900D01*
X98998906Y-47379900D01*
X98824941Y-47414503D01*
X98824932Y-47414506D01*
X98661059Y-47482383D01*
X98661046Y-47482390D01*
X98527833Y-47571402D01*
X98461156Y-47592280D01*
X98458942Y-47592300D01*
X98131141Y-47592300D01*
X98064102Y-47572615D01*
X98018347Y-47519811D01*
X98014969Y-47511659D01*
X98010796Y-47500469D01*
X98010793Y-47500465D01*
X98010793Y-47500464D01*
X97924547Y-47385255D01*
X97924544Y-47385252D01*
X97809335Y-47299006D01*
X97809328Y-47299002D01*
X97674482Y-47248708D01*
X97674483Y-47248708D01*
X97614883Y-47242301D01*
X97614881Y-47242300D01*
X97614873Y-47242300D01*
X97614864Y-47242300D01*
X94769129Y-47242300D01*
X94769123Y-47242301D01*
X94709516Y-47248708D01*
X94574671Y-47299002D01*
X94574664Y-47299006D01*
X94459455Y-47385252D01*
X94459452Y-47385255D01*
X94373206Y-47500464D01*
X94373202Y-47500471D01*
X94322908Y-47635317D01*
X94316501Y-47694916D01*
X94316501Y-47694923D01*
X94316500Y-47694935D01*
X94316500Y-48790670D01*
X94316501Y-48790676D01*
X94322908Y-48850283D01*
X94373202Y-48985128D01*
X94373206Y-48985135D01*
X94459451Y-49100343D01*
X94459452Y-49100344D01*
X94459454Y-49100346D01*
X94544057Y-49163680D01*
X94585927Y-49219612D01*
X94590911Y-49289304D01*
X94557426Y-49350626D01*
X93464722Y-50443331D01*
X93456916Y-50455015D01*
X93439754Y-50480701D01*
X93421240Y-50508407D01*
X93393534Y-50549873D01*
X93344499Y-50668255D01*
X93344497Y-50668261D01*
X93319500Y-50793928D01*
X93319500Y-55683238D01*
X93299815Y-55750277D01*
X93283181Y-55770919D01*
X93270538Y-55783561D01*
X93270535Y-55783565D01*
X93171990Y-55931046D01*
X93171983Y-55931059D01*
X93104106Y-56094932D01*
X93104103Y-56094941D01*
X93069500Y-56268904D01*
X93069500Y-56446295D01*
X93104103Y-56620258D01*
X93104106Y-56620267D01*
X93171983Y-56784140D01*
X93171990Y-56784153D01*
X93270535Y-56931634D01*
X93270538Y-56931638D01*
X93395961Y-57057061D01*
X93395965Y-57057064D01*
X93543446Y-57155609D01*
X93543459Y-57155616D01*
X93603053Y-57180300D01*
X93707334Y-57223494D01*
X93707336Y-57223494D01*
X93707341Y-57223496D01*
X93881304Y-57258099D01*
X93881307Y-57258100D01*
X93881309Y-57258100D01*
X94058693Y-57258100D01*
X94058694Y-57258099D01*
X94116682Y-57246564D01*
X94232658Y-57223496D01*
X94232661Y-57223494D01*
X94232666Y-57223494D01*
X94396547Y-57155613D01*
X94544035Y-57057064D01*
X94669464Y-56931635D01*
X94768013Y-56784147D01*
X94835894Y-56620266D01*
X94870500Y-56446291D01*
X94870500Y-56268909D01*
X94870500Y-56268906D01*
X94870499Y-56268904D01*
X94835896Y-56094941D01*
X94835893Y-56094932D01*
X94768016Y-55931059D01*
X94768009Y-55931046D01*
X94669464Y-55783565D01*
X94669461Y-55783561D01*
X94656819Y-55770919D01*
X94623334Y-55709596D01*
X94620500Y-55683238D01*
X94620500Y-53365366D01*
X94640185Y-53298327D01*
X94692989Y-53252572D01*
X94757755Y-53242077D01*
X94769127Y-53243300D01*
X95227527Y-53243299D01*
X95294565Y-53262983D01*
X95340320Y-53315787D01*
X95350264Y-53384946D01*
X95342088Y-53414750D01*
X95326105Y-53453337D01*
X95326103Y-53453341D01*
X95291500Y-53627304D01*
X95291500Y-53804695D01*
X95326103Y-53978658D01*
X95326106Y-53978667D01*
X95393983Y-54142540D01*
X95393990Y-54142553D01*
X95492535Y-54290034D01*
X95492538Y-54290038D01*
X95617961Y-54415461D01*
X95617965Y-54415464D01*
X95765446Y-54514009D01*
X95765459Y-54514016D01*
X95806695Y-54531096D01*
X95929334Y-54581894D01*
X95929336Y-54581894D01*
X95929341Y-54581896D01*
X96103304Y-54616499D01*
X96103307Y-54616500D01*
X96103309Y-54616500D01*
X96280693Y-54616500D01*
X96280694Y-54616499D01*
X96338682Y-54604964D01*
X96454658Y-54581896D01*
X96454661Y-54581894D01*
X96454666Y-54581894D01*
X96618547Y-54514013D01*
X96766035Y-54415464D01*
X96891464Y-54290035D01*
X96990013Y-54142547D01*
X97057894Y-53978666D01*
X97059883Y-53968671D01*
X97092499Y-53804695D01*
X97092500Y-53804693D01*
X97092500Y-53627306D01*
X97092499Y-53627304D01*
X97057896Y-53453341D01*
X97057894Y-53453338D01*
X97057894Y-53453334D01*
X97041911Y-53414749D01*
X97034445Y-53345281D01*
X97065720Y-53282802D01*
X97125810Y-53247150D01*
X97156474Y-53243299D01*
X97614871Y-53243299D01*
X97614872Y-53243299D01*
X97674483Y-53236891D01*
X97809331Y-53186596D01*
X97924546Y-53100346D01*
X98010796Y-52985131D01*
X98061091Y-52850283D01*
X98067500Y-52790673D01*
X98067499Y-51694928D01*
X98061091Y-51635317D01*
X98059286Y-51630478D01*
X98010797Y-51500471D01*
X98010793Y-51500464D01*
X97924547Y-51385255D01*
X97924544Y-51385252D01*
X97809335Y-51299006D01*
X97809328Y-51299002D01*
X97674482Y-51248708D01*
X97674483Y-51248708D01*
X97614883Y-51242301D01*
X97614881Y-51242300D01*
X97614873Y-51242300D01*
X97614865Y-51242300D01*
X94805007Y-51242300D01*
X94737968Y-51222615D01*
X94692213Y-51169811D01*
X94682269Y-51100653D01*
X94711294Y-51037097D01*
X94717312Y-51030633D01*
X95561527Y-50186419D01*
X95622850Y-50152934D01*
X95649208Y-50150100D01*
X98792592Y-50150100D01*
X98859631Y-50169785D01*
X98905386Y-50222589D01*
X98915330Y-50291747D01*
X98886305Y-50355303D01*
X98880273Y-50361781D01*
X98480727Y-50761325D01*
X98480726Y-50761326D01*
X98409534Y-50867874D01*
X98360499Y-50986255D01*
X98360497Y-50986261D01*
X98335500Y-51111928D01*
X98335500Y-57713192D01*
X98315815Y-57780231D01*
X98299181Y-57800873D01*
X97838473Y-58261581D01*
X97777150Y-58295066D01*
X97750792Y-58297900D01*
X94644362Y-58297900D01*
X94577323Y-58278215D01*
X94556681Y-58261581D01*
X94544038Y-58248938D01*
X94544034Y-58248935D01*
X94396553Y-58150390D01*
X94396540Y-58150383D01*
X94232667Y-58082506D01*
X94232658Y-58082503D01*
X94058694Y-58047900D01*
X94058691Y-58047900D01*
X93881309Y-58047900D01*
X93881306Y-58047900D01*
X93707341Y-58082503D01*
X93707332Y-58082506D01*
X93543459Y-58150383D01*
X93543446Y-58150390D01*
X93395965Y-58248935D01*
X93395961Y-58248938D01*
X93270538Y-58374361D01*
X93270535Y-58374365D01*
X93171990Y-58521846D01*
X93171983Y-58521859D01*
X93104106Y-58685732D01*
X93104103Y-58685741D01*
X93069500Y-58859704D01*
X93069500Y-59037095D01*
X93104103Y-59211058D01*
X93104106Y-59211067D01*
X93171983Y-59374940D01*
X93171990Y-59374953D01*
X93256753Y-59501809D01*
X93277631Y-59568487D01*
X93259146Y-59635867D01*
X93256753Y-59639591D01*
X93171990Y-59766446D01*
X93171983Y-59766459D01*
X93104106Y-59930332D01*
X93104103Y-59930341D01*
X93069500Y-60104304D01*
X93069500Y-60281695D01*
X93104103Y-60455658D01*
X93104106Y-60455667D01*
X93171983Y-60619540D01*
X93171990Y-60619553D01*
X93256753Y-60746409D01*
X93277631Y-60813087D01*
X93259146Y-60880467D01*
X93256753Y-60884191D01*
X93171990Y-61011046D01*
X93171983Y-61011059D01*
X93104106Y-61174932D01*
X93104103Y-61174941D01*
X93069500Y-61348904D01*
X93069500Y-61526295D01*
X93104103Y-61700258D01*
X93104106Y-61700267D01*
X93171983Y-61864140D01*
X93171990Y-61864153D01*
X93270535Y-62011634D01*
X93270538Y-62011638D01*
X93395961Y-62137061D01*
X93395965Y-62137064D01*
X93543446Y-62235609D01*
X93543459Y-62235616D01*
X93666363Y-62286523D01*
X93707334Y-62303494D01*
X93707336Y-62303494D01*
X93707341Y-62303496D01*
X93881304Y-62338099D01*
X93881307Y-62338100D01*
X93881309Y-62338100D01*
X94058693Y-62338100D01*
X94058694Y-62338099D01*
X94116682Y-62326564D01*
X94232658Y-62303496D01*
X94232661Y-62303494D01*
X94232666Y-62303494D01*
X94396547Y-62235613D01*
X94544035Y-62137064D01*
X94581679Y-62099420D01*
X94643001Y-62065934D01*
X94669361Y-62063100D01*
X104175148Y-62063100D01*
X104242187Y-62082785D01*
X104262829Y-62099419D01*
X107619185Y-65455775D01*
X107619214Y-65455806D01*
X107709432Y-65546024D01*
X107709436Y-65546027D01*
X107811876Y-65614476D01*
X107811882Y-65614479D01*
X107811883Y-65614480D01*
X107925717Y-65661632D01*
X107986140Y-65673650D01*
X108046562Y-65685669D01*
X108046563Y-65685669D01*
X111965039Y-65685669D01*
X112032078Y-65705354D01*
X112052721Y-65721989D01*
X112090361Y-65759630D01*
X112090365Y-65759633D01*
X112237846Y-65858178D01*
X112237859Y-65858185D01*
X112316871Y-65890912D01*
X112401734Y-65926063D01*
X112401736Y-65926063D01*
X112401741Y-65926065D01*
X112575704Y-65960668D01*
X112575707Y-65960669D01*
X112575709Y-65960669D01*
X112753093Y-65960669D01*
X112753094Y-65960668D01*
X112811082Y-65949133D01*
X112927058Y-65926065D01*
X112927061Y-65926063D01*
X112927066Y-65926063D01*
X113090947Y-65858182D01*
X113238435Y-65759633D01*
X113363864Y-65634204D01*
X113462413Y-65486716D01*
X113530294Y-65322835D01*
X113537722Y-65285495D01*
X113564899Y-65148864D01*
X113564900Y-65148862D01*
X113564900Y-64971475D01*
X113564899Y-64971473D01*
X113530296Y-64797510D01*
X113530293Y-64797501D01*
X113525115Y-64785001D01*
X113508523Y-64744943D01*
X113462416Y-64633628D01*
X113462409Y-64633615D01*
X113363864Y-64486134D01*
X113363861Y-64486130D01*
X113238438Y-64360707D01*
X113238434Y-64360704D01*
X113090953Y-64262159D01*
X113090940Y-64262152D01*
X112927067Y-64194275D01*
X112927058Y-64194272D01*
X112753094Y-64159669D01*
X112753091Y-64159669D01*
X112575709Y-64159669D01*
X112575706Y-64159669D01*
X112401741Y-64194272D01*
X112401732Y-64194275D01*
X112237859Y-64262152D01*
X112237846Y-64262159D01*
X112090365Y-64360704D01*
X112090361Y-64360707D01*
X112052721Y-64398349D01*
X111991399Y-64431835D01*
X111965039Y-64434669D01*
X108418621Y-64434669D01*
X108351582Y-64414984D01*
X108330940Y-64398350D01*
X104978750Y-61046160D01*
X104971460Y-61038870D01*
X104971458Y-61038867D01*
X104884333Y-60951742D01*
X104833109Y-60917515D01*
X104781886Y-60883288D01*
X104781883Y-60883286D01*
X104781880Y-60883285D01*
X104709056Y-60853121D01*
X104709052Y-60853120D01*
X104701392Y-60849947D01*
X104668052Y-60836137D01*
X104579387Y-60818501D01*
X104575580Y-60817743D01*
X104575566Y-60817740D01*
X104547210Y-60812100D01*
X104547207Y-60812100D01*
X104547206Y-60812100D01*
X100475209Y-60812100D01*
X100408170Y-60792415D01*
X100362415Y-60739611D01*
X100352471Y-60670453D01*
X100381496Y-60606897D01*
X100387528Y-60600419D01*
X103511727Y-57476219D01*
X103573050Y-57442734D01*
X103599408Y-57439900D01*
X111251392Y-57439900D01*
X111318431Y-57459585D01*
X111339073Y-57476219D01*
X111923673Y-58060819D01*
X111957158Y-58122142D01*
X111952174Y-58191834D01*
X111910302Y-58247767D01*
X111844838Y-58272184D01*
X111835992Y-58272500D01*
X109566362Y-58272500D01*
X109499323Y-58252815D01*
X109478681Y-58236181D01*
X109466038Y-58223538D01*
X109466034Y-58223535D01*
X109318553Y-58124990D01*
X109318540Y-58124983D01*
X109154667Y-58057106D01*
X109154658Y-58057103D01*
X108980694Y-58022500D01*
X108980691Y-58022500D01*
X108803309Y-58022500D01*
X108803306Y-58022500D01*
X108629341Y-58057103D01*
X108629332Y-58057106D01*
X108465459Y-58124983D01*
X108465446Y-58124990D01*
X108317965Y-58223535D01*
X108317961Y-58223538D01*
X108192538Y-58348961D01*
X108192535Y-58348965D01*
X108093990Y-58496446D01*
X108093983Y-58496459D01*
X108026106Y-58660332D01*
X108026103Y-58660341D01*
X107991500Y-58834304D01*
X107991500Y-59011695D01*
X108026103Y-59185658D01*
X108026106Y-59185667D01*
X108093983Y-59349540D01*
X108093990Y-59349553D01*
X108187239Y-59489109D01*
X108208117Y-59555787D01*
X108189633Y-59623167D01*
X108187239Y-59626891D01*
X108093990Y-59766446D01*
X108093983Y-59766459D01*
X108026106Y-59930332D01*
X108026103Y-59930341D01*
X107991500Y-60104304D01*
X107991500Y-60281695D01*
X108026103Y-60455658D01*
X108026106Y-60455667D01*
X108093983Y-60619540D01*
X108093990Y-60619553D01*
X108187239Y-60759109D01*
X108208117Y-60825787D01*
X108189633Y-60893167D01*
X108187239Y-60896891D01*
X108093990Y-61036446D01*
X108093983Y-61036459D01*
X108026106Y-61200332D01*
X108026103Y-61200341D01*
X107991500Y-61374304D01*
X107991500Y-61551695D01*
X108026103Y-61725658D01*
X108026106Y-61725667D01*
X108093983Y-61889540D01*
X108093990Y-61889553D01*
X108187239Y-62029109D01*
X108208117Y-62095787D01*
X108189633Y-62163167D01*
X108187239Y-62166891D01*
X108093990Y-62306446D01*
X108093983Y-62306459D01*
X108026106Y-62470332D01*
X108026103Y-62470341D01*
X107991500Y-62644304D01*
X107991500Y-62821695D01*
X108026103Y-62995658D01*
X108026106Y-62995667D01*
X108093983Y-63159540D01*
X108093990Y-63159553D01*
X108192535Y-63307034D01*
X108192538Y-63307038D01*
X108317961Y-63432461D01*
X108317965Y-63432464D01*
X108465446Y-63531009D01*
X108465459Y-63531016D01*
X108588363Y-63581923D01*
X108629334Y-63598894D01*
X108629336Y-63598894D01*
X108629341Y-63598896D01*
X108803304Y-63633499D01*
X108803307Y-63633500D01*
X108803309Y-63633500D01*
X108980693Y-63633500D01*
X108980694Y-63633499D01*
X109065190Y-63616692D01*
X109154658Y-63598896D01*
X109154661Y-63598894D01*
X109154666Y-63598894D01*
X109318547Y-63531013D01*
X109466035Y-63432464D01*
X109466038Y-63432461D01*
X109478681Y-63419819D01*
X109540004Y-63386334D01*
X109566362Y-63383500D01*
X122926071Y-63383500D01*
X123010615Y-63366682D01*
X123051744Y-63358501D01*
X123170127Y-63309465D01*
X123218544Y-63277114D01*
X123218544Y-63277113D01*
X123218546Y-63277113D01*
X123273761Y-63240220D01*
X123276669Y-63238277D01*
X125635127Y-60879819D01*
X125696450Y-60846334D01*
X125722808Y-60843500D01*
X127839638Y-60843500D01*
X127906677Y-60863185D01*
X127927319Y-60879819D01*
X127939961Y-60892461D01*
X127939965Y-60892464D01*
X128087446Y-60991009D01*
X128087459Y-60991016D01*
X128202984Y-61038867D01*
X128251334Y-61058894D01*
X128251336Y-61058894D01*
X128251341Y-61058896D01*
X128425304Y-61093499D01*
X128425307Y-61093500D01*
X128425309Y-61093500D01*
X128602693Y-61093500D01*
X128602694Y-61093499D01*
X128687190Y-61076692D01*
X128776658Y-61058896D01*
X128776661Y-61058894D01*
X128776666Y-61058894D01*
X128940547Y-60991013D01*
X129088035Y-60892464D01*
X129213464Y-60767035D01*
X129312013Y-60619547D01*
X129379894Y-60455666D01*
X129414500Y-60281691D01*
X129414500Y-60104309D01*
X129414500Y-60104306D01*
X129414499Y-60104304D01*
X129379896Y-59930341D01*
X129379893Y-59930332D01*
X129374903Y-59918286D01*
X129318185Y-59781353D01*
X129312016Y-59766459D01*
X129312009Y-59766446D01*
X129213464Y-59618965D01*
X129213461Y-59618961D01*
X129088038Y-59493538D01*
X129088034Y-59493535D01*
X128940553Y-59394990D01*
X128940540Y-59394983D01*
X128776667Y-59327106D01*
X128776658Y-59327103D01*
X128602694Y-59292500D01*
X128602691Y-59292500D01*
X128425309Y-59292500D01*
X128425306Y-59292500D01*
X128251341Y-59327103D01*
X128251332Y-59327106D01*
X128087459Y-59394983D01*
X128087446Y-59394990D01*
X127939965Y-59493535D01*
X127939961Y-59493538D01*
X127927319Y-59506181D01*
X127865996Y-59539666D01*
X127839638Y-59542500D01*
X125337929Y-59542500D01*
X125212261Y-59567497D01*
X125212255Y-59567499D01*
X125093870Y-59616535D01*
X124987331Y-59687722D01*
X124987324Y-59687728D01*
X123320283Y-61354770D01*
X123258960Y-61388255D01*
X123189268Y-61383271D01*
X123133335Y-61341399D01*
X123110985Y-61291280D01*
X123092896Y-61200341D01*
X123092893Y-61200332D01*
X123025016Y-61036459D01*
X123025009Y-61036446D01*
X122926464Y-60888965D01*
X122926461Y-60888961D01*
X122801038Y-60763538D01*
X122801034Y-60763535D01*
X122653553Y-60664990D01*
X122653540Y-60664983D01*
X122489667Y-60597106D01*
X122489658Y-60597103D01*
X122315694Y-60562500D01*
X122315691Y-60562500D01*
X122138309Y-60562500D01*
X122138304Y-60562500D01*
X121969787Y-60596020D01*
X121937106Y-60593095D01*
X121904343Y-60591340D01*
X121902481Y-60589997D01*
X121900195Y-60589793D01*
X121874282Y-60569663D01*
X121847671Y-60550474D01*
X121846830Y-60548338D01*
X121845018Y-60546930D01*
X121834102Y-60515986D01*
X121822090Y-60485456D01*
X121822253Y-60482400D01*
X121821774Y-60481040D01*
X121823979Y-60450212D01*
X121846648Y-60336246D01*
X121879033Y-60274335D01*
X121939748Y-60239761D01*
X121992456Y-60238820D01*
X122075304Y-60255299D01*
X122075307Y-60255300D01*
X122075309Y-60255300D01*
X122252693Y-60255300D01*
X122252694Y-60255299D01*
X122310682Y-60243764D01*
X122426658Y-60220696D01*
X122426661Y-60220694D01*
X122426666Y-60220694D01*
X122590547Y-60152813D01*
X122738035Y-60054264D01*
X122863464Y-59928835D01*
X122962013Y-59781347D01*
X123029894Y-59617466D01*
X123030080Y-59616535D01*
X123064499Y-59443495D01*
X123064500Y-59443493D01*
X123064500Y-59266106D01*
X123064499Y-59266104D01*
X123029896Y-59092141D01*
X123029893Y-59092132D01*
X122962016Y-58928259D01*
X122962009Y-58928246D01*
X122863464Y-58780765D01*
X122863461Y-58780761D01*
X122738038Y-58655338D01*
X122738034Y-58655335D01*
X122590553Y-58556790D01*
X122590540Y-58556783D01*
X122426667Y-58488906D01*
X122426658Y-58488903D01*
X122252694Y-58454300D01*
X122252691Y-58454300D01*
X122234808Y-58454300D01*
X122167769Y-58434615D01*
X122147127Y-58417981D01*
X121054674Y-57325527D01*
X121054673Y-57325526D01*
X121054669Y-57325523D01*
X120948127Y-57254335D01*
X120873670Y-57223494D01*
X120829744Y-57205299D01*
X120829738Y-57205297D01*
X120704071Y-57180300D01*
X120704069Y-57180300D01*
X112934408Y-57180300D01*
X112867369Y-57160615D01*
X112846727Y-57143981D01*
X111986874Y-56284127D01*
X111986873Y-56284126D01*
X111986869Y-56284123D01*
X111880327Y-56212935D01*
X111761944Y-56163899D01*
X111761938Y-56163897D01*
X111636271Y-56138900D01*
X111636269Y-56138900D01*
X103214531Y-56138900D01*
X103214529Y-56138900D01*
X103088861Y-56163897D01*
X103088855Y-56163899D01*
X102970470Y-56212935D01*
X102863931Y-56284122D01*
X102863924Y-56284128D01*
X99641873Y-59506181D01*
X99580550Y-59539666D01*
X99554192Y-59542500D01*
X98696809Y-59542500D01*
X98629770Y-59522815D01*
X98584015Y-59470011D01*
X98574071Y-59400853D01*
X98603096Y-59337297D01*
X98609128Y-59330819D01*
X99491272Y-58448674D01*
X99491273Y-58448673D01*
X99491277Y-58448669D01*
X99562465Y-58342127D01*
X99580785Y-58297900D01*
X99588938Y-58278215D01*
X99611501Y-58223744D01*
X99611748Y-58222500D01*
X99611750Y-58222492D01*
X99611756Y-58222493D01*
X99611756Y-58222459D01*
X99636500Y-58098069D01*
X99636500Y-51496808D01*
X99656185Y-51429769D01*
X99672819Y-51409127D01*
X99981127Y-51100819D01*
X100042450Y-51067334D01*
X100068808Y-51064500D01*
X100278303Y-51064500D01*
X100345342Y-51084185D01*
X100391097Y-51136989D01*
X100401041Y-51206147D01*
X100372016Y-51269703D01*
X100337731Y-51297331D01*
X100334669Y-51299002D01*
X100219455Y-51385252D01*
X100219452Y-51385255D01*
X100133206Y-51500464D01*
X100133202Y-51500471D01*
X100082908Y-51635317D01*
X100076610Y-51693900D01*
X100076501Y-51694923D01*
X100076500Y-51694935D01*
X100076500Y-52790670D01*
X100076501Y-52790676D01*
X100082908Y-52850283D01*
X100133202Y-52985128D01*
X100133206Y-52985135D01*
X100219452Y-53100344D01*
X100219455Y-53100347D01*
X100334664Y-53186593D01*
X100334671Y-53186597D01*
X100351828Y-53192996D01*
X100469517Y-53236891D01*
X100529127Y-53243300D01*
X100998414Y-53243299D01*
X101065453Y-53262983D01*
X101111208Y-53315787D01*
X101121152Y-53384946D01*
X101117825Y-53399919D01*
X101082700Y-53576504D01*
X101082700Y-53753895D01*
X101117303Y-53927858D01*
X101117306Y-53927867D01*
X101185183Y-54091740D01*
X101185190Y-54091753D01*
X101283735Y-54239234D01*
X101283738Y-54239238D01*
X101409161Y-54364661D01*
X101409165Y-54364664D01*
X101556646Y-54463209D01*
X101556659Y-54463216D01*
X101679287Y-54514009D01*
X101720534Y-54531094D01*
X101720536Y-54531094D01*
X101720541Y-54531096D01*
X101894504Y-54565699D01*
X101894507Y-54565700D01*
X101894509Y-54565700D01*
X102071893Y-54565700D01*
X102071894Y-54565699D01*
X102129882Y-54554164D01*
X102245858Y-54531096D01*
X102245861Y-54531094D01*
X102245866Y-54531094D01*
X102409747Y-54463213D01*
X102557235Y-54364664D01*
X102682664Y-54239235D01*
X102781213Y-54091747D01*
X102849094Y-53927866D01*
X102852277Y-53911868D01*
X102880793Y-53768507D01*
X102883700Y-53753891D01*
X102883700Y-53576509D01*
X102883700Y-53576506D01*
X102883699Y-53576504D01*
X102847906Y-53396559D01*
X102849263Y-53396288D01*
X102848699Y-53333435D01*
X102885943Y-53274319D01*
X102949236Y-53244725D01*
X102967985Y-53243299D01*
X103374871Y-53243299D01*
X103374872Y-53243299D01*
X103434483Y-53236891D01*
X103569331Y-53186596D01*
X103684546Y-53100346D01*
X103726286Y-53044587D01*
X103729941Y-53041851D01*
X103731839Y-53037697D01*
X103757653Y-53021106D01*
X103782219Y-53002718D01*
X103787848Y-53001702D01*
X103790617Y-52999923D01*
X103825552Y-52994900D01*
X103928965Y-52994900D01*
X103996004Y-53014585D01*
X104041759Y-53067389D01*
X104052323Y-53106298D01*
X104056501Y-53147197D01*
X104056501Y-53147199D01*
X104111685Y-53313731D01*
X104111687Y-53313736D01*
X104131144Y-53345281D01*
X104197793Y-53453337D01*
X104203789Y-53463057D01*
X104305100Y-53564368D01*
X104338585Y-53625691D01*
X104333601Y-53695383D01*
X104305103Y-53739727D01*
X104282289Y-53762541D01*
X104190187Y-53911863D01*
X104190185Y-53911868D01*
X104175357Y-53956616D01*
X104135001Y-54078403D01*
X104135001Y-54078404D01*
X104135000Y-54078404D01*
X104124500Y-54181183D01*
X104124500Y-55181201D01*
X104124501Y-55181219D01*
X104135000Y-55283996D01*
X104135001Y-55283999D01*
X104166316Y-55378499D01*
X104190186Y-55450534D01*
X104282288Y-55599856D01*
X104406344Y-55723912D01*
X104555666Y-55816014D01*
X104722203Y-55871199D01*
X104824991Y-55881700D01*
X105625008Y-55881699D01*
X105625016Y-55881698D01*
X105625019Y-55881698D01*
X105681302Y-55875948D01*
X105727797Y-55871199D01*
X105894334Y-55816014D01*
X106043656Y-55723912D01*
X106137675Y-55629892D01*
X106198994Y-55596410D01*
X106268686Y-55601394D01*
X106313034Y-55629895D01*
X106406654Y-55723515D01*
X106555875Y-55815556D01*
X106555880Y-55815558D01*
X106722302Y-55870705D01*
X106722309Y-55870706D01*
X106825019Y-55881199D01*
X106974999Y-55881199D01*
X107475000Y-55881199D01*
X107624972Y-55881199D01*
X107624986Y-55881198D01*
X107727697Y-55870705D01*
X107894119Y-55815558D01*
X107894124Y-55815556D01*
X108043345Y-55723515D01*
X108167315Y-55599545D01*
X108259356Y-55450324D01*
X108259358Y-55450319D01*
X108314505Y-55283897D01*
X108314506Y-55283890D01*
X108324999Y-55181186D01*
X108325000Y-55181173D01*
X108325000Y-54931200D01*
X107475000Y-54931200D01*
X107475000Y-55881199D01*
X106974999Y-55881199D01*
X106975000Y-55881198D01*
X106975000Y-53481200D01*
X106825027Y-53481200D01*
X106825012Y-53481201D01*
X106722302Y-53491694D01*
X106555880Y-53546841D01*
X106555875Y-53546843D01*
X106406657Y-53638882D01*
X106313034Y-53732505D01*
X106305087Y-53736843D01*
X106299663Y-53744090D01*
X106274903Y-53753324D01*
X106251710Y-53765989D01*
X106242681Y-53765343D01*
X106234199Y-53768507D01*
X106208378Y-53762890D01*
X106182019Y-53761005D01*
X106172965Y-53755186D01*
X106165926Y-53753655D01*
X106137672Y-53732504D01*
X106128899Y-53723731D01*
X106095414Y-53662408D01*
X106100398Y-53592716D01*
X106128899Y-53548369D01*
X106168723Y-53508545D01*
X106214212Y-53463056D01*
X106306314Y-53313734D01*
X106361499Y-53147197D01*
X106372000Y-53044409D01*
X106371999Y-52152706D01*
X106391683Y-52085668D01*
X106408313Y-52065031D01*
X106693126Y-51780219D01*
X106754449Y-51746734D01*
X106780807Y-51743900D01*
X107047000Y-51743900D01*
X107114039Y-51763585D01*
X107159794Y-51816389D01*
X107171000Y-51867900D01*
X107171000Y-53044401D01*
X107171001Y-53044418D01*
X107181500Y-53147196D01*
X107181501Y-53147199D01*
X107236685Y-53313731D01*
X107236687Y-53313736D01*
X107256144Y-53345281D01*
X107322793Y-53453337D01*
X107328789Y-53463057D01*
X107438681Y-53572949D01*
X107472166Y-53634272D01*
X107475000Y-53660630D01*
X107475000Y-54431200D01*
X108324999Y-54431200D01*
X108324999Y-54181228D01*
X108324998Y-54181213D01*
X108314505Y-54078502D01*
X108257974Y-53907903D01*
X108255572Y-53838075D01*
X108291304Y-53778033D01*
X108353824Y-53746840D01*
X108375674Y-53744899D01*
X108796508Y-53744899D01*
X108899297Y-53734399D01*
X109065834Y-53679214D01*
X109215156Y-53587112D01*
X109339212Y-53463056D01*
X109431314Y-53313734D01*
X109439343Y-53289502D01*
X109479113Y-53232057D01*
X109543628Y-53205232D01*
X109588496Y-53209418D01*
X109588559Y-53209106D01*
X109591572Y-53209705D01*
X109593047Y-53209843D01*
X109594537Y-53210295D01*
X109768504Y-53244899D01*
X109768507Y-53244900D01*
X109768509Y-53244900D01*
X109945893Y-53244900D01*
X109945894Y-53244899D01*
X110010457Y-53232057D01*
X110119858Y-53210296D01*
X110119861Y-53210294D01*
X110119866Y-53210294D01*
X110259735Y-53152358D01*
X110283740Y-53142416D01*
X110283740Y-53142415D01*
X110283747Y-53142413D01*
X110431235Y-53043864D01*
X110556664Y-52918435D01*
X110655213Y-52770947D01*
X110723094Y-52607066D01*
X110757700Y-52433091D01*
X110757700Y-52255709D01*
X110757700Y-52255706D01*
X110757699Y-52255704D01*
X110723096Y-52081741D01*
X110723094Y-52081738D01*
X110723094Y-52081734D01*
X110655213Y-51917853D01*
X110655212Y-51917852D01*
X110654177Y-51915352D01*
X110650668Y-51882713D01*
X110646001Y-51850253D01*
X110646954Y-51848165D01*
X110646709Y-51845882D01*
X110661397Y-51816539D01*
X110675026Y-51786697D01*
X110676957Y-51785455D01*
X110677985Y-51783403D01*
X110706207Y-51766657D01*
X110733804Y-51748923D01*
X110736832Y-51748487D01*
X110738074Y-51747751D01*
X110768739Y-51743900D01*
X110896643Y-51743900D01*
X110932641Y-51749240D01*
X110937451Y-51750699D01*
X110937456Y-51750701D01*
X110937460Y-51750701D01*
X110937461Y-51750702D01*
X111063128Y-51775700D01*
X111063131Y-51775700D01*
X118887471Y-51775700D01*
X118972015Y-51758882D01*
X119013144Y-51750701D01*
X119131527Y-51701665D01*
X119162040Y-51681277D01*
X119238069Y-51630477D01*
X119430411Y-51438135D01*
X120664500Y-51438135D01*
X120664500Y-56533870D01*
X120664501Y-56533876D01*
X120670908Y-56593483D01*
X120721202Y-56728328D01*
X120721206Y-56728335D01*
X120807452Y-56843544D01*
X120807455Y-56843547D01*
X120922664Y-56929793D01*
X120922671Y-56929797D01*
X121057517Y-56980091D01*
X121057516Y-56980091D01*
X121064444Y-56980835D01*
X121117127Y-56986500D01*
X126212872Y-56986499D01*
X126272483Y-56980091D01*
X126407331Y-56929796D01*
X126522546Y-56843546D01*
X126608796Y-56728331D01*
X126659091Y-56593483D01*
X126665500Y-56533873D01*
X126665500Y-54933800D01*
X126685185Y-54866761D01*
X126737989Y-54821006D01*
X126789500Y-54809800D01*
X127184492Y-54809800D01*
X127251531Y-54829485D01*
X127290029Y-54868701D01*
X127334288Y-54940456D01*
X127458344Y-55064512D01*
X127607666Y-55156614D01*
X127774203Y-55211799D01*
X127876991Y-55222300D01*
X129277008Y-55222299D01*
X129379797Y-55211799D01*
X129546334Y-55156614D01*
X129695656Y-55064512D01*
X129819712Y-54940456D01*
X129911814Y-54791134D01*
X129966999Y-54624597D01*
X129977500Y-54521809D01*
X129977499Y-53596792D01*
X129975063Y-53572949D01*
X129966999Y-53494003D01*
X129966998Y-53494000D01*
X129953525Y-53453341D01*
X129911814Y-53327466D01*
X129819712Y-53178144D01*
X129695656Y-53054088D01*
X129583858Y-52985131D01*
X129546336Y-52961987D01*
X129546331Y-52961985D01*
X129544862Y-52961498D01*
X129379797Y-52906801D01*
X129379795Y-52906800D01*
X129277010Y-52896300D01*
X127876998Y-52896300D01*
X127876981Y-52896301D01*
X127774203Y-52906800D01*
X127774200Y-52906801D01*
X127607668Y-52961985D01*
X127607663Y-52961987D01*
X127458342Y-53054089D01*
X127334289Y-53178142D01*
X127329075Y-53186596D01*
X127293114Y-53244899D01*
X127290031Y-53249897D01*
X127238083Y-53296621D01*
X127184492Y-53308800D01*
X126789499Y-53308800D01*
X126722460Y-53289115D01*
X126676705Y-53236311D01*
X126665499Y-53184800D01*
X126665499Y-51438129D01*
X126665498Y-51438123D01*
X126665497Y-51438116D01*
X126661055Y-51396786D01*
X127177001Y-51396786D01*
X127187494Y-51499497D01*
X127242641Y-51665919D01*
X127242643Y-51665924D01*
X127334684Y-51815145D01*
X127458654Y-51939115D01*
X127607875Y-52031156D01*
X127607880Y-52031158D01*
X127774302Y-52086305D01*
X127774309Y-52086306D01*
X127877019Y-52096799D01*
X128326999Y-52096799D01*
X128827000Y-52096799D01*
X129276972Y-52096799D01*
X129276986Y-52096798D01*
X129379697Y-52086305D01*
X129546119Y-52031158D01*
X129546124Y-52031156D01*
X129695345Y-51939115D01*
X129819315Y-51815145D01*
X129911356Y-51665924D01*
X129911358Y-51665919D01*
X129966505Y-51499497D01*
X129966506Y-51499490D01*
X129976999Y-51396786D01*
X129977000Y-51396773D01*
X129977000Y-51184300D01*
X128827000Y-51184300D01*
X128827000Y-52096799D01*
X128326999Y-52096799D01*
X128327000Y-52096798D01*
X128327000Y-51184300D01*
X127177001Y-51184300D01*
X127177001Y-51396786D01*
X126661055Y-51396786D01*
X126659091Y-51378517D01*
X126629435Y-51299006D01*
X126608797Y-51243671D01*
X126608796Y-51243670D01*
X126608796Y-51243669D01*
X126522546Y-51128454D01*
X126522544Y-51128453D01*
X126522544Y-51128452D01*
X126407335Y-51042206D01*
X126407328Y-51042202D01*
X126272482Y-50991908D01*
X126272483Y-50991908D01*
X126212883Y-50985501D01*
X126212881Y-50985500D01*
X126212873Y-50985500D01*
X126212864Y-50985500D01*
X121117129Y-50985500D01*
X121117123Y-50985501D01*
X121057516Y-50991908D01*
X120922671Y-51042202D01*
X120922664Y-51042206D01*
X120807455Y-51128452D01*
X120807452Y-51128455D01*
X120721206Y-51243664D01*
X120721202Y-51243671D01*
X120670908Y-51378517D01*
X120664501Y-51438116D01*
X120664501Y-51438123D01*
X120664500Y-51438135D01*
X119430411Y-51438135D01*
X119581227Y-51287319D01*
X119642550Y-51253834D01*
X119668908Y-51251000D01*
X119686793Y-51251000D01*
X119686794Y-51250999D01*
X119744782Y-51239464D01*
X119860758Y-51216396D01*
X119860761Y-51216394D01*
X119860766Y-51216394D01*
X120024647Y-51148513D01*
X120172135Y-51049964D01*
X120297564Y-50924535D01*
X120396113Y-50777047D01*
X120463994Y-50613166D01*
X120476584Y-50549873D01*
X120492112Y-50471813D01*
X127177000Y-50471813D01*
X127177000Y-50684300D01*
X128327000Y-50684300D01*
X128827000Y-50684300D01*
X129976999Y-50684300D01*
X129976999Y-50471828D01*
X129976998Y-50471813D01*
X129966505Y-50369102D01*
X129911358Y-50202680D01*
X129911356Y-50202675D01*
X129819315Y-50053454D01*
X129695345Y-49929484D01*
X129546124Y-49837443D01*
X129546119Y-49837441D01*
X129379697Y-49782294D01*
X129379690Y-49782293D01*
X129276986Y-49771800D01*
X128827000Y-49771800D01*
X128827000Y-50684300D01*
X128327000Y-50684300D01*
X128327000Y-49771800D01*
X127877028Y-49771800D01*
X127877012Y-49771801D01*
X127774302Y-49782294D01*
X127607880Y-49837441D01*
X127607875Y-49837443D01*
X127458654Y-49929484D01*
X127334684Y-50053454D01*
X127242643Y-50202675D01*
X127242641Y-50202680D01*
X127187494Y-50369102D01*
X127187493Y-50369109D01*
X127177000Y-50471813D01*
X120492112Y-50471813D01*
X120497550Y-50444473D01*
X120497550Y-50444472D01*
X120498600Y-50439193D01*
X120498600Y-50261806D01*
X120498599Y-50261804D01*
X120463996Y-50087841D01*
X120463993Y-50087832D01*
X120396116Y-49923959D01*
X120396109Y-49923946D01*
X120311943Y-49797984D01*
X120291065Y-49731307D01*
X120309549Y-49663927D01*
X120346151Y-49625993D01*
X120438835Y-49564064D01*
X120564264Y-49438635D01*
X120662813Y-49291147D01*
X120730694Y-49127266D01*
X120736050Y-49100343D01*
X120758966Y-48985135D01*
X120765300Y-48953291D01*
X120765300Y-48935408D01*
X120784985Y-48868369D01*
X120801619Y-48847727D01*
X121088527Y-48560819D01*
X121149850Y-48527334D01*
X121176208Y-48524500D01*
X129373792Y-48524500D01*
X129440831Y-48544185D01*
X129461473Y-48560819D01*
X130621181Y-49720526D01*
X130654666Y-49781849D01*
X130657500Y-49808207D01*
X130657500Y-65333192D01*
X130637815Y-65400231D01*
X130621181Y-65420873D01*
X129500073Y-66541981D01*
X129438750Y-66575466D01*
X129412392Y-66578300D01*
X127535529Y-66578300D01*
X127409861Y-66603297D01*
X127409855Y-66603299D01*
X127291470Y-66652335D01*
X127184931Y-66723522D01*
X127184924Y-66723528D01*
X126420722Y-67487731D01*
X126420717Y-67487737D01*
X126396098Y-67524584D01*
X126396094Y-67524591D01*
X126391608Y-67531306D01*
X126349535Y-67594273D01*
X126300499Y-67712656D01*
X126298689Y-67721749D01*
X126291705Y-67735888D01*
X126274674Y-67754373D01*
X126260897Y-67775397D01*
X126246394Y-67785069D01*
X126244363Y-67787274D01*
X126242270Y-67787819D01*
X126236830Y-67791448D01*
X126218180Y-67800950D01*
X126046213Y-67925890D01*
X125895890Y-68076213D01*
X125770951Y-68248179D01*
X125674444Y-68437585D01*
X125608753Y-68639760D01*
X125582219Y-68807289D01*
X125575500Y-68849713D01*
X125575500Y-69062287D01*
X125582176Y-69104436D01*
X125608052Y-69267815D01*
X125608754Y-69272243D01*
X125648477Y-69394498D01*
X125674444Y-69474414D01*
X125770951Y-69663820D01*
X125895889Y-69835784D01*
X125895893Y-69835788D01*
X125895896Y-69835792D01*
X125973586Y-69913482D01*
X126049654Y-69989550D01*
X126048236Y-69990967D01*
X126081817Y-70042386D01*
X126087100Y-70078194D01*
X126087100Y-70999770D01*
X126067415Y-71066809D01*
X126050781Y-71087451D01*
X125994889Y-71143342D01*
X125902787Y-71292663D01*
X125902785Y-71292668D01*
X125878314Y-71366516D01*
X125847601Y-71459203D01*
X125847601Y-71459204D01*
X125847600Y-71459204D01*
X125837100Y-71561983D01*
X125837100Y-74662001D01*
X125837101Y-74662018D01*
X125847600Y-74764796D01*
X125847601Y-74764799D01*
X125902785Y-74931331D01*
X125902787Y-74931336D01*
X125911324Y-74945176D01*
X125994888Y-75080656D01*
X126118944Y-75204712D01*
X126221164Y-75267761D01*
X126267888Y-75319709D01*
X126279111Y-75388672D01*
X126251267Y-75452754D01*
X126193199Y-75491610D01*
X126156067Y-75497300D01*
X119930968Y-75497300D01*
X119761833Y-75530943D01*
X119761821Y-75530946D01*
X119602501Y-75596938D01*
X119602488Y-75596945D01*
X119459103Y-75692753D01*
X119459097Y-75692757D01*
X117709675Y-77442181D01*
X117648352Y-77475666D01*
X117621994Y-77478500D01*
X111947606Y-77478500D01*
X111880567Y-77458815D01*
X111859925Y-77442181D01*
X110059702Y-75641957D01*
X110059698Y-75641954D01*
X109916311Y-75546145D01*
X109916298Y-75546138D01*
X109756978Y-75480146D01*
X109756966Y-75480143D01*
X109587832Y-75446500D01*
X109587829Y-75446500D01*
X107909006Y-75446500D01*
X107841967Y-75426815D01*
X107821325Y-75410181D01*
X107517819Y-75106675D01*
X107484334Y-75045352D01*
X107481500Y-75018994D01*
X107481500Y-74711768D01*
X107481499Y-74711766D01*
X107472574Y-74666898D01*
X107447855Y-74542626D01*
X107442832Y-74530500D01*
X107381861Y-74383301D01*
X107381854Y-74383288D01*
X107286046Y-74239902D01*
X107226359Y-74180215D01*
X107164099Y-74117955D01*
X106702640Y-73656496D01*
X106021102Y-72974957D01*
X106021098Y-72974954D01*
X105877711Y-72879145D01*
X105877698Y-72879138D01*
X105718378Y-72813146D01*
X105718366Y-72813143D01*
X105549232Y-72779500D01*
X105549229Y-72779500D01*
X103034629Y-72779500D01*
X100716000Y-72779500D01*
X100648961Y-72759815D01*
X100603206Y-72707011D01*
X100592000Y-72655500D01*
X100592000Y-70567135D01*
X102049500Y-70567135D01*
X102049500Y-71662870D01*
X102049501Y-71662876D01*
X102055908Y-71722483D01*
X102106202Y-71857328D01*
X102106206Y-71857335D01*
X102192452Y-71972544D01*
X102192455Y-71972547D01*
X102307664Y-72058793D01*
X102307671Y-72058797D01*
X102442517Y-72109091D01*
X102442516Y-72109091D01*
X102449444Y-72109835D01*
X102502127Y-72115500D01*
X103597872Y-72115499D01*
X103657483Y-72109091D01*
X103792331Y-72058796D01*
X103804110Y-72049977D01*
X103869570Y-72025558D01*
X103925872Y-72034680D01*
X104028165Y-72077051D01*
X104028169Y-72077051D01*
X104028170Y-72077052D01*
X104221456Y-72115500D01*
X104221459Y-72115500D01*
X104418543Y-72115500D01*
X104548582Y-72089632D01*
X104611835Y-72077051D01*
X104793914Y-72001632D01*
X104886109Y-71940029D01*
X104952786Y-71919151D01*
X105020166Y-71937635D01*
X105023891Y-71940029D01*
X105116080Y-72001628D01*
X105116086Y-72001632D01*
X105116088Y-72001633D01*
X105116092Y-72001635D01*
X105298160Y-72077049D01*
X105298165Y-72077051D01*
X105298169Y-72077051D01*
X105298170Y-72077052D01*
X105491456Y-72115500D01*
X105491459Y-72115500D01*
X105688543Y-72115500D01*
X105818582Y-72089632D01*
X105881835Y-72077051D01*
X106063914Y-72001632D01*
X106227782Y-71892139D01*
X106367139Y-71752782D01*
X106476632Y-71588914D01*
X106552051Y-71406835D01*
X106572910Y-71301970D01*
X106590500Y-71213543D01*
X106590500Y-71016456D01*
X106552052Y-70823170D01*
X106552051Y-70823169D01*
X106552051Y-70823165D01*
X106544947Y-70806015D01*
X106476635Y-70641092D01*
X106476628Y-70641079D01*
X106367139Y-70477218D01*
X106367136Y-70477214D01*
X106227785Y-70337863D01*
X106227781Y-70337860D01*
X106063920Y-70228371D01*
X106063907Y-70228364D01*
X105881839Y-70152950D01*
X105881829Y-70152947D01*
X105688543Y-70114500D01*
X105688541Y-70114500D01*
X105491459Y-70114500D01*
X105491457Y-70114500D01*
X105298170Y-70152947D01*
X105298160Y-70152950D01*
X105116089Y-70228366D01*
X105023890Y-70289971D01*
X104957213Y-70310848D01*
X104889833Y-70292363D01*
X104886110Y-70289971D01*
X104837441Y-70257452D01*
X104793914Y-70228368D01*
X104793911Y-70228366D01*
X104793910Y-70228366D01*
X104611839Y-70152950D01*
X104611829Y-70152947D01*
X104418543Y-70114500D01*
X104418541Y-70114500D01*
X104221459Y-70114500D01*
X104221457Y-70114500D01*
X104028171Y-70152947D01*
X104028168Y-70152948D01*
X104028166Y-70152948D01*
X104028165Y-70152949D01*
X104021871Y-70155556D01*
X103925874Y-70195318D01*
X103856404Y-70202785D01*
X103804113Y-70180023D01*
X103792335Y-70171206D01*
X103792328Y-70171202D01*
X103657482Y-70120908D01*
X103657483Y-70120908D01*
X103597883Y-70114501D01*
X103597881Y-70114500D01*
X103597873Y-70114500D01*
X103597864Y-70114500D01*
X102502129Y-70114500D01*
X102502123Y-70114501D01*
X102442516Y-70120908D01*
X102307671Y-70171202D01*
X102307664Y-70171206D01*
X102192455Y-70257452D01*
X102192452Y-70257455D01*
X102106206Y-70372664D01*
X102106202Y-70372671D01*
X102055908Y-70507517D01*
X102049501Y-70567116D01*
X102049500Y-70567135D01*
X100592000Y-70567135D01*
X100592000Y-67910083D01*
X101967500Y-67910083D01*
X101967500Y-68835101D01*
X101967501Y-68835119D01*
X101978000Y-68937896D01*
X101978001Y-68937899D01*
X102033185Y-69104431D01*
X102033187Y-69104436D01*
X102060670Y-69148993D01*
X102125288Y-69253756D01*
X102249344Y-69377812D01*
X102398666Y-69469914D01*
X102565203Y-69525099D01*
X102667991Y-69535600D01*
X104068008Y-69535599D01*
X104170797Y-69525099D01*
X104337334Y-69469914D01*
X104486656Y-69377812D01*
X104610712Y-69253756D01*
X104616504Y-69244364D01*
X104668449Y-69197640D01*
X104737412Y-69186416D01*
X104769495Y-69194899D01*
X104770252Y-69195212D01*
X104770253Y-69195213D01*
X104934134Y-69263094D01*
X104934136Y-69263094D01*
X104934141Y-69263096D01*
X105108104Y-69297699D01*
X105108107Y-69297700D01*
X105108109Y-69297700D01*
X105285493Y-69297700D01*
X105285494Y-69297699D01*
X105362022Y-69282477D01*
X105459458Y-69263096D01*
X105459461Y-69263094D01*
X105459466Y-69263094D01*
X105623347Y-69195213D01*
X105770835Y-69096664D01*
X105896264Y-68971235D01*
X105977463Y-68849713D01*
X109065500Y-68849713D01*
X109065500Y-69062287D01*
X109072176Y-69104436D01*
X109098052Y-69267815D01*
X109098754Y-69272243D01*
X109138477Y-69394498D01*
X109164444Y-69474414D01*
X109260951Y-69663820D01*
X109385890Y-69835786D01*
X109385896Y-69835792D01*
X109536208Y-69986104D01*
X109614384Y-70042902D01*
X109657051Y-70098231D01*
X109665500Y-70143220D01*
X109665500Y-70452318D01*
X109665500Y-70452320D01*
X109665499Y-70452320D01*
X109694340Y-70597307D01*
X109694343Y-70597317D01*
X109743058Y-70714925D01*
X109750916Y-70733895D01*
X109774431Y-70769088D01*
X109774430Y-70769088D01*
X109833046Y-70856814D01*
X109833047Y-70856815D01*
X109833048Y-70856816D01*
X109963879Y-70987647D01*
X109997363Y-71048968D01*
X109992379Y-71118660D01*
X109981736Y-71140423D01*
X109900789Y-71271659D01*
X109900785Y-71271668D01*
X109890744Y-71301970D01*
X109845601Y-71438203D01*
X109845601Y-71438204D01*
X109845600Y-71438204D01*
X109835100Y-71540983D01*
X109835100Y-74641001D01*
X109835101Y-74641018D01*
X109845601Y-74743795D01*
X109845601Y-74743797D01*
X109900785Y-74910331D01*
X109900787Y-74910336D01*
X109912025Y-74928556D01*
X109992888Y-75059656D01*
X110116944Y-75183712D01*
X110266266Y-75275814D01*
X110432803Y-75330999D01*
X110535591Y-75341500D01*
X111135608Y-75341499D01*
X111135616Y-75341498D01*
X111135619Y-75341498D01*
X111191902Y-75335748D01*
X111238397Y-75330999D01*
X111404934Y-75275814D01*
X111554256Y-75183712D01*
X111678312Y-75059656D01*
X111730061Y-74975756D01*
X111782009Y-74929032D01*
X111850971Y-74917809D01*
X111915054Y-74945653D01*
X111941139Y-74975757D01*
X111992695Y-75059344D01*
X111992888Y-75059656D01*
X112116944Y-75183712D01*
X112266266Y-75275814D01*
X112432803Y-75330999D01*
X112535591Y-75341500D01*
X113135608Y-75341499D01*
X113135616Y-75341498D01*
X113135619Y-75341498D01*
X113191902Y-75335748D01*
X113238397Y-75330999D01*
X113404934Y-75275814D01*
X113554256Y-75183712D01*
X113678312Y-75059656D01*
X113730061Y-74975756D01*
X113782009Y-74929032D01*
X113850971Y-74917809D01*
X113915054Y-74945653D01*
X113941139Y-74975757D01*
X113992695Y-75059344D01*
X113992888Y-75059656D01*
X114116944Y-75183712D01*
X114266266Y-75275814D01*
X114432803Y-75330999D01*
X114535591Y-75341500D01*
X115135608Y-75341499D01*
X115135616Y-75341498D01*
X115135619Y-75341498D01*
X115191902Y-75335748D01*
X115238397Y-75330999D01*
X115404934Y-75275814D01*
X115554256Y-75183712D01*
X115678312Y-75059656D01*
X115730355Y-74975279D01*
X115782301Y-74928556D01*
X115851264Y-74917333D01*
X115915346Y-74945176D01*
X115941431Y-74975280D01*
X115993280Y-75059340D01*
X115993283Y-75059344D01*
X116117254Y-75183315D01*
X116266475Y-75275356D01*
X116266480Y-75275358D01*
X116432902Y-75330505D01*
X116432909Y-75330506D01*
X116535619Y-75340999D01*
X116585599Y-75340998D01*
X116585600Y-75340998D01*
X116585600Y-70841000D01*
X116585599Y-70840999D01*
X116535629Y-70841000D01*
X116535611Y-70841001D01*
X116432902Y-70851494D01*
X116281919Y-70901525D01*
X116212090Y-70903927D01*
X116152049Y-70868195D01*
X116120856Y-70805674D01*
X116128417Y-70736215D01*
X116139811Y-70714930D01*
X116161084Y-70683095D01*
X116178488Y-70641079D01*
X116187840Y-70618501D01*
X116197422Y-70595368D01*
X116217659Y-70546512D01*
X116244507Y-70411535D01*
X116246500Y-70401518D01*
X116246500Y-70143220D01*
X116246830Y-70142093D01*
X116246521Y-70140962D01*
X116256646Y-70108665D01*
X116266185Y-70076181D01*
X116267186Y-70075046D01*
X116267423Y-70074292D01*
X116272631Y-70068877D01*
X116291018Y-70048044D01*
X116294230Y-70045361D01*
X116375792Y-69986104D01*
X116526104Y-69835792D01*
X116526106Y-69835788D01*
X116526109Y-69835786D01*
X116601601Y-69731879D01*
X116651051Y-69663816D01*
X116655793Y-69654508D01*
X116703763Y-69603711D01*
X116771583Y-69586911D01*
X116837719Y-69609445D01*
X116876763Y-69654500D01*
X116881373Y-69663547D01*
X116920728Y-69717716D01*
X117553037Y-69085408D01*
X117570075Y-69148993D01*
X117635901Y-69263007D01*
X117728993Y-69356099D01*
X117843007Y-69421925D01*
X117906590Y-69438962D01*
X117274282Y-70071269D01*
X117274282Y-70071270D01*
X117328449Y-70110624D01*
X117517782Y-70207095D01*
X117719870Y-70272757D01*
X117929754Y-70306000D01*
X118142246Y-70306000D01*
X118352127Y-70272757D01*
X118352130Y-70272757D01*
X118554217Y-70207095D01*
X118743554Y-70110622D01*
X118797716Y-70071270D01*
X118797717Y-70071270D01*
X118165408Y-69438962D01*
X118228993Y-69421925D01*
X118343007Y-69356099D01*
X118436099Y-69263007D01*
X118501925Y-69148993D01*
X118518962Y-69085409D01*
X119189181Y-69755628D01*
X119222666Y-69816951D01*
X119225500Y-69843300D01*
X119225500Y-69853865D01*
X119225501Y-69853876D01*
X119231908Y-69913483D01*
X119282202Y-70048328D01*
X119282206Y-70048335D01*
X119368452Y-70163544D01*
X119368455Y-70163547D01*
X119483664Y-70249793D01*
X119483671Y-70249797D01*
X119528618Y-70266561D01*
X119618517Y-70300091D01*
X119678127Y-70306500D01*
X119701497Y-70306499D01*
X119768536Y-70326181D01*
X119814292Y-70378983D01*
X119825500Y-70430499D01*
X119825500Y-70970170D01*
X119805815Y-71037209D01*
X119753011Y-71082964D01*
X119683853Y-71092908D01*
X119620297Y-71063883D01*
X119613819Y-71057851D01*
X119554257Y-70998289D01*
X119554256Y-70998288D01*
X119413827Y-70911671D01*
X119404936Y-70906187D01*
X119404931Y-70906185D01*
X119390868Y-70901525D01*
X119238397Y-70851001D01*
X119238395Y-70851000D01*
X119135610Y-70840500D01*
X118535598Y-70840500D01*
X118535580Y-70840501D01*
X118432803Y-70851000D01*
X118432800Y-70851001D01*
X118266268Y-70906185D01*
X118266263Y-70906187D01*
X118116942Y-70998289D01*
X117992888Y-71122343D01*
X117992885Y-71122347D01*
X117940844Y-71206719D01*
X117888896Y-71253444D01*
X117819934Y-71264665D01*
X117755852Y-71236822D01*
X117729767Y-71206719D01*
X117677915Y-71122654D01*
X117553945Y-70998684D01*
X117404724Y-70906643D01*
X117404719Y-70906641D01*
X117238297Y-70851494D01*
X117238290Y-70851493D01*
X117135586Y-70841000D01*
X117085600Y-70841000D01*
X117085600Y-75340999D01*
X117135572Y-75340999D01*
X117135586Y-75340998D01*
X117238297Y-75330505D01*
X117404719Y-75275358D01*
X117404724Y-75275356D01*
X117553945Y-75183315D01*
X117677917Y-75059343D01*
X117729767Y-74975281D01*
X117781715Y-74928556D01*
X117850677Y-74917333D01*
X117914759Y-74945176D01*
X117940844Y-74975279D01*
X117992888Y-75059656D01*
X118116944Y-75183712D01*
X118266266Y-75275814D01*
X118432803Y-75330999D01*
X118535591Y-75341500D01*
X119135608Y-75341499D01*
X119135616Y-75341498D01*
X119135619Y-75341498D01*
X119191902Y-75335748D01*
X119238397Y-75330999D01*
X119404934Y-75275814D01*
X119554256Y-75183712D01*
X119678312Y-75059656D01*
X119770414Y-74910334D01*
X119825599Y-74743797D01*
X119836100Y-74641009D01*
X119836100Y-73965500D01*
X119855785Y-73898461D01*
X119908589Y-73852706D01*
X119960100Y-73841500D01*
X122675266Y-73841500D01*
X122742305Y-73861185D01*
X122788060Y-73913989D01*
X122789805Y-73917997D01*
X122815613Y-73980301D01*
X122825988Y-74005349D01*
X122825990Y-74005353D01*
X122924535Y-74152834D01*
X122924538Y-74152838D01*
X123049961Y-74278261D01*
X123049965Y-74278264D01*
X123197446Y-74376809D01*
X123197459Y-74376816D01*
X123320363Y-74427723D01*
X123361334Y-74444694D01*
X123361336Y-74444694D01*
X123361341Y-74444696D01*
X123535304Y-74479299D01*
X123535307Y-74479300D01*
X123535309Y-74479300D01*
X123712693Y-74479300D01*
X123712694Y-74479299D01*
X123770682Y-74467764D01*
X123886658Y-74444696D01*
X123886661Y-74444694D01*
X123886666Y-74444694D01*
X124050547Y-74376813D01*
X124198035Y-74278264D01*
X124323464Y-74152835D01*
X124422013Y-74005347D01*
X124489894Y-73841466D01*
X124524500Y-73667491D01*
X124524500Y-73490109D01*
X124524500Y-73490106D01*
X124524499Y-73490104D01*
X124489896Y-73316141D01*
X124489893Y-73316132D01*
X124422016Y-73152259D01*
X124422009Y-73152246D01*
X124323464Y-73004765D01*
X124323461Y-73004761D01*
X124198038Y-72879338D01*
X124198034Y-72879335D01*
X124050553Y-72780790D01*
X124050540Y-72780783D01*
X123886668Y-72712906D01*
X123886660Y-72712904D01*
X123839680Y-72703559D01*
X123777769Y-72671174D01*
X123776246Y-72669678D01*
X123614616Y-72508048D01*
X123497874Y-72430045D01*
X123497869Y-72430041D01*
X123491700Y-72425919D01*
X123491697Y-72425917D01*
X123355113Y-72369342D01*
X123355107Y-72369340D01*
X123210120Y-72340500D01*
X123210118Y-72340500D01*
X121425363Y-72340500D01*
X121358324Y-72320815D01*
X121312569Y-72268011D01*
X121302625Y-72198853D01*
X121303746Y-72192308D01*
X121326500Y-72077920D01*
X121326500Y-70430499D01*
X121346185Y-70363460D01*
X121398989Y-70317705D01*
X121450500Y-70306499D01*
X121473871Y-70306499D01*
X121473872Y-70306499D01*
X121533483Y-70300091D01*
X121668331Y-70249796D01*
X121783546Y-70163546D01*
X121869796Y-70048331D01*
X121920091Y-69913483D01*
X121926500Y-69853873D01*
X121926499Y-68058128D01*
X121920091Y-67998517D01*
X121919684Y-67997427D01*
X121869797Y-67863671D01*
X121869793Y-67863664D01*
X121783547Y-67748455D01*
X121783544Y-67748452D01*
X121668335Y-67662206D01*
X121668328Y-67662202D01*
X121533482Y-67611908D01*
X121533483Y-67611908D01*
X121473883Y-67605501D01*
X121473881Y-67605500D01*
X121473873Y-67605500D01*
X121473864Y-67605500D01*
X119678129Y-67605500D01*
X119678123Y-67605501D01*
X119618516Y-67611908D01*
X119483671Y-67662202D01*
X119483664Y-67662206D01*
X119368455Y-67748452D01*
X119368452Y-67748455D01*
X119282206Y-67863664D01*
X119282202Y-67863671D01*
X119231908Y-67998517D01*
X119225501Y-68058116D01*
X119225501Y-68058123D01*
X119225500Y-68058135D01*
X119225500Y-68068690D01*
X119205815Y-68135729D01*
X119189181Y-68156371D01*
X118518962Y-68826590D01*
X118501925Y-68763007D01*
X118436099Y-68648993D01*
X118343007Y-68555901D01*
X118228993Y-68490075D01*
X118165409Y-68473037D01*
X118797716Y-67840728D01*
X118743550Y-67801375D01*
X118554217Y-67704904D01*
X118352129Y-67639242D01*
X118142246Y-67606000D01*
X117929754Y-67606000D01*
X117719872Y-67639242D01*
X117719869Y-67639242D01*
X117517782Y-67704904D01*
X117328439Y-67801380D01*
X117274282Y-67840727D01*
X117274282Y-67840728D01*
X117906591Y-68473037D01*
X117843007Y-68490075D01*
X117728993Y-68555901D01*
X117635901Y-68648993D01*
X117570075Y-68763007D01*
X117553037Y-68826591D01*
X116920728Y-68194282D01*
X116920727Y-68194282D01*
X116881380Y-68248440D01*
X116881376Y-68248446D01*
X116876760Y-68257505D01*
X116828781Y-68308297D01*
X116760959Y-68325087D01*
X116694826Y-68302543D01*
X116655794Y-68257493D01*
X116651051Y-68248184D01*
X116651049Y-68248181D01*
X116651048Y-68248179D01*
X116526109Y-68076213D01*
X116375786Y-67925890D01*
X116199875Y-67798085D01*
X116200851Y-67796740D01*
X116158834Y-67750295D01*
X116146500Y-67696382D01*
X116146500Y-66936500D01*
X116166185Y-66869461D01*
X116218989Y-66823706D01*
X116270500Y-66812500D01*
X123140638Y-66812500D01*
X123207677Y-66832185D01*
X123228319Y-66848819D01*
X123240961Y-66861461D01*
X123240965Y-66861464D01*
X123388446Y-66960009D01*
X123388459Y-66960016D01*
X123510184Y-67010435D01*
X123552334Y-67027894D01*
X123552336Y-67027894D01*
X123552341Y-67027896D01*
X123726304Y-67062499D01*
X123726307Y-67062500D01*
X123726309Y-67062500D01*
X123903693Y-67062500D01*
X123903694Y-67062499D01*
X123961682Y-67050964D01*
X124077658Y-67027896D01*
X124077661Y-67027894D01*
X124077666Y-67027894D01*
X124241547Y-66960013D01*
X124389035Y-66861464D01*
X124514464Y-66736035D01*
X124613013Y-66588547D01*
X124680894Y-66424666D01*
X124696849Y-66344458D01*
X124715499Y-66250695D01*
X124715500Y-66250693D01*
X124715500Y-66073306D01*
X124715499Y-66073304D01*
X124700022Y-65995491D01*
X124706249Y-65925899D01*
X124749113Y-65870722D01*
X124815002Y-65847478D01*
X124821639Y-65847300D01*
X125426638Y-65847300D01*
X125493677Y-65866985D01*
X125514319Y-65883619D01*
X125526961Y-65896261D01*
X125526965Y-65896264D01*
X125674446Y-65994809D01*
X125674459Y-65994816D01*
X125769617Y-66034231D01*
X125838334Y-66062694D01*
X125838336Y-66062694D01*
X125838341Y-66062696D01*
X126012304Y-66097299D01*
X126012307Y-66097300D01*
X126012309Y-66097300D01*
X126189693Y-66097300D01*
X126189694Y-66097299D01*
X126280585Y-66079220D01*
X126363658Y-66062696D01*
X126363661Y-66062694D01*
X126363666Y-66062694D01*
X126527547Y-65994813D01*
X126675035Y-65896264D01*
X126800464Y-65770835D01*
X126899013Y-65623347D01*
X126902688Y-65614476D01*
X126908958Y-65599335D01*
X126966894Y-65459466D01*
X126967007Y-65458902D01*
X126992012Y-65333192D01*
X127001500Y-65285491D01*
X127001500Y-65108109D01*
X127001500Y-65108106D01*
X127001499Y-65108104D01*
X126966896Y-64934141D01*
X126966893Y-64934132D01*
X126899016Y-64770259D01*
X126899009Y-64770246D01*
X126800464Y-64622765D01*
X126800461Y-64622761D01*
X126675038Y-64497338D01*
X126675034Y-64497335D01*
X126527553Y-64398790D01*
X126527540Y-64398783D01*
X126363667Y-64330906D01*
X126363658Y-64330903D01*
X126189694Y-64296300D01*
X126189691Y-64296300D01*
X126012309Y-64296300D01*
X126012306Y-64296300D01*
X125838341Y-64330903D01*
X125838332Y-64330906D01*
X125674459Y-64398783D01*
X125674446Y-64398790D01*
X125526965Y-64497335D01*
X125526961Y-64497338D01*
X125514319Y-64509981D01*
X125452996Y-64543466D01*
X125426638Y-64546300D01*
X115089529Y-64546300D01*
X114963861Y-64571297D01*
X114963855Y-64571299D01*
X114845474Y-64620334D01*
X114738926Y-64691526D01*
X112450726Y-66979726D01*
X112379534Y-67086274D01*
X112330499Y-67204655D01*
X112330497Y-67204661D01*
X112305500Y-67330328D01*
X112305500Y-67696382D01*
X112285815Y-67763421D01*
X112251408Y-67797099D01*
X112252125Y-67798085D01*
X112076213Y-67925890D01*
X111925890Y-68076213D01*
X111800949Y-68248182D01*
X111796484Y-68256946D01*
X111748509Y-68307742D01*
X111680688Y-68324536D01*
X111614553Y-68301998D01*
X111575516Y-68256946D01*
X111571050Y-68248182D01*
X111446109Y-68076213D01*
X111295786Y-67925890D01*
X111123820Y-67800951D01*
X110934414Y-67704444D01*
X110934413Y-67704443D01*
X110934412Y-67704443D01*
X110732243Y-67638754D01*
X110732241Y-67638753D01*
X110732240Y-67638753D01*
X110570957Y-67613208D01*
X110522287Y-67605500D01*
X110309713Y-67605500D01*
X110261042Y-67613208D01*
X110099760Y-67638753D01*
X109897585Y-67704444D01*
X109708179Y-67800951D01*
X109536213Y-67925890D01*
X109385890Y-68076213D01*
X109260951Y-68248179D01*
X109164444Y-68437585D01*
X109098753Y-68639760D01*
X109072219Y-68807289D01*
X109065500Y-68849713D01*
X105977463Y-68849713D01*
X105994813Y-68823747D01*
X106062694Y-68659866D01*
X106066694Y-68639760D01*
X106085764Y-68543882D01*
X106097300Y-68485891D01*
X106097300Y-68308509D01*
X106097300Y-68308506D01*
X106097299Y-68308504D01*
X106062696Y-68134541D01*
X106062693Y-68134532D01*
X105994816Y-67970659D01*
X105994809Y-67970646D01*
X105896264Y-67823165D01*
X105896261Y-67823161D01*
X105770838Y-67697738D01*
X105770834Y-67697735D01*
X105623353Y-67599190D01*
X105623340Y-67599183D01*
X105459467Y-67531306D01*
X105459458Y-67531303D01*
X105285494Y-67496700D01*
X105285491Y-67496700D01*
X105108109Y-67496700D01*
X105108106Y-67496700D01*
X104934141Y-67531303D01*
X104934132Y-67531306D01*
X104793667Y-67589488D01*
X104724197Y-67596957D01*
X104661718Y-67565681D01*
X104640676Y-67540024D01*
X104635297Y-67531303D01*
X104610712Y-67491444D01*
X104486656Y-67367388D01*
X104346522Y-67280953D01*
X104337336Y-67275287D01*
X104337331Y-67275285D01*
X104314236Y-67267632D01*
X104170797Y-67220101D01*
X104170795Y-67220100D01*
X104068010Y-67209600D01*
X102667998Y-67209600D01*
X102667981Y-67209601D01*
X102565203Y-67220100D01*
X102565200Y-67220101D01*
X102398668Y-67275285D01*
X102398663Y-67275287D01*
X102249342Y-67367389D01*
X102125289Y-67491442D01*
X102033187Y-67640763D01*
X102033185Y-67640768D01*
X101978000Y-67807304D01*
X101967500Y-67910083D01*
X100592000Y-67910083D01*
X100592000Y-65710086D01*
X101968001Y-65710086D01*
X101978494Y-65812797D01*
X102033641Y-65979219D01*
X102033643Y-65979224D01*
X102125684Y-66128445D01*
X102249654Y-66252415D01*
X102398875Y-66344456D01*
X102398880Y-66344458D01*
X102565302Y-66399605D01*
X102565309Y-66399606D01*
X102668019Y-66410099D01*
X103117999Y-66410099D01*
X103618000Y-66410099D01*
X104067972Y-66410099D01*
X104067986Y-66410098D01*
X104170697Y-66399605D01*
X104337119Y-66344458D01*
X104337124Y-66344456D01*
X104486345Y-66252415D01*
X104610315Y-66128445D01*
X104702356Y-65979224D01*
X104702358Y-65979219D01*
X104757505Y-65812797D01*
X104757506Y-65812790D01*
X104767999Y-65710086D01*
X104768000Y-65710073D01*
X104768000Y-65497600D01*
X103618000Y-65497600D01*
X103618000Y-66410099D01*
X103117999Y-66410099D01*
X103118000Y-66410098D01*
X103118000Y-65497600D01*
X101968001Y-65497600D01*
X101968001Y-65710086D01*
X100592000Y-65710086D01*
X100592000Y-65256868D01*
X100591999Y-65256866D01*
X100582327Y-65208243D01*
X100558355Y-65087726D01*
X100558353Y-65087721D01*
X100492361Y-64928401D01*
X100492354Y-64928388D01*
X100440548Y-64850855D01*
X100396620Y-64785113D01*
X101968000Y-64785113D01*
X101968000Y-64997600D01*
X103118000Y-64997600D01*
X103618000Y-64997600D01*
X104767999Y-64997600D01*
X104767999Y-64785128D01*
X104767998Y-64785113D01*
X104757505Y-64682402D01*
X104702358Y-64515980D01*
X104702356Y-64515975D01*
X104610315Y-64366754D01*
X104486345Y-64242784D01*
X104337124Y-64150743D01*
X104337119Y-64150741D01*
X104170697Y-64095594D01*
X104170690Y-64095593D01*
X104067986Y-64085100D01*
X103618000Y-64085100D01*
X103618000Y-64997600D01*
X103118000Y-64997600D01*
X103118000Y-64085100D01*
X102668028Y-64085100D01*
X102668012Y-64085101D01*
X102565302Y-64095594D01*
X102398880Y-64150741D01*
X102398875Y-64150743D01*
X102249654Y-64242784D01*
X102125684Y-64366754D01*
X102033643Y-64515975D01*
X102033641Y-64515980D01*
X101978494Y-64682402D01*
X101978493Y-64682409D01*
X101968000Y-64785113D01*
X100396620Y-64785113D01*
X100396546Y-64785002D01*
X100356487Y-64744943D01*
X100274599Y-64663055D01*
X99608580Y-63997036D01*
X98909102Y-63297557D01*
X98909098Y-63297554D01*
X98765711Y-63201745D01*
X98765698Y-63201738D01*
X98606378Y-63135746D01*
X98606366Y-63135743D01*
X98437232Y-63102100D01*
X98437229Y-63102100D01*
X86459206Y-63102100D01*
X86392167Y-63082415D01*
X86371525Y-63065781D01*
X85942899Y-62637155D01*
X84977702Y-61671957D01*
X84977698Y-61671954D01*
X84834311Y-61576145D01*
X84834298Y-61576138D01*
X84674978Y-61510146D01*
X84674966Y-61510143D01*
X84505832Y-61476500D01*
X84505829Y-61476500D01*
X84133758Y-61476500D01*
X84066719Y-61456815D01*
X84046077Y-61440181D01*
X83927786Y-61321890D01*
X83755820Y-61196951D01*
X83755115Y-61196591D01*
X83747054Y-61192485D01*
X83696259Y-61144512D01*
X83679463Y-61076692D01*
X83701999Y-61010556D01*
X83747054Y-60971515D01*
X83755816Y-60967051D01*
X83852384Y-60896891D01*
X83927786Y-60842109D01*
X83927788Y-60842106D01*
X83927792Y-60842104D01*
X84078104Y-60691792D01*
X84078106Y-60691788D01*
X84078109Y-60691786D01*
X84203048Y-60519820D01*
X84203047Y-60519820D01*
X84203051Y-60519816D01*
X84299557Y-60330412D01*
X84365246Y-60128243D01*
X84398500Y-59918287D01*
X84398500Y-59705713D01*
X84365246Y-59495757D01*
X84299557Y-59293588D01*
X84203051Y-59104184D01*
X84203049Y-59104181D01*
X84203048Y-59104179D01*
X84078109Y-58932213D01*
X83964181Y-58818285D01*
X83930696Y-58756962D01*
X83935680Y-58687270D01*
X83977552Y-58631337D01*
X84008529Y-58614422D01*
X84140086Y-58565354D01*
X84140093Y-58565350D01*
X84255187Y-58479190D01*
X84255190Y-58479187D01*
X84341350Y-58364093D01*
X84341354Y-58364086D01*
X84391596Y-58229379D01*
X84391598Y-58229372D01*
X84397999Y-58169844D01*
X84398000Y-58169827D01*
X84398000Y-57522000D01*
X83481012Y-57522000D01*
X83513925Y-57464993D01*
X83548000Y-57337826D01*
X83548000Y-57206174D01*
X83513925Y-57079007D01*
X83481012Y-57022000D01*
X84398000Y-57022000D01*
X84398000Y-56374172D01*
X84397999Y-56374155D01*
X84391598Y-56314627D01*
X84391596Y-56314620D01*
X84341354Y-56179913D01*
X84341350Y-56179906D01*
X84255190Y-56064812D01*
X84255187Y-56064809D01*
X84140093Y-55978649D01*
X84140086Y-55978645D01*
X84005379Y-55928403D01*
X84005372Y-55928401D01*
X83945844Y-55922000D01*
X83298000Y-55922000D01*
X83298000Y-56838988D01*
X83240993Y-56806075D01*
X83113826Y-56772000D01*
X82982174Y-56772000D01*
X82855007Y-56806075D01*
X82798000Y-56838988D01*
X82798000Y-55922000D01*
X82150155Y-55922000D01*
X82090627Y-55928401D01*
X82090620Y-55928403D01*
X81955913Y-55978645D01*
X81955906Y-55978649D01*
X81840812Y-56064809D01*
X81840809Y-56064812D01*
X81754649Y-56179906D01*
X81754645Y-56179913D01*
X81704403Y-56314620D01*
X81704401Y-56314627D01*
X81698000Y-56374155D01*
X81698000Y-57022000D01*
X82614988Y-57022000D01*
X82582075Y-57079007D01*
X82548000Y-57206174D01*
X82548000Y-57337826D01*
X82582075Y-57464993D01*
X82614988Y-57522000D01*
X81698000Y-57522000D01*
X81698000Y-58169844D01*
X81704401Y-58229372D01*
X81704403Y-58229379D01*
X81754645Y-58364086D01*
X81754649Y-58364093D01*
X81840809Y-58479187D01*
X81840812Y-58479190D01*
X81955906Y-58565350D01*
X81955913Y-58565354D01*
X82087470Y-58614422D01*
X82143404Y-58656293D01*
X82167821Y-58721758D01*
X82152969Y-58790031D01*
X82131819Y-58818285D01*
X82017889Y-58932215D01*
X81892951Y-59104179D01*
X81796444Y-59293585D01*
X81730753Y-59495760D01*
X81700349Y-59687724D01*
X81697500Y-59705713D01*
X80500500Y-59705713D01*
X80500500Y-53090186D01*
X81811301Y-53090186D01*
X81821794Y-53192897D01*
X81876941Y-53359319D01*
X81876943Y-53359324D01*
X81968984Y-53508545D01*
X82092954Y-53632515D01*
X82242175Y-53724556D01*
X82242180Y-53724558D01*
X82408602Y-53779705D01*
X82408609Y-53779706D01*
X82511319Y-53790199D01*
X82848799Y-53790199D01*
X83348800Y-53790199D01*
X83686272Y-53790199D01*
X83686286Y-53790198D01*
X83788997Y-53779705D01*
X83955419Y-53724558D01*
X83955424Y-53724556D01*
X84104645Y-53632515D01*
X84228615Y-53508545D01*
X84320656Y-53359324D01*
X84320658Y-53359319D01*
X84375805Y-53192897D01*
X84375806Y-53192890D01*
X84386299Y-53090186D01*
X84386300Y-53090173D01*
X84386300Y-51840200D01*
X83348800Y-51840200D01*
X83348800Y-53790199D01*
X82848799Y-53790199D01*
X82848800Y-53790198D01*
X82848800Y-51840200D01*
X81811301Y-51840200D01*
X81811301Y-53090186D01*
X80500500Y-53090186D01*
X80500500Y-50090213D01*
X81811300Y-50090213D01*
X81811300Y-51340200D01*
X82848800Y-51340200D01*
X83348800Y-51340200D01*
X84386299Y-51340200D01*
X84386299Y-50090224D01*
X84386298Y-50090216D01*
X84386295Y-50090183D01*
X86085800Y-50090183D01*
X86085800Y-53090201D01*
X86085801Y-53090218D01*
X86096300Y-53192996D01*
X86096301Y-53192999D01*
X86151485Y-53359531D01*
X86151487Y-53359536D01*
X86178008Y-53402534D01*
X86243588Y-53508856D01*
X86367644Y-53632912D01*
X86516966Y-53725014D01*
X86538301Y-53732083D01*
X86558335Y-53745953D01*
X86580503Y-53756077D01*
X86586550Y-53765486D01*
X86595746Y-53771853D01*
X86605101Y-53794354D01*
X86618277Y-53814855D01*
X86620735Y-53831951D01*
X86622571Y-53836367D01*
X86623300Y-53849790D01*
X86623300Y-53931056D01*
X86603615Y-53998095D01*
X86602402Y-53999946D01*
X86567993Y-54051442D01*
X86567983Y-54051460D01*
X86500106Y-54215332D01*
X86500103Y-54215341D01*
X86465500Y-54389304D01*
X86465500Y-54566695D01*
X86500103Y-54740658D01*
X86500106Y-54740667D01*
X86567983Y-54904540D01*
X86567990Y-54904553D01*
X86666535Y-55052034D01*
X86666538Y-55052038D01*
X86791961Y-55177461D01*
X86791965Y-55177464D01*
X86939446Y-55276009D01*
X86939459Y-55276016D01*
X87062363Y-55326923D01*
X87103334Y-55343894D01*
X87103336Y-55343894D01*
X87103341Y-55343896D01*
X87277304Y-55378499D01*
X87277307Y-55378500D01*
X87277309Y-55378500D01*
X87454693Y-55378500D01*
X87454694Y-55378499D01*
X87512682Y-55366964D01*
X87628658Y-55343896D01*
X87628661Y-55343894D01*
X87628666Y-55343894D01*
X87792547Y-55276013D01*
X87940035Y-55177464D01*
X88065464Y-55052035D01*
X88164013Y-54904547D01*
X88231894Y-54740666D01*
X88266500Y-54566691D01*
X88266500Y-54389309D01*
X88266500Y-54389306D01*
X88266499Y-54389304D01*
X88231896Y-54215341D01*
X88231893Y-54215332D01*
X88164016Y-54051460D01*
X88164015Y-54051459D01*
X88164013Y-54051453D01*
X88145196Y-54023292D01*
X88139546Y-54005246D01*
X88129323Y-53989338D01*
X88124871Y-53958377D01*
X88124320Y-53956616D01*
X88124300Y-53954403D01*
X88124300Y-53849790D01*
X88143985Y-53782751D01*
X88196789Y-53736996D01*
X88209285Y-53732087D01*
X88230634Y-53725014D01*
X88379956Y-53632912D01*
X88504012Y-53508856D01*
X88596114Y-53359534D01*
X88651299Y-53192997D01*
X88661800Y-53090209D01*
X88661799Y-50090192D01*
X88651299Y-49987403D01*
X88596114Y-49820866D01*
X88504012Y-49671544D01*
X88379956Y-49547488D01*
X88230634Y-49455386D01*
X88064097Y-49400201D01*
X88064095Y-49400200D01*
X87961310Y-49389700D01*
X86786298Y-49389700D01*
X86786281Y-49389701D01*
X86683503Y-49400200D01*
X86683500Y-49400201D01*
X86516968Y-49455385D01*
X86516963Y-49455387D01*
X86367642Y-49547489D01*
X86243589Y-49671542D01*
X86151487Y-49820863D01*
X86151485Y-49820868D01*
X86145993Y-49837443D01*
X86096301Y-49987403D01*
X86096301Y-49987404D01*
X86096300Y-49987404D01*
X86085800Y-50090183D01*
X84386295Y-50090183D01*
X84375805Y-49987502D01*
X84320658Y-49821080D01*
X84320656Y-49821075D01*
X84228615Y-49671854D01*
X84104645Y-49547884D01*
X83955424Y-49455843D01*
X83955419Y-49455841D01*
X83788997Y-49400694D01*
X83788990Y-49400693D01*
X83686286Y-49390200D01*
X83348800Y-49390200D01*
X83348800Y-51340200D01*
X82848800Y-51340200D01*
X82848800Y-49390200D01*
X82511328Y-49390200D01*
X82511312Y-49390201D01*
X82408602Y-49400694D01*
X82242180Y-49455841D01*
X82242175Y-49455843D01*
X82092954Y-49547884D01*
X81968984Y-49671854D01*
X81876943Y-49821075D01*
X81876941Y-49821080D01*
X81821794Y-49987502D01*
X81821793Y-49987509D01*
X81811300Y-50090213D01*
X80500500Y-50090213D01*
X80500500Y-44528303D01*
X80520185Y-44461264D01*
X80572989Y-44415509D01*
X80642147Y-44405565D01*
X80705703Y-44434590D01*
X80729492Y-44462329D01*
X80794108Y-44565164D01*
X80914182Y-44715732D01*
X80972606Y-44788994D01*
X80983221Y-44802304D01*
X81197696Y-45016779D01*
X81434836Y-45205892D01*
X81691659Y-45367265D01*
X81964935Y-45498868D01*
X82118030Y-45552438D01*
X82251216Y-45599042D01*
X82251228Y-45599046D01*
X82546937Y-45666540D01*
X82546946Y-45666541D01*
X82546951Y-45666542D01*
X82747874Y-45689180D01*
X82848337Y-45700499D01*
X82848340Y-45700500D01*
X82848343Y-45700500D01*
X83151660Y-45700500D01*
X83151661Y-45700499D01*
X83305694Y-45683144D01*
X83453048Y-45666542D01*
X83453051Y-45666541D01*
X83453063Y-45666540D01*
X83748772Y-45599046D01*
X84035065Y-45498868D01*
X84308341Y-45367265D01*
X84565164Y-45205892D01*
X84802304Y-45016779D01*
X85016779Y-44802304D01*
X85205892Y-44565164D01*
X85367265Y-44308341D01*
X85498868Y-44035065D01*
X85599046Y-43748772D01*
X85666540Y-43453063D01*
X85674862Y-43379208D01*
X85693915Y-43210103D01*
X85700500Y-43151657D01*
X85700500Y-42848343D01*
X85682220Y-42686099D01*
X85666542Y-42546951D01*
X85666541Y-42546946D01*
X85666540Y-42546937D01*
X85599046Y-42251228D01*
X85597261Y-42246128D01*
X85547600Y-42104203D01*
X85498868Y-41964935D01*
X85367265Y-41691659D01*
X85205892Y-41434836D01*
X85016779Y-41197696D01*
X84802304Y-40983221D01*
X84565164Y-40794108D01*
X84462332Y-40729494D01*
X84416041Y-40677159D01*
X84405393Y-40608106D01*
X84433768Y-40544257D01*
X84492158Y-40505885D01*
X84528304Y-40500500D01*
X91212351Y-40500500D01*
X91226024Y-40501256D01*
G37*
%TD.AperFunction*%
%TD*%
M02*
