%TF.GenerationSoftware,KiCad,Pcbnew,9.0.2*%
%TF.CreationDate,2025-06-17T20:14:42+02:00*%
%TF.ProjectId,elrs_tx_full,656c7273-5f74-4785-9f66-756c6c2e6b69,rev?*%
%TF.SameCoordinates,Original*%
%TF.FileFunction,Profile,NP*%
%FSLAX46Y46*%
G04 Gerber Fmt 4.6, Leading zero omitted, Abs format (unit mm)*
G04 Created by KiCad (PCBNEW 9.0.2) date 2025-06-17 20:14:42*
%MOMM*%
%LPD*%
G01*
G04 APERTURE LIST*
%TA.AperFunction,Profile*%
%ADD10C,0.050000*%
%TD*%
G04 APERTURE END LIST*
D10*
X94280776Y-46000000D02*
G75*
G02*
X93310583Y-45242549I24J1000100D01*
G01*
X91219224Y-40000000D02*
G75*
G02*
X92189344Y-40757470I-24J-1000000D01*
G01*
X137500000Y-82000000D02*
X82500000Y-82000000D01*
X82500000Y-82000000D02*
G75*
G02*
X80000000Y-79500000I0J2500000D01*
G01*
X105689366Y-45242536D02*
G75*
G02*
X104719224Y-46000023I-970166J242536D01*
G01*
X139242536Y-46189366D02*
X134757464Y-47310634D01*
X140000000Y-45219224D02*
G75*
G02*
X139242549Y-46189417I-1000100J24D01*
G01*
X106810634Y-40757464D02*
G75*
G02*
X107780776Y-39999977I970166J-242536D01*
G01*
X134757464Y-62689366D02*
X139242536Y-63810634D01*
X105689366Y-45242536D02*
X106810634Y-40757464D01*
X134757464Y-62689366D02*
G75*
G02*
X133999977Y-61719224I242536J970166D01*
G01*
X107780776Y-40000000D02*
X137500000Y-40000000D01*
X82500000Y-40000000D02*
X91219224Y-40000000D01*
X92189366Y-40757464D02*
X93310634Y-45242536D01*
X140000000Y-64780776D02*
X140000000Y-79500000D01*
X139242536Y-63810634D02*
G75*
G02*
X140000023Y-64780776I-242536J-970166D01*
G01*
X80000000Y-79500000D02*
X80000000Y-42500000D01*
X140000000Y-45219224D02*
X140000000Y-42500000D01*
X134000000Y-48280776D02*
X134000000Y-61719224D01*
X94280776Y-46000000D02*
X104719224Y-46000000D01*
X134000000Y-48280776D02*
G75*
G02*
X134757451Y-47310583I1000100J-24D01*
G01*
X80000000Y-42500000D02*
G75*
G02*
X82500000Y-40000000I2500000J0D01*
G01*
X140000000Y-79500000D02*
G75*
G02*
X137500000Y-82000000I-2500000J0D01*
G01*
X137500000Y-40000000D02*
G75*
G02*
X140000000Y-42500000I0J-2500000D01*
G01*
M02*
