%TF.GenerationSoftware,KiCad,Pcbnew,9.0.2*%
%TF.CreationDate,2025-06-17T20:14:42+02:00*%
%TF.ProjectId,elrs_tx_full,656c7273-5f74-4785-9f66-756c6c2e6b69,rev?*%
%TF.SameCoordinates,Original*%
%TF.FileFunction,Copper,L1,Top*%
%TF.FilePolarity,Positive*%
%FSLAX46Y46*%
G04 Gerber Fmt 4.6, Leading zero omitted, Abs format (unit mm)*
G04 Created by KiCad (PCBNEW 9.0.2) date 2025-06-17 20:14:42*
%MOMM*%
%LPD*%
G01*
G04 APERTURE LIST*
%TA.AperFunction,ComponentPad*%
%ADD10R,1.700000X1.700000*%
%TD*%
%TA.AperFunction,ComponentPad*%
%ADD11C,1.700000*%
%TD*%
%TA.AperFunction,ComponentPad*%
%ADD12R,1.000000X1.000000*%
%TD*%
%TA.AperFunction,ComponentPad*%
%ADD13C,1.000000*%
%TD*%
%TA.AperFunction,ComponentPad*%
%ADD14C,4.400000*%
%TD*%
%TA.AperFunction,SMDPad,CuDef*%
%ADD15R,2.000000X0.800000*%
%TD*%
%TA.AperFunction,SMDPad,CuDef*%
%ADD16R,0.900000X2.000000*%
%TD*%
%TA.AperFunction,SMDPad,CuDef*%
%ADD17R,2.000000X0.900000*%
%TD*%
%TA.AperFunction,ComponentPad*%
%ADD18R,5.000000X5.000000*%
%TD*%
%TA.AperFunction,HeatsinkPad*%
%ADD19O,1.100000X1.800000*%
%TD*%
%TA.AperFunction,ComponentPad*%
%ADD20R,1.700000X2.000000*%
%TD*%
%TA.AperFunction,ComponentPad*%
%ADD21O,1.700000X2.000000*%
%TD*%
%TA.AperFunction,ViaPad*%
%ADD22C,0.800000*%
%TD*%
%TA.AperFunction,Conductor*%
%ADD23C,0.500000*%
%TD*%
%TA.AperFunction,Conductor*%
%ADD24C,0.300000*%
%TD*%
%TA.AperFunction,Conductor*%
%ADD25C,0.750000*%
%TD*%
%TA.AperFunction,Conductor*%
%ADD26C,0.250000*%
%TD*%
G04 APERTURE END LIST*
D10*
%TO.P,J8,1,Pin_1*%
%TO.N,GND*%
X120576000Y-68956000D03*
D11*
%TO.P,J8,2,Pin_2*%
%TO.N,+3.3V*%
X118036000Y-68956000D03*
%TO.P,J8,3,Pin_3*%
%TO.N,/ESP32_TX*%
X115496000Y-68956000D03*
%TO.P,J8,4,Pin_4*%
%TO.N,/ESP32_RX*%
X112956000Y-68956000D03*
%TO.P,J8,5,Pin_5*%
%TO.N,/ESP32_BOOT0*%
X110416000Y-68956000D03*
%TD*%
D12*
%TO.P,J10,1,Pin_1*%
%TO.N,/IO16*%
X103050000Y-71115000D03*
D13*
%TO.P,J10,2,Pin_2*%
%TO.N,/IO17*%
X104320000Y-71115000D03*
%TO.P,J10,3,Pin_3*%
%TO.N,/IO22*%
X105590000Y-71115000D03*
%TD*%
D14*
%TO.P,H2,1*%
%TO.N,N/C*%
X83000000Y-79000000D03*
%TD*%
D15*
%TO.P,U1,1,VCC*%
%TO.N,+3.3V*%
X106974800Y-65247600D03*
%TO.P,U1,2,GND*%
%TO.N,GND*%
X106974800Y-63977600D03*
%TO.P,U1,3,MISO_TX*%
%TO.N,/E28_MISO_TX*%
X106974800Y-62707600D03*
%TO.P,U1,4,MOSI_RX*%
%TO.N,/E28_MISO_RX*%
X106974800Y-61437600D03*
%TO.P,U1,5,SCK_RTS*%
%TO.N,/E28_SCK_RTS*%
X106974800Y-60167600D03*
%TO.P,U1,6,NSS_CTS*%
%TO.N,/E28_NSS_CTS*%
X106974800Y-58897600D03*
%TO.P,U1,7,GND*%
%TO.N,GND*%
X106974800Y-57627600D03*
%TO.P,U1,8,RX_EN*%
%TO.N,/E28_RX_EN*%
X106974800Y-56357600D03*
%TO.P,U1,9,TX_EN*%
%TO.N,/E28_TX_EN*%
X91734800Y-56357600D03*
%TO.P,U1,10,GND*%
%TO.N,GND*%
X91734800Y-57627600D03*
%TO.P,U1,11,NRESET*%
%TO.N,/E28_NRESET*%
X91734800Y-58897600D03*
%TO.P,U1,12,BUSY*%
%TO.N,/E28_BUSY*%
X91734800Y-60167600D03*
%TO.P,U1,13,DIO1*%
%TO.N,/E28_DIO1*%
X91734800Y-61437600D03*
%TO.P,U1,14,DIO2*%
%TO.N,/E28_DIO2*%
X91734800Y-62707600D03*
%TO.P,U1,15,DIO3*%
%TO.N,unconnected-(U1-DIO3-Pad15)*%
X91734800Y-63977600D03*
%TO.P,U1,16,GND*%
%TO.N,GND*%
X91734800Y-65247600D03*
%TD*%
D14*
%TO.P,H1,1*%
%TO.N,N/C*%
X83000000Y-43000000D03*
%TD*%
%TO.P,H4,1*%
%TO.N,N/C*%
X137000000Y-79000000D03*
%TD*%
D10*
%TO.P,J6,1,Pin_1*%
%TO.N,GND*%
X132006000Y-68956000D03*
D11*
%TO.P,J6,2,Pin_2*%
%TO.N,+BATT*%
X129466000Y-68956000D03*
%TO.P,J6,3,Pin_3*%
%TO.N,/CRSF_RX_TX*%
X126926000Y-68956000D03*
%TD*%
D12*
%TO.P,J9,1,Pin_1*%
%TO.N,/IO25*%
X112956000Y-42794000D03*
D13*
%TO.P,J9,2,Pin_2*%
%TO.N,/IO12*%
X111686000Y-42794000D03*
%TD*%
D16*
%TO.P,U2,1,GND*%
%TO.N,GND*%
X131165000Y-46486000D03*
%TO.P,U2,2,VDD*%
%TO.N,+3.3V*%
X129895000Y-46486000D03*
%TO.P,U2,3,EN*%
%TO.N,/EN*%
X128625000Y-46486000D03*
%TO.P,U2,4,SENSOR_VP*%
%TO.N,unconnected-(U2-SENSOR_VP-Pad4)*%
X127355000Y-46486000D03*
%TO.P,U2,5,SENSOR_VN*%
%TO.N,unconnected-(U2-SENSOR_VN-Pad5)*%
X126085000Y-46486000D03*
%TO.P,U2,6,IO34*%
%TO.N,/IO34*%
X124815000Y-46486000D03*
%TO.P,U2,7,IO35*%
%TO.N,/IO35*%
X123545000Y-46486000D03*
%TO.P,U2,8,IO32*%
%TO.N,/OLED_SDA*%
X122275000Y-46486000D03*
%TO.P,U2,9,IO33*%
%TO.N,/OLED_SCK*%
X121005000Y-46486000D03*
%TO.P,U2,10,IO25*%
%TO.N,/IO25*%
X119735000Y-46486000D03*
%TO.P,U2,11,IO26*%
%TO.N,/E28_TX_EN*%
X118465000Y-46486000D03*
%TO.P,U2,12,IO27*%
%TO.N,/E28_RX_EN*%
X117195000Y-46486000D03*
%TO.P,U2,13,IO14*%
%TO.N,/E28_NRESET*%
X115925000Y-46486000D03*
%TO.P,U2,14,IO12*%
%TO.N,/IO12*%
X114655000Y-46486000D03*
D17*
%TO.P,U2,15,GND*%
%TO.N,GND*%
X113655000Y-49271000D03*
%TO.P,U2,16,IO13*%
%TO.N,/CRSF_RX_TX*%
X113655000Y-50541000D03*
%TO.P,U2,17,SHD/SD2*%
%TO.N,unconnected-(U2-SHD{slash}SD2-Pad17)*%
X113655000Y-51811000D03*
%TO.P,U2,18,SWP/SD3*%
%TO.N,unconnected-(U2-SWP{slash}SD3-Pad18)*%
X113655000Y-53081000D03*
%TO.P,U2,19,SCS/CMD*%
%TO.N,unconnected-(U2-SCS{slash}CMD-Pad19)*%
X113655000Y-54351000D03*
%TO.P,U2,20,SCK/CLK*%
%TO.N,unconnected-(U2-SCK{slash}CLK-Pad20)*%
X113655000Y-55621000D03*
%TO.P,U2,21,SDO/SD0*%
%TO.N,unconnected-(U2-SDO{slash}SD0-Pad21)*%
X113655000Y-56891000D03*
%TO.P,U2,22,SDI/SD1*%
%TO.N,unconnected-(U2-SDI{slash}SD1-Pad22)*%
X113655000Y-58161000D03*
%TO.P,U2,23,IO15*%
%TO.N,/LED_RGB*%
X113655000Y-59431000D03*
%TO.P,U2,24,IO2*%
%TO.N,/E28_DIO2*%
X113655000Y-60701000D03*
D16*
%TO.P,U2,25,IO0*%
%TO.N,/ESP32_BOOT0*%
X114655000Y-63486000D03*
%TO.P,U2,26,IO4*%
%TO.N,/E28_DIO1*%
X115925000Y-63486000D03*
%TO.P,U2,27,IO16*%
%TO.N,/IO16*%
X117195000Y-63486000D03*
%TO.P,U2,28,IO17*%
%TO.N,/IO17*%
X118465000Y-63486000D03*
%TO.P,U2,29,IO5*%
%TO.N,/E28_NSS_CTS*%
X119735000Y-63486000D03*
%TO.P,U2,30,IO18*%
%TO.N,/E28_SCK_RTS*%
X121005000Y-63486000D03*
%TO.P,U2,31,IO19*%
%TO.N,/E28_MISO_RX*%
X122275000Y-63486000D03*
%TO.P,U2,32,NC*%
%TO.N,unconnected-(U2-NC-Pad32)*%
X123545000Y-63486000D03*
%TO.P,U2,33,IO21*%
%TO.N,/E28_BUSY*%
X124815000Y-63486000D03*
%TO.P,U2,34,RXD0/IO3*%
%TO.N,/ESP32_RX*%
X126085000Y-63486000D03*
%TO.P,U2,35,TXD0/IO1*%
%TO.N,/ESP32_TX*%
X127355000Y-63486000D03*
%TO.P,U2,36,IO22*%
%TO.N,/IO22*%
X128625000Y-63486000D03*
%TO.P,U2,37,IO23*%
%TO.N,/E28_MISO_TX*%
X129895000Y-63486000D03*
%TO.P,U2,38,GND*%
%TO.N,GND*%
X131165000Y-63486000D03*
D18*
%TO.P,U2,39,GND*%
X123665000Y-53986000D03*
%TD*%
D14*
%TO.P,H3,1*%
%TO.N,N/C*%
X137000000Y-43000000D03*
%TD*%
D12*
%TO.P,J7,1,Pin_1*%
%TO.N,/IO34*%
X132895000Y-43048000D03*
D13*
%TO.P,J7,2,Pin_2*%
%TO.N,/IO35*%
X131625000Y-43048000D03*
%TD*%
D19*
%TO.P,P1,S1,SHIELD*%
%TO.N,unconnected-(P1-SHIELD-PadS1)*%
X104980400Y-80386000D03*
%TO.N,unconnected-(P1-SHIELD-PadS1)_2*%
X104980400Y-76586000D03*
%TO.N,unconnected-(P1-SHIELD-PadS1)_1*%
X96380400Y-80386000D03*
%TO.N,unconnected-(P1-SHIELD-PadS1)_3*%
X96380400Y-76586000D03*
%TD*%
D20*
%TO.P,J5,4,Pin_4*%
%TO.N,/OLED_SDA*%
X117642800Y-42286000D03*
D21*
%TO.P,J5,3,Pin_3*%
%TO.N,/OLED_SCK*%
X120182800Y-42286000D03*
%TO.P,J5,2,Pin_2*%
%TO.N,+3.3V*%
X122722800Y-42286000D03*
%TO.P,J5,1,Pin_1*%
%TO.N,GND*%
X125262800Y-42286000D03*
%TD*%
D10*
%TO.P,J1,1,Pin_1*%
%TO.N,Net-(D1-DOUT)*%
X88216400Y-72004000D03*
%TD*%
%TO.P,J4,1,Pin_1*%
%TO.N,+3.3V*%
X83048000Y-57272000D03*
D11*
%TO.P,J4,2,Pin_2*%
%TO.N,GND*%
X83048000Y-59812000D03*
%TO.P,J4,3,Pin_3*%
%TO.N,+BATT*%
X83048000Y-62352000D03*
%TO.P,J4,4,Pin_4*%
%TO.N,Net-(J4-Pin_4)*%
X83048000Y-64892000D03*
%TD*%
D22*
%TO.N,+3.3V*%
X129897800Y-44902200D03*
X131421800Y-48153400D03*
%TO.N,GND*%
X123624000Y-73578800D03*
X109857200Y-52344400D03*
X89588000Y-69718000D03*
X96700000Y-70988000D03*
X93499600Y-78199400D03*
%TO.N,/LED_RGB*%
X89511800Y-78379400D03*
%TO.N,GND*%
X99087600Y-48280400D03*
%TO.N,/EN*%
X96192000Y-53716000D03*
X101983200Y-53665200D03*
X119598100Y-50350500D03*
%TO.N,/OLED_SDA*%
X122252400Y-44978400D03*
%TO.N,/ESP32_RX*%
X126101000Y-65196800D03*
%TO.N,/ESP32_TX*%
X123815000Y-66162000D03*
%TO.N,+3.3V*%
X116800000Y-77084000D03*
X127752000Y-78608000D03*
X112702000Y-77084000D03*
X105247600Y-65247600D03*
X129885600Y-49245600D03*
X128768000Y-77846000D03*
X116800000Y-76068000D03*
X112702000Y-76068000D03*
%TO.N,GND*%
X130850800Y-76169600D03*
X108384000Y-47874000D03*
X105336000Y-47874000D03*
X87366000Y-54478000D03*
X97970000Y-77947600D03*
X103430400Y-77921600D03*
X105196800Y-68397200D03*
%TO.N,/CRSF_RX_TX*%
X119864800Y-48864600D03*
%TO.N,/E28_MISO_RX*%
X108892000Y-61463000D03*
X122227000Y-61463000D03*
%TO.N,/E28_NSS_CTS*%
X108892000Y-58923000D03*
X119687000Y-58923000D03*
%TO.N,/E28_MISO_TX*%
X128514000Y-60193000D03*
X108892000Y-62733000D03*
%TO.N,/E28_NRESET*%
X115915600Y-48229600D03*
X93970000Y-58948400D03*
%TO.N,/E28_TX_EN*%
X93970000Y-56357600D03*
X115915600Y-49499600D03*
%TO.N,/IO25*%
X114734000Y-44076000D03*
%TO.N,/IO12*%
X111686000Y-46223000D03*
%TO.N,/E28_BUSY*%
X122164000Y-59354800D03*
X93970000Y-60193000D03*
%TO.N,/E28_SCK_RTS*%
X120957000Y-60193000D03*
X108892000Y-60193000D03*
%TO.N,/E28_DIO1*%
X112664400Y-65060169D03*
X93970000Y-61437600D03*
%TD*%
D23*
%TO.N,+3.3V*%
X129895000Y-44905000D02*
X129897800Y-44902200D01*
X129895000Y-46486000D02*
X129895000Y-44905000D01*
X130888400Y-49245600D02*
X129885600Y-49245600D01*
X131421800Y-48712200D02*
X130888400Y-49245600D01*
X131421800Y-48153400D02*
X131421800Y-48712200D01*
D24*
%TO.N,/LED_RGB*%
X116449000Y-59431000D02*
X113655000Y-59431000D01*
X118354000Y-57526000D02*
X116449000Y-59431000D01*
X131435000Y-57526000D02*
X118354000Y-57526000D01*
X132324000Y-64638000D02*
X132324000Y-58415000D01*
X134610000Y-66924000D02*
X132324000Y-64638000D01*
X134610000Y-70035000D02*
X134610000Y-66924000D01*
X124386000Y-71216600D02*
X133428400Y-71216600D01*
X90375400Y-73248600D02*
X122354000Y-73248600D01*
X89511800Y-74112200D02*
X90375400Y-73248600D01*
X122354000Y-73248600D02*
X124386000Y-71216600D01*
X133428400Y-71216600D02*
X134610000Y-70035000D01*
X132324000Y-58415000D02*
X131435000Y-57526000D01*
X89511800Y-78379400D02*
X89511800Y-74112200D01*
%TO.N,/EN*%
X128625000Y-48156200D02*
X128625000Y-46486000D01*
X128297600Y-48483600D02*
X128625000Y-48156200D01*
X121465000Y-48483600D02*
X128297600Y-48483600D01*
X119598100Y-50350500D02*
X121465000Y-48483600D01*
%TO.N,/CRSF_RX_TX*%
X118188400Y-50541000D02*
X113655000Y-50541000D01*
X119864800Y-48864600D02*
X118188400Y-50541000D01*
D23*
%TO.N,+3.3V*%
X112702000Y-76068000D02*
X116800000Y-76068000D01*
X112702000Y-77084000D02*
X116800000Y-77084000D01*
D24*
%TO.N,GND*%
X99087600Y-48280400D02*
X99290800Y-48483600D01*
%TO.N,/EN*%
X96242800Y-53665200D02*
X96192000Y-53716000D01*
X101983200Y-53665200D02*
X96242800Y-53665200D01*
D25*
%TO.N,GND*%
X125262800Y-42286000D02*
X127053000Y-42286000D01*
D26*
%TO.N,/OLED_SCK*%
X120195000Y-42298200D02*
X120182800Y-42286000D01*
X121005000Y-45051800D02*
X120195000Y-44241800D01*
X121005000Y-46486000D02*
X121005000Y-45051800D01*
X120195000Y-44241800D02*
X120195000Y-42298200D01*
%TO.N,/OLED_SDA*%
X122252400Y-46463400D02*
X122275000Y-46486000D01*
X122252400Y-44978400D02*
X122252400Y-46463400D01*
D24*
%TO.N,/ESP32_BOOT0*%
X111038800Y-66060400D02*
X110416000Y-66683200D01*
X110416000Y-66683200D02*
X110416000Y-68956000D01*
X114655000Y-63486000D02*
X112902000Y-63486000D01*
X111038800Y-65349200D02*
X111038800Y-66060400D01*
X112902000Y-63486000D02*
X111038800Y-65349200D01*
%TO.N,/ESP32_RX*%
X126085000Y-63486000D02*
X126085000Y-65003000D01*
D26*
X126085000Y-65003000D02*
X126101000Y-65019000D01*
X126101000Y-65019000D02*
X126101000Y-65196800D01*
D24*
%TO.N,/ESP32_TX*%
X127355000Y-65492200D02*
X126685200Y-66162000D01*
X126685200Y-66162000D02*
X123815000Y-66162000D01*
X127355000Y-63486000D02*
X127355000Y-65492200D01*
D23*
%TO.N,+3.3V*%
X126228000Y-77084000D02*
X127752000Y-78608000D01*
X129895000Y-48271000D02*
X129895000Y-46486000D01*
X126990000Y-76068000D02*
X128768000Y-77846000D01*
X122735000Y-42298200D02*
X122735000Y-42755400D01*
X116800000Y-76068000D02*
X126990000Y-76068000D01*
X106974800Y-65247600D02*
X105247600Y-65247600D01*
X129885600Y-48280400D02*
X129895000Y-48271000D01*
X116800000Y-77084000D02*
X126228000Y-77084000D01*
X129885600Y-49245600D02*
X129885600Y-48280400D01*
X122722800Y-42286000D02*
X122735000Y-42298200D01*
%TO.N,GND*%
X96172400Y-57627600D02*
X96200000Y-57600000D01*
X106987000Y-64003000D02*
X108892000Y-64003000D01*
X106974800Y-57627600D02*
X104434800Y-57627600D01*
X106987000Y-57653000D02*
X108892000Y-57653000D01*
X105273000Y-64003000D02*
X104384000Y-63114000D01*
X104434800Y-57627600D02*
X104333200Y-57729200D01*
X91747000Y-57653000D02*
X89677400Y-57653000D01*
X89677400Y-57653000D02*
X89652000Y-57627600D01*
X106987000Y-64003000D02*
X105273000Y-64003000D01*
X91734800Y-57627600D02*
X96172400Y-57627600D01*
D24*
%TO.N,/CRSF_RX_TX*%
X126939200Y-68956000D02*
X126926000Y-68956000D01*
%TO.N,/E28_MISO_RX*%
X122227000Y-63438000D02*
X122275000Y-63486000D01*
X122227000Y-61463000D02*
X122227000Y-63438000D01*
X106987000Y-61463000D02*
X108892000Y-61463000D01*
%TO.N,/IO35*%
X123545000Y-46486000D02*
X123545000Y-45019800D01*
X124500800Y-44876800D02*
X125212000Y-44165600D01*
X123688000Y-44876800D02*
X124500800Y-44876800D01*
X127955200Y-43048000D02*
X131625000Y-43048000D01*
X126837600Y-44165600D02*
X127955200Y-43048000D01*
X123545000Y-45019800D02*
X123688000Y-44876800D01*
X125212000Y-44165600D02*
X126837600Y-44165600D01*
%TO.N,/E28_NSS_CTS*%
X119687000Y-58923000D02*
X119687000Y-59304000D01*
X119687000Y-59304000D02*
X119735000Y-59352000D01*
X119735000Y-59352000D02*
X119735000Y-63486000D01*
X106987000Y-58923000D02*
X108892000Y-58923000D01*
%TO.N,/E28_MISO_TX*%
X106987000Y-62733000D02*
X108892000Y-62733000D01*
X129250600Y-60193000D02*
X129895000Y-60837400D01*
X129895000Y-60837400D02*
X129895000Y-63486000D01*
X128514000Y-60193000D02*
X129250600Y-60193000D01*
%TO.N,/E28_RX_EN*%
X117195000Y-45305800D02*
X117195000Y-46486000D01*
X106987000Y-56383000D02*
X106987000Y-46731000D01*
X108790400Y-44927600D02*
X116816800Y-44927600D01*
X116816800Y-44927600D02*
X117195000Y-45305800D01*
X106987000Y-46731000D02*
X108790400Y-44927600D01*
%TO.N,/E28_NRESET*%
X115925000Y-46486000D02*
X115925000Y-48220200D01*
X115925000Y-48220200D02*
X115915600Y-48229600D01*
X93970000Y-58948400D02*
X91772400Y-58948400D01*
X91772400Y-58948400D02*
X91747000Y-58923000D01*
%TO.N,/IO34*%
X124815000Y-45426200D02*
X125466000Y-44775200D01*
X128310800Y-43860800D02*
X130596800Y-43860800D01*
X130596800Y-43860800D02*
X131054000Y-44318000D01*
X131054000Y-44318000D02*
X132476400Y-44318000D01*
X132476400Y-44318000D02*
X132895000Y-43899400D01*
X125466000Y-44775200D02*
X127396400Y-44775200D01*
X132895000Y-43899400D02*
X132895000Y-43048000D01*
X124815000Y-46486000D02*
X124815000Y-45426200D01*
X127396400Y-44775200D02*
X128310800Y-43860800D01*
%TO.N,/E28_DIO2*%
X103723600Y-66416000D02*
X100040600Y-62733000D01*
X110022800Y-65857200D02*
X109464000Y-66416000D01*
X100040600Y-62733000D02*
X91747000Y-62733000D01*
X110022800Y-65095200D02*
X110022800Y-65857200D01*
X109464000Y-66416000D02*
X103723600Y-66416000D01*
X111496000Y-61209000D02*
X111496000Y-63622000D01*
X113655000Y-60701000D02*
X112004000Y-60701000D01*
X112004000Y-60701000D02*
X111496000Y-61209000D01*
X111496000Y-63622000D02*
X110022800Y-65095200D01*
%TO.N,/E28_TX_EN*%
X117541200Y-49448800D02*
X117490400Y-49499600D01*
X118465000Y-48525000D02*
X117541200Y-49448800D01*
X117490400Y-49499600D02*
X115915600Y-49499600D01*
X93970000Y-56357600D02*
X91772400Y-56357600D01*
X91772400Y-56357600D02*
X91747000Y-56383000D01*
X118465000Y-46486000D02*
X118465000Y-48525000D01*
D26*
%TO.N,/IO25*%
X118848800Y-44419600D02*
X119735000Y-45305800D01*
X116258000Y-44419600D02*
X118848800Y-44419600D01*
X115914400Y-44076000D02*
X116258000Y-44419600D01*
X119735000Y-45305800D02*
X119735000Y-46486000D01*
X114734000Y-44076000D02*
X115914400Y-44076000D01*
%TO.N,/IO12*%
X111949000Y-46486000D02*
X111686000Y-46223000D01*
X114655000Y-46486000D02*
X111949000Y-46486000D01*
D24*
%TO.N,/E28_BUSY*%
X122164000Y-59354800D02*
X124196000Y-59354800D01*
X124815000Y-59973800D02*
X124815000Y-63486000D01*
X124196000Y-59354800D02*
X124815000Y-59973800D01*
X93970000Y-60193000D02*
X91747000Y-60193000D01*
%TO.N,/IO22*%
X125059600Y-67228800D02*
X124196000Y-68092400D01*
X106543000Y-71115000D02*
X105590000Y-71115000D01*
X128625000Y-63486000D02*
X128625000Y-66406600D01*
X121529000Y-72131000D02*
X107559000Y-72131000D01*
X107559000Y-72131000D02*
X106543000Y-71115000D01*
X124196000Y-69464000D02*
X121529000Y-72131000D01*
X128625000Y-66406600D02*
X127802800Y-67228800D01*
X127802800Y-67228800D02*
X125059600Y-67228800D01*
X124196000Y-68092400D02*
X124196000Y-69464000D01*
%TO.N,/E28_SCK_RTS*%
X120957000Y-60193000D02*
X121005000Y-60241000D01*
X106987000Y-60193000D02*
X108892000Y-60193000D01*
X121005000Y-60241000D02*
X121005000Y-63486000D01*
%TO.N,/IO17*%
X114239200Y-70403800D02*
X114239200Y-67736800D01*
X104765000Y-70226000D02*
X106797000Y-70226000D01*
X118465000Y-65289000D02*
X118465000Y-63486000D01*
X115052000Y-66924000D02*
X116830000Y-66924000D01*
X104320000Y-71115000D02*
X104320000Y-70671000D01*
X114239200Y-67736800D02*
X115052000Y-66924000D01*
X116830000Y-66924000D02*
X118465000Y-65289000D01*
X104320000Y-70671000D02*
X104765000Y-70226000D01*
X106797000Y-70226000D02*
X107813000Y-71242000D01*
X113401000Y-71242000D02*
X114239200Y-70403800D01*
X107813000Y-71242000D02*
X113401000Y-71242000D01*
%TO.N,/E28_DIO1*%
X115261000Y-65400000D02*
X115925000Y-64736000D01*
X113004231Y-65400000D02*
X115261000Y-65400000D01*
D26*
X91772400Y-61437600D02*
X91747000Y-61463000D01*
D24*
X115925000Y-64736000D02*
X115925000Y-63486000D01*
X112664400Y-65060169D02*
X113004231Y-65400000D01*
D26*
X93970000Y-61437600D02*
X91772400Y-61437600D01*
D24*
%TO.N,/IO16*%
X111242000Y-70353000D02*
X108067000Y-70353000D01*
X104003000Y-69464000D02*
X103050000Y-70417000D01*
X117195000Y-64736000D02*
X115769000Y-66162000D01*
X117195000Y-63486000D02*
X117195000Y-64736000D01*
X111699200Y-67584400D02*
X111699200Y-69895800D01*
X111699200Y-69895800D02*
X111242000Y-70353000D01*
X115769000Y-66162000D02*
X113121600Y-66162000D01*
X113121600Y-66162000D02*
X111699200Y-67584400D01*
X108067000Y-70353000D02*
X107178000Y-69464000D01*
X103050000Y-70417000D02*
X103050000Y-71115000D01*
X107178000Y-69464000D02*
X104003000Y-69464000D01*
%TD*%
%TA.AperFunction,Conductor*%
%TO.N,GND*%
G36*
X124223327Y-64967338D02*
G01*
X124257517Y-64980091D01*
X124317127Y-64986500D01*
X125076500Y-64986499D01*
X125143539Y-65006183D01*
X125189294Y-65058987D01*
X125200500Y-65110499D01*
X125200500Y-65285495D01*
X125215978Y-65363309D01*
X125209751Y-65432901D01*
X125166887Y-65488078D01*
X125100998Y-65511322D01*
X125094361Y-65511500D01*
X124489362Y-65511500D01*
X124422323Y-65491815D01*
X124401681Y-65475181D01*
X124389038Y-65462538D01*
X124389034Y-65462535D01*
X124241553Y-65363990D01*
X124241540Y-65363983D01*
X124077667Y-65296106D01*
X124077658Y-65296103D01*
X123903694Y-65261500D01*
X123903691Y-65261500D01*
X123726309Y-65261500D01*
X123726306Y-65261500D01*
X123552341Y-65296103D01*
X123552332Y-65296106D01*
X123388459Y-65363983D01*
X123388446Y-65363990D01*
X123240965Y-65462535D01*
X123240961Y-65462538D01*
X123115538Y-65587961D01*
X123115535Y-65587965D01*
X123016990Y-65735446D01*
X123016983Y-65735459D01*
X122949106Y-65899332D01*
X122949103Y-65899341D01*
X122914500Y-66073304D01*
X122914500Y-66250695D01*
X122949103Y-66424658D01*
X122949106Y-66424667D01*
X123016983Y-66588540D01*
X123016990Y-66588553D01*
X123115535Y-66736034D01*
X123115538Y-66736038D01*
X123240961Y-66861461D01*
X123240965Y-66861464D01*
X123388446Y-66960009D01*
X123388459Y-66960016D01*
X123466802Y-66992466D01*
X123552334Y-67027894D01*
X123552336Y-67027894D01*
X123552341Y-67027896D01*
X123726304Y-67062499D01*
X123726307Y-67062500D01*
X123726309Y-67062500D01*
X123903693Y-67062500D01*
X124004917Y-67042365D01*
X124074509Y-67048592D01*
X124129686Y-67091455D01*
X124152931Y-67157345D01*
X124136863Y-67225342D01*
X124116790Y-67251663D01*
X123690727Y-67677725D01*
X123690726Y-67677726D01*
X123678261Y-67696382D01*
X123653075Y-67734077D01*
X123626304Y-67774143D01*
X123626301Y-67774147D01*
X123619537Y-67784268D01*
X123619533Y-67784275D01*
X123570499Y-67902655D01*
X123570497Y-67902661D01*
X123545500Y-68028328D01*
X123545500Y-69143192D01*
X123525815Y-69210231D01*
X123509181Y-69230873D01*
X121295873Y-71444181D01*
X121234550Y-71477666D01*
X121208192Y-71480500D01*
X114381808Y-71480500D01*
X114314769Y-71460815D01*
X114269014Y-71408011D01*
X114259070Y-71338853D01*
X114288095Y-71275297D01*
X114294127Y-71268819D01*
X114744473Y-70818473D01*
X114744477Y-70818469D01*
X114815665Y-70711927D01*
X114836966Y-70660501D01*
X114864701Y-70593544D01*
X114879527Y-70519011D01*
X114889700Y-70467871D01*
X114889700Y-70349671D01*
X114909385Y-70282632D01*
X114962189Y-70236877D01*
X115031347Y-70226933D01*
X115052005Y-70231736D01*
X115179757Y-70273246D01*
X115389713Y-70306500D01*
X115389714Y-70306500D01*
X115602286Y-70306500D01*
X115602287Y-70306500D01*
X115812243Y-70273246D01*
X116014412Y-70207557D01*
X116203816Y-70111051D01*
X116290471Y-70048093D01*
X116375786Y-69986109D01*
X116375788Y-69986106D01*
X116375792Y-69986104D01*
X116526104Y-69835792D01*
X116526106Y-69835788D01*
X116526109Y-69835786D01*
X116651048Y-69663820D01*
X116651047Y-69663820D01*
X116651051Y-69663816D01*
X116655514Y-69655054D01*
X116703488Y-69604259D01*
X116771308Y-69587463D01*
X116837444Y-69609999D01*
X116876486Y-69655056D01*
X116880951Y-69663820D01*
X117005890Y-69835786D01*
X117156213Y-69986109D01*
X117328179Y-70111048D01*
X117328181Y-70111049D01*
X117328184Y-70111051D01*
X117517588Y-70207557D01*
X117719757Y-70273246D01*
X117929713Y-70306500D01*
X117929714Y-70306500D01*
X118142286Y-70306500D01*
X118142287Y-70306500D01*
X118352243Y-70273246D01*
X118554412Y-70207557D01*
X118743816Y-70111051D01*
X118830478Y-70048088D01*
X118915784Y-69986110D01*
X118915784Y-69986109D01*
X118915792Y-69986104D01*
X119029717Y-69872178D01*
X119091036Y-69838696D01*
X119160728Y-69843680D01*
X119216662Y-69885551D01*
X119233577Y-69916528D01*
X119282646Y-70048088D01*
X119282649Y-70048093D01*
X119368809Y-70163187D01*
X119368812Y-70163190D01*
X119483906Y-70249350D01*
X119483913Y-70249354D01*
X119618620Y-70299596D01*
X119618627Y-70299598D01*
X119678155Y-70305999D01*
X119678172Y-70306000D01*
X120326000Y-70306000D01*
X120326000Y-69389012D01*
X120383007Y-69421925D01*
X120510174Y-69456000D01*
X120641826Y-69456000D01*
X120768993Y-69421925D01*
X120826000Y-69389012D01*
X120826000Y-70306000D01*
X121473828Y-70306000D01*
X121473844Y-70305999D01*
X121533372Y-70299598D01*
X121533379Y-70299596D01*
X121668086Y-70249354D01*
X121668093Y-70249350D01*
X121783187Y-70163190D01*
X121783190Y-70163187D01*
X121869350Y-70048093D01*
X121869354Y-70048086D01*
X121919596Y-69913379D01*
X121919598Y-69913372D01*
X121925999Y-69853844D01*
X121926000Y-69853827D01*
X121926000Y-69206000D01*
X121009012Y-69206000D01*
X121041925Y-69148993D01*
X121076000Y-69021826D01*
X121076000Y-68890174D01*
X121041925Y-68763007D01*
X121009012Y-68706000D01*
X121926000Y-68706000D01*
X121926000Y-68058172D01*
X121925999Y-68058155D01*
X121919598Y-67998627D01*
X121919596Y-67998620D01*
X121869354Y-67863913D01*
X121869350Y-67863906D01*
X121783190Y-67748812D01*
X121783187Y-67748809D01*
X121668093Y-67662649D01*
X121668086Y-67662645D01*
X121533379Y-67612403D01*
X121533372Y-67612401D01*
X121473844Y-67606000D01*
X120826000Y-67606000D01*
X120826000Y-68522988D01*
X120768993Y-68490075D01*
X120641826Y-68456000D01*
X120510174Y-68456000D01*
X120383007Y-68490075D01*
X120326000Y-68522988D01*
X120326000Y-67606000D01*
X119678155Y-67606000D01*
X119618627Y-67612401D01*
X119618620Y-67612403D01*
X119483913Y-67662645D01*
X119483906Y-67662649D01*
X119368812Y-67748809D01*
X119368809Y-67748812D01*
X119282649Y-67863906D01*
X119282646Y-67863912D01*
X119233577Y-67995471D01*
X119191705Y-68051404D01*
X119126241Y-68075821D01*
X119057968Y-68060969D01*
X119029714Y-68039818D01*
X118915786Y-67925890D01*
X118743820Y-67800951D01*
X118554414Y-67704444D01*
X118554413Y-67704443D01*
X118554412Y-67704443D01*
X118352243Y-67638754D01*
X118352241Y-67638753D01*
X118352240Y-67638753D01*
X118190957Y-67613208D01*
X118142287Y-67605500D01*
X117929713Y-67605500D01*
X117881042Y-67613208D01*
X117719760Y-67638753D01*
X117517585Y-67704444D01*
X117328179Y-67800951D01*
X117156213Y-67925890D01*
X117005890Y-68076213D01*
X116880949Y-68248182D01*
X116876484Y-68256946D01*
X116828509Y-68307742D01*
X116760688Y-68324536D01*
X116694553Y-68301998D01*
X116655516Y-68256946D01*
X116651050Y-68248182D01*
X116526109Y-68076213D01*
X116375790Y-67925894D01*
X116375785Y-67925890D01*
X116200884Y-67798818D01*
X116158218Y-67743489D01*
X116152239Y-67673875D01*
X116184844Y-67612080D01*
X116245683Y-67577723D01*
X116273769Y-67574500D01*
X116894071Y-67574500D01*
X116978615Y-67557682D01*
X117019744Y-67549501D01*
X117138127Y-67500465D01*
X117244669Y-67429277D01*
X118970276Y-65703669D01*
X119041465Y-65597127D01*
X119090501Y-65478744D01*
X119095835Y-65451928D01*
X119115500Y-65353069D01*
X119115500Y-65110499D01*
X119135185Y-65043460D01*
X119187989Y-64997705D01*
X119239495Y-64986499D01*
X120232872Y-64986499D01*
X120292483Y-64980091D01*
X120326667Y-64967340D01*
X120396358Y-64962357D01*
X120413327Y-64967338D01*
X120447517Y-64980091D01*
X120507127Y-64986500D01*
X121502872Y-64986499D01*
X121562483Y-64980091D01*
X121596667Y-64967340D01*
X121666358Y-64962357D01*
X121683327Y-64967338D01*
X121717517Y-64980091D01*
X121777127Y-64986500D01*
X122772872Y-64986499D01*
X122832483Y-64980091D01*
X122866667Y-64967340D01*
X122936358Y-64962357D01*
X122953327Y-64967338D01*
X122987517Y-64980091D01*
X123047127Y-64986500D01*
X124042872Y-64986499D01*
X124102483Y-64980091D01*
X124136667Y-64967340D01*
X124206358Y-64962357D01*
X124223327Y-64967338D01*
G37*
%TD.AperFunction*%
%TA.AperFunction,Conductor*%
G36*
X131181231Y-58196185D02*
G01*
X131201873Y-58212819D01*
X131637181Y-58648127D01*
X131670666Y-58709450D01*
X131673500Y-58735808D01*
X131673500Y-61862000D01*
X131653815Y-61929039D01*
X131601011Y-61974794D01*
X131549500Y-61986000D01*
X131415000Y-61986000D01*
X131415000Y-64986000D01*
X131662828Y-64986000D01*
X131662841Y-64985999D01*
X131692065Y-64982857D01*
X131760825Y-64995261D01*
X131808424Y-65037255D01*
X131818724Y-65052671D01*
X131818727Y-65052674D01*
X133923181Y-67157126D01*
X133956666Y-67218449D01*
X133959500Y-67244807D01*
X133959500Y-69714192D01*
X133939815Y-69781231D01*
X133923181Y-69801873D01*
X133400920Y-70324133D01*
X133374133Y-70350920D01*
X133195273Y-70529781D01*
X133133950Y-70563266D01*
X133107592Y-70566100D01*
X124315839Y-70566100D01*
X124315839Y-70564042D01*
X124256414Y-70552764D01*
X124205710Y-70504692D01*
X124189045Y-70436839D01*
X124211710Y-70370747D01*
X124225240Y-70354706D01*
X124701272Y-69878674D01*
X124701277Y-69878669D01*
X124772466Y-69772126D01*
X124821501Y-69653743D01*
X124828148Y-69620330D01*
X124846500Y-69528069D01*
X124846500Y-68413208D01*
X124866185Y-68346169D01*
X124882819Y-68325527D01*
X125292727Y-67915619D01*
X125354050Y-67882134D01*
X125380408Y-67879300D01*
X125795594Y-67879300D01*
X125862633Y-67898985D01*
X125908388Y-67951789D01*
X125918332Y-68020947D01*
X125895912Y-68076185D01*
X125770951Y-68248180D01*
X125674444Y-68437585D01*
X125608753Y-68639760D01*
X125575500Y-68849713D01*
X125575500Y-69062286D01*
X125608753Y-69272239D01*
X125674444Y-69474414D01*
X125770951Y-69663820D01*
X125895890Y-69835786D01*
X126046213Y-69986109D01*
X126218179Y-70111048D01*
X126218181Y-70111049D01*
X126218184Y-70111051D01*
X126407588Y-70207557D01*
X126609757Y-70273246D01*
X126819713Y-70306500D01*
X126819714Y-70306500D01*
X127032286Y-70306500D01*
X127032287Y-70306500D01*
X127242243Y-70273246D01*
X127444412Y-70207557D01*
X127633816Y-70111051D01*
X127720471Y-70048093D01*
X127805786Y-69986109D01*
X127805788Y-69986106D01*
X127805792Y-69986104D01*
X127956104Y-69835792D01*
X127956106Y-69835788D01*
X127956109Y-69835786D01*
X128081048Y-69663820D01*
X128081047Y-69663820D01*
X128081051Y-69663816D01*
X128085514Y-69655054D01*
X128133488Y-69604259D01*
X128201308Y-69587463D01*
X128267444Y-69609999D01*
X128306486Y-69655056D01*
X128310951Y-69663820D01*
X128435890Y-69835786D01*
X128586213Y-69986109D01*
X128758179Y-70111048D01*
X128758181Y-70111049D01*
X128758184Y-70111051D01*
X128947588Y-70207557D01*
X129149757Y-70273246D01*
X129359713Y-70306500D01*
X129359714Y-70306500D01*
X129572286Y-70306500D01*
X129572287Y-70306500D01*
X129782243Y-70273246D01*
X129984412Y-70207557D01*
X130173816Y-70111051D01*
X130260478Y-70048088D01*
X130345784Y-69986110D01*
X130345784Y-69986109D01*
X130345792Y-69986104D01*
X130459717Y-69872178D01*
X130521036Y-69838696D01*
X130590728Y-69843680D01*
X130646662Y-69885551D01*
X130663577Y-69916528D01*
X130712646Y-70048088D01*
X130712649Y-70048093D01*
X130798809Y-70163187D01*
X130798812Y-70163190D01*
X130913906Y-70249350D01*
X130913913Y-70249354D01*
X131048620Y-70299596D01*
X131048627Y-70299598D01*
X131108155Y-70305999D01*
X131108172Y-70306000D01*
X131756000Y-70306000D01*
X131756000Y-69389012D01*
X131813007Y-69421925D01*
X131940174Y-69456000D01*
X132071826Y-69456000D01*
X132198993Y-69421925D01*
X132256000Y-69389012D01*
X132256000Y-70306000D01*
X132903828Y-70306000D01*
X132903844Y-70305999D01*
X132963372Y-70299598D01*
X132963379Y-70299596D01*
X133098086Y-70249354D01*
X133098089Y-70249352D01*
X133205043Y-70169285D01*
X133219285Y-70155043D01*
X133299352Y-70048089D01*
X133299354Y-70048086D01*
X133349596Y-69913379D01*
X133349598Y-69913372D01*
X133355999Y-69853844D01*
X133356000Y-69853827D01*
X133356000Y-69206000D01*
X132439012Y-69206000D01*
X132471925Y-69148993D01*
X132506000Y-69021826D01*
X132506000Y-68890174D01*
X132471925Y-68763007D01*
X132439012Y-68706000D01*
X133356000Y-68706000D01*
X133356000Y-68058172D01*
X133355999Y-68058155D01*
X133349598Y-67998627D01*
X133349596Y-67998620D01*
X133299354Y-67863913D01*
X133299350Y-67863906D01*
X133213190Y-67748812D01*
X133213187Y-67748809D01*
X133098093Y-67662649D01*
X133098086Y-67662645D01*
X132963379Y-67612403D01*
X132963372Y-67612401D01*
X132903844Y-67606000D01*
X132256000Y-67606000D01*
X132256000Y-68522988D01*
X132198993Y-68490075D01*
X132071826Y-68456000D01*
X131940174Y-68456000D01*
X131813007Y-68490075D01*
X131756000Y-68522988D01*
X131756000Y-67606000D01*
X131108155Y-67606000D01*
X131048627Y-67612401D01*
X131048620Y-67612403D01*
X130913913Y-67662645D01*
X130913906Y-67662649D01*
X130798812Y-67748809D01*
X130798809Y-67748812D01*
X130712649Y-67863906D01*
X130712646Y-67863912D01*
X130663577Y-67995471D01*
X130621705Y-68051404D01*
X130556241Y-68075821D01*
X130487968Y-68060969D01*
X130459714Y-68039818D01*
X130345786Y-67925890D01*
X130173820Y-67800951D01*
X129984414Y-67704444D01*
X129984413Y-67704443D01*
X129984412Y-67704443D01*
X129782243Y-67638754D01*
X129782241Y-67638753D01*
X129782240Y-67638753D01*
X129620957Y-67613208D01*
X129572287Y-67605500D01*
X129359713Y-67605500D01*
X129311042Y-67613208D01*
X129149760Y-67638753D01*
X128947585Y-67704444D01*
X128758179Y-67800951D01*
X128586213Y-67925890D01*
X128435890Y-68076213D01*
X128310949Y-68248182D01*
X128306484Y-68256946D01*
X128258509Y-68307742D01*
X128190688Y-68324536D01*
X128124553Y-68301998D01*
X128085516Y-68256946D01*
X128081050Y-68248182D01*
X127956109Y-68076213D01*
X127940612Y-68060716D01*
X127907127Y-67999393D01*
X127912111Y-67929701D01*
X127953983Y-67873768D01*
X127975710Y-67860736D01*
X127987169Y-67855370D01*
X127992544Y-67854301D01*
X128110927Y-67805265D01*
X128142344Y-67784273D01*
X128217469Y-67734077D01*
X129130276Y-66821270D01*
X129201465Y-66714727D01*
X129250501Y-66596344D01*
X129254090Y-66578300D01*
X129275500Y-66470669D01*
X129275500Y-65110499D01*
X129295185Y-65043460D01*
X129347989Y-64997705D01*
X129399495Y-64986499D01*
X130392872Y-64986499D01*
X130452483Y-64980091D01*
X130487381Y-64967074D01*
X130557069Y-64962089D01*
X130574050Y-64967075D01*
X130607623Y-64979598D01*
X130667155Y-64985999D01*
X130667172Y-64986000D01*
X130915000Y-64986000D01*
X130915000Y-61986000D01*
X130669500Y-61986000D01*
X130602461Y-61966315D01*
X130556706Y-61913511D01*
X130545500Y-61862000D01*
X130545500Y-60773328D01*
X130520502Y-60647661D01*
X130520501Y-60647660D01*
X130520501Y-60647656D01*
X130471465Y-60529273D01*
X130471464Y-60529272D01*
X130471461Y-60529266D01*
X130400277Y-60422732D01*
X130400276Y-60422731D01*
X130309669Y-60332124D01*
X130173267Y-60195722D01*
X129665274Y-59687727D01*
X129665273Y-59687726D01*
X129632268Y-59665673D01*
X129558727Y-59616535D01*
X129504320Y-59593999D01*
X129440344Y-59567499D01*
X129440338Y-59567497D01*
X129314671Y-59542500D01*
X129314669Y-59542500D01*
X129188362Y-59542500D01*
X129121323Y-59522815D01*
X129100681Y-59506181D01*
X129088038Y-59493538D01*
X129088034Y-59493535D01*
X128940553Y-59394990D01*
X128940540Y-59394983D01*
X128776667Y-59327106D01*
X128776658Y-59327103D01*
X128602694Y-59292500D01*
X128602691Y-59292500D01*
X128425309Y-59292500D01*
X128425306Y-59292500D01*
X128251341Y-59327103D01*
X128251332Y-59327106D01*
X128087459Y-59394983D01*
X128087446Y-59394990D01*
X127939965Y-59493535D01*
X127939961Y-59493538D01*
X127814538Y-59618961D01*
X127814535Y-59618965D01*
X127715990Y-59766446D01*
X127715983Y-59766459D01*
X127648106Y-59930332D01*
X127648103Y-59930341D01*
X127613500Y-60104304D01*
X127613500Y-60281695D01*
X127648103Y-60455658D01*
X127648106Y-60455667D01*
X127715983Y-60619540D01*
X127715990Y-60619553D01*
X127814535Y-60767034D01*
X127814538Y-60767038D01*
X127939961Y-60892461D01*
X127939965Y-60892464D01*
X128087446Y-60991009D01*
X128087459Y-60991016D01*
X128210363Y-61041923D01*
X128251334Y-61058894D01*
X128251336Y-61058894D01*
X128251341Y-61058896D01*
X128425304Y-61093499D01*
X128425307Y-61093500D01*
X128425309Y-61093500D01*
X128602693Y-61093500D01*
X128602694Y-61093499D01*
X128688613Y-61076409D01*
X128776658Y-61058896D01*
X128776661Y-61058894D01*
X128776666Y-61058894D01*
X128940547Y-60991013D01*
X128968704Y-60972198D01*
X128998996Y-60962712D01*
X129028746Y-60951617D01*
X129032101Y-60952346D01*
X129035377Y-60951321D01*
X129065990Y-60959718D01*
X129097019Y-60966468D01*
X129100734Y-60969249D01*
X129102757Y-60969804D01*
X129125271Y-60987616D01*
X129208182Y-61070527D01*
X129241666Y-61131848D01*
X129244500Y-61158207D01*
X129244500Y-61861500D01*
X129224815Y-61928539D01*
X129172011Y-61974294D01*
X129120500Y-61985500D01*
X128127129Y-61985500D01*
X128127123Y-61985501D01*
X128067518Y-61991908D01*
X128033331Y-62004659D01*
X127963639Y-62009642D01*
X127946669Y-62004659D01*
X127912480Y-61991908D01*
X127912482Y-61991908D01*
X127852883Y-61985501D01*
X127852881Y-61985500D01*
X127852873Y-61985500D01*
X127852864Y-61985500D01*
X126857129Y-61985500D01*
X126857123Y-61985501D01*
X126797518Y-61991908D01*
X126763331Y-62004659D01*
X126693639Y-62009642D01*
X126676669Y-62004659D01*
X126642480Y-61991908D01*
X126642482Y-61991908D01*
X126582883Y-61985501D01*
X126582881Y-61985500D01*
X126582873Y-61985500D01*
X126582865Y-61985500D01*
X125589500Y-61985500D01*
X125522461Y-61965815D01*
X125476706Y-61913011D01*
X125465500Y-61861500D01*
X125465500Y-59909728D01*
X125440502Y-59784061D01*
X125440501Y-59784060D01*
X125440501Y-59784056D01*
X125391465Y-59665673D01*
X125391464Y-59665672D01*
X125391461Y-59665666D01*
X125320277Y-59559132D01*
X125283580Y-59522435D01*
X125229669Y-59468524D01*
X125080938Y-59319793D01*
X124610674Y-58849527D01*
X124610673Y-58849526D01*
X124587899Y-58834309D01*
X124504127Y-58778335D01*
X124385744Y-58729299D01*
X124376876Y-58727535D01*
X124260071Y-58704300D01*
X124260069Y-58704300D01*
X122838362Y-58704300D01*
X122771323Y-58684615D01*
X122750681Y-58667981D01*
X122738038Y-58655338D01*
X122738034Y-58655335D01*
X122590553Y-58556790D01*
X122590540Y-58556783D01*
X122426667Y-58488906D01*
X122426658Y-58488903D01*
X122252694Y-58454300D01*
X122252691Y-58454300D01*
X122075309Y-58454300D01*
X122075306Y-58454300D01*
X121901341Y-58488903D01*
X121901332Y-58488906D01*
X121737459Y-58556783D01*
X121737446Y-58556790D01*
X121589965Y-58655335D01*
X121589961Y-58655338D01*
X121464538Y-58780761D01*
X121464535Y-58780765D01*
X121365990Y-58928246D01*
X121365983Y-58928259D01*
X121298106Y-59092132D01*
X121298104Y-59092140D01*
X121274351Y-59211554D01*
X121241966Y-59273465D01*
X121181250Y-59308039D01*
X121128544Y-59308980D01*
X121045691Y-59292500D01*
X120868309Y-59292500D01*
X120868304Y-59292500D01*
X120699787Y-59326020D01*
X120630195Y-59319793D01*
X120575018Y-59276930D01*
X120551774Y-59211040D01*
X120553979Y-59180211D01*
X120587500Y-59011693D01*
X120587500Y-58834306D01*
X120587499Y-58834304D01*
X120552896Y-58660341D01*
X120552893Y-58660332D01*
X120552287Y-58658870D01*
X120510002Y-58556783D01*
X120485016Y-58496459D01*
X120485009Y-58496446D01*
X120400113Y-58369391D01*
X120379235Y-58302714D01*
X120397719Y-58235333D01*
X120449698Y-58188643D01*
X120503215Y-58176500D01*
X131114192Y-58176500D01*
X131181231Y-58196185D01*
G37*
%TD.AperFunction*%
%TA.AperFunction,Conductor*%
G36*
X110868937Y-45597785D02*
G01*
X110914692Y-45650589D01*
X110924636Y-45719747D01*
X110904999Y-45770992D01*
X110887991Y-45796444D01*
X110887983Y-45796459D01*
X110820106Y-45960332D01*
X110820103Y-45960341D01*
X110785500Y-46134304D01*
X110785500Y-46311695D01*
X110820103Y-46485658D01*
X110820106Y-46485667D01*
X110887983Y-46649540D01*
X110887990Y-46649553D01*
X110986535Y-46797034D01*
X110986538Y-46797038D01*
X111111961Y-46922461D01*
X111111965Y-46922464D01*
X111259446Y-47021009D01*
X111259459Y-47021016D01*
X111382363Y-47071923D01*
X111423334Y-47088894D01*
X111423336Y-47088894D01*
X111423341Y-47088896D01*
X111597304Y-47123499D01*
X111597307Y-47123500D01*
X111597309Y-47123500D01*
X111774692Y-47123500D01*
X111796499Y-47119161D01*
X111837014Y-47111103D01*
X111881310Y-47111103D01*
X111881330Y-47110903D01*
X111883361Y-47111103D01*
X111885397Y-47111103D01*
X111887393Y-47111500D01*
X111887394Y-47111500D01*
X113580501Y-47111500D01*
X113647540Y-47131185D01*
X113693295Y-47183989D01*
X113704501Y-47235500D01*
X113704501Y-47533876D01*
X113710908Y-47593483D01*
X113761202Y-47728328D01*
X113761206Y-47728335D01*
X113847452Y-47843544D01*
X113847455Y-47843547D01*
X113962664Y-47929793D01*
X113962671Y-47929797D01*
X114097517Y-47980091D01*
X114097516Y-47980091D01*
X114104444Y-47980835D01*
X114157127Y-47986500D01*
X114894719Y-47986499D01*
X114961758Y-48006183D01*
X115007513Y-48058987D01*
X115018673Y-48113883D01*
X115018386Y-48124388D01*
X115015100Y-48140909D01*
X115015100Y-48244766D01*
X115015054Y-48246452D01*
X115004796Y-48278156D01*
X114995415Y-48310107D01*
X114994087Y-48311256D01*
X114993547Y-48312929D01*
X114967774Y-48334057D01*
X114942611Y-48355862D01*
X114940872Y-48356111D01*
X114939514Y-48357226D01*
X114906415Y-48361066D01*
X114873453Y-48365806D01*
X114870988Y-48365177D01*
X114870110Y-48365279D01*
X114868720Y-48364598D01*
X114847768Y-48359250D01*
X114762382Y-48327403D01*
X114762372Y-48327401D01*
X114702844Y-48321000D01*
X113905000Y-48321000D01*
X113905000Y-49147000D01*
X113885315Y-49214039D01*
X113832511Y-49259794D01*
X113781000Y-49271000D01*
X113655000Y-49271000D01*
X113655000Y-49397000D01*
X113635315Y-49464039D01*
X113582511Y-49509794D01*
X113531000Y-49521000D01*
X112155000Y-49521000D01*
X112155000Y-49768844D01*
X112161401Y-49828372D01*
X112161403Y-49828379D01*
X112173925Y-49861952D01*
X112178909Y-49931643D01*
X112173925Y-49948617D01*
X112160909Y-49983514D01*
X112160908Y-49983516D01*
X112154501Y-50043116D01*
X112154500Y-50043135D01*
X112154500Y-51038870D01*
X112154501Y-51038876D01*
X112160908Y-51098481D01*
X112173659Y-51132669D01*
X112178642Y-51202361D01*
X112173659Y-51219331D01*
X112160908Y-51253518D01*
X112154501Y-51313116D01*
X112154500Y-51313135D01*
X112154500Y-52308870D01*
X112154501Y-52308876D01*
X112160908Y-52368481D01*
X112173659Y-52402669D01*
X112178642Y-52472361D01*
X112173659Y-52489331D01*
X112160908Y-52523518D01*
X112154501Y-52583116D01*
X112154501Y-52583123D01*
X112154500Y-52583135D01*
X112154500Y-53578870D01*
X112154501Y-53578876D01*
X112160908Y-53638481D01*
X112173659Y-53672669D01*
X112178642Y-53742361D01*
X112173659Y-53759331D01*
X112160908Y-53793518D01*
X112154501Y-53853116D01*
X112154501Y-53853123D01*
X112154500Y-53853135D01*
X112154500Y-54848870D01*
X112154501Y-54848876D01*
X112160908Y-54908481D01*
X112173659Y-54942669D01*
X112178642Y-55012361D01*
X112173659Y-55029331D01*
X112160908Y-55063518D01*
X112154501Y-55123116D01*
X112154501Y-55123123D01*
X112154500Y-55123135D01*
X112154500Y-56118870D01*
X112154501Y-56118876D01*
X112160908Y-56178481D01*
X112173659Y-56212669D01*
X112178642Y-56282361D01*
X112173659Y-56299331D01*
X112160908Y-56333518D01*
X112156542Y-56374135D01*
X112154501Y-56393123D01*
X112154500Y-56393135D01*
X112154500Y-57388870D01*
X112154501Y-57388876D01*
X112160908Y-57448481D01*
X112173659Y-57482669D01*
X112178642Y-57552361D01*
X112173659Y-57569331D01*
X112160908Y-57603518D01*
X112154501Y-57663116D01*
X112154501Y-57663123D01*
X112154500Y-57663135D01*
X112154500Y-58658870D01*
X112154501Y-58658876D01*
X112160908Y-58718481D01*
X112173659Y-58752669D01*
X112178642Y-58822361D01*
X112173659Y-58839331D01*
X112160908Y-58873518D01*
X112154501Y-58933116D01*
X112154500Y-58933135D01*
X112154501Y-59926500D01*
X112134817Y-59993539D01*
X112082013Y-60039294D01*
X112030501Y-60050500D01*
X111939929Y-60050500D01*
X111814261Y-60075497D01*
X111814255Y-60075499D01*
X111695870Y-60124535D01*
X111589331Y-60195722D01*
X111589324Y-60195728D01*
X110990726Y-60794326D01*
X110967586Y-60828958D01*
X110931285Y-60883288D01*
X110927492Y-60888965D01*
X110919533Y-60900876D01*
X110870499Y-61019255D01*
X110870497Y-61019261D01*
X110845500Y-61144928D01*
X110845500Y-63301191D01*
X110825815Y-63368230D01*
X110809181Y-63388872D01*
X109517527Y-64680525D01*
X109517524Y-64680528D01*
X109450532Y-64780791D01*
X109446337Y-64787068D01*
X109446336Y-64787071D01*
X109397299Y-64905455D01*
X109397297Y-64905461D01*
X109372300Y-65031128D01*
X109372300Y-65536392D01*
X109363655Y-65565832D01*
X109357132Y-65595819D01*
X109353377Y-65600834D01*
X109352615Y-65603431D01*
X109335981Y-65624073D01*
X109230873Y-65729181D01*
X109169550Y-65762666D01*
X109143192Y-65765500D01*
X108599300Y-65765500D01*
X108532261Y-65745815D01*
X108486506Y-65693011D01*
X108475300Y-65641500D01*
X108475299Y-64799729D01*
X108475298Y-64799723D01*
X108473938Y-64787073D01*
X108468891Y-64740117D01*
X108437224Y-64655215D01*
X108432241Y-64585526D01*
X108437226Y-64568550D01*
X108468397Y-64484977D01*
X108468398Y-64484974D01*
X108474799Y-64425444D01*
X108474800Y-64425427D01*
X108474800Y-63719211D01*
X108494485Y-63652172D01*
X108547289Y-63606417D01*
X108616447Y-63596473D01*
X108623300Y-63597999D01*
X108623359Y-63597706D01*
X108803304Y-63633499D01*
X108803307Y-63633500D01*
X108803309Y-63633500D01*
X108980693Y-63633500D01*
X108980694Y-63633499D01*
X109065190Y-63616692D01*
X109154658Y-63598896D01*
X109154661Y-63598894D01*
X109154666Y-63598894D01*
X109318547Y-63531013D01*
X109466035Y-63432464D01*
X109591464Y-63307035D01*
X109690013Y-63159547D01*
X109757894Y-62995666D01*
X109760867Y-62980723D01*
X109782809Y-62870412D01*
X109792500Y-62821691D01*
X109792500Y-62644309D01*
X109792500Y-62644306D01*
X109792499Y-62644304D01*
X109757896Y-62470341D01*
X109757893Y-62470332D01*
X109754043Y-62461038D01*
X109719863Y-62378517D01*
X109690016Y-62306459D01*
X109690014Y-62306455D01*
X109690013Y-62306453D01*
X109596759Y-62166890D01*
X109575882Y-62100214D01*
X109594366Y-62032834D01*
X109596760Y-62029109D01*
X109609521Y-62010011D01*
X109690013Y-61889547D01*
X109757894Y-61725666D01*
X109759139Y-61719410D01*
X109792499Y-61551695D01*
X109792500Y-61551693D01*
X109792500Y-61374306D01*
X109792499Y-61374304D01*
X109757896Y-61200341D01*
X109757893Y-61200332D01*
X109690016Y-61036459D01*
X109690014Y-61036455D01*
X109690013Y-61036453D01*
X109596759Y-60896890D01*
X109575882Y-60830214D01*
X109594366Y-60762834D01*
X109596760Y-60759109D01*
X109605246Y-60746409D01*
X109690013Y-60619547D01*
X109757894Y-60455666D01*
X109764446Y-60422731D01*
X109782468Y-60332124D01*
X109792500Y-60281691D01*
X109792500Y-60104309D01*
X109792500Y-60104306D01*
X109792499Y-60104304D01*
X109757896Y-59930341D01*
X109757893Y-59930332D01*
X109690016Y-59766459D01*
X109690014Y-59766455D01*
X109690013Y-59766453D01*
X109596759Y-59626890D01*
X109575882Y-59560214D01*
X109594366Y-59492834D01*
X109596760Y-59489109D01*
X109610514Y-59468525D01*
X109690013Y-59349547D01*
X109757894Y-59185666D01*
X109792500Y-59011691D01*
X109792500Y-58834309D01*
X109792500Y-58834306D01*
X109792499Y-58834304D01*
X109757896Y-58660341D01*
X109757893Y-58660332D01*
X109757287Y-58658870D01*
X109715002Y-58556783D01*
X109690016Y-58496459D01*
X109690009Y-58496446D01*
X109591464Y-58348965D01*
X109591461Y-58348961D01*
X109466038Y-58223538D01*
X109466034Y-58223535D01*
X109318553Y-58124990D01*
X109318540Y-58124983D01*
X109154667Y-58057106D01*
X109154658Y-58057103D01*
X108980694Y-58022500D01*
X108980691Y-58022500D01*
X108803309Y-58022500D01*
X108803306Y-58022500D01*
X108623359Y-58058294D01*
X108622821Y-58055591D01*
X108564741Y-58056019D01*
X108505687Y-58018678D01*
X108476195Y-57955337D01*
X108474800Y-57936788D01*
X108474800Y-57179772D01*
X108474799Y-57179755D01*
X108468398Y-57120223D01*
X108437225Y-57036647D01*
X108432241Y-56966956D01*
X108437218Y-56950002D01*
X108468891Y-56865083D01*
X108475300Y-56805473D01*
X108475299Y-55909728D01*
X108468891Y-55850117D01*
X108444067Y-55783561D01*
X108418597Y-55715271D01*
X108418593Y-55715264D01*
X108332347Y-55600055D01*
X108332344Y-55600052D01*
X108217135Y-55513806D01*
X108217128Y-55513802D01*
X108082282Y-55463508D01*
X108082283Y-55463508D01*
X108022683Y-55457101D01*
X108022681Y-55457100D01*
X108022673Y-55457100D01*
X108022665Y-55457100D01*
X107761500Y-55457100D01*
X107694461Y-55437415D01*
X107648706Y-55384611D01*
X107637500Y-55333100D01*
X107637500Y-48773155D01*
X112155000Y-48773155D01*
X112155000Y-49021000D01*
X113405000Y-49021000D01*
X113405000Y-48321000D01*
X112607155Y-48321000D01*
X112547627Y-48327401D01*
X112547620Y-48327403D01*
X112412913Y-48377645D01*
X112412906Y-48377649D01*
X112297812Y-48463809D01*
X112297809Y-48463812D01*
X112211649Y-48578906D01*
X112211645Y-48578913D01*
X112161403Y-48713620D01*
X112161401Y-48713627D01*
X112155000Y-48773155D01*
X107637500Y-48773155D01*
X107637500Y-47051808D01*
X107657185Y-46984769D01*
X107673819Y-46964127D01*
X109023527Y-45614419D01*
X109084850Y-45580934D01*
X109111208Y-45578100D01*
X110801898Y-45578100D01*
X110868937Y-45597785D01*
G37*
%TD.AperFunction*%
%TA.AperFunction,Conductor*%
G36*
X91226024Y-40501256D02*
G01*
X91243749Y-40503222D01*
X91315018Y-40511130D01*
X91341689Y-40517121D01*
X91419839Y-40544019D01*
X91444548Y-40555711D01*
X91514900Y-40599081D01*
X91536444Y-40615903D01*
X91553685Y-40632735D01*
X91595573Y-40673631D01*
X91612912Y-40694771D01*
X91657956Y-40764060D01*
X91670239Y-40788487D01*
X91681475Y-40818753D01*
X91701472Y-40872622D01*
X91705520Y-40885699D01*
X91721435Y-40949356D01*
X91721436Y-40949358D01*
X92807252Y-45292622D01*
X92807273Y-45292736D01*
X92812496Y-45313619D01*
X92812484Y-45313910D01*
X92851961Y-45471369D01*
X92936632Y-45675975D01*
X92953689Y-45704451D01*
X93050401Y-45865912D01*
X93050416Y-45865936D01*
X93050416Y-45865937D01*
X93190843Y-46037135D01*
X93354878Y-46185873D01*
X93354880Y-46185874D01*
X93354882Y-46185876D01*
X93515086Y-46292961D01*
X93538976Y-46308930D01*
X93739120Y-46403625D01*
X93739123Y-46403626D01*
X93739130Y-46403629D01*
X93882804Y-46447227D01*
X93951013Y-46467927D01*
X93951016Y-46467927D01*
X93951018Y-46467928D01*
X94170049Y-46500432D01*
X94214732Y-46500459D01*
X94214884Y-46500500D01*
X94280764Y-46500500D01*
X94346656Y-46500502D01*
X94346659Y-46500500D01*
X94355279Y-46500501D01*
X94355308Y-46500500D01*
X104644697Y-46500500D01*
X104653338Y-46500500D01*
X104653344Y-46500502D01*
X104667880Y-46500501D01*
X104668059Y-46500553D01*
X104719236Y-46500521D01*
X104719236Y-46500522D01*
X104755056Y-46500500D01*
X104785116Y-46500500D01*
X104793207Y-46500500D01*
X104793549Y-46500475D01*
X104829953Y-46500454D01*
X105048988Y-46467947D01*
X105260880Y-46403642D01*
X105461038Y-46308933D01*
X105570138Y-46236000D01*
X105645129Y-46185869D01*
X105645130Y-46185868D01*
X105809157Y-46037122D01*
X105809159Y-46037120D01*
X105949582Y-45865904D01*
X106063352Y-45675932D01*
X106148006Y-45471318D01*
X106158866Y-45427984D01*
X106158941Y-45427850D01*
X106183922Y-45327927D01*
X106190904Y-45299998D01*
X106190903Y-45299997D01*
X107294529Y-40885496D01*
X107298570Y-40872444D01*
X107329743Y-40788469D01*
X107342018Y-40764058D01*
X107387073Y-40694751D01*
X107404399Y-40673627D01*
X107463545Y-40615882D01*
X107485081Y-40599066D01*
X107555449Y-40555686D01*
X107580153Y-40543998D01*
X107658299Y-40517103D01*
X107684975Y-40511109D01*
X107773777Y-40501256D01*
X107787452Y-40500500D01*
X135471696Y-40500500D01*
X135538735Y-40520185D01*
X135584490Y-40572989D01*
X135594434Y-40642147D01*
X135565409Y-40705703D01*
X135537668Y-40729494D01*
X135434837Y-40794107D01*
X135197696Y-40983220D01*
X134983220Y-41197696D01*
X134794107Y-41434837D01*
X134632733Y-41691661D01*
X134501133Y-41964931D01*
X134400957Y-42251216D01*
X134400953Y-42251228D01*
X134333460Y-42546937D01*
X134333457Y-42546951D01*
X134299500Y-42848336D01*
X134299500Y-43151663D01*
X134333457Y-43453048D01*
X134333459Y-43453060D01*
X134333460Y-43453063D01*
X134336436Y-43466103D01*
X134400953Y-43748771D01*
X134400957Y-43748783D01*
X134501133Y-44035068D01*
X134632733Y-44308338D01*
X134659623Y-44351133D01*
X134794108Y-44565164D01*
X134983221Y-44802304D01*
X135197696Y-45016779D01*
X135434836Y-45205892D01*
X135691659Y-45367265D01*
X135964935Y-45498868D01*
X136179951Y-45574105D01*
X136251216Y-45599042D01*
X136251228Y-45599046D01*
X136546937Y-45666540D01*
X136546946Y-45666541D01*
X136546951Y-45666542D01*
X136747874Y-45689180D01*
X136848337Y-45700499D01*
X136848340Y-45700500D01*
X136848343Y-45700500D01*
X137151660Y-45700500D01*
X137151661Y-45700499D01*
X137305694Y-45683144D01*
X137453048Y-45666542D01*
X137453051Y-45666541D01*
X137453063Y-45666540D01*
X137748772Y-45599046D01*
X138035065Y-45498868D01*
X138308341Y-45367265D01*
X138565164Y-45205892D01*
X138802304Y-45016779D01*
X139016779Y-44802304D01*
X139205892Y-44565164D01*
X139270506Y-44462330D01*
X139322840Y-44416040D01*
X139391894Y-44405391D01*
X139455742Y-44433766D01*
X139494115Y-44492156D01*
X139499500Y-44528303D01*
X139499500Y-45212351D01*
X139498744Y-45226026D01*
X139488868Y-45315034D01*
X139482875Y-45341709D01*
X139455980Y-45419861D01*
X139444286Y-45444578D01*
X139400916Y-45514937D01*
X139384089Y-45536490D01*
X139326351Y-45595634D01*
X139305213Y-45612972D01*
X139235921Y-45658025D01*
X139211492Y-45670312D01*
X139127988Y-45701318D01*
X139114899Y-45705371D01*
X134707373Y-46807252D01*
X134707263Y-46807273D01*
X134686379Y-46812496D01*
X134686088Y-46812484D01*
X134528630Y-46851961D01*
X134324024Y-46936632D01*
X134134063Y-47050416D01*
X134134062Y-47050416D01*
X133962864Y-47190843D01*
X133814126Y-47354878D01*
X133691069Y-47538976D01*
X133596374Y-47739120D01*
X133596372Y-47739127D01*
X133532072Y-47951013D01*
X133503892Y-48140909D01*
X133499568Y-48170049D01*
X133499540Y-48214732D01*
X133499500Y-48214884D01*
X133499500Y-48280764D01*
X133499499Y-48334057D01*
X133499498Y-48355279D01*
X133499500Y-48355308D01*
X133499500Y-61645737D01*
X133499499Y-61653338D01*
X133499498Y-61653344D01*
X133499498Y-61664226D01*
X133499498Y-61667885D01*
X133499446Y-61668061D01*
X133499500Y-61755055D01*
X133499500Y-61792777D01*
X133499522Y-61793135D01*
X133499546Y-61829953D01*
X133532053Y-62048991D01*
X133564691Y-62156534D01*
X133591135Y-62243671D01*
X133596358Y-62260879D01*
X133691063Y-62461031D01*
X133691069Y-62461042D01*
X133814130Y-62645129D01*
X133814131Y-62645130D01*
X133962877Y-62809157D01*
X133962881Y-62809160D01*
X134085269Y-62909537D01*
X134134096Y-62949582D01*
X134324068Y-63063352D01*
X134528682Y-63148006D01*
X134564017Y-63156861D01*
X134564659Y-63157068D01*
X134572149Y-63158940D01*
X134572150Y-63158941D01*
X139057223Y-64280209D01*
X139057225Y-64280210D01*
X139114496Y-64294527D01*
X139127554Y-64298569D01*
X139211526Y-64329741D01*
X139235944Y-64342020D01*
X139305244Y-64387070D01*
X139326376Y-64404403D01*
X139384112Y-64463540D01*
X139400937Y-64485087D01*
X139439806Y-64548138D01*
X139444308Y-64555441D01*
X139456003Y-64580159D01*
X139482896Y-64658299D01*
X139488889Y-64684976D01*
X139498743Y-64773774D01*
X139499500Y-64787450D01*
X139499500Y-77471696D01*
X139479815Y-77538735D01*
X139427011Y-77584490D01*
X139357853Y-77594434D01*
X139294297Y-77565409D01*
X139270506Y-77537668D01*
X139251765Y-77507842D01*
X139205892Y-77434836D01*
X139016779Y-77197696D01*
X138802304Y-76983221D01*
X138798395Y-76980104D01*
X138742078Y-76935193D01*
X138565164Y-76794108D01*
X138308341Y-76632735D01*
X138308338Y-76632733D01*
X138035068Y-76501133D01*
X137748783Y-76400957D01*
X137748771Y-76400953D01*
X137520556Y-76348864D01*
X137453063Y-76333460D01*
X137453060Y-76333459D01*
X137453048Y-76333457D01*
X137151663Y-76299500D01*
X137151657Y-76299500D01*
X136848343Y-76299500D01*
X136848336Y-76299500D01*
X136546951Y-76333457D01*
X136546937Y-76333460D01*
X136251228Y-76400953D01*
X136251216Y-76400957D01*
X135964931Y-76501133D01*
X135691661Y-76632733D01*
X135434837Y-76794107D01*
X135197696Y-76983220D01*
X134983220Y-77197696D01*
X134794107Y-77434837D01*
X134632733Y-77691661D01*
X134501133Y-77964931D01*
X134400957Y-78251216D01*
X134400953Y-78251228D01*
X134333460Y-78546937D01*
X134333457Y-78546951D01*
X134299500Y-78848336D01*
X134299500Y-79151663D01*
X134333457Y-79453048D01*
X134333460Y-79453062D01*
X134400953Y-79748771D01*
X134400957Y-79748783D01*
X134501133Y-80035068D01*
X134632733Y-80308338D01*
X134632735Y-80308341D01*
X134794108Y-80565164D01*
X134983221Y-80802304D01*
X135197696Y-81016779D01*
X135434836Y-81205892D01*
X135478933Y-81233600D01*
X135537668Y-81270506D01*
X135583959Y-81322841D01*
X135594607Y-81391894D01*
X135566232Y-81455743D01*
X135507842Y-81494115D01*
X135471696Y-81499500D01*
X105965659Y-81499500D01*
X105898620Y-81479815D01*
X105852865Y-81427011D01*
X105842921Y-81357853D01*
X105862557Y-81306610D01*
X105911340Y-81233600D01*
X105911340Y-81233599D01*
X105911341Y-81233598D01*
X105990530Y-81042420D01*
X106030900Y-80839465D01*
X106030900Y-79932535D01*
X105990530Y-79729580D01*
X105911341Y-79538402D01*
X105796377Y-79366345D01*
X105796375Y-79366342D01*
X105650057Y-79220024D01*
X105547737Y-79151657D01*
X105477998Y-79105059D01*
X105307782Y-79034553D01*
X105286820Y-79025870D01*
X105286812Y-79025868D01*
X105083869Y-78985500D01*
X105083865Y-78985500D01*
X104876935Y-78985500D01*
X104876930Y-78985500D01*
X104673987Y-79025868D01*
X104673979Y-79025870D01*
X104482803Y-79105058D01*
X104310742Y-79220024D01*
X104164424Y-79366342D01*
X104049458Y-79538403D01*
X103970270Y-79729579D01*
X103970268Y-79729587D01*
X103929900Y-79932530D01*
X103929900Y-80839469D01*
X103970268Y-81042412D01*
X103970270Y-81042420D01*
X104049459Y-81233599D01*
X104049459Y-81233600D01*
X104098243Y-81306610D01*
X104119121Y-81373287D01*
X104100636Y-81440667D01*
X104048657Y-81487357D01*
X103995141Y-81499500D01*
X97365659Y-81499500D01*
X97298620Y-81479815D01*
X97252865Y-81427011D01*
X97242921Y-81357853D01*
X97262557Y-81306610D01*
X97311340Y-81233600D01*
X97311340Y-81233599D01*
X97311341Y-81233598D01*
X97390530Y-81042420D01*
X97430900Y-80839465D01*
X97430900Y-79932535D01*
X97390530Y-79729580D01*
X97311341Y-79538402D01*
X97196377Y-79366345D01*
X97196375Y-79366342D01*
X97050057Y-79220024D01*
X96947737Y-79151657D01*
X96877998Y-79105059D01*
X96707782Y-79034553D01*
X96686820Y-79025870D01*
X96686812Y-79025868D01*
X96483869Y-78985500D01*
X96483865Y-78985500D01*
X96276935Y-78985500D01*
X96276930Y-78985500D01*
X96073987Y-79025868D01*
X96073979Y-79025870D01*
X95882803Y-79105058D01*
X95710742Y-79220024D01*
X95564424Y-79366342D01*
X95449458Y-79538403D01*
X95370270Y-79729579D01*
X95370268Y-79729587D01*
X95329900Y-79932530D01*
X95329900Y-80839469D01*
X95370268Y-81042412D01*
X95370270Y-81042420D01*
X95449459Y-81233599D01*
X95449459Y-81233600D01*
X95498243Y-81306610D01*
X95519121Y-81373287D01*
X95500636Y-81440667D01*
X95448657Y-81487357D01*
X95395141Y-81499500D01*
X84528304Y-81499500D01*
X84461265Y-81479815D01*
X84415510Y-81427011D01*
X84405566Y-81357853D01*
X84434591Y-81294297D01*
X84462332Y-81270506D01*
X84476833Y-81261394D01*
X84565164Y-81205892D01*
X84802304Y-81016779D01*
X85016779Y-80802304D01*
X85205892Y-80565164D01*
X85367265Y-80308341D01*
X85498868Y-80035065D01*
X85599046Y-79748772D01*
X85666540Y-79453063D01*
X85700500Y-79151657D01*
X85700500Y-78848343D01*
X85677478Y-78644013D01*
X85666542Y-78546951D01*
X85666541Y-78546946D01*
X85666540Y-78546937D01*
X85599046Y-78251228D01*
X85498868Y-77964935D01*
X85367265Y-77691659D01*
X85205892Y-77434836D01*
X85016779Y-77197696D01*
X84802304Y-76983221D01*
X84798395Y-76980104D01*
X84742078Y-76935193D01*
X84565164Y-76794108D01*
X84308341Y-76632735D01*
X84308338Y-76632733D01*
X84035068Y-76501133D01*
X83748783Y-76400957D01*
X83748771Y-76400953D01*
X83520556Y-76348864D01*
X83453063Y-76333460D01*
X83453060Y-76333459D01*
X83453048Y-76333457D01*
X83151663Y-76299500D01*
X83151657Y-76299500D01*
X82848343Y-76299500D01*
X82848336Y-76299500D01*
X82546951Y-76333457D01*
X82546937Y-76333460D01*
X82251228Y-76400953D01*
X82251216Y-76400957D01*
X81964931Y-76501133D01*
X81691661Y-76632733D01*
X81434837Y-76794107D01*
X81197696Y-76983220D01*
X80983220Y-77197696D01*
X80794107Y-77434837D01*
X80729494Y-77537668D01*
X80677159Y-77583959D01*
X80608106Y-77594607D01*
X80544257Y-77566232D01*
X80505885Y-77507842D01*
X80500500Y-77471696D01*
X80500500Y-71106135D01*
X86865900Y-71106135D01*
X86865900Y-72901870D01*
X86865901Y-72901876D01*
X86872308Y-72961483D01*
X86922602Y-73096328D01*
X86922606Y-73096335D01*
X87008852Y-73211544D01*
X87008855Y-73211547D01*
X87124064Y-73297793D01*
X87124071Y-73297797D01*
X87258917Y-73348091D01*
X87258916Y-73348091D01*
X87265844Y-73348835D01*
X87318527Y-73354500D01*
X89050191Y-73354499D01*
X89117230Y-73374184D01*
X89162985Y-73426987D01*
X89172929Y-73496146D01*
X89143904Y-73559702D01*
X89137873Y-73566180D01*
X89006525Y-73697528D01*
X88935334Y-73804074D01*
X88886299Y-73922455D01*
X88886297Y-73922461D01*
X88861300Y-74048128D01*
X88861300Y-77705038D01*
X88841615Y-77772077D01*
X88824981Y-77792719D01*
X88812338Y-77805361D01*
X88812335Y-77805365D01*
X88713790Y-77952846D01*
X88713783Y-77952859D01*
X88645906Y-78116732D01*
X88645903Y-78116741D01*
X88611300Y-78290704D01*
X88611300Y-78468095D01*
X88645903Y-78642058D01*
X88645906Y-78642067D01*
X88713783Y-78805940D01*
X88713790Y-78805953D01*
X88812335Y-78953434D01*
X88812338Y-78953438D01*
X88937761Y-79078861D01*
X88937765Y-79078864D01*
X89085246Y-79177409D01*
X89085259Y-79177416D01*
X89188124Y-79220023D01*
X89249134Y-79245294D01*
X89249136Y-79245294D01*
X89249141Y-79245296D01*
X89423104Y-79279899D01*
X89423107Y-79279900D01*
X89423109Y-79279900D01*
X89600493Y-79279900D01*
X89600494Y-79279899D01*
X89658482Y-79268364D01*
X89774458Y-79245296D01*
X89774461Y-79245294D01*
X89774466Y-79245294D01*
X89927181Y-79182038D01*
X89938340Y-79177416D01*
X89938340Y-79177415D01*
X89938347Y-79177413D01*
X90085835Y-79078864D01*
X90211264Y-78953435D01*
X90309813Y-78805947D01*
X90377694Y-78642066D01*
X90396617Y-78546937D01*
X90412299Y-78468095D01*
X90412300Y-78468093D01*
X90412300Y-78290706D01*
X90412299Y-78290704D01*
X90377696Y-78116741D01*
X90377693Y-78116732D01*
X90374352Y-78108667D01*
X90323750Y-77986500D01*
X90309816Y-77952859D01*
X90309809Y-77952846D01*
X90211264Y-77805365D01*
X90211261Y-77805361D01*
X90198619Y-77792719D01*
X90165134Y-77731396D01*
X90162300Y-77705038D01*
X90162300Y-76132530D01*
X95329900Y-76132530D01*
X95329900Y-77039469D01*
X95370268Y-77242412D01*
X95370270Y-77242420D01*
X95449459Y-77433598D01*
X95450287Y-77434837D01*
X95564424Y-77605657D01*
X95710742Y-77751975D01*
X95710745Y-77751977D01*
X95882802Y-77866941D01*
X96073980Y-77946130D01*
X96266875Y-77984499D01*
X96276930Y-77986499D01*
X96276934Y-77986500D01*
X96276935Y-77986500D01*
X96483866Y-77986500D01*
X96483867Y-77986499D01*
X96686820Y-77946130D01*
X96877998Y-77866941D01*
X97050055Y-77751977D01*
X97196377Y-77605655D01*
X97311341Y-77433598D01*
X97390530Y-77242420D01*
X97430900Y-77039465D01*
X97430900Y-76132535D01*
X97430899Y-76132530D01*
X103929900Y-76132530D01*
X103929900Y-77039469D01*
X103970268Y-77242412D01*
X103970270Y-77242420D01*
X104049459Y-77433598D01*
X104050287Y-77434837D01*
X104164424Y-77605657D01*
X104310742Y-77751975D01*
X104310745Y-77751977D01*
X104482802Y-77866941D01*
X104673980Y-77946130D01*
X104866875Y-77984499D01*
X104876930Y-77986499D01*
X104876934Y-77986500D01*
X104876935Y-77986500D01*
X105083866Y-77986500D01*
X105083867Y-77986499D01*
X105286820Y-77946130D01*
X105477998Y-77866941D01*
X105650055Y-77751977D01*
X105796377Y-77605655D01*
X105911341Y-77433598D01*
X105990530Y-77242420D01*
X106030900Y-77039465D01*
X106030900Y-76132535D01*
X106000421Y-75979304D01*
X111801500Y-75979304D01*
X111801500Y-76156695D01*
X111836103Y-76330658D01*
X111836106Y-76330667D01*
X111903983Y-76494539D01*
X111903985Y-76494543D01*
X111903987Y-76494547D01*
X111903990Y-76494552D01*
X111903991Y-76494553D01*
X111912382Y-76507112D01*
X111933258Y-76573790D01*
X111914772Y-76641170D01*
X111912382Y-76644888D01*
X111903991Y-76657446D01*
X111903983Y-76657460D01*
X111836106Y-76821332D01*
X111836103Y-76821341D01*
X111801500Y-76995304D01*
X111801500Y-77172695D01*
X111836103Y-77346658D01*
X111836106Y-77346667D01*
X111903983Y-77510540D01*
X111903990Y-77510553D01*
X112002535Y-77658034D01*
X112002538Y-77658038D01*
X112127961Y-77783461D01*
X112127965Y-77783464D01*
X112275446Y-77882009D01*
X112275459Y-77882016D01*
X112398363Y-77932923D01*
X112439334Y-77949894D01*
X112439336Y-77949894D01*
X112439341Y-77949896D01*
X112613304Y-77984499D01*
X112613307Y-77984500D01*
X112613309Y-77984500D01*
X112790693Y-77984500D01*
X112790694Y-77984499D01*
X112848682Y-77972964D01*
X112964658Y-77949896D01*
X112964661Y-77949894D01*
X112964666Y-77949894D01*
X113128547Y-77882013D01*
X113128550Y-77882010D01*
X113128552Y-77882010D01*
X113168378Y-77855399D01*
X113235055Y-77834520D01*
X113237270Y-77834500D01*
X116264730Y-77834500D01*
X116331769Y-77854185D01*
X116333622Y-77855399D01*
X116373447Y-77882010D01*
X116373450Y-77882011D01*
X116373453Y-77882013D01*
X116537334Y-77949894D01*
X116537336Y-77949894D01*
X116537341Y-77949896D01*
X116711304Y-77984499D01*
X116711307Y-77984500D01*
X116711309Y-77984500D01*
X116888693Y-77984500D01*
X116888694Y-77984499D01*
X116946682Y-77972964D01*
X117062658Y-77949896D01*
X117062661Y-77949894D01*
X117062666Y-77949894D01*
X117226547Y-77882013D01*
X117226550Y-77882010D01*
X117226552Y-77882010D01*
X117266378Y-77855399D01*
X117333055Y-77834520D01*
X117335270Y-77834500D01*
X125865770Y-77834500D01*
X125932809Y-77854185D01*
X125953451Y-77870819D01*
X126842823Y-78760190D01*
X126876308Y-78821513D01*
X126876759Y-78823679D01*
X126886104Y-78870660D01*
X126886107Y-78870670D01*
X126953983Y-79034540D01*
X126953990Y-79034553D01*
X127052535Y-79182034D01*
X127052538Y-79182038D01*
X127177961Y-79307461D01*
X127177965Y-79307464D01*
X127325446Y-79406009D01*
X127325459Y-79406016D01*
X127439043Y-79453063D01*
X127489334Y-79473894D01*
X127489336Y-79473894D01*
X127489341Y-79473896D01*
X127663304Y-79508499D01*
X127663307Y-79508500D01*
X127663309Y-79508500D01*
X127840693Y-79508500D01*
X127840694Y-79508499D01*
X127898682Y-79496964D01*
X128014658Y-79473896D01*
X128014661Y-79473894D01*
X128014666Y-79473894D01*
X128178547Y-79406013D01*
X128326035Y-79307464D01*
X128451464Y-79182035D01*
X128550013Y-79034547D01*
X128617894Y-78870666D01*
X128622738Y-78846308D01*
X128655123Y-78784398D01*
X128715839Y-78749824D01*
X128744356Y-78746500D01*
X128856693Y-78746500D01*
X128856694Y-78746499D01*
X128914682Y-78734964D01*
X129030658Y-78711896D01*
X129030661Y-78711894D01*
X129030666Y-78711894D01*
X129194547Y-78644013D01*
X129342035Y-78545464D01*
X129467464Y-78420035D01*
X129566013Y-78272547D01*
X129574849Y-78251216D01*
X129630552Y-78116734D01*
X129633894Y-78108666D01*
X129668500Y-77934691D01*
X129668500Y-77757309D01*
X129668500Y-77757306D01*
X129668499Y-77757304D01*
X129633896Y-77583341D01*
X129633893Y-77583332D01*
X129566016Y-77419459D01*
X129566009Y-77419446D01*
X129467464Y-77271965D01*
X129467461Y-77271961D01*
X129342038Y-77146538D01*
X129342034Y-77146535D01*
X129194553Y-77047990D01*
X129194540Y-77047983D01*
X129030668Y-76980106D01*
X129030660Y-76980104D01*
X128983680Y-76970759D01*
X128921769Y-76938374D01*
X128920191Y-76936823D01*
X127468421Y-75485052D01*
X127468420Y-75485051D01*
X127468416Y-75485048D01*
X127371097Y-75420023D01*
X127371095Y-75420020D01*
X127345495Y-75402916D01*
X127345490Y-75402913D01*
X127208917Y-75346343D01*
X127208907Y-75346340D01*
X127063920Y-75317500D01*
X127063918Y-75317500D01*
X117335270Y-75317500D01*
X117268231Y-75297815D01*
X117266378Y-75296601D01*
X117226552Y-75269989D01*
X117226547Y-75269987D01*
X117062667Y-75202106D01*
X117062658Y-75202103D01*
X116888694Y-75167500D01*
X116888691Y-75167500D01*
X116711309Y-75167500D01*
X116711306Y-75167500D01*
X116537341Y-75202103D01*
X116537332Y-75202106D01*
X116373452Y-75269987D01*
X116373447Y-75269989D01*
X116333622Y-75296601D01*
X116266945Y-75317480D01*
X116264730Y-75317500D01*
X113237270Y-75317500D01*
X113170231Y-75297815D01*
X113168378Y-75296601D01*
X113128552Y-75269989D01*
X113128547Y-75269987D01*
X112964667Y-75202106D01*
X112964658Y-75202103D01*
X112790694Y-75167500D01*
X112790691Y-75167500D01*
X112613309Y-75167500D01*
X112613306Y-75167500D01*
X112439341Y-75202103D01*
X112439332Y-75202106D01*
X112275459Y-75269983D01*
X112275446Y-75269990D01*
X112127965Y-75368535D01*
X112127961Y-75368538D01*
X112002538Y-75493961D01*
X112002535Y-75493965D01*
X111903990Y-75641446D01*
X111903983Y-75641459D01*
X111836106Y-75805332D01*
X111836103Y-75805341D01*
X111801500Y-75979304D01*
X106000421Y-75979304D01*
X105990530Y-75929580D01*
X105911341Y-75738402D01*
X105796377Y-75566345D01*
X105796375Y-75566342D01*
X105650058Y-75420025D01*
X105624448Y-75402913D01*
X105477998Y-75305059D01*
X105393334Y-75269990D01*
X105286820Y-75225870D01*
X105286812Y-75225868D01*
X105083869Y-75185500D01*
X105083865Y-75185500D01*
X104876935Y-75185500D01*
X104876930Y-75185500D01*
X104673987Y-75225868D01*
X104673979Y-75225870D01*
X104482803Y-75305058D01*
X104310741Y-75420025D01*
X104164424Y-75566342D01*
X104049458Y-75738403D01*
X103970270Y-75929579D01*
X103970268Y-75929587D01*
X103929900Y-76132530D01*
X97430899Y-76132530D01*
X97390530Y-75929580D01*
X97311341Y-75738402D01*
X97196377Y-75566345D01*
X97196375Y-75566342D01*
X97050058Y-75420025D01*
X97024448Y-75402913D01*
X96877998Y-75305059D01*
X96793334Y-75269990D01*
X96686820Y-75225870D01*
X96686812Y-75225868D01*
X96483869Y-75185500D01*
X96483865Y-75185500D01*
X96276935Y-75185500D01*
X96276930Y-75185500D01*
X96073987Y-75225868D01*
X96073979Y-75225870D01*
X95882803Y-75305058D01*
X95710741Y-75420025D01*
X95564424Y-75566342D01*
X95449458Y-75738403D01*
X95370270Y-75929579D01*
X95370268Y-75929587D01*
X95329900Y-76132530D01*
X90162300Y-76132530D01*
X90162300Y-74433008D01*
X90181985Y-74365969D01*
X90198619Y-74345327D01*
X90608527Y-73935419D01*
X90669850Y-73901934D01*
X90696208Y-73899100D01*
X122418071Y-73899100D01*
X122502615Y-73882282D01*
X122543744Y-73874101D01*
X122662127Y-73825065D01*
X122693544Y-73804073D01*
X122768669Y-73753877D01*
X124619127Y-71903419D01*
X124680450Y-71869934D01*
X124706808Y-71867100D01*
X133492471Y-71867100D01*
X133577015Y-71850282D01*
X133618144Y-71842101D01*
X133736527Y-71793065D01*
X133843069Y-71721877D01*
X135115277Y-70449669D01*
X135168010Y-70370747D01*
X135186462Y-70343132D01*
X135186464Y-70343128D01*
X135186465Y-70343127D01*
X135188646Y-70337861D01*
X135235501Y-70224744D01*
X135246151Y-70171204D01*
X135260500Y-70099071D01*
X135260500Y-66859928D01*
X135235502Y-66734261D01*
X135235501Y-66734260D01*
X135235501Y-66734256D01*
X135197574Y-66642692D01*
X135186466Y-66615875D01*
X135186461Y-66615866D01*
X135115277Y-66509332D01*
X135072433Y-66466488D01*
X135024669Y-66418724D01*
X135024668Y-66418723D01*
X134038846Y-65432901D01*
X133010819Y-64404873D01*
X132977334Y-64343550D01*
X132974500Y-64317192D01*
X132974500Y-58350928D01*
X132949502Y-58225261D01*
X132949501Y-58225260D01*
X132949501Y-58225256D01*
X132900465Y-58106873D01*
X132867212Y-58057106D01*
X132829277Y-58000331D01*
X132829275Y-58000328D01*
X131849673Y-57020726D01*
X131849669Y-57020723D01*
X131743127Y-56949535D01*
X131699910Y-56931634D01*
X131624744Y-56900499D01*
X131624738Y-56900497D01*
X131499071Y-56875500D01*
X131499069Y-56875500D01*
X126731966Y-56875500D01*
X126664927Y-56855815D01*
X126619172Y-56803011D01*
X126609228Y-56733853D01*
X126615784Y-56708167D01*
X126658596Y-56593379D01*
X126658598Y-56593372D01*
X126664999Y-56533844D01*
X126665000Y-56533827D01*
X126665000Y-54236000D01*
X125649345Y-54236000D01*
X125665000Y-54117087D01*
X125665000Y-53854913D01*
X125649345Y-53736000D01*
X126665000Y-53736000D01*
X126665000Y-51438172D01*
X126664999Y-51438155D01*
X126658598Y-51378627D01*
X126658596Y-51378620D01*
X126608354Y-51243913D01*
X126608350Y-51243906D01*
X126522190Y-51128812D01*
X126522187Y-51128809D01*
X126407093Y-51042649D01*
X126407086Y-51042645D01*
X126272379Y-50992403D01*
X126272372Y-50992401D01*
X126212844Y-50986000D01*
X123915000Y-50986000D01*
X123915000Y-52001655D01*
X123796087Y-51986000D01*
X123533913Y-51986000D01*
X123415000Y-52001655D01*
X123415000Y-50986000D01*
X121117155Y-50986000D01*
X121057627Y-50992401D01*
X121057620Y-50992403D01*
X120922913Y-51042645D01*
X120922906Y-51042649D01*
X120807812Y-51128809D01*
X120807809Y-51128812D01*
X120721649Y-51243906D01*
X120721645Y-51243913D01*
X120671403Y-51378620D01*
X120671401Y-51378627D01*
X120665000Y-51438155D01*
X120665000Y-53736000D01*
X121680655Y-53736000D01*
X121665000Y-53854913D01*
X121665000Y-54117087D01*
X121680655Y-54236000D01*
X120665000Y-54236000D01*
X120665000Y-56533844D01*
X120671401Y-56593372D01*
X120671403Y-56593379D01*
X120714216Y-56708167D01*
X120719200Y-56777859D01*
X120685715Y-56839182D01*
X120624392Y-56872666D01*
X120598034Y-56875500D01*
X118289929Y-56875500D01*
X118164261Y-56900497D01*
X118164255Y-56900499D01*
X118045874Y-56949534D01*
X117939326Y-57020726D01*
X117939325Y-57020727D01*
X116215873Y-58744181D01*
X116154550Y-58777666D01*
X116128192Y-58780500D01*
X115279500Y-58780500D01*
X115212461Y-58760815D01*
X115166706Y-58708011D01*
X115155500Y-58656500D01*
X115155499Y-57663129D01*
X115155498Y-57663123D01*
X115155497Y-57663116D01*
X115149091Y-57603517D01*
X115136340Y-57569332D01*
X115131357Y-57499642D01*
X115136340Y-57482669D01*
X115149091Y-57448483D01*
X115155500Y-57388873D01*
X115155499Y-56393128D01*
X115149091Y-56333517D01*
X115136340Y-56299332D01*
X115131357Y-56229642D01*
X115136340Y-56212669D01*
X115149091Y-56178483D01*
X115155500Y-56118873D01*
X115155499Y-55123128D01*
X115149091Y-55063517D01*
X115136340Y-55029332D01*
X115131357Y-54959642D01*
X115136340Y-54942669D01*
X115149091Y-54908483D01*
X115155500Y-54848873D01*
X115155499Y-53853128D01*
X115149091Y-53793517D01*
X115136340Y-53759332D01*
X115131357Y-53689642D01*
X115136340Y-53672669D01*
X115149091Y-53638483D01*
X115155500Y-53578873D01*
X115155499Y-52583128D01*
X115149091Y-52523517D01*
X115136340Y-52489332D01*
X115131357Y-52419642D01*
X115136340Y-52402669D01*
X115149091Y-52368483D01*
X115155500Y-52308873D01*
X115155499Y-51315499D01*
X115175184Y-51248461D01*
X115227988Y-51202706D01*
X115279499Y-51191500D01*
X118252471Y-51191500D01*
X118337015Y-51174682D01*
X118378144Y-51166501D01*
X118496527Y-51117465D01*
X118524936Y-51098483D01*
X118603069Y-51046277D01*
X118724043Y-50925302D01*
X118785362Y-50891818D01*
X118855054Y-50896802D01*
X118899403Y-50925303D01*
X119024061Y-51049961D01*
X119024065Y-51049964D01*
X119171546Y-51148509D01*
X119171559Y-51148516D01*
X119237913Y-51176000D01*
X119335434Y-51216394D01*
X119335436Y-51216394D01*
X119335441Y-51216396D01*
X119509404Y-51250999D01*
X119509407Y-51251000D01*
X119509409Y-51251000D01*
X119686793Y-51251000D01*
X119686794Y-51250999D01*
X119744782Y-51239464D01*
X119860758Y-51216396D01*
X119860761Y-51216394D01*
X119860766Y-51216394D01*
X120024647Y-51148513D01*
X120172135Y-51049964D01*
X120297564Y-50924535D01*
X120396113Y-50777047D01*
X120463994Y-50613166D01*
X120498600Y-50439191D01*
X120498600Y-50421308D01*
X120518285Y-50354269D01*
X120534919Y-50333627D01*
X121698127Y-49170419D01*
X121759450Y-49136934D01*
X121785808Y-49134100D01*
X128361671Y-49134100D01*
X128456663Y-49115204D01*
X128487344Y-49109101D01*
X128605727Y-49060065D01*
X128633853Y-49041272D01*
X128712269Y-48988877D01*
X128805522Y-48895623D01*
X128866843Y-48862140D01*
X128936535Y-48867124D01*
X128992469Y-48908995D01*
X129016886Y-48974459D01*
X129014819Y-49007497D01*
X128985100Y-49156904D01*
X128985100Y-49334295D01*
X129019703Y-49508258D01*
X129019706Y-49508267D01*
X129087583Y-49672140D01*
X129087590Y-49672153D01*
X129186135Y-49819634D01*
X129186138Y-49819638D01*
X129311561Y-49945061D01*
X129311565Y-49945064D01*
X129459046Y-50043609D01*
X129459059Y-50043616D01*
X129581963Y-50094523D01*
X129622934Y-50111494D01*
X129622936Y-50111494D01*
X129622941Y-50111496D01*
X129796904Y-50146099D01*
X129796907Y-50146100D01*
X129796909Y-50146100D01*
X129974293Y-50146100D01*
X129974294Y-50146099D01*
X130032282Y-50134564D01*
X130148258Y-50111496D01*
X130148261Y-50111494D01*
X130148266Y-50111494D01*
X130312147Y-50043613D01*
X130312150Y-50043610D01*
X130312152Y-50043610D01*
X130351978Y-50016999D01*
X130418655Y-49996120D01*
X130420870Y-49996100D01*
X130962320Y-49996100D01*
X131059862Y-49976696D01*
X131107313Y-49967258D01*
X131243895Y-49910684D01*
X131293129Y-49877786D01*
X131366816Y-49828552D01*
X132004752Y-49190615D01*
X132059217Y-49109101D01*
X132086884Y-49067695D01*
X132117965Y-48992658D01*
X132143459Y-48931112D01*
X132168332Y-48806065D01*
X132172300Y-48786118D01*
X132172300Y-48685899D01*
X132172425Y-48683113D01*
X132182895Y-48652585D01*
X132191985Y-48621630D01*
X132193198Y-48619778D01*
X132219813Y-48579947D01*
X132287694Y-48416066D01*
X132295337Y-48377645D01*
X132319622Y-48255554D01*
X132322300Y-48242091D01*
X132322300Y-48064709D01*
X132322300Y-48064706D01*
X132322299Y-48064704D01*
X132287696Y-47890741D01*
X132287693Y-47890732D01*
X132219816Y-47726859D01*
X132219809Y-47726846D01*
X132135898Y-47601265D01*
X132115020Y-47534588D01*
X132115000Y-47532374D01*
X132115000Y-46736000D01*
X131289000Y-46736000D01*
X131221961Y-46716315D01*
X131176206Y-46663511D01*
X131165000Y-46612000D01*
X131165000Y-46360000D01*
X131184685Y-46292961D01*
X131237489Y-46247206D01*
X131289000Y-46236000D01*
X132115000Y-46236000D01*
X132115000Y-45438172D01*
X132114999Y-45438155D01*
X132108598Y-45378627D01*
X132108596Y-45378620D01*
X132058354Y-45243913D01*
X132058352Y-45243910D01*
X132000636Y-45166812D01*
X131976218Y-45101348D01*
X131991069Y-45033075D01*
X132040474Y-44983669D01*
X132099902Y-44968500D01*
X132540471Y-44968500D01*
X132625015Y-44951682D01*
X132666144Y-44943501D01*
X132784527Y-44894465D01*
X132822116Y-44869349D01*
X132891069Y-44823277D01*
X133400277Y-44314069D01*
X133471465Y-44207527D01*
X133520501Y-44089144D01*
X133520505Y-44089122D01*
X133521071Y-44087260D01*
X133521642Y-44086387D01*
X133522832Y-44083516D01*
X133523376Y-44083741D01*
X133559362Y-44028817D01*
X133596399Y-44007062D01*
X133637331Y-43991796D01*
X133649469Y-43982710D01*
X133718079Y-43931348D01*
X133752546Y-43905546D01*
X133838796Y-43790331D01*
X133889091Y-43655483D01*
X133895500Y-43595873D01*
X133895499Y-42500128D01*
X133889091Y-42440517D01*
X133856011Y-42351826D01*
X133838797Y-42305671D01*
X133838793Y-42305664D01*
X133752547Y-42190455D01*
X133752544Y-42190452D01*
X133637335Y-42104206D01*
X133637328Y-42104202D01*
X133502482Y-42053908D01*
X133502483Y-42053908D01*
X133442883Y-42047501D01*
X133442881Y-42047500D01*
X133442873Y-42047500D01*
X133442864Y-42047500D01*
X132347129Y-42047500D01*
X132347123Y-42047501D01*
X132287516Y-42053908D01*
X132152671Y-42104202D01*
X132152670Y-42104203D01*
X132140884Y-42113026D01*
X132075419Y-42137441D01*
X132019124Y-42128318D01*
X131916836Y-42085949D01*
X131916828Y-42085947D01*
X131723543Y-42047500D01*
X131723541Y-42047500D01*
X131526459Y-42047500D01*
X131526457Y-42047500D01*
X131333170Y-42085947D01*
X131333160Y-42085950D01*
X131151092Y-42161364D01*
X131151079Y-42161371D01*
X130987219Y-42270859D01*
X130952415Y-42305664D01*
X130896896Y-42361182D01*
X130835576Y-42394666D01*
X130809217Y-42397500D01*
X127891129Y-42397500D01*
X127765461Y-42422497D01*
X127765455Y-42422499D01*
X127647074Y-42471534D01*
X127540526Y-42542726D01*
X127540525Y-42542727D01*
X126604473Y-43478781D01*
X126577545Y-43493484D01*
X126551727Y-43510077D01*
X126545526Y-43510968D01*
X126543150Y-43512266D01*
X126516792Y-43515100D01*
X126390844Y-43515100D01*
X126323805Y-43495415D01*
X126278050Y-43442611D01*
X126268106Y-43373453D01*
X126290526Y-43318215D01*
X126417420Y-43143557D01*
X126513895Y-42954217D01*
X126579557Y-42752130D01*
X126579557Y-42752127D01*
X126612800Y-42542246D01*
X126612800Y-42536000D01*
X125695812Y-42536000D01*
X125728725Y-42478993D01*
X125762800Y-42351826D01*
X125762800Y-42220174D01*
X125728725Y-42093007D01*
X125695812Y-42036000D01*
X126612800Y-42036000D01*
X126612800Y-42029753D01*
X126579557Y-41819872D01*
X126579557Y-41819869D01*
X126513895Y-41617782D01*
X126417420Y-41428442D01*
X126292527Y-41256540D01*
X126292523Y-41256535D01*
X126142264Y-41106276D01*
X126142259Y-41106272D01*
X125970357Y-40981379D01*
X125781015Y-40884903D01*
X125578924Y-40819241D01*
X125512800Y-40808768D01*
X125512800Y-41852988D01*
X125455793Y-41820075D01*
X125328626Y-41786000D01*
X125196974Y-41786000D01*
X125069807Y-41820075D01*
X125012800Y-41852988D01*
X125012800Y-40808768D01*
X125012799Y-40808768D01*
X124946675Y-40819241D01*
X124744584Y-40884903D01*
X124555242Y-40981379D01*
X124383340Y-41106272D01*
X124383335Y-41106276D01*
X124233076Y-41256535D01*
X124233072Y-41256540D01*
X124108178Y-41428443D01*
X124103562Y-41437502D01*
X124055584Y-41488295D01*
X123987763Y-41505087D01*
X123921629Y-41482546D01*
X123882594Y-41437493D01*
X123877851Y-41428184D01*
X123877849Y-41428181D01*
X123877848Y-41428179D01*
X123752909Y-41256213D01*
X123602586Y-41105890D01*
X123430620Y-40980951D01*
X123241214Y-40884444D01*
X123241213Y-40884443D01*
X123241212Y-40884443D01*
X123039043Y-40818754D01*
X123039041Y-40818753D01*
X123039040Y-40818753D01*
X122877757Y-40793208D01*
X122829087Y-40785500D01*
X122616513Y-40785500D01*
X122567842Y-40793208D01*
X122406560Y-40818753D01*
X122204385Y-40884444D01*
X122014979Y-40980951D01*
X121843013Y-41105890D01*
X121692690Y-41256213D01*
X121567749Y-41428182D01*
X121563284Y-41436946D01*
X121515309Y-41487742D01*
X121447488Y-41504536D01*
X121381353Y-41481998D01*
X121342316Y-41436946D01*
X121337850Y-41428182D01*
X121212909Y-41256213D01*
X121062586Y-41105890D01*
X120890620Y-40980951D01*
X120701214Y-40884444D01*
X120701213Y-40884443D01*
X120701212Y-40884443D01*
X120499043Y-40818754D01*
X120499041Y-40818753D01*
X120499040Y-40818753D01*
X120337757Y-40793208D01*
X120289087Y-40785500D01*
X120076513Y-40785500D01*
X120027842Y-40793208D01*
X119866560Y-40818753D01*
X119664385Y-40884444D01*
X119474979Y-40980951D01*
X119303015Y-41105889D01*
X119189473Y-41219431D01*
X119128150Y-41252915D01*
X119058458Y-41247931D01*
X119002525Y-41206059D01*
X118985610Y-41175082D01*
X118936597Y-41043671D01*
X118936593Y-41043664D01*
X118850347Y-40928455D01*
X118850344Y-40928452D01*
X118735135Y-40842206D01*
X118735128Y-40842202D01*
X118600282Y-40791908D01*
X118600283Y-40791908D01*
X118540683Y-40785501D01*
X118540681Y-40785500D01*
X118540673Y-40785500D01*
X118540664Y-40785500D01*
X116744929Y-40785500D01*
X116744923Y-40785501D01*
X116685316Y-40791908D01*
X116550471Y-40842202D01*
X116550464Y-40842206D01*
X116435255Y-40928452D01*
X116435252Y-40928455D01*
X116349006Y-41043664D01*
X116349002Y-41043671D01*
X116298708Y-41178517D01*
X116292301Y-41238116D01*
X116292300Y-41238135D01*
X116292300Y-43333870D01*
X116292301Y-43333876D01*
X116294898Y-43358032D01*
X116282491Y-43426791D01*
X116234880Y-43477928D01*
X116167181Y-43495206D01*
X116136900Y-43488620D01*
X116136562Y-43489875D01*
X116128846Y-43487789D01*
X116121462Y-43484731D01*
X116096852Y-43474537D01*
X116036429Y-43462518D01*
X116032316Y-43461699D01*
X116032309Y-43461698D01*
X115976010Y-43450500D01*
X115976007Y-43450500D01*
X115976006Y-43450500D01*
X115433361Y-43450500D01*
X115366322Y-43430815D01*
X115345679Y-43414180D01*
X115308038Y-43376538D01*
X115308034Y-43376535D01*
X115160553Y-43277990D01*
X115160540Y-43277983D01*
X114996667Y-43210106D01*
X114996658Y-43210103D01*
X114822694Y-43175500D01*
X114822691Y-43175500D01*
X114645309Y-43175500D01*
X114645306Y-43175500D01*
X114471341Y-43210103D01*
X114471332Y-43210106D01*
X114307459Y-43277983D01*
X114307446Y-43277990D01*
X114159957Y-43376540D01*
X114159154Y-43377200D01*
X114158651Y-43377413D01*
X114154900Y-43379920D01*
X114154424Y-43379208D01*
X114094841Y-43404507D01*
X114025975Y-43392708D01*
X113974420Y-43345551D01*
X113956499Y-43281342D01*
X113956499Y-42246128D01*
X113950091Y-42186517D01*
X113940712Y-42161371D01*
X113899797Y-42051671D01*
X113899793Y-42051664D01*
X113813547Y-41936455D01*
X113813544Y-41936452D01*
X113698335Y-41850206D01*
X113698328Y-41850202D01*
X113563482Y-41799908D01*
X113563483Y-41799908D01*
X113503883Y-41793501D01*
X113503881Y-41793500D01*
X113503873Y-41793500D01*
X113503864Y-41793500D01*
X112408129Y-41793500D01*
X112408123Y-41793501D01*
X112348516Y-41799908D01*
X112213671Y-41850202D01*
X112213670Y-41850203D01*
X112201884Y-41859026D01*
X112136419Y-41883441D01*
X112080124Y-41874318D01*
X111977836Y-41831949D01*
X111977828Y-41831947D01*
X111784543Y-41793500D01*
X111784541Y-41793500D01*
X111587459Y-41793500D01*
X111587457Y-41793500D01*
X111394170Y-41831947D01*
X111394160Y-41831950D01*
X111212092Y-41907364D01*
X111212079Y-41907371D01*
X111048218Y-42016860D01*
X111048214Y-42016863D01*
X110908863Y-42156214D01*
X110908860Y-42156218D01*
X110799371Y-42320079D01*
X110799364Y-42320092D01*
X110723950Y-42502160D01*
X110723947Y-42502170D01*
X110685500Y-42695456D01*
X110685500Y-42695459D01*
X110685500Y-42892541D01*
X110685500Y-42892543D01*
X110685499Y-42892543D01*
X110723947Y-43085829D01*
X110723950Y-43085839D01*
X110799364Y-43267907D01*
X110799371Y-43267920D01*
X110908860Y-43431781D01*
X110908863Y-43431785D01*
X111048214Y-43571136D01*
X111048218Y-43571139D01*
X111212079Y-43680628D01*
X111212092Y-43680635D01*
X111357944Y-43741048D01*
X111394165Y-43756051D01*
X111394169Y-43756051D01*
X111394170Y-43756052D01*
X111587456Y-43794500D01*
X111587459Y-43794500D01*
X111784543Y-43794500D01*
X111914582Y-43768632D01*
X111977835Y-43756051D01*
X112080126Y-43713680D01*
X112149590Y-43706212D01*
X112201886Y-43728975D01*
X112211355Y-43736064D01*
X112213668Y-43737795D01*
X112213671Y-43737797D01*
X112348517Y-43788091D01*
X112348516Y-43788091D01*
X112355444Y-43788835D01*
X112408127Y-43794500D01*
X113503872Y-43794499D01*
X113563483Y-43788091D01*
X113689612Y-43741047D01*
X113759302Y-43736064D01*
X113820625Y-43769549D01*
X113854110Y-43830872D01*
X113854562Y-43881420D01*
X113833500Y-43987309D01*
X113833500Y-44153100D01*
X113813815Y-44220139D01*
X113761011Y-44265894D01*
X113709500Y-44277100D01*
X108726329Y-44277100D01*
X108600661Y-44302097D01*
X108600655Y-44302099D01*
X108512376Y-44338666D01*
X108482277Y-44351133D01*
X108482269Y-44351137D01*
X108375726Y-44422326D01*
X106481724Y-46316328D01*
X106432252Y-46390370D01*
X106410535Y-46422871D01*
X106361499Y-46541255D01*
X106361497Y-46541261D01*
X106336500Y-46666928D01*
X106336500Y-55333100D01*
X106316815Y-55400139D01*
X106264011Y-55445894D01*
X106212500Y-55457100D01*
X105926930Y-55457100D01*
X105926923Y-55457101D01*
X105867316Y-55463508D01*
X105732471Y-55513802D01*
X105732464Y-55513806D01*
X105617255Y-55600052D01*
X105617252Y-55600055D01*
X105531006Y-55715264D01*
X105531002Y-55715271D01*
X105480708Y-55850117D01*
X105477074Y-55883924D01*
X105474301Y-55909723D01*
X105474300Y-55909735D01*
X105474300Y-56805470D01*
X105474301Y-56805476D01*
X105480709Y-56865084D01*
X105512373Y-56949982D01*
X105517357Y-57019673D01*
X105512373Y-57036646D01*
X105481204Y-57120216D01*
X105481201Y-57120227D01*
X105474800Y-57179755D01*
X105474800Y-58075444D01*
X105481201Y-58134972D01*
X105481203Y-58134982D01*
X105512373Y-58218553D01*
X105517357Y-58288244D01*
X105512373Y-58305217D01*
X105480709Y-58390114D01*
X105480708Y-58390116D01*
X105474301Y-58449716D01*
X105474300Y-58449735D01*
X105474300Y-59345470D01*
X105474301Y-59345476D01*
X105480708Y-59405082D01*
X105500612Y-59458446D01*
X105511071Y-59486490D01*
X105512107Y-59489266D01*
X105517091Y-59558958D01*
X105512107Y-59575931D01*
X105480709Y-59660114D01*
X105480708Y-59660116D01*
X105474301Y-59719716D01*
X105474300Y-59719735D01*
X105474300Y-60615470D01*
X105474301Y-60615476D01*
X105480708Y-60675082D01*
X105502493Y-60733489D01*
X105511071Y-60756490D01*
X105512107Y-60759266D01*
X105517091Y-60828958D01*
X105512107Y-60845931D01*
X105480709Y-60930114D01*
X105480708Y-60930116D01*
X105474301Y-60989716D01*
X105474300Y-60989735D01*
X105474300Y-61885470D01*
X105474301Y-61885476D01*
X105480708Y-61945082D01*
X105491604Y-61974294D01*
X105506800Y-62015039D01*
X105512107Y-62029266D01*
X105517091Y-62098958D01*
X105512107Y-62115931D01*
X105480709Y-62200114D01*
X105480708Y-62200116D01*
X105474301Y-62259716D01*
X105474300Y-62259735D01*
X105474300Y-63155470D01*
X105474301Y-63155476D01*
X105480709Y-63215084D01*
X105512373Y-63299982D01*
X105517357Y-63369673D01*
X105512373Y-63386646D01*
X105481204Y-63470216D01*
X105481201Y-63470227D01*
X105474800Y-63529755D01*
X105474800Y-64223928D01*
X105455115Y-64290967D01*
X105402311Y-64336722D01*
X105342383Y-64346711D01*
X105342383Y-64347100D01*
X105340052Y-64347100D01*
X105338660Y-64347332D01*
X105336302Y-64347100D01*
X105336291Y-64347100D01*
X105158909Y-64347100D01*
X105158906Y-64347100D01*
X104984941Y-64381703D01*
X104984932Y-64381706D01*
X104821059Y-64449583D01*
X104821046Y-64449590D01*
X104673565Y-64548135D01*
X104673561Y-64548138D01*
X104548138Y-64673561D01*
X104548135Y-64673565D01*
X104449590Y-64821046D01*
X104449583Y-64821059D01*
X104381706Y-64984932D01*
X104381703Y-64984941D01*
X104347100Y-65158904D01*
X104347100Y-65336295D01*
X104381703Y-65510258D01*
X104381706Y-65510267D01*
X104416409Y-65594048D01*
X104423878Y-65663518D01*
X104392602Y-65725997D01*
X104332513Y-65761648D01*
X104301848Y-65765500D01*
X104044408Y-65765500D01*
X103977369Y-65745815D01*
X103956727Y-65729181D01*
X100455274Y-62227727D01*
X100455273Y-62227726D01*
X100455269Y-62227723D01*
X100348727Y-62156535D01*
X100230344Y-62107499D01*
X100230338Y-62107497D01*
X100104671Y-62082500D01*
X100104669Y-62082500D01*
X94854102Y-62082500D01*
X94787063Y-62062815D01*
X94741308Y-62010011D01*
X94731364Y-61940853D01*
X94751001Y-61889608D01*
X94768008Y-61864155D01*
X94768009Y-61864152D01*
X94768013Y-61864147D01*
X94769110Y-61861500D01*
X94813200Y-61755055D01*
X94835894Y-61700266D01*
X94845228Y-61653344D01*
X94865447Y-61551693D01*
X94870500Y-61526291D01*
X94870500Y-61348909D01*
X94870500Y-61348906D01*
X94870499Y-61348904D01*
X94835896Y-61174941D01*
X94835893Y-61174932D01*
X94828965Y-61158207D01*
X94787829Y-61058893D01*
X94768016Y-61011059D01*
X94768014Y-61011055D01*
X94768013Y-61011053D01*
X94683246Y-60884191D01*
X94662368Y-60817514D01*
X94680852Y-60750134D01*
X94683246Y-60746409D01*
X94689648Y-60736827D01*
X94768013Y-60619547D01*
X94835894Y-60455666D01*
X94842446Y-60422731D01*
X94860468Y-60332124D01*
X94870500Y-60281691D01*
X94870500Y-60104309D01*
X94870500Y-60104306D01*
X94870499Y-60104304D01*
X94835896Y-59930341D01*
X94835893Y-59930332D01*
X94768016Y-59766459D01*
X94768014Y-59766455D01*
X94768013Y-59766453D01*
X94700675Y-59665675D01*
X94683246Y-59639591D01*
X94662368Y-59572914D01*
X94680852Y-59505534D01*
X94683246Y-59501809D01*
X94743321Y-59411901D01*
X94768013Y-59374947D01*
X94835894Y-59211066D01*
X94835900Y-59211040D01*
X94870499Y-59037095D01*
X94870500Y-59037093D01*
X94870500Y-58859706D01*
X94870499Y-58859704D01*
X94835896Y-58685741D01*
X94835893Y-58685732D01*
X94835430Y-58684615D01*
X94809702Y-58622500D01*
X94768016Y-58521859D01*
X94768009Y-58521846D01*
X94669464Y-58374365D01*
X94669461Y-58374361D01*
X94544038Y-58248938D01*
X94544034Y-58248935D01*
X94396553Y-58150390D01*
X94396540Y-58150383D01*
X94232667Y-58082506D01*
X94232658Y-58082503D01*
X94058694Y-58047900D01*
X94058691Y-58047900D01*
X93881309Y-58047900D01*
X93881306Y-58047900D01*
X93707341Y-58082503D01*
X93707332Y-58082506D01*
X93543459Y-58150383D01*
X93543446Y-58150390D01*
X93422761Y-58231030D01*
X93356083Y-58251908D01*
X93288703Y-58233423D01*
X93242013Y-58181444D01*
X93230581Y-58114671D01*
X93234799Y-58075441D01*
X93234800Y-58075427D01*
X93234800Y-57181365D01*
X93254485Y-57114326D01*
X93307289Y-57068571D01*
X93376447Y-57058627D01*
X93427691Y-57078263D01*
X93543453Y-57155613D01*
X93543455Y-57155614D01*
X93543459Y-57155616D01*
X93605624Y-57181365D01*
X93707334Y-57223494D01*
X93707336Y-57223494D01*
X93707341Y-57223496D01*
X93881304Y-57258099D01*
X93881307Y-57258100D01*
X93881309Y-57258100D01*
X94058693Y-57258100D01*
X94058694Y-57258099D01*
X94116682Y-57246564D01*
X94232658Y-57223496D01*
X94232661Y-57223494D01*
X94232666Y-57223494D01*
X94396547Y-57155613D01*
X94544035Y-57057064D01*
X94669464Y-56931635D01*
X94768013Y-56784147D01*
X94835894Y-56620266D01*
X94841243Y-56593379D01*
X94870499Y-56446295D01*
X94870500Y-56446293D01*
X94870500Y-56268906D01*
X94870499Y-56268904D01*
X94835896Y-56094941D01*
X94835893Y-56094932D01*
X94768016Y-55931059D01*
X94768009Y-55931046D01*
X94669464Y-55783565D01*
X94669461Y-55783561D01*
X94544038Y-55658138D01*
X94544034Y-55658135D01*
X94396553Y-55559590D01*
X94396540Y-55559583D01*
X94232667Y-55491706D01*
X94232658Y-55491703D01*
X94058694Y-55457100D01*
X94058691Y-55457100D01*
X93881309Y-55457100D01*
X93881306Y-55457100D01*
X93707341Y-55491703D01*
X93707332Y-55491706D01*
X93543459Y-55559583D01*
X93543446Y-55559590D01*
X93395965Y-55658135D01*
X93395961Y-55658138D01*
X93383319Y-55670781D01*
X93356391Y-55685484D01*
X93330573Y-55702077D01*
X93324372Y-55702968D01*
X93321996Y-55704266D01*
X93295638Y-55707100D01*
X93234551Y-55707100D01*
X93167512Y-55687415D01*
X93135285Y-55657412D01*
X93092348Y-55600057D01*
X93092346Y-55600054D01*
X93092342Y-55600051D01*
X92977135Y-55513806D01*
X92977128Y-55513802D01*
X92842282Y-55463508D01*
X92842283Y-55463508D01*
X92782683Y-55457101D01*
X92782681Y-55457100D01*
X92782673Y-55457100D01*
X92782664Y-55457100D01*
X90686929Y-55457100D01*
X90686923Y-55457101D01*
X90627316Y-55463508D01*
X90492471Y-55513802D01*
X90492464Y-55513806D01*
X90377255Y-55600052D01*
X90377252Y-55600055D01*
X90291006Y-55715264D01*
X90291002Y-55715271D01*
X90240708Y-55850117D01*
X90237074Y-55883924D01*
X90234301Y-55909723D01*
X90234300Y-55909735D01*
X90234300Y-56805470D01*
X90234301Y-56805476D01*
X90240709Y-56865084D01*
X90272373Y-56949982D01*
X90277357Y-57019673D01*
X90272373Y-57036646D01*
X90241204Y-57120216D01*
X90241201Y-57120227D01*
X90234800Y-57179755D01*
X90234800Y-58075444D01*
X90241201Y-58134972D01*
X90241203Y-58134982D01*
X90272373Y-58218553D01*
X90277357Y-58288244D01*
X90272373Y-58305217D01*
X90240709Y-58390114D01*
X90240708Y-58390116D01*
X90234301Y-58449716D01*
X90234300Y-58449735D01*
X90234300Y-59345470D01*
X90234301Y-59345476D01*
X90240708Y-59405082D01*
X90260612Y-59458446D01*
X90271071Y-59486490D01*
X90272107Y-59489266D01*
X90277091Y-59558958D01*
X90272107Y-59575931D01*
X90240709Y-59660114D01*
X90240708Y-59660116D01*
X90234301Y-59719716D01*
X90234300Y-59719735D01*
X90234300Y-60615470D01*
X90234301Y-60615476D01*
X90240708Y-60675082D01*
X90262493Y-60733489D01*
X90271071Y-60756490D01*
X90272107Y-60759266D01*
X90277091Y-60828958D01*
X90272107Y-60845931D01*
X90240709Y-60930114D01*
X90240708Y-60930116D01*
X90234301Y-60989716D01*
X90234300Y-60989735D01*
X90234300Y-61885470D01*
X90234301Y-61885476D01*
X90240708Y-61945082D01*
X90251604Y-61974294D01*
X90266800Y-62015039D01*
X90272107Y-62029266D01*
X90277091Y-62098958D01*
X90272107Y-62115931D01*
X90240709Y-62200114D01*
X90240708Y-62200116D01*
X90234301Y-62259716D01*
X90234300Y-62259735D01*
X90234300Y-63155470D01*
X90234301Y-63155476D01*
X90240708Y-63215082D01*
X90272107Y-63299266D01*
X90277091Y-63368958D01*
X90272107Y-63385931D01*
X90240709Y-63470114D01*
X90240708Y-63470116D01*
X90234301Y-63529716D01*
X90234300Y-63529735D01*
X90234300Y-64425470D01*
X90234301Y-64425476D01*
X90240709Y-64485084D01*
X90272373Y-64569982D01*
X90277357Y-64639673D01*
X90272373Y-64656646D01*
X90241204Y-64740216D01*
X90241201Y-64740227D01*
X90234800Y-64799755D01*
X90234800Y-65695444D01*
X90241201Y-65754972D01*
X90241203Y-65754979D01*
X90291445Y-65889686D01*
X90291449Y-65889693D01*
X90377609Y-66004787D01*
X90377612Y-66004790D01*
X90492708Y-66090951D01*
X90492711Y-66090953D01*
X90533285Y-66106086D01*
X90545005Y-66087850D01*
X90561640Y-66067207D01*
X90598023Y-66030824D01*
X91470343Y-65158505D01*
X91531666Y-65125020D01*
X91601358Y-65130004D01*
X91645705Y-65158505D01*
X91734800Y-65247600D01*
X91823895Y-65158505D01*
X91885218Y-65125020D01*
X91954910Y-65130004D01*
X91999257Y-65158505D01*
X92907961Y-66067209D01*
X92924600Y-66087857D01*
X92936312Y-66106085D01*
X92976891Y-66090951D01*
X92976894Y-66090949D01*
X93091987Y-66004790D01*
X93091990Y-66004787D01*
X93178150Y-65889693D01*
X93178154Y-65889686D01*
X93228396Y-65754979D01*
X93228398Y-65754972D01*
X93234799Y-65695444D01*
X93234800Y-65695427D01*
X93234800Y-64799772D01*
X93234799Y-64799755D01*
X93228398Y-64740223D01*
X93197225Y-64656647D01*
X93192241Y-64586956D01*
X93197218Y-64570002D01*
X93228891Y-64485083D01*
X93235300Y-64425473D01*
X93235299Y-63529728D01*
X93235298Y-63529716D01*
X93235298Y-63529714D01*
X93234335Y-63520757D01*
X93246739Y-63451997D01*
X93294349Y-63400859D01*
X93357624Y-63383500D01*
X99719792Y-63383500D01*
X99786831Y-63403185D01*
X99807473Y-63419819D01*
X103308925Y-66921272D01*
X103308932Y-66921278D01*
X103415468Y-66992462D01*
X103415474Y-66992466D01*
X103484821Y-67021189D01*
X103533856Y-67041501D01*
X103533859Y-67041501D01*
X103533860Y-67041502D01*
X103659528Y-67066500D01*
X103659531Y-67066500D01*
X109528071Y-67066500D01*
X109617308Y-67048749D01*
X109686900Y-67054976D01*
X109742077Y-67097838D01*
X109765322Y-67163728D01*
X109765500Y-67170366D01*
X109765500Y-67696382D01*
X109745815Y-67763421D01*
X109711408Y-67797099D01*
X109712125Y-67798085D01*
X109536213Y-67925890D01*
X109385890Y-68076213D01*
X109260951Y-68248179D01*
X109164444Y-68437585D01*
X109098753Y-68639760D01*
X109065500Y-68849713D01*
X109065500Y-69062286D01*
X109098753Y-69272239D01*
X109164445Y-69474419D01*
X109164446Y-69474420D01*
X109188794Y-69522205D01*
X109201691Y-69590874D01*
X109175415Y-69655614D01*
X109118309Y-69695872D01*
X109078310Y-69702500D01*
X108387808Y-69702500D01*
X108320769Y-69682815D01*
X108300127Y-69666181D01*
X107592674Y-68958727D01*
X107592673Y-68958726D01*
X107592666Y-68958721D01*
X107486127Y-68887535D01*
X107413517Y-68857459D01*
X107367744Y-68838499D01*
X107367738Y-68838497D01*
X107242071Y-68813500D01*
X107242069Y-68813500D01*
X103938931Y-68813500D01*
X103938929Y-68813500D01*
X103813261Y-68838497D01*
X103813255Y-68838499D01*
X103767483Y-68857459D01*
X103767482Y-68857459D01*
X103694881Y-68887530D01*
X103694863Y-68887540D01*
X103588332Y-68958721D01*
X103588325Y-68958727D01*
X102544724Y-70002328D01*
X102516297Y-70044874D01*
X102516296Y-70044876D01*
X102495365Y-70076200D01*
X102441752Y-70121004D01*
X102435597Y-70123489D01*
X102307671Y-70171202D01*
X102307664Y-70171206D01*
X102192455Y-70257452D01*
X102192452Y-70257455D01*
X102106206Y-70372664D01*
X102106202Y-70372671D01*
X102055908Y-70507517D01*
X102049501Y-70567116D01*
X102049500Y-70567135D01*
X102049500Y-71662870D01*
X102049501Y-71662876D01*
X102055908Y-71722483D01*
X102106202Y-71857328D01*
X102106206Y-71857335D01*
X102192452Y-71972544D01*
X102192455Y-71972547D01*
X102307664Y-72058793D01*
X102307671Y-72058797D01*
X102442517Y-72109091D01*
X102442516Y-72109091D01*
X102449444Y-72109835D01*
X102502127Y-72115500D01*
X103597872Y-72115499D01*
X103657483Y-72109091D01*
X103792331Y-72058796D01*
X103804110Y-72049977D01*
X103869570Y-72025558D01*
X103925872Y-72034680D01*
X104028165Y-72077051D01*
X104028169Y-72077051D01*
X104028170Y-72077052D01*
X104221456Y-72115500D01*
X104221459Y-72115500D01*
X104418543Y-72115500D01*
X104548582Y-72089632D01*
X104611835Y-72077051D01*
X104793914Y-72001632D01*
X104886109Y-71940029D01*
X104952786Y-71919151D01*
X105020166Y-71937635D01*
X105023891Y-71940029D01*
X105116080Y-72001628D01*
X105116086Y-72001632D01*
X105116088Y-72001633D01*
X105116092Y-72001635D01*
X105298160Y-72077049D01*
X105298165Y-72077051D01*
X105298169Y-72077051D01*
X105298170Y-72077052D01*
X105491456Y-72115500D01*
X105491459Y-72115500D01*
X105688543Y-72115500D01*
X105818582Y-72089632D01*
X105881835Y-72077051D01*
X106063914Y-72001632D01*
X106227782Y-71892139D01*
X106227784Y-71892136D01*
X106232486Y-71888278D01*
X106233600Y-71889635D01*
X106287608Y-71860133D01*
X106357300Y-71865106D01*
X106401668Y-71893614D01*
X106894473Y-72386419D01*
X106927958Y-72447742D01*
X106922974Y-72517434D01*
X106881102Y-72573367D01*
X106815638Y-72597784D01*
X106806792Y-72598100D01*
X90311329Y-72598100D01*
X90185661Y-72623097D01*
X90185655Y-72623099D01*
X90067274Y-72672134D01*
X89960726Y-72743326D01*
X89778580Y-72925472D01*
X89717257Y-72958957D01*
X89647565Y-72953973D01*
X89591632Y-72912101D01*
X89567215Y-72846637D01*
X89566899Y-72837817D01*
X89566899Y-71106128D01*
X89560491Y-71046517D01*
X89510196Y-70911669D01*
X89510195Y-70911668D01*
X89510193Y-70911664D01*
X89423947Y-70796455D01*
X89423944Y-70796452D01*
X89308735Y-70710206D01*
X89308728Y-70710202D01*
X89173882Y-70659908D01*
X89173883Y-70659908D01*
X89114283Y-70653501D01*
X89114281Y-70653500D01*
X89114273Y-70653500D01*
X89114264Y-70653500D01*
X87318529Y-70653500D01*
X87318523Y-70653501D01*
X87258916Y-70659908D01*
X87124071Y-70710202D01*
X87124064Y-70710206D01*
X87008855Y-70796452D01*
X87008852Y-70796455D01*
X86922606Y-70911664D01*
X86922602Y-70911671D01*
X86872308Y-71046517D01*
X86865901Y-71106116D01*
X86865901Y-71106123D01*
X86865900Y-71106135D01*
X80500500Y-71106135D01*
X80500500Y-56374135D01*
X81697500Y-56374135D01*
X81697500Y-58169870D01*
X81697501Y-58169876D01*
X81703908Y-58229483D01*
X81754202Y-58364328D01*
X81754206Y-58364335D01*
X81840452Y-58479544D01*
X81840455Y-58479547D01*
X81955664Y-58565793D01*
X81955671Y-58565797D01*
X82000618Y-58582561D01*
X82090517Y-58616091D01*
X82150127Y-58622500D01*
X82160685Y-58622499D01*
X82227723Y-58642179D01*
X82248372Y-58658818D01*
X82918591Y-59329037D01*
X82855007Y-59346075D01*
X82740993Y-59411901D01*
X82647901Y-59504993D01*
X82582075Y-59619007D01*
X82565037Y-59682591D01*
X81932728Y-59050282D01*
X81932727Y-59050282D01*
X81893380Y-59104439D01*
X81796904Y-59293782D01*
X81731242Y-59495869D01*
X81731242Y-59495872D01*
X81698000Y-59705753D01*
X81698000Y-59918246D01*
X81731242Y-60128127D01*
X81731242Y-60128130D01*
X81796904Y-60330217D01*
X81893375Y-60519550D01*
X81932728Y-60573716D01*
X82565037Y-59941408D01*
X82582075Y-60004993D01*
X82647901Y-60119007D01*
X82740993Y-60212099D01*
X82855007Y-60277925D01*
X82918590Y-60294962D01*
X82286282Y-60927269D01*
X82286282Y-60927270D01*
X82340452Y-60966626D01*
X82340451Y-60966626D01*
X82349495Y-60971234D01*
X82400292Y-61019208D01*
X82417087Y-61087029D01*
X82394550Y-61153164D01*
X82349499Y-61192202D01*
X82340182Y-61196949D01*
X82168213Y-61321890D01*
X82017890Y-61472213D01*
X81892951Y-61644179D01*
X81796444Y-61833585D01*
X81730753Y-62035760D01*
X81710209Y-62165473D01*
X81697500Y-62245713D01*
X81697500Y-62458287D01*
X81699408Y-62470332D01*
X81727092Y-62645127D01*
X81730754Y-62668243D01*
X81793221Y-62860497D01*
X81796444Y-62870414D01*
X81892951Y-63059820D01*
X82017890Y-63231786D01*
X82168213Y-63382109D01*
X82340182Y-63507050D01*
X82348946Y-63511516D01*
X82399742Y-63559491D01*
X82416536Y-63627312D01*
X82393998Y-63693447D01*
X82348946Y-63732484D01*
X82340182Y-63736949D01*
X82168213Y-63861890D01*
X82017890Y-64012213D01*
X81892951Y-64184179D01*
X81796444Y-64373585D01*
X81730753Y-64575760D01*
X81704706Y-64740216D01*
X81697500Y-64785713D01*
X81697500Y-64998287D01*
X81730754Y-65208243D01*
X81781357Y-65363983D01*
X81796444Y-65410414D01*
X81892951Y-65599820D01*
X82017890Y-65771786D01*
X82168213Y-65922109D01*
X82340179Y-66047048D01*
X82340181Y-66047049D01*
X82340184Y-66047051D01*
X82529588Y-66143557D01*
X82731757Y-66209246D01*
X82941713Y-66242500D01*
X82941714Y-66242500D01*
X83154286Y-66242500D01*
X83154287Y-66242500D01*
X83364243Y-66209246D01*
X83553972Y-66147599D01*
X91188351Y-66147599D01*
X91188352Y-66147600D01*
X92281248Y-66147600D01*
X92281248Y-66147599D01*
X91734800Y-65601152D01*
X91188351Y-66147599D01*
X83553972Y-66147599D01*
X83566412Y-66143557D01*
X83755816Y-66047051D01*
X83854052Y-65975679D01*
X83927786Y-65922109D01*
X83927788Y-65922106D01*
X83927792Y-65922104D01*
X84078104Y-65771792D01*
X84078106Y-65771788D01*
X84078109Y-65771786D01*
X84198874Y-65605565D01*
X84203051Y-65599816D01*
X84299557Y-65410412D01*
X84365246Y-65208243D01*
X84398500Y-64998287D01*
X84398500Y-64785713D01*
X84365246Y-64575757D01*
X84299557Y-64373588D01*
X84203051Y-64184184D01*
X84203049Y-64184181D01*
X84203048Y-64184179D01*
X84078109Y-64012213D01*
X83927786Y-63861890D01*
X83755820Y-63736951D01*
X83755115Y-63736591D01*
X83747054Y-63732485D01*
X83696259Y-63684512D01*
X83679463Y-63616692D01*
X83701999Y-63550556D01*
X83747054Y-63511515D01*
X83755816Y-63507051D01*
X83806500Y-63470227D01*
X83927786Y-63382109D01*
X83927788Y-63382106D01*
X83927792Y-63382104D01*
X84078104Y-63231792D01*
X84078106Y-63231788D01*
X84078109Y-63231786D01*
X84203048Y-63059820D01*
X84203047Y-63059820D01*
X84203051Y-63059816D01*
X84299557Y-62870412D01*
X84365246Y-62668243D01*
X84398500Y-62458287D01*
X84398500Y-62245713D01*
X84365246Y-62035757D01*
X84299557Y-61833588D01*
X84203051Y-61644184D01*
X84203049Y-61644181D01*
X84203048Y-61644179D01*
X84078109Y-61472213D01*
X83927786Y-61321890D01*
X83755817Y-61196949D01*
X83746504Y-61192204D01*
X83695707Y-61144230D01*
X83678912Y-61076409D01*
X83701449Y-61010274D01*
X83746507Y-60971232D01*
X83755555Y-60966622D01*
X83809716Y-60927270D01*
X83809717Y-60927270D01*
X83177408Y-60294962D01*
X83240993Y-60277925D01*
X83355007Y-60212099D01*
X83448099Y-60119007D01*
X83513925Y-60004993D01*
X83530962Y-59941408D01*
X84163270Y-60573717D01*
X84163270Y-60573716D01*
X84202622Y-60519554D01*
X84299095Y-60330217D01*
X84364757Y-60128130D01*
X84364757Y-60128127D01*
X84398000Y-59918246D01*
X84398000Y-59705753D01*
X84364757Y-59495872D01*
X84364757Y-59495869D01*
X84299095Y-59293782D01*
X84202624Y-59104449D01*
X84163270Y-59050282D01*
X84163269Y-59050282D01*
X83530962Y-59682590D01*
X83513925Y-59619007D01*
X83448099Y-59504993D01*
X83355007Y-59411901D01*
X83240993Y-59346075D01*
X83177409Y-59329037D01*
X83847627Y-58658818D01*
X83908950Y-58625333D01*
X83935307Y-58622499D01*
X83945872Y-58622499D01*
X84005483Y-58616091D01*
X84140331Y-58565796D01*
X84255546Y-58479546D01*
X84341796Y-58364331D01*
X84392091Y-58229483D01*
X84398500Y-58169873D01*
X84398499Y-56374128D01*
X84392091Y-56314517D01*
X84375080Y-56268909D01*
X84341797Y-56179671D01*
X84341793Y-56179664D01*
X84255547Y-56064455D01*
X84255544Y-56064452D01*
X84140335Y-55978206D01*
X84140328Y-55978202D01*
X84005482Y-55927908D01*
X84005483Y-55927908D01*
X83945883Y-55921501D01*
X83945881Y-55921500D01*
X83945873Y-55921500D01*
X83945864Y-55921500D01*
X82150129Y-55921500D01*
X82150123Y-55921501D01*
X82090516Y-55927908D01*
X81955671Y-55978202D01*
X81955664Y-55978206D01*
X81840455Y-56064452D01*
X81840452Y-56064455D01*
X81754206Y-56179664D01*
X81754202Y-56179671D01*
X81703908Y-56314517D01*
X81697501Y-56374116D01*
X81697501Y-56374123D01*
X81697500Y-56374135D01*
X80500500Y-56374135D01*
X80500500Y-53627304D01*
X95291500Y-53627304D01*
X95291500Y-53804695D01*
X95326103Y-53978658D01*
X95326106Y-53978667D01*
X95393983Y-54142540D01*
X95393990Y-54142553D01*
X95492535Y-54290034D01*
X95492538Y-54290038D01*
X95617961Y-54415461D01*
X95617965Y-54415464D01*
X95765446Y-54514009D01*
X95765459Y-54514016D01*
X95806695Y-54531096D01*
X95929334Y-54581894D01*
X95929336Y-54581894D01*
X95929341Y-54581896D01*
X96103304Y-54616499D01*
X96103307Y-54616500D01*
X96103309Y-54616500D01*
X96280693Y-54616500D01*
X96280694Y-54616499D01*
X96338682Y-54604964D01*
X96454658Y-54581896D01*
X96454661Y-54581894D01*
X96454666Y-54581894D01*
X96618547Y-54514013D01*
X96766035Y-54415464D01*
X96829481Y-54352017D01*
X96890802Y-54318534D01*
X96917161Y-54315700D01*
X101308838Y-54315700D01*
X101375877Y-54335385D01*
X101396519Y-54352019D01*
X101409161Y-54364661D01*
X101409165Y-54364664D01*
X101556646Y-54463209D01*
X101556659Y-54463216D01*
X101679287Y-54514009D01*
X101720534Y-54531094D01*
X101720536Y-54531094D01*
X101720541Y-54531096D01*
X101894504Y-54565699D01*
X101894507Y-54565700D01*
X101894509Y-54565700D01*
X102071893Y-54565700D01*
X102071894Y-54565699D01*
X102129882Y-54554164D01*
X102245858Y-54531096D01*
X102245861Y-54531094D01*
X102245866Y-54531094D01*
X102409747Y-54463213D01*
X102557235Y-54364664D01*
X102682664Y-54239235D01*
X102781213Y-54091747D01*
X102849094Y-53927866D01*
X102863961Y-53853128D01*
X102883699Y-53753895D01*
X102883700Y-53753893D01*
X102883700Y-53576506D01*
X102883699Y-53576504D01*
X102849096Y-53402541D01*
X102849093Y-53402532D01*
X102781216Y-53238659D01*
X102781209Y-53238646D01*
X102682664Y-53091165D01*
X102682661Y-53091161D01*
X102557238Y-52965738D01*
X102557234Y-52965735D01*
X102409753Y-52867190D01*
X102409740Y-52867183D01*
X102245867Y-52799306D01*
X102245858Y-52799303D01*
X102071894Y-52764700D01*
X102071891Y-52764700D01*
X101894509Y-52764700D01*
X101894506Y-52764700D01*
X101720541Y-52799303D01*
X101720532Y-52799306D01*
X101556659Y-52867183D01*
X101556646Y-52867190D01*
X101409165Y-52965735D01*
X101409161Y-52965738D01*
X101396519Y-52978381D01*
X101335196Y-53011866D01*
X101308838Y-53014700D01*
X96800902Y-53014700D01*
X96733863Y-52995015D01*
X96732011Y-52993802D01*
X96708932Y-52978381D01*
X96618547Y-52917987D01*
X96618544Y-52917985D01*
X96618543Y-52917985D01*
X96618542Y-52917984D01*
X96454667Y-52850106D01*
X96454658Y-52850103D01*
X96280694Y-52815500D01*
X96280691Y-52815500D01*
X96103309Y-52815500D01*
X96103306Y-52815500D01*
X95929341Y-52850103D01*
X95929332Y-52850106D01*
X95765459Y-52917983D01*
X95765446Y-52917990D01*
X95617965Y-53016535D01*
X95617961Y-53016538D01*
X95492538Y-53141961D01*
X95492535Y-53141965D01*
X95393990Y-53289446D01*
X95393983Y-53289459D01*
X95326106Y-53453332D01*
X95326103Y-53453341D01*
X95291500Y-53627304D01*
X80500500Y-53627304D01*
X80500500Y-44528303D01*
X80520185Y-44461264D01*
X80572989Y-44415509D01*
X80642147Y-44405565D01*
X80705703Y-44434590D01*
X80729492Y-44462329D01*
X80794108Y-44565164D01*
X80983221Y-44802304D01*
X81197696Y-45016779D01*
X81434836Y-45205892D01*
X81691659Y-45367265D01*
X81964935Y-45498868D01*
X82179951Y-45574105D01*
X82251216Y-45599042D01*
X82251228Y-45599046D01*
X82546937Y-45666540D01*
X82546946Y-45666541D01*
X82546951Y-45666542D01*
X82747874Y-45689180D01*
X82848337Y-45700499D01*
X82848340Y-45700500D01*
X82848343Y-45700500D01*
X83151660Y-45700500D01*
X83151661Y-45700499D01*
X83305694Y-45683144D01*
X83453048Y-45666542D01*
X83453051Y-45666541D01*
X83453063Y-45666540D01*
X83748772Y-45599046D01*
X84035065Y-45498868D01*
X84308341Y-45367265D01*
X84565164Y-45205892D01*
X84802304Y-45016779D01*
X85016779Y-44802304D01*
X85205892Y-44565164D01*
X85367265Y-44308341D01*
X85498868Y-44035065D01*
X85599046Y-43748772D01*
X85666540Y-43453063D01*
X85668938Y-43431785D01*
X85693915Y-43210103D01*
X85700500Y-43151657D01*
X85700500Y-42848343D01*
X85666540Y-42546937D01*
X85599046Y-42251228D01*
X85597261Y-42246128D01*
X85547600Y-42104203D01*
X85498868Y-41964935D01*
X85367265Y-41691659D01*
X85205892Y-41434836D01*
X85016779Y-41197696D01*
X84802304Y-40983221D01*
X84565164Y-40794108D01*
X84462332Y-40729494D01*
X84416041Y-40677159D01*
X84405393Y-40608106D01*
X84433768Y-40544257D01*
X84492158Y-40505885D01*
X84528304Y-40500500D01*
X91212351Y-40500500D01*
X91226024Y-40501256D01*
G37*
%TD.AperFunction*%
%TD*%
M02*
